<?xml version="1.0" encoding="us-ascii" standalone="no"?><svg xmlns="http://www.w3.org/2000/svg" xmlns:xlink="http://www.w3.org/1999/xlink" contentStyleType="text/css" height="374px" preserveAspectRatio="none" style="width:2390px;height:374px;background:#FFFFFF;" version="1.1" viewBox="0 0 2390 374" width="2390px" zoomAndPan="magnify"><defs/><g><!--class MainWindow--><g id="elem_MainWindow"><rect codeLine="1" fill="#F1F1F1" height="99.5479" id="MainWindow" rx="2.5" ry="2.5" style="stroke:#181818;stroke-width:0.5;" width="334" x="9" y="191.27"/><ellipse cx="127.75" cy="213.976" fill="#ADD1B2" rx="11" ry="11" style="stroke:#181818;stroke-width:1.0;"/><path d="M127.2188,220.8979 Q125.4688,220.8979 124.3281,220.1635 Q123.2031,219.4135 122.6406,218.0698 Q122.0938,216.7104 122.0938,214.9135 Q122.0938,212.8823 122.75,211.4291 Q123.4063,209.976 124.6875,209.1948 Q125.9688,208.4135 127.8438,208.4135 Q128.7344,208.4135 129.4063,208.601 Q130.0781,208.7729 130.7656,209.1166 L129.9531,211.1323 Q129.3281,210.8198 128.7813,210.6948 Q128.25,210.5698 127.7656,210.5698 Q126.5938,210.5698 125.8906,211.101 Q125.1875,211.6323 124.8906,212.5854 Q124.5938,213.5385 124.5938,214.8041 Q124.5938,216.8198 125.3125,217.7885 Q126.0313,218.7416 127.625,218.7416 Q128.2188,218.7416 128.8438,218.5854 Q129.4688,218.4291 130.2969,218.0541 L130.2969,220.2729 Q129.5625,220.5854 128.7656,220.7416 Q127.9844,220.8979 127.2188,220.8979 Z " fill="#000000"/><text fill="#000000" font-family="sans-serif" font-size="12" font-style="italic" lengthAdjust="spacing" textLength="48" x="168.25" y="209.0981">&#171;partial&#187;</text><text fill="#000000" font-family="sans-serif" font-size="14" lengthAdjust="spacing" textLength="88" x="148.25" y="227.58">MainWindow</text><line style="stroke:#181818;stroke-width:0.5;" x1="10" x2="342" y1="236.682" y2="236.682"/><line style="stroke:#181818;stroke-width:0.5;" x1="10" x2="342" y1="244.682" y2="244.682"/><ellipse cx="20" cy="259.716" fill="#84BE84" rx="3" ry="3" style="stroke:#038048;stroke-width:1.0;"/><text fill="#000000" font-family="sans-serif" font-size="14" lengthAdjust="spacing" textLength="96" x="29" y="263.648">MainWindow()</text><polygon fill="#FFFF44" points="20,273.7839,24,277.7839,20,281.7839,16,277.7839" style="stroke:#B38D22;stroke-width:1.0;"/><text fill="#000000" font-family="sans-serif" font-size="14" lengthAdjust="spacing" textLength="308" x="29" y="282.7159">&#171;override&#187; OnKeyDown(e:KeyEventArgs) : void</text></g><!--class Window--><g id="elem_Window"><rect fill="#F1F1F1" height="48" id="Window" rx="2.5" ry="2.5" style="stroke:#181818;stroke-width:0.5;" width="86" x="133" y="7"/><ellipse cx="148" cy="23" fill="#ADD1B2" rx="11" ry="11" style="stroke:#181818;stroke-width:1.0;"/><path d="M147.4688,29.9219 Q145.7188,29.9219 144.5781,29.1875 Q143.4531,28.4375 142.8906,27.0938 Q142.3438,25.7344 142.3438,23.9375 Q142.3438,21.9063 143,20.4531 Q143.6563,19 144.9375,18.2188 Q146.2188,17.4375 148.0938,17.4375 Q148.9844,17.4375 149.6563,17.625 Q150.3281,17.7969 151.0156,18.1406 L150.2031,20.1563 Q149.5781,19.8438 149.0313,19.7188 Q148.5,19.5938 148.0156,19.5938 Q146.8438,19.5938 146.1406,20.125 Q145.4375,20.6563 145.1406,21.6094 Q144.8438,22.5625 144.8438,23.8281 Q144.8438,25.8438 145.5625,26.8125 Q146.2813,27.7656 147.875,27.7656 Q148.4688,27.7656 149.0938,27.6094 Q149.7188,27.4531 150.5469,27.0781 L150.5469,29.2969 Q149.8125,29.6094 149.0156,29.7656 Q148.2344,29.9219 147.4688,29.9219 Z " fill="#000000"/><text fill="#000000" font-family="sans-serif" font-size="14" lengthAdjust="spacing" textLength="54" x="162" y="28.432">Window</text><line style="stroke:#181818;stroke-width:0.5;" x1="134" x2="218" y1="39" y2="39"/><line style="stroke:#181818;stroke-width:0.5;" x1="134" x2="218" y1="47" y2="47"/></g><!--class SettingsView--><g id="elem_SettingsView"><rect codeLine="1" fill="#F1F1F1" height="137.6837" id="SettingsView" rx="2.5" ry="2.5" style="stroke:#181818;stroke-width:0.5;" width="584" x="378" y="172.2"/><ellipse cx="622.75" cy="194.906" fill="#ADD1B2" rx="11" ry="11" style="stroke:#181818;stroke-width:1.0;"/><path d="M622.2188,201.8279 Q620.4688,201.8279 619.3281,201.0935 Q618.2031,200.3435 617.6406,198.9998 Q617.0938,197.6404 617.0938,195.8435 Q617.0938,193.8123 617.75,192.3591 Q618.4063,190.906 619.6875,190.1248 Q620.9688,189.3435 622.8438,189.3435 Q623.7344,189.3435 624.4063,189.531 Q625.0781,189.7029 625.7656,190.0466 L624.9531,192.0623 Q624.3281,191.7498 623.7813,191.6248 Q623.25,191.4998 622.7656,191.4998 Q621.5938,191.4998 620.8906,192.031 Q620.1875,192.5623 619.8906,193.5154 Q619.5938,194.4685 619.5938,195.7341 Q619.5938,197.7498 620.3125,198.7185 Q621.0313,199.6716 622.625,199.6716 Q623.2188,199.6716 623.8438,199.5154 Q624.4688,199.3591 625.2969,198.9841 L625.2969,201.2029 Q624.5625,201.5154 623.7656,201.6716 Q622.9844,201.8279 622.2188,201.8279 Z " fill="#000000"/><text fill="#000000" font-family="sans-serif" font-size="12" font-style="italic" lengthAdjust="spacing" textLength="48" x="662.25" y="190.0281">&#171;partial&#187;</text><text fill="#000000" font-family="sans-serif" font-size="14" lengthAdjust="spacing" textLength="86" x="643.25" y="208.51">SettingsView</text><line style="stroke:#181818;stroke-width:0.5;" x1="379" x2="961" y1="217.612" y2="217.612"/><line style="stroke:#181818;stroke-width:0.5;" x1="379" x2="961" y1="225.612" y2="225.612"/><ellipse cx="389" cy="240.646" fill="#84BE84" rx="3" ry="3" style="stroke:#038048;stroke-width:1.0;"/><text fill="#000000" font-family="sans-serif" font-size="14" lengthAdjust="spacing" textLength="94" x="398" y="244.578">SettingsView()</text><rect fill="#F24D5C" height="6" style="stroke:#C82930;stroke-width:1.0;" width="6" x="386" y="256.7139"/><text fill="#000000" font-family="sans-serif" font-size="14" lengthAdjust="spacing" textLength="136" x="398" y="263.6459">BuildOptions() : void</text><polygon fill="#FFFF44" points="389,273.7818,393,277.7818,389,281.7818,385,277.7818" style="stroke:#B38D22;stroke-width:1.0;"/><text fill="#000000" font-family="sans-serif" font-size="14" lengthAdjust="spacing" textLength="341" x="398" y="282.7138">&#171;override&#187; OnLoaded(args:RoutedEventArgs) : void</text><rect fill="#F24D5C" height="6" style="stroke:#C82930;stroke-width:1.0;" width="6" x="386" y="294.8497"/><text fill="#000000" font-family="sans-serif" font-size="14" lengthAdjust="spacing" textLength="558" x="398" y="301.7817">Close_OnPointerReleased(sender:object?, routedEventArgs:RoutedEventArgs) : void</text></g><!--class UserControl--><g id="elem_UserControl"><rect fill="#F1F1F1" height="48" id="UserControl" rx="2.5" ry="2.5" style="stroke:#181818;stroke-width:0.5;" width="112" x="1580" y="7"/><ellipse cx="1595" cy="23" fill="#ADD1B2" rx="11" ry="11" style="stroke:#181818;stroke-width:1.0;"/><path d="M1594.4688,29.9219 Q1592.7188,29.9219 1591.5781,29.1875 Q1590.4531,28.4375 1589.8906,27.0938 Q1589.3438,25.7344 1589.3438,23.9375 Q1589.3438,21.9063 1590,20.4531 Q1590.6563,19 1591.9375,18.2188 Q1593.2188,17.4375 1595.0938,17.4375 Q1595.9844,17.4375 1596.6563,17.625 Q1597.3281,17.7969 1598.0156,18.1406 L1597.2031,20.1563 Q1596.5781,19.8438 1596.0313,19.7188 Q1595.5,19.5938 1595.0156,19.5938 Q1593.8438,19.5938 1593.1406,20.125 Q1592.4375,20.6563 1592.1406,21.6094 Q1591.8438,22.5625 1591.8438,23.8281 Q1591.8438,25.8438 1592.5625,26.8125 Q1593.2813,27.7656 1594.875,27.7656 Q1595.4688,27.7656 1596.0938,27.6094 Q1596.7188,27.4531 1597.5469,27.0781 L1597.5469,29.2969 Q1596.8125,29.6094 1596.0156,29.7656 Q1595.2344,29.9219 1594.4688,29.9219 Z " fill="#000000"/><text fill="#000000" font-family="sans-serif" font-size="14" lengthAdjust="spacing" textLength="80" x="1609" y="28.432">UserControl</text><line style="stroke:#181818;stroke-width:0.5;" x1="1581" x2="1691" y1="39" y2="39"/><line style="stroke:#181818;stroke-width:0.5;" x1="1581" x2="1691" y1="47" y2="47"/></g><!--class GameView--><g id="elem_GameView"><rect codeLine="1" fill="#F1F1F1" height="252.0912" id="GameView" rx="2.5" ry="2.5" style="stroke:#181818;stroke-width:0.5;" width="634" x="997" y="115"/><ellipse cx="1274.75" cy="137.706" fill="#ADD1B2" rx="11" ry="11" style="stroke:#181818;stroke-width:1.0;"/><path d="M1274.2188,144.6279 Q1272.4688,144.6279 1271.3281,143.8935 Q1270.2031,143.1435 1269.6406,141.7998 Q1269.0938,140.4404 1269.0938,138.6435 Q1269.0938,136.6123 1269.75,135.1591 Q1270.4063,133.706 1271.6875,132.9248 Q1272.9688,132.1435 1274.8438,132.1435 Q1275.7344,132.1435 1276.4063,132.331 Q1277.0781,132.5029 1277.7656,132.8466 L1276.9531,134.8623 Q1276.3281,134.5498 1275.7813,134.4248 Q1275.25,134.2998 1274.7656,134.2998 Q1273.5938,134.2998 1272.8906,134.831 Q1272.1875,135.3623 1271.8906,136.3154 Q1271.5938,137.2685 1271.5938,138.5341 Q1271.5938,140.5498 1272.3125,141.5185 Q1273.0313,142.4716 1274.625,142.4716 Q1275.2188,142.4716 1275.8438,142.3154 Q1276.4688,142.1591 1277.2969,141.7841 L1277.2969,144.0029 Q1276.5625,144.3154 1275.7656,144.4716 Q1274.9844,144.6279 1274.2188,144.6279 Z " fill="#000000"/><text fill="#000000" font-family="sans-serif" font-size="12" font-style="italic" lengthAdjust="spacing" textLength="48" x="1306.25" y="132.8281">&#171;partial&#187;</text><text fill="#000000" font-family="sans-serif" font-size="14" lengthAdjust="spacing" textLength="70" x="1295.25" y="151.31">GameView</text><line style="stroke:#181818;stroke-width:0.5;" x1="998" x2="1630" y1="160.412" y2="160.412"/><line style="stroke:#181818;stroke-width:0.5;" x1="998" x2="1630" y1="168.412" y2="168.412"/><ellipse cx="1008" cy="183.446" fill="#84BE84" rx="3" ry="3" style="stroke:#038048;stroke-width:1.0;"/><text fill="#000000" font-family="sans-serif" font-size="14" lengthAdjust="spacing" textLength="78" x="1017" y="187.378">GameView()</text><rect fill="#F24D5C" height="6" style="stroke:#C82930;stroke-width:1.0;" width="6" x="1005" y="199.5139"/><text fill="#000000" font-family="sans-serif" font-size="14" lengthAdjust="spacing" textLength="168" x="1017" y="206.4459">RebuildLetterGrid() : void</text><rect fill="#F24D5C" height="6" style="stroke:#C82930;stroke-width:1.0;" width="6" x="1005" y="218.5818"/><text fill="#000000" font-family="sans-serif" font-size="14" lengthAdjust="spacing" textLength="164" x="1017" y="225.5138">RebuildKeyboard() : void</text><polygon fill="#FFFF44" points="1008,235.6497,1012,239.6497,1008,243.6497,1004,239.6497" style="stroke:#B38D22;stroke-width:1.0;"/><text fill="#000000" font-family="sans-serif" font-size="14" lengthAdjust="spacing" textLength="308" x="1017" y="244.5817">&#171;override&#187; OnKeyDown(e:KeyEventArgs) : void</text><rect fill="#F24D5C" height="6" style="stroke:#C82930;stroke-width:1.0;" width="6" x="1005" y="256.7177"/><text fill="#000000" font-family="sans-serif" font-size="14" lengthAdjust="spacing" textLength="284" x="1017" y="263.6496">ShowStatus(model:GameViewModel) : void</text><polygon fill="#FFFF44" points="1008,273.7856,1012,277.7856,1008,281.7856,1004,277.7856" style="stroke:#B38D22;stroke-width:1.0;"/><text fill="#000000" font-family="sans-serif" font-size="14" lengthAdjust="spacing" textLength="398" x="1017" y="282.7176">&#171;override&#187; OnSizeChanged(e:SizeChangedEventArgs) : void</text><polygon fill="#FFFF44" points="1008,292.8535,1012,296.8535,1008,300.8535,1004,296.8535" style="stroke:#B38D22;stroke-width:1.0;"/><text fill="#000000" font-family="sans-serif" font-size="14" lengthAdjust="spacing" textLength="341" x="1017" y="301.7855">&#171;override&#187; OnLoaded(args:RoutedEventArgs) : void</text><rect fill="#F24D5C" height="6" style="stroke:#C82930;stroke-width:1.0;" width="6" x="1005" y="313.9214"/><text fill="#000000" font-family="sans-serif" font-size="14" lengthAdjust="spacing" textLength="591" x="1017" y="320.8534">NewGame_OnPointerReleased(sender:object?, routedEventArgs:RoutedEventArgs) : void</text><rect fill="#F24D5C" height="6" style="stroke:#C82930;stroke-width:1.0;" width="6" x="1005" y="332.9893"/><text fill="#000000" font-family="sans-serif" font-size="14" lengthAdjust="spacing" textLength="577" x="1017" y="339.9213">Settings_OnPointerReleased(sender:object?, routedEventArgs:RoutedEventArgs) : void</text><rect fill="#F24D5C" height="6" style="stroke:#C82930;stroke-width:1.0;" width="6" x="1005" y="352.0572"/><text fill="#000000" font-family="sans-serif" font-size="14" lengthAdjust="spacing" textLength="608" x="1017" y="358.9892">Leaderboard_OnPointerReleased(sender:object?, routedEventArgs:RoutedEventArgs) : void</text></g><!--class StatsView--><g id="elem_StatsView"><rect codeLine="1" fill="#F1F1F1" height="118.6158" id="StatsView" rx="2.5" ry="2.5" style="stroke:#181818;stroke-width:0.5;" width="584" x="1666" y="181.74"/><ellipse cx="1921.75" cy="204.446" fill="#ADD1B2" rx="11" ry="11" style="stroke:#181818;stroke-width:1.0;"/><path d="M1921.2188,211.3679 Q1919.4688,211.3679 1918.3281,210.6335 Q1917.2031,209.8835 1916.6406,208.5398 Q1916.0938,207.1804 1916.0938,205.3835 Q1916.0938,203.3523 1916.75,201.8991 Q1917.4063,200.446 1918.6875,199.6648 Q1919.9688,198.8835 1921.8438,198.8835 Q1922.7344,198.8835 1923.4063,199.071 Q1924.0781,199.2429 1924.7656,199.5866 L1923.9531,201.6023 Q1923.3281,201.2898 1922.7813,201.1648 Q1922.25,201.0398 1921.7656,201.0398 Q1920.5938,201.0398 1919.8906,201.571 Q1919.1875,202.1023 1918.8906,203.0554 Q1918.5938,204.0085 1918.5938,205.2741 Q1918.5938,207.2898 1919.3125,208.2585 Q1920.0313,209.2116 1921.625,209.2116 Q1922.2188,209.2116 1922.8438,209.0554 Q1923.4688,208.8991 1924.2969,208.5241 L1924.2969,210.7429 Q1923.5625,211.0554 1922.7656,211.2116 Q1921.9844,211.3679 1921.2188,211.3679 Z " fill="#000000"/><text fill="#000000" font-family="sans-serif" font-size="12" font-style="italic" lengthAdjust="spacing" textLength="48" x="1950.25" y="199.5681">&#171;partial&#187;</text><text fill="#000000" font-family="sans-serif" font-size="14" lengthAdjust="spacing" textLength="64" x="1942.25" y="218.05">StatsView</text><line style="stroke:#181818;stroke-width:0.5;" x1="1667" x2="2249" y1="227.152" y2="227.152"/><line style="stroke:#181818;stroke-width:0.5;" x1="1667" x2="2249" y1="235.152" y2="235.152"/><ellipse cx="1677" cy="250.186" fill="#84BE84" rx="3" ry="3" style="stroke:#038048;stroke-width:1.0;"/><text fill="#000000" font-family="sans-serif" font-size="14" lengthAdjust="spacing" textLength="72" x="1686" y="254.118">StatsView()</text><rect fill="#F24D5C" height="6" style="stroke:#C82930;stroke-width:1.0;" width="6" x="1674" y="266.2539"/><text fill="#000000" font-family="sans-serif" font-size="14" lengthAdjust="spacing" textLength="184" x="1686" y="273.1859">InitializeComponent() : void</text><rect fill="#F24D5C" height="6" style="stroke:#C82930;stroke-width:1.0;" width="6" x="1674" y="285.3218"/><text fill="#000000" font-family="sans-serif" font-size="14" lengthAdjust="spacing" textLength="558" x="1686" y="292.2538">Close_OnPointerReleased(sender:object?, routedEventArgs:RoutedEventArgs) : void</text></g><!--class MainView--><g id="elem_MainView"><rect codeLine="1" fill="#F1F1F1" height="80.4799" id="MainView" rx="2.5" ry="2.5" style="stroke:#181818;stroke-width:0.5;" width="99" x="2284.5" y="200.8"/><ellipse cx="2300.4" cy="223.506" fill="#ADD1B2" rx="11" ry="11" style="stroke:#181818;stroke-width:1.0;"/><path d="M2299.8688,230.4279 Q2298.1188,230.4279 2296.9781,229.6935 Q2295.8531,228.9435 2295.2906,227.5998 Q2294.7438,226.2404 2294.7438,224.4435 Q2294.7438,222.4123 2295.4,220.9591 Q2296.0563,219.506 2297.3375,218.7248 Q2298.6188,217.9435 2300.4938,217.9435 Q2301.3844,217.9435 2302.0563,218.131 Q2302.7281,218.3029 2303.4156,218.6466 L2302.6031,220.6623 Q2301.9781,220.3498 2301.4313,220.2248 Q2300.9,220.0998 2300.4156,220.0998 Q2299.2438,220.0998 2298.5406,220.631 Q2297.8375,221.1623 2297.5406,222.1154 Q2297.2438,223.0685 2297.2438,224.3341 Q2297.2438,226.3498 2297.9625,227.3185 Q2298.6813,228.2716 2300.275,228.2716 Q2300.8688,228.2716 2301.4938,228.1154 Q2302.1188,227.9591 2302.9469,227.5841 L2302.9469,229.8029 Q2302.2125,230.1154 2301.4156,230.2716 Q2300.6344,230.4279 2299.8688,230.4279 Z " fill="#000000"/><text fill="#000000" font-family="sans-serif" font-size="12" font-style="italic" lengthAdjust="spacing" textLength="48" x="2323.1" y="218.6281">&#171;partial&#187;</text><text fill="#000000" font-family="sans-serif" font-size="14" lengthAdjust="spacing" textLength="65" x="2314.6" y="237.11">MainView</text><line style="stroke:#181818;stroke-width:0.5;" x1="2285.5" x2="2382.5" y1="246.212" y2="246.212"/><line style="stroke:#181818;stroke-width:0.5;" x1="2285.5" x2="2382.5" y1="254.212" y2="254.212"/><ellipse cx="2295.5" cy="269.246" fill="#84BE84" rx="3" ry="3" style="stroke:#038048;stroke-width:1.0;"/><text fill="#000000" font-family="sans-serif" font-size="14" lengthAdjust="spacing" textLength="73" x="2304.5" y="273.178">MainView()</text></g><!--reverse link Window to MainWindow--><g id="link_Window_MainWindow"><path codeLine="5" d="M176,75.98 C176,109.69 176,156.18 176,191.07 " fill="none" id="Window-backto-MainWindow" style="stroke:#181818;stroke-width:1.0;"/><polygon fill="none" points="169,76.46,176,56.46,183,76.46,169,76.46" style="stroke:#181818;stroke-width:1.0;"/></g><!--reverse link UserControl to SettingsView--><g id="link_UserControl_SettingsView"><path codeLine="7" d="M1558.76,35.29 C1434.71,42 1184.17,61.49 979,115 C924.54,129.2 866.87,150.66 816.28,171.81 " fill="none" id="UserControl-backto-SettingsView" style="stroke:#181818;stroke-width:1.0;"/><polygon fill="none" points="1558.37,28.25,1578.7,34.21,1559.09,42.23,1558.37,28.25" style="stroke:#181818;stroke-width:1.0;"/></g><!--reverse link UserControl to GameView--><g id="link_UserControl_GameView"><path codeLine="13" d="M1582.31,66.69 C1561.1,80.39 1535.34,97.03 1508.26,114.53 " fill="none" id="UserControl-backto-GameView" style="stroke:#181818;stroke-width:1.0;"/><polygon fill="none" points="1578.09,60.43,1598.69,55.46,1585.69,72.19,1578.09,60.43" style="stroke:#181818;stroke-width:1.0;"/></g><!--reverse link UserControl to StatsView--><g id="link_UserControl_StatsView"><path codeLine="6" d="M1689.91,66.83 C1738.25,98.06 1810.14,144.51 1867.31,181.45 " fill="none" id="UserControl-backto-StatsView" style="stroke:#181818;stroke-width:1.0;"/><polygon fill="none" points="1686.31,72.19,1673.31,55.46,1693.91,60.43,1686.31,72.19" style="stroke:#181818;stroke-width:1.0;"/></g><!--reverse link UserControl to MainView--><g id="link_UserControl_MainView"><path codeLine="4" d="M1712.86,33.5 C1860.88,37.76 2178.69,53.95 2267,115 C2296.07,135.1 2313.6,171.95 2323.4,200.47 " fill="none" id="UserControl-backto-MainView" style="stroke:#181818;stroke-width:1.0;"/><polygon fill="none" points="1713.11,40.48,1693.3,32.95,1713.48,26.49,1713.11,40.48" style="stroke:#181818;stroke-width:1.0;"/></g><!--SRC=[KypCIyufJKbLqDFtJSpC2y_CIyalrqkiICpDqIiepStXKaGe24ujASdCIoyEoqp5fSGzCJSLZtHmIM89FkqW9w190m00]--></g></svg>