<?xml version="1.0" encoding="us-ascii" standalone="no"?><svg xmlns="http://www.w3.org/2000/svg" xmlns:xlink="http://www.w3.org/1999/xlink" contentStyleType="text/css" height="265px" preserveAspectRatio="none" style="width:491px;height:265px;background:#FFFFFF;" version="1.1" viewBox="0 0 491 265" width="491px" zoomAndPan="magnify"><defs/><g><!--class Database--><g id="elem_Database"><rect codeLine="1" fill="#F1F1F1" height="143.3396" id="Database" rx="2.5" ry="2.5" style="stroke:#181818;stroke-width:0.5;" width="247" x="7" y="7"/><ellipse cx="94.75" cy="23" fill="#ADD1B2" rx="11" ry="11" style="stroke:#181818;stroke-width:1.0;"/><path d="M94.2188,29.9219 Q92.4688,29.9219 91.3281,29.1875 Q90.2031,28.4375 89.6406,27.0938 Q89.0938,25.7344 89.0938,23.9375 Q89.0938,21.9063 89.75,20.4531 Q90.4063,19 91.6875,18.2188 Q92.9688,17.4375 94.8438,17.4375 Q95.7344,17.4375 96.4063,17.625 Q97.0781,17.7969 97.7656,18.1406 L96.9531,20.1563 Q96.3281,19.8438 95.7813,19.7188 Q95.25,19.5938 94.7656,19.5938 Q93.5938,19.5938 92.8906,20.125 Q92.1875,20.6563 91.8906,21.6094 Q91.5938,22.5625 91.5938,23.8281 Q91.5938,25.8438 92.3125,26.8125 Q93.0313,27.7656 94.625,27.7656 Q95.2188,27.7656 95.8438,27.6094 Q96.4688,27.4531 97.2969,27.0781 L97.2969,29.2969 Q96.5625,29.6094 95.7656,29.7656 Q94.9844,29.9219 94.2188,29.9219 Z " fill="#000000"/><text fill="#000000" font-family="sans-serif" font-size="14" lengthAdjust="spacing" textLength="63" x="115.25" y="28.432">Database</text><line style="stroke:#181818;stroke-width:0.5;" x1="8" x2="253" y1="39" y2="39"/><rect fill="none" height="6" style="stroke:#C82930;stroke-width:1.0;" width="6" x="15" y="51.034"/><text fill="#000000" font-family="sans-serif" font-size="14" lengthAdjust="spacing" text-decoration="underline" textLength="186" x="27" y="57.9659">_instance : Database? = null</text><line style="stroke:#181818;stroke-width:0.5;" x1="8" x2="253" y1="66.0679" y2="66.0679"/><ellipse cx="18" cy="81.1019" fill="#84BE84" rx="3" ry="3" style="stroke:#038048;stroke-width:1.0;"/><text fill="#000000" font-family="sans-serif" font-size="14" lengthAdjust="spacing" textLength="71" x="27" y="85.0339">Database()</text><ellipse cx="18" cy="100.1698" fill="#84BE84" rx="3" ry="3" style="stroke:#038048;stroke-width:1.0;"/><text fill="#000000" font-family="sans-serif" font-size="14" lengthAdjust="spacing" text-decoration="underline" textLength="164" x="27" y="104.1018">GetInstance() : Database</text><ellipse cx="18" cy="119.2377" fill="#84BE84" rx="3" ry="3" style="stroke:#038048;stroke-width:1.0;"/><text fill="#000000" font-family="sans-serif" font-size="14" lengthAdjust="spacing" textLength="136" x="27" y="123.1697">GetStats() : PlayStats</text><ellipse cx="18" cy="138.3056" fill="#84BE84" rx="3" ry="3" style="stroke:#038048;stroke-width:1.0;"/><text fill="#000000" font-family="sans-serif" font-size="14" lengthAdjust="spacing" textLength="221" x="27" y="142.2376">SavePlay(game:PlayedGame) : int</text></g><!--class SQLiteConnection--><g id="elem_SQLiteConnection"><rect fill="#F1F1F1" height="48" id="SQLiteConnection" rx="2.5" ry="2.5" style="stroke:#181818;stroke-width:0.5;" width="151" x="55" y="210.34"/><ellipse cx="70" cy="226.34" fill="#ADD1B2" rx="11" ry="11" style="stroke:#181818;stroke-width:1.0;"/><path d="M69.4688,233.2619 Q67.7188,233.2619 66.5781,232.5275 Q65.4531,231.7775 64.8906,230.4338 Q64.3438,229.0744 64.3438,227.2775 Q64.3438,225.2463 65,223.7931 Q65.6563,222.34 66.9375,221.5588 Q68.2188,220.7775 70.0938,220.7775 Q70.9844,220.7775 71.6563,220.965 Q72.3281,221.1369 73.0156,221.4806 L72.2031,223.4963 Q71.5781,223.1838 71.0313,223.0588 Q70.5,222.9338 70.0156,222.9338 Q68.8438,222.9338 68.1406,223.465 Q67.4375,223.9963 67.1406,224.9494 Q66.8438,225.9025 66.8438,227.1681 Q66.8438,229.1838 67.5625,230.1525 Q68.2813,231.1056 69.875,231.1056 Q70.4688,231.1056 71.0938,230.9494 Q71.7188,230.7931 72.5469,230.4181 L72.5469,232.6369 Q71.8125,232.9494 71.0156,233.1056 Q70.2344,233.2619 69.4688,233.2619 Z " fill="#000000"/><text fill="#000000" font-family="sans-serif" font-size="14" lengthAdjust="spacing" textLength="119" x="84" y="231.772">SQLiteConnection</text><line style="stroke:#181818;stroke-width:0.5;" x1="56" x2="205" y1="242.34" y2="242.34"/><line style="stroke:#181818;stroke-width:0.5;" x1="56" x2="205" y1="250.34" y2="250.34"/></g><!--class PlayedGame--><g id="elem_PlayedGame"><rect codeLine="1" fill="#F1F1F1" height="124.2717" id="PlayedGame" rx="2.5" ry="2.5" style="stroke:#181818;stroke-width:0.5;" width="195" x="289" y="16.53"/><ellipse cx="340.75" cy="32.53" fill="#ADD1B2" rx="11" ry="11" style="stroke:#181818;stroke-width:1.0;"/><path d="M340.2188,39.4519 Q338.4688,39.4519 337.3281,38.7175 Q336.2031,37.9675 335.6406,36.6238 Q335.0938,35.2644 335.0938,33.4675 Q335.0938,31.4363 335.75,29.9831 Q336.4063,28.53 337.6875,27.7488 Q338.9688,26.9675 340.8438,26.9675 Q341.7344,26.9675 342.4063,27.155 Q343.0781,27.3269 343.7656,27.6706 L342.9531,29.6863 Q342.3281,29.3738 341.7813,29.2488 Q341.25,29.1238 340.7656,29.1238 Q339.5938,29.1238 338.8906,29.655 Q338.1875,30.1863 337.8906,31.1394 Q337.5938,32.0925 337.5938,33.3581 Q337.5938,35.3738 338.3125,36.3425 Q339.0313,37.2956 340.625,37.2956 Q341.2188,37.2956 341.8438,37.1394 Q342.4688,36.9831 343.2969,36.6081 L343.2969,38.8269 Q342.5625,39.1394 341.7656,39.2956 Q340.9844,39.4519 340.2188,39.4519 Z " fill="#000000"/><text fill="#000000" font-family="sans-serif" font-size="14" lengthAdjust="spacing" textLength="83" x="361.25" y="37.962">PlayedGame</text><line style="stroke:#181818;stroke-width:0.5;" x1="290" x2="483" y1="48.53" y2="48.53"/><ellipse cx="300" cy="63.564" fill="none" rx="3" ry="3" style="stroke:#038048;stroke-width:1.0;"/><text fill="#000000" font-family="sans-serif" font-size="14" lengthAdjust="spacing" textLength="147" x="309" y="67.4959">ID : int &#171;get&#187; &#171;set&#187; = 0</text><ellipse cx="300" cy="82.6319" fill="none" rx="3" ry="3" style="stroke:#038048;stroke-width:1.0;"/><text fill="#000000" font-family="sans-serif" font-size="14" lengthAdjust="spacing" textLength="166" x="309" y="86.5639">Word : string &#171;get&#187; &#171;set&#187;</text><ellipse cx="300" cy="101.6998" fill="none" rx="3" ry="3" style="stroke:#038048;stroke-width:1.0;"/><text fill="#000000" font-family="sans-serif" font-size="14" lengthAdjust="spacing" textLength="169" x="309" y="105.6318">Attempts : int &#171;get&#187; &#171;set&#187;</text><ellipse cx="300" cy="120.7677" fill="none" rx="3" ry="3" style="stroke:#038048;stroke-width:1.0;"/><text fill="#000000" font-family="sans-serif" font-size="14" lengthAdjust="spacing" textLength="164" x="309" y="124.6997">Victory : bool &#171;get&#187; &#171;set&#187;</text><line style="stroke:#181818;stroke-width:0.5;" x1="290" x2="483" y1="132.8017" y2="132.8017"/></g><!--link Database to SQLiteConnection--><g id="link_Database_SQLiteConnection"><path codeLine="8" d="M130.5,150.66 C130.5,169.54 130.5,188.9 130.5,204.13 " fill="none" id="Database-to-SQLiteConnection" style="stroke:#181818;stroke-width:1.0;"/><polygon fill="#181818" points="130.5,208.97,134.5,199.97,130.5,203.97,126.5,199.97,130.5,208.97" style="stroke:#181818;stroke-width:1.0;"/><text fill="#000000" font-family="sans-serif" font-size="13" lengthAdjust="spacing" textLength="61" x="61.6844" y="198.5345">_database</text></g><!--SRC=[KypCIyufJKbLqDDtIIn9J4eiJjKhACtDuL94I0Ja95QcfhWdvaAa0000]--></g></svg>