<?xml version="1.0" encoding="UTF-8" standalone="no"?><svg xmlns="http://www.w3.org/2000/svg" xmlns:xlink="http://www.w3.org/1999/xlink" contentStyleType="text/css" height="539px" preserveAspectRatio="none" style="width:1074px;height:539px;background:#FFFFFF;" version="1.1" viewBox="0 0 1074 539" width="1074px" zoomAndPan="magnify"><defs/><g><!--class MainWindowViewModel--><g id="elem_MainWindowViewModel"><rect codeLine="1" fill="#F1F1F1" height="105.2038" id="MainWindowViewModel" rx="2.5" ry="2.5" style="stroke:#181818;stroke-width:0.5;" width="308" x="7" y="271"/><ellipse cx="76.25" cy="287" fill="#ADD1B2" rx="11" ry="11" style="stroke:#181818;stroke-width:1.0;"/><path d="M75.7188,293.9219 Q73.9688,293.9219 72.8281,293.1875 Q71.7031,292.4375 71.1406,291.0938 Q70.5938,289.7344 70.5938,287.9375 Q70.5938,285.9063 71.25,284.4531 Q71.9063,283 73.1875,282.2188 Q74.4688,281.4375 76.3438,281.4375 Q77.2344,281.4375 77.9063,281.625 Q78.5781,281.7969 79.2656,282.1406 L78.4531,284.1563 Q77.8281,283.8438 77.2813,283.7188 Q76.75,283.5938 76.2656,283.5938 Q75.0938,283.5938 74.3906,284.125 Q73.6875,284.6563 73.3906,285.6094 Q73.0938,286.5625 73.0938,287.8281 Q73.0938,289.8438 73.8125,290.8125 Q74.5313,291.7656 76.125,291.7656 Q76.7188,291.7656 77.3438,291.6094 Q77.9688,291.4531 78.7969,291.0781 L78.7969,293.2969 Q78.0625,293.6094 77.2656,293.7656 Q76.4844,293.9219 75.7188,293.9219 Z " fill="#000000"/><text fill="#000000" font-family="sans-serif" font-size="14" lengthAdjust="spacing" textLength="161" x="96.75" y="292.432">MainWindowViewModel</text><line style="stroke:#181818;stroke-width:0.5;" x1="8" x2="314" y1="303" y2="303"/><line style="stroke:#181818;stroke-width:0.5;" x1="8" x2="314" y1="311" y2="311"/><ellipse cx="18" cy="326.034" fill="#84BE84" rx="3" ry="3" style="stroke:#038048;stroke-width:1.0;"/><text fill="#000000" font-family="sans-serif" font-size="14" lengthAdjust="spacing" textLength="282" x="27" y="329.9659">MainWindowViewModel(settings:Settings)</text><ellipse cx="18" cy="345.1019" fill="#84BE84" rx="3" ry="3" style="stroke:#038048;stroke-width:1.0;"/><text fill="#000000" font-family="sans-serif" font-size="14" lengthAdjust="spacing" textLength="140" x="27" y="349.0339">OpenSettings() : void</text><ellipse cx="18" cy="364.1698" fill="#84BE84" rx="3" ry="3" style="stroke:#038048;stroke-width:1.0;"/><text fill="#000000" font-family="sans-serif" font-size="14" lengthAdjust="spacing" textLength="139" x="27" y="368.1018">CloseSettings() : void</text></g><!--class ViewModelBase--><g id="elem_ViewModelBase"><rect codeLine="1" fill="#F1F1F1" height="48" id="ViewModelBase" rx="2.5" ry="2.5" style="stroke:#181818;stroke-width:0.5;" width="137" x="92.5" y="115"/><ellipse cx="107.5" cy="131" fill="#ADD1B2" rx="11" ry="11" style="stroke:#181818;stroke-width:1.0;"/><path d="M106.9688,137.9219 Q105.2188,137.9219 104.0781,137.1875 Q102.9531,136.4375 102.3906,135.0938 Q101.8438,133.7344 101.8438,131.9375 Q101.8438,129.9063 102.5,128.4531 Q103.1563,127 104.4375,126.2188 Q105.7188,125.4375 107.5938,125.4375 Q108.4844,125.4375 109.1563,125.625 Q109.8281,125.7969 110.5156,126.1406 L109.7031,128.1563 Q109.0781,127.8438 108.5313,127.7188 Q108,127.5938 107.5156,127.5938 Q106.3438,127.5938 105.6406,128.125 Q104.9375,128.6563 104.6406,129.6094 Q104.3438,130.5625 104.3438,131.8281 Q104.3438,133.8438 105.0625,134.8125 Q105.7813,135.7656 107.375,135.7656 Q107.9688,135.7656 108.5938,135.6094 Q109.2188,135.4531 110.0469,135.0781 L110.0469,137.2969 Q109.3125,137.6094 108.5156,137.7656 Q107.7344,137.9219 106.9688,137.9219 Z " fill="#000000"/><text fill="#000000" font-family="sans-serif" font-size="14" lengthAdjust="spacing" textLength="105" x="121.5" y="136.432">ViewModelBase</text><line style="stroke:#181818;stroke-width:0.5;" x1="93.5" x2="228.5" y1="147" y2="147"/><line style="stroke:#181818;stroke-width:0.5;" x1="93.5" x2="228.5" y1="155" y2="155"/></g><!--class SettingsViewModel--><g id="elem_SettingsViewModel"><rect codeLine="1" fill="#F1F1F1" height="86.1358" id="SettingsViewModel" rx="2.5" ry="2.5" style="stroke:#181818;stroke-width:0.5;" width="275" x="792.5" y="280.5"/><ellipse cx="861.75" cy="296.5" fill="#ADD1B2" rx="11" ry="11" style="stroke:#181818;stroke-width:1.0;"/><path d="M861.2188,303.4219 Q859.4688,303.4219 858.3281,302.6875 Q857.2031,301.9375 856.6406,300.5938 Q856.0938,299.2344 856.0938,297.4375 Q856.0938,295.4063 856.75,293.9531 Q857.4063,292.5 858.6875,291.7188 Q859.9688,290.9375 861.8438,290.9375 Q862.7344,290.9375 863.4063,291.125 Q864.0781,291.2969 864.7656,291.6406 L863.9531,293.6563 Q863.3281,293.3438 862.7813,293.2188 Q862.25,293.0938 861.7656,293.0938 Q860.5938,293.0938 859.8906,293.625 Q859.1875,294.1563 858.8906,295.1094 Q858.5938,296.0625 858.5938,297.3281 Q858.5938,299.3438 859.3125,300.3125 Q860.0313,301.2656 861.625,301.2656 Q862.2188,301.2656 862.8438,301.1094 Q863.4688,300.9531 864.2969,300.5781 L864.2969,302.7969 Q863.5625,303.1094 862.7656,303.2656 Q861.9844,303.4219 861.2188,303.4219 Z " fill="#000000"/><text fill="#000000" font-family="sans-serif" font-size="14" lengthAdjust="spacing" textLength="128" x="882.25" y="301.932">SettingsViewModel</text><line style="stroke:#181818;stroke-width:0.5;" x1="793.5" x2="1066.5" y1="312.5" y2="312.5"/><line style="stroke:#181818;stroke-width:0.5;" x1="793.5" x2="1066.5" y1="320.5" y2="320.5"/><ellipse cx="803.5" cy="335.534" fill="#84BE84" rx="3" ry="3" style="stroke:#038048;stroke-width:1.0;"/><text fill="#000000" font-family="sans-serif" font-size="14" lengthAdjust="spacing" textLength="136" x="812.5" y="339.4659">SettingsViewModel()</text><ellipse cx="803.5" cy="354.6019" fill="#84BE84" rx="3" ry="3" style="stroke:#038048;stroke-width:1.0;"/><text fill="#000000" font-family="sans-serif" font-size="14" lengthAdjust="spacing" textLength="249" x="812.5" y="358.5339">SettingsViewModel(settings:Settings)</text></g><!--class Settings--><g id="elem_Settings"><rect fill="#F1F1F1" height="48" id="Settings" rx="2.5" ry="2.5" style="stroke:#181818;stroke-width:0.5;" width="87" x="886.5" y="484"/><ellipse cx="901.5" cy="500" fill="#ADD1B2" rx="11" ry="11" style="stroke:#181818;stroke-width:1.0;"/><path d="M900.9688,506.9219 Q899.2188,506.9219 898.0781,506.1875 Q896.9531,505.4375 896.3906,504.0938 Q895.8438,502.7344 895.8438,500.9375 Q895.8438,498.9063 896.5,497.4531 Q897.1563,496 898.4375,495.2188 Q899.7188,494.4375 901.5938,494.4375 Q902.4844,494.4375 903.1563,494.625 Q903.8281,494.7969 904.5156,495.1406 L903.7031,497.1563 Q903.0781,496.8438 902.5313,496.7188 Q902,496.5938 901.5156,496.5938 Q900.3438,496.5938 899.6406,497.125 Q898.9375,497.6563 898.6406,498.6094 Q898.3438,499.5625 898.3438,500.8281 Q898.3438,502.8438 899.0625,503.8125 Q899.7813,504.7656 901.375,504.7656 Q901.9688,504.7656 902.5938,504.6094 Q903.2188,504.4531 904.0469,504.0781 L904.0469,506.2969 Q903.3125,506.6094 902.5156,506.7656 Q901.7344,506.9219 900.9688,506.9219 Z " fill="#000000"/><text fill="#000000" font-family="sans-serif" font-size="14" lengthAdjust="spacing" textLength="55" x="915.5" y="505.432">Settings</text><line style="stroke:#181818;stroke-width:0.5;" x1="887.5" x2="972.5" y1="516" y2="516"/><line style="stroke:#181818;stroke-width:0.5;" x1="887.5" x2="972.5" y1="524" y2="524"/></g><!--class GameViewModel--><g id="elem_GameViewModel"><rect codeLine="1" fill="#F1F1F1" height="200.5433" id="GameViewModel" rx="2.5" ry="2.5" style="stroke:#181818;stroke-width:0.5;" width="259" x="350.5" y="223"/><ellipse cx="419.75" cy="239" fill="#ADD1B2" rx="11" ry="11" style="stroke:#181818;stroke-width:1.0;"/><path d="M419.2188,245.9219 Q417.4688,245.9219 416.3281,245.1875 Q415.2031,244.4375 414.6406,243.0938 Q414.0938,241.7344 414.0938,239.9375 Q414.0938,237.9063 414.75,236.4531 Q415.4063,235 416.6875,234.2188 Q417.9688,233.4375 419.8438,233.4375 Q420.7344,233.4375 421.4063,233.625 Q422.0781,233.7969 422.7656,234.1406 L421.9531,236.1563 Q421.3281,235.8438 420.7813,235.7188 Q420.25,235.5938 419.7656,235.5938 Q418.5938,235.5938 417.8906,236.125 Q417.1875,236.6563 416.8906,237.6094 Q416.5938,238.5625 416.5938,239.8281 Q416.5938,241.8438 417.3125,242.8125 Q418.0313,243.7656 419.625,243.7656 Q420.2188,243.7656 420.8438,243.6094 Q421.4688,243.4531 422.2969,243.0781 L422.2969,245.2969 Q421.5625,245.6094 420.7656,245.7656 Q419.9844,245.9219 419.2188,245.9219 Z " fill="#000000"/><text fill="#000000" font-family="sans-serif" font-size="14" lengthAdjust="spacing" textLength="112" x="440.25" y="244.432">GameViewModel</text><line style="stroke:#181818;stroke-width:0.5;" x1="351.5" x2="608.5" y1="255" y2="255"/><ellipse cx="361.5" cy="270.034" fill="none" rx="3" ry="3" style="stroke:#038048;stroke-width:1.0;"/><text fill="#000000" font-family="sans-serif" font-size="14" lengthAdjust="spacing" textLength="232" x="370.5" y="273.9659">CurrentAnswer : string «get» «set»</text><ellipse cx="361.5" cy="289.1019" fill="none" rx="3" ry="3" style="stroke:#038048;stroke-width:1.0;"/><text fill="#000000" font-family="sans-serif" font-size="14" lengthAdjust="spacing" textLength="181" x="370.5" y="293.0339">CurrentTry : int «get» «set»</text><line style="stroke:#181818;stroke-width:0.5;" x1="351.5" x2="608.5" y1="301.1358" y2="301.1358"/><ellipse cx="361.5" cy="316.1698" fill="#84BE84" rx="3" ry="3" style="stroke:#038048;stroke-width:1.0;"/><text fill="#000000" font-family="sans-serif" font-size="14" lengthAdjust="spacing" textLength="120" x="370.5" y="320.1018">GameViewModel()</text><ellipse cx="361.5" cy="335.2377" fill="#84BE84" rx="3" ry="3" style="stroke:#038048;stroke-width:1.0;"/><text fill="#000000" font-family="sans-serif" font-size="14" lengthAdjust="spacing" textLength="233" x="370.5" y="339.1697">GameViewModel(settings:Settings)</text><ellipse cx="361.5" cy="354.3056" fill="#84BE84" rx="3" ry="3" style="stroke:#038048;stroke-width:1.0;"/><text fill="#000000" font-family="sans-serif" font-size="14" lengthAdjust="spacing" textLength="149" x="370.5" y="358.2376">StartNewGame() : void</text><ellipse cx="361.5" cy="373.3735" fill="#84BE84" rx="3" ry="3" style="stroke:#038048;stroke-width:1.0;"/><text fill="#000000" font-family="sans-serif" font-size="14" lengthAdjust="spacing" textLength="193" x="370.5" y="377.3055">EnterLetter(letter:char) : void</text><ellipse cx="361.5" cy="392.4415" fill="#84BE84" rx="3" ry="3" style="stroke:#038048;stroke-width:1.0;"/><text fill="#000000" font-family="sans-serif" font-size="14" lengthAdjust="spacing" textLength="140" x="370.5" y="396.3734">RemoveLetter() : void</text><ellipse cx="361.5" cy="411.5094" fill="#84BE84" rx="3" ry="3" style="stroke:#038048;stroke-width:1.0;"/><text fill="#000000" font-family="sans-serif" font-size="14" lengthAdjust="spacing" textLength="152" x="370.5" y="415.4414">ConfirmAnswer() : void</text></g><!--class GameState--><g id="elem_GameState"><rect fill="#F1F1F1" height="48" id="GameState" rx="2.5" ry="2.5" style="stroke:#181818;stroke-width:0.5;" width="105" x="427.5" y="484"/><ellipse cx="442.5" cy="500" fill="#ADD1B2" rx="11" ry="11" style="stroke:#181818;stroke-width:1.0;"/><path d="M441.9688,506.9219 Q440.2188,506.9219 439.0781,506.1875 Q437.9531,505.4375 437.3906,504.0938 Q436.8438,502.7344 436.8438,500.9375 Q436.8438,498.9063 437.5,497.4531 Q438.1563,496 439.4375,495.2188 Q440.7188,494.4375 442.5938,494.4375 Q443.4844,494.4375 444.1563,494.625 Q444.8281,494.7969 445.5156,495.1406 L444.7031,497.1563 Q444.0781,496.8438 443.5313,496.7188 Q443,496.5938 442.5156,496.5938 Q441.3438,496.5938 440.6406,497.125 Q439.9375,497.6563 439.6406,498.6094 Q439.3438,499.5625 439.3438,500.8281 Q439.3438,502.8438 440.0625,503.8125 Q440.7813,504.7656 442.375,504.7656 Q442.9688,504.7656 443.5938,504.6094 Q444.2188,504.4531 445.0469,504.0781 L445.0469,506.2969 Q444.3125,506.6094 443.5156,506.7656 Q442.7344,506.9219 441.9688,506.9219 Z " fill="#000000"/><text fill="#000000" font-family="sans-serif" font-size="14" lengthAdjust="spacing" textLength="73" x="456.5" y="505.432">GameState</text><line style="stroke:#181818;stroke-width:0.5;" x1="428.5" x2="531.5" y1="516" y2="516"/><line style="stroke:#181818;stroke-width:0.5;" x1="428.5" x2="531.5" y1="524" y2="524"/></g><!--class GameStatus--><g id="elem_GameStatus"><rect fill="#F1F1F1" height="48" id="GameStatus" rx="2.5" ry="2.5" style="stroke:#181818;stroke-width:0.5;" width="113" x="644.5" y="299.5"/><ellipse cx="659.5" cy="315.5" fill="#ADD1B2" rx="11" ry="11" style="stroke:#181818;stroke-width:1.0;"/><path d="M658.9688,322.4219 Q657.2188,322.4219 656.0781,321.6875 Q654.9531,320.9375 654.3906,319.5938 Q653.8438,318.2344 653.8438,316.4375 Q653.8438,314.4063 654.5,312.9531 Q655.1563,311.5 656.4375,310.7188 Q657.7188,309.9375 659.5938,309.9375 Q660.4844,309.9375 661.1563,310.125 Q661.8281,310.2969 662.5156,310.6406 L661.7031,312.6563 Q661.0781,312.3438 660.5313,312.2188 Q660,312.0938 659.5156,312.0938 Q658.3438,312.0938 657.6406,312.625 Q656.9375,313.1563 656.6406,314.1094 Q656.3438,315.0625 656.3438,316.3281 Q656.3438,318.3438 657.0625,319.3125 Q657.7813,320.2656 659.375,320.2656 Q659.9688,320.2656 660.5938,320.1094 Q661.2188,319.9531 662.0469,319.5781 L662.0469,321.7969 Q661.3125,322.1094 660.5156,322.2656 Q659.7344,322.4219 658.9688,322.4219 Z " fill="#000000"/><text fill="#000000" font-family="sans-serif" font-size="14" lengthAdjust="spacing" textLength="81" x="673.5" y="320.932">GameStatus</text><line style="stroke:#181818;stroke-width:0.5;" x1="645.5" x2="756.5" y1="331.5" y2="331.5"/><line style="stroke:#181818;stroke-width:0.5;" x1="645.5" x2="756.5" y1="339.5" y2="339.5"/></g><!--class ReactiveObject--><g id="elem_ReactiveObject"><rect fill="#F1F1F1" height="48" id="ReactiveObject" rx="2.5" ry="2.5" style="stroke:#181818;stroke-width:0.5;" width="132" x="95" y="7"/><ellipse cx="110" cy="23" fill="#ADD1B2" rx="11" ry="11" style="stroke:#181818;stroke-width:1.0;"/><path d="M109.4688,29.9219 Q107.7188,29.9219 106.5781,29.1875 Q105.4531,28.4375 104.8906,27.0938 Q104.3438,25.7344 104.3438,23.9375 Q104.3438,21.9063 105,20.4531 Q105.6563,19 106.9375,18.2188 Q108.2188,17.4375 110.0938,17.4375 Q110.9844,17.4375 111.6563,17.625 Q112.3281,17.7969 113.0156,18.1406 L112.2031,20.1563 Q111.5781,19.8438 111.0313,19.7188 Q110.5,19.5938 110.0156,19.5938 Q108.8438,19.5938 108.1406,20.125 Q107.4375,20.6563 107.1406,21.6094 Q106.8438,22.5625 106.8438,23.8281 Q106.8438,25.8438 107.5625,26.8125 Q108.2813,27.7656 109.875,27.7656 Q110.4688,27.7656 111.0938,27.6094 Q111.7188,27.4531 112.5469,27.0781 L112.5469,29.2969 Q111.8125,29.6094 111.0156,29.7656 Q110.2344,29.9219 109.4688,29.9219 Z " fill="#000000"/><text fill="#000000" font-family="sans-serif" font-size="14" lengthAdjust="spacing" textLength="100" x="124" y="28.432">ReactiveObject</text><line style="stroke:#181818;stroke-width:0.5;" x1="96" x2="226" y1="39" y2="39"/><line style="stroke:#181818;stroke-width:0.5;" x1="96" x2="226" y1="47" y2="47"/></g><!--reverse link ViewModelBase to MainWindowViewModel--><g id="link_ViewModelBase_MainWindowViewModel"><path codeLine="6" d="M138.13,184.27 C134.01,210.34 133.66,243.46 137.07,270.74 " fill="none" id="ViewModelBase-backto-MainWindowViewModel" style="stroke:#181818;stroke-width:1.0;"/><polygon fill="none" points="131.24,182.98,142.39,164.96,144.91,186,131.24,182.98" style="stroke:#181818;stroke-width:1.0;"/></g><!--link MainWindowViewModel to ViewModelBase--><g id="link_MainWindowViewModel_ViewModelBase"><path codeLine="7" d="M161,270.74 C161,238.09 161,197.07 161,169.77 " fill="none" id="MainWindowViewModel-to-ViewModelBase" style="stroke:#181818;stroke-width:1.0;"/><polygon fill="#181818" points="161,165,157,174,161,170,165,174,161,165" style="stroke:#181818;stroke-width:1.0;"/><text fill="#000000" font-family="sans-serif" font-size="13" lengthAdjust="spacing" textLength="53" x="101.8719" y="185.0976">_content</text></g><!--link MainWindowViewModel to ViewModelBase--><g id="link_MainWindowViewModel_ViewModelBase"><path codeLine="8" d="M184.93,270.74 C189.03,237.95 187.69,196.72 180.92,169.43 " fill="none" id="MainWindowViewModel-to-ViewModelBase-1" style="stroke:#181818;stroke-width:1.0;"/><polygon fill="#181818" points="179.69,164.94,178.2209,174.6787,181.0164,169.7608,185.9343,172.5564,179.69,164.94" style="stroke:#181818;stroke-width:1.0;"/><text fill="#000000" font-family="sans-serif" font-size="13" lengthAdjust="spacing" textLength="49" x="189.1852" y="185.0976">Content</text></g><!--reverse link ViewModelBase to SettingsViewModel--><g id="link_ViewModelBase_SettingsViewModel"><path codeLine="5" d="M250.88,140.09 C373.17,142.88 597.1,157.55 775,223 C811.46,236.41 848.23,259.51 876.8,280.07 " fill="none" id="ViewModelBase-backto-SettingsViewModel" style="stroke:#181818;stroke-width:1.0;"/><polygon fill="none" points="251.01,147.09,231.14,139.73,251.27,133.1,251.01,147.09" style="stroke:#181818;stroke-width:1.0;"/></g><!--link SettingsViewModel to Settings--><g id="link_SettingsViewModel_Settings"><path codeLine="6" d="M919.04,366.83 C916.29,400.74 916.71,447.46 920.31,477.45 " fill="none" id="SettingsViewModel-to-Settings" style="stroke:#181818;stroke-width:1.0;"/><polygon fill="#181818" points="920.93,482.08,923.7126,472.6324,920.2729,477.1234,915.782,473.6837,920.93,482.08" style="stroke:#181818;stroke-width:1.0;"/><text fill="#000000" font-family="sans-serif" font-size="13" lengthAdjust="spacing" textLength="54" x="857.9383" y="472.1317">_settings</text></g><!--link SettingsViewModel to Settings--><g id="link_SettingsViewModel_Settings"><path codeLine="7" d="M941.6,366.83 C944.52,400.74 944.07,447.46 940.26,477.45 " fill="none" id="SettingsViewModel-to-Settings-1" style="stroke:#181818;stroke-width:1.0;"/><polygon fill="#181818" points="939.61,482.09,944.8291,473.7377,940.3091,477.1391,936.9077,472.6191,939.61,482.09" style="stroke:#181818;stroke-width:1.0;"/><text fill="#000000" font-family="sans-serif" font-size="13" lengthAdjust="spacing" textLength="49" x="948.0743" y="472.1317">Settings</text></g><!--reverse link ViewModelBase to GameViewModel--><g id="link_ViewModelBase_GameViewModel"><path codeLine="11" d="M233.43,172.41 C264.32,186.93 300.44,204.85 332,223 C338.04,226.47 344.16,230.1 350.3,233.84 " fill="none" id="ViewModelBase-backto-GameViewModel" style="stroke:#181818;stroke-width:1.0;"/><polygon fill="none" points="230.56,178.79,215.37,164.03,236.45,166.09,230.56,178.79" style="stroke:#181818;stroke-width:1.0;"/></g><!--link GameViewModel to GameState--><g id="link_GameViewModel_GameState"><path codeLine="12" d="M467.3,424.29 C467.53,443.81 468.54,462.8 470.33,477.65 " fill="none" id="GameViewModel-to-GameState" style="stroke:#181818;stroke-width:1.0;"/><polygon fill="#181818" points="470.95,482.25,473.7326,472.8024,470.2929,477.2934,465.802,473.8537,470.95,482.25" style="stroke:#181818;stroke-width:1.0;"/><text fill="#000000" font-family="sans-serif" font-size="13" lengthAdjust="spacing" textLength="36" x="428.2697" y="472.3453">_state</text></g><!--link GameViewModel to GameState--><g id="link_GameViewModel_GameState"><path codeLine="14" d="M493.45,424.29 C493.21,443.81 492.13,462.8 490.23,477.65 " fill="none" id="GameViewModel-to-GameState-1" style="stroke:#181818;stroke-width:1.0;"/><polygon fill="#181818" points="489.58,482.25,494.7991,473.8977,490.2791,477.2991,486.8777,472.7791,489.58,482.25" style="stroke:#181818;stroke-width:1.0;"/><text fill="#000000" font-family="sans-serif" font-size="13" lengthAdjust="spacing" textLength="31" x="495.7429" y="472.3453">State</text></g><!--link GameViewModel to GameStatus--><g id="link_GameViewModel_GameStatus"><path codeLine="13" d="M622.778,392.3883 C622.778,392.3883 655.53,374.34 671.49,358.38 " fill="none" id="GameViewModel-GameStatus" style="stroke:#181818;stroke-width:1.0;"/><polygon fill="none" points="611.36,396.08,618.2996,398.0401,622.778,392.3883,615.8384,390.4281,611.36,396.08" style="stroke:#181818;stroke-width:1.0;"/><polygon fill="#181818" points="680.39,348.93,671.306,352.7355,676.9604,352.5684,677.1275,358.2228,680.39,348.93" style="stroke:#181818;stroke-width:1.0;"/><line style="stroke:#181818;stroke-width:1.0;" x1="676.9604" x2="671.48" y1="352.5684" y2="358.39"/><text fill="#000000" font-family="sans-serif" font-size="13" lengthAdjust="spacing" textLength="43" x="628.9326" y="369.4006">_status</text></g><!--link GameViewModel to GameStatus--><g id="link_GameViewModel_GameStatus"><path codeLine="15" d="M609.92,250.45 C632.36,255.84 654.8,270.54 677.24,294.57 " fill="none" id="GameViewModel-to-GameStatus" style="stroke:#181818;stroke-width:1.0;"/><polygon fill="#181818" points="680.41,298.05,677.3247,288.6969,677.0502,294.3471,671.4,294.0726,680.41,298.05" style="stroke:#181818;stroke-width:1.0;"/><text fill="#000000" font-family="sans-serif" font-size="13" lengthAdjust="spacing" textLength="38" x="633.5464" y="287.7448">Status</text></g><!--reverse link ReactiveObject to ViewModelBase--><g id="link_ReactiveObject_ViewModelBase"><path codeLine="3" d="M161,76.72 C161,89.82 161,103.62 161,114.79 " fill="none" id="ReactiveObject-backto-ViewModelBase" style="stroke:#181818;stroke-width:1.0;"/><polygon fill="none" points="154,76.78,161,56.78,168,76.78,154,76.78" style="stroke:#181818;stroke-width:1.0;"/></g><!--SRC=[KypCIyufJKbLqDFtJSpC2y_CIyal3yjCBVVDJqdDqIiepStXKaIe2KujASdCIo_6hS8zCJSLjonSnYcnE1Ki2m00]--></g></svg>