<?xml version="1.0" encoding="UTF-8" standalone="no"?><svg xmlns="http://www.w3.org/2000/svg" xmlns:xlink="http://www.w3.org/1999/xlink" contentStyleType="text/css" height="462px" preserveAspectRatio="none" style="width:1171px;height:462px;background:#FFFFFF;" version="1.1" viewBox="0 0 1171 462" width="1171px" zoomAndPan="magnify"><defs/><g><!--class AnswerViewModel--><g id="elem_AnswerViewModel"><rect codeLine="1" fill="#F1F1F1" height="124.2717" id="AnswerViewModel" rx="2.5" ry="2.5" style="stroke:#181818;stroke-width:0.5;" width="209" x="661" y="223"/><ellipse cx="700.3" cy="239" fill="#ADD1B2" rx="11" ry="11" style="stroke:#181818;stroke-width:1.0;"/><path d="M699.7688,245.9219 Q698.0188,245.9219 696.8781,245.1875 Q695.7531,244.4375 695.1906,243.0938 Q694.6438,241.7344 694.6438,239.9375 Q694.6438,237.9063 695.3,236.4531 Q695.9563,235 697.2375,234.2188 Q698.5188,233.4375 700.3938,233.4375 Q701.2844,233.4375 701.9563,233.625 Q702.6281,233.7969 703.3156,234.1406 L702.5031,236.1563 Q701.8781,235.8438 701.3313,235.7188 Q700.8,235.5938 700.3156,235.5938 Q699.1438,235.5938 698.4406,236.125 Q697.7375,236.6563 697.4406,237.6094 Q697.1438,238.5625 697.1438,239.8281 Q697.1438,241.8438 697.8625,242.8125 Q698.5813,243.7656 700.175,243.7656 Q700.7688,243.7656 701.3938,243.6094 Q702.0188,243.4531 702.8469,243.0781 L702.8469,245.2969 Q702.1125,245.6094 701.3156,245.7656 Q700.5344,245.9219 699.7688,245.9219 Z " fill="#000000"/><text fill="#000000" font-family="sans-serif" font-size="14" lengthAdjust="spacing" textLength="123" x="719.7" y="244.432">AnswerViewModel</text><line style="stroke:#181818;stroke-width:0.5;" x1="662" x2="869" y1="255" y2="255"/><rect fill="none" height="6" style="stroke:#C82930;stroke-width:1.0;" width="6" x="669" y="267.034"/><text fill="#000000" font-family="sans-serif" font-size="14" lengthAdjust="spacing" textLength="137" x="681" y="273.9659">_content : string = ""</text><rect fill="none" height="6" style="stroke:#C82930;stroke-width:1.0;" width="6" x="669" y="286.1019"/><text fill="#000000" font-family="sans-serif" font-size="14" lengthAdjust="spacing" textLength="138" x="681" y="293.0339">_locked : bool = false</text><ellipse cx="672" cy="308.1698" fill="none" rx="3" ry="3" style="stroke:#038048;stroke-width:1.0;"/><text fill="#000000" font-family="sans-serif" font-size="14" lengthAdjust="spacing" textLength="183" x="681" y="312.1018">Content : string «get» «set»</text><ellipse cx="672" cy="327.2377" fill="none" rx="3" ry="3" style="stroke:#038048;stroke-width:1.0;"/><text fill="#000000" font-family="sans-serif" font-size="14" lengthAdjust="spacing" textLength="165" x="681" y="331.1697">Locked : bool «get» «set»</text><line style="stroke:#181818;stroke-width:0.5;" x1="662" x2="869" y1="339.2717" y2="339.2717"/></g><!--class ViewModelBase--><g id="elem_ViewModelBase"><rect codeLine="1" fill="#F1F1F1" height="48" id="ViewModelBase" rx="2.5" ry="2.5" style="stroke:#181818;stroke-width:0.5;" width="137" x="403" y="115"/><ellipse cx="418" cy="131" fill="#ADD1B2" rx="11" ry="11" style="stroke:#181818;stroke-width:1.0;"/><path d="M417.4688,137.9219 Q415.7188,137.9219 414.5781,137.1875 Q413.4531,136.4375 412.8906,135.0938 Q412.3438,133.7344 412.3438,131.9375 Q412.3438,129.9063 413,128.4531 Q413.6563,127 414.9375,126.2188 Q416.2188,125.4375 418.0938,125.4375 Q418.9844,125.4375 419.6563,125.625 Q420.3281,125.7969 421.0156,126.1406 L420.2031,128.1563 Q419.5781,127.8438 419.0313,127.7188 Q418.5,127.5938 418.0156,127.5938 Q416.8438,127.5938 416.1406,128.125 Q415.4375,128.6563 415.1406,129.6094 Q414.8438,130.5625 414.8438,131.8281 Q414.8438,133.8438 415.5625,134.8125 Q416.2813,135.7656 417.875,135.7656 Q418.4688,135.7656 419.0938,135.6094 Q419.7188,135.4531 420.5469,135.0781 L420.5469,137.2969 Q419.8125,137.6094 419.0156,137.7656 Q418.2344,137.9219 417.4688,137.9219 Z " fill="#000000"/><text fill="#000000" font-family="sans-serif" font-size="14" lengthAdjust="spacing" textLength="105" x="432" y="136.432">ViewModelBase</text><line style="stroke:#181818;stroke-width:0.5;" x1="404" x2="539" y1="147" y2="147"/><line style="stroke:#181818;stroke-width:0.5;" x1="404" x2="539" y1="155" y2="155"/></g><!--class Answer--><g id="elem_Answer"><rect fill="#F1F1F1" height="48" id="Answer" rx="2.5" ry="2.5" style="stroke:#181818;stroke-width:0.5;" width="82" x="738.5" y="407"/><ellipse cx="753.5" cy="423" fill="#ADD1B2" rx="11" ry="11" style="stroke:#181818;stroke-width:1.0;"/><path d="M752.9688,429.9219 Q751.2188,429.9219 750.0781,429.1875 Q748.9531,428.4375 748.3906,427.0938 Q747.8438,425.7344 747.8438,423.9375 Q747.8438,421.9063 748.5,420.4531 Q749.1563,419 750.4375,418.2188 Q751.7188,417.4375 753.5938,417.4375 Q754.4844,417.4375 755.1563,417.625 Q755.8281,417.7969 756.5156,418.1406 L755.7031,420.1563 Q755.0781,419.8438 754.5313,419.7188 Q754,419.5938 753.5156,419.5938 Q752.3438,419.5938 751.6406,420.125 Q750.9375,420.6563 750.6406,421.6094 Q750.3438,422.5625 750.3438,423.8281 Q750.3438,425.8438 751.0625,426.8125 Q751.7813,427.7656 753.375,427.7656 Q753.9688,427.7656 754.5938,427.6094 Q755.2188,427.4531 756.0469,427.0781 L756.0469,429.2969 Q755.3125,429.6094 754.5156,429.7656 Q753.7344,429.9219 752.9688,429.9219 Z " fill="#000000"/><text fill="#000000" font-family="sans-serif" font-size="14" lengthAdjust="spacing" textLength="50" x="767.5" y="428.432">Answer</text><line style="stroke:#181818;stroke-width:0.5;" x1="739.5" x2="819.5" y1="439" y2="439"/><line style="stroke:#181818;stroke-width:0.5;" x1="739.5" x2="819.5" y1="447" y2="447"/></g><!--class MainWindowViewModel--><g id="elem_MainWindowViewModel"><rect codeLine="1" fill="#F1F1F1" height="105.2038" id="MainWindowViewModel" rx="2.5" ry="2.5" style="stroke:#181818;stroke-width:0.5;" width="308" x="317.5" y="232.5"/><ellipse cx="386.75" cy="248.5" fill="#ADD1B2" rx="11" ry="11" style="stroke:#181818;stroke-width:1.0;"/><path d="M386.2188,255.4219 Q384.4688,255.4219 383.3281,254.6875 Q382.2031,253.9375 381.6406,252.5938 Q381.0938,251.2344 381.0938,249.4375 Q381.0938,247.4063 381.75,245.9531 Q382.4063,244.5 383.6875,243.7188 Q384.9688,242.9375 386.8438,242.9375 Q387.7344,242.9375 388.4063,243.125 Q389.0781,243.2969 389.7656,243.6406 L388.9531,245.6563 Q388.3281,245.3438 387.7813,245.2188 Q387.25,245.0938 386.7656,245.0938 Q385.5938,245.0938 384.8906,245.625 Q384.1875,246.1563 383.8906,247.1094 Q383.5938,248.0625 383.5938,249.3281 Q383.5938,251.3438 384.3125,252.3125 Q385.0313,253.2656 386.625,253.2656 Q387.2188,253.2656 387.8438,253.1094 Q388.4688,252.9531 389.2969,252.5781 L389.2969,254.7969 Q388.5625,255.1094 387.7656,255.2656 Q386.9844,255.4219 386.2188,255.4219 Z " fill="#000000"/><text fill="#000000" font-family="sans-serif" font-size="14" lengthAdjust="spacing" textLength="161" x="407.25" y="253.932">MainWindowViewModel</text><line style="stroke:#181818;stroke-width:0.5;" x1="318.5" x2="624.5" y1="264.5" y2="264.5"/><line style="stroke:#181818;stroke-width:0.5;" x1="318.5" x2="624.5" y1="272.5" y2="272.5"/><ellipse cx="328.5" cy="287.534" fill="#84BE84" rx="3" ry="3" style="stroke:#038048;stroke-width:1.0;"/><text fill="#000000" font-family="sans-serif" font-size="14" lengthAdjust="spacing" textLength="282" x="337.5" y="291.4659">MainWindowViewModel(settings:Settings)</text><ellipse cx="328.5" cy="306.6019" fill="#84BE84" rx="3" ry="3" style="stroke:#038048;stroke-width:1.0;"/><text fill="#000000" font-family="sans-serif" font-size="14" lengthAdjust="spacing" textLength="140" x="337.5" y="310.5339">OpenSettings() : void</text><ellipse cx="328.5" cy="325.6698" fill="#84BE84" rx="3" ry="3" style="stroke:#038048;stroke-width:1.0;"/><text fill="#000000" font-family="sans-serif" font-size="14" lengthAdjust="spacing" textLength="139" x="337.5" y="329.6018">CloseSettings() : void</text></g><!--class SettingsViewModel--><g id="elem_SettingsViewModel"><rect codeLine="1" fill="#F1F1F1" height="86.1358" id="SettingsViewModel" rx="2.5" ry="2.5" style="stroke:#181818;stroke-width:0.5;" width="275" x="7" y="242"/><ellipse cx="76.25" cy="258" fill="#ADD1B2" rx="11" ry="11" style="stroke:#181818;stroke-width:1.0;"/><path d="M75.7188,264.9219 Q73.9688,264.9219 72.8281,264.1875 Q71.7031,263.4375 71.1406,262.0938 Q70.5938,260.7344 70.5938,258.9375 Q70.5938,256.9063 71.25,255.4531 Q71.9063,254 73.1875,253.2188 Q74.4688,252.4375 76.3438,252.4375 Q77.2344,252.4375 77.9063,252.625 Q78.5781,252.7969 79.2656,253.1406 L78.4531,255.1563 Q77.8281,254.8438 77.2813,254.7188 Q76.75,254.5938 76.2656,254.5938 Q75.0938,254.5938 74.3906,255.125 Q73.6875,255.6563 73.3906,256.6094 Q73.0938,257.5625 73.0938,258.8281 Q73.0938,260.8438 73.8125,261.8125 Q74.5313,262.7656 76.125,262.7656 Q76.7188,262.7656 77.3438,262.6094 Q77.9688,262.4531 78.7969,262.0781 L78.7969,264.2969 Q78.0625,264.6094 77.2656,264.7656 Q76.4844,264.9219 75.7188,264.9219 Z " fill="#000000"/><text fill="#000000" font-family="sans-serif" font-size="14" lengthAdjust="spacing" textLength="128" x="96.75" y="263.432">SettingsViewModel</text><line style="stroke:#181818;stroke-width:0.5;" x1="8" x2="281" y1="274" y2="274"/><line style="stroke:#181818;stroke-width:0.5;" x1="8" x2="281" y1="282" y2="282"/><ellipse cx="18" cy="297.034" fill="#84BE84" rx="3" ry="3" style="stroke:#038048;stroke-width:1.0;"/><text fill="#000000" font-family="sans-serif" font-size="14" lengthAdjust="spacing" textLength="136" x="27" y="300.9659">SettingsViewModel()</text><ellipse cx="18" cy="316.1019" fill="#84BE84" rx="3" ry="3" style="stroke:#038048;stroke-width:1.0;"/><text fill="#000000" font-family="sans-serif" font-size="14" lengthAdjust="spacing" textLength="249" x="27" y="320.0339">SettingsViewModel(settings:Settings)</text></g><!--class Settings--><g id="elem_Settings"><rect fill="#F1F1F1" height="48" id="Settings" rx="2.5" ry="2.5" style="stroke:#181818;stroke-width:0.5;" width="87" x="101" y="407"/><ellipse cx="116" cy="423" fill="#ADD1B2" rx="11" ry="11" style="stroke:#181818;stroke-width:1.0;"/><path d="M115.4688,429.9219 Q113.7188,429.9219 112.5781,429.1875 Q111.4531,428.4375 110.8906,427.0938 Q110.3438,425.7344 110.3438,423.9375 Q110.3438,421.9063 111,420.4531 Q111.6563,419 112.9375,418.2188 Q114.2188,417.4375 116.0938,417.4375 Q116.9844,417.4375 117.6563,417.625 Q118.3281,417.7969 119.0156,418.1406 L118.2031,420.1563 Q117.5781,419.8438 117.0313,419.7188 Q116.5,419.5938 116.0156,419.5938 Q114.8438,419.5938 114.1406,420.125 Q113.4375,420.6563 113.1406,421.6094 Q112.8438,422.5625 112.8438,423.8281 Q112.8438,425.8438 113.5625,426.8125 Q114.2813,427.7656 115.875,427.7656 Q116.4688,427.7656 117.0938,427.6094 Q117.7188,427.4531 118.5469,427.0781 L118.5469,429.2969 Q117.8125,429.6094 117.0156,429.7656 Q116.2344,429.9219 115.4688,429.9219 Z " fill="#000000"/><text fill="#000000" font-family="sans-serif" font-size="14" lengthAdjust="spacing" textLength="55" x="130" y="428.432">Settings</text><line style="stroke:#181818;stroke-width:0.5;" x1="102" x2="187" y1="439" y2="439"/><line style="stroke:#181818;stroke-width:0.5;" x1="102" x2="187" y1="447" y2="447"/></g><!--class GameViewModel--><g id="elem_GameViewModel"><rect codeLine="1" fill="#F1F1F1" height="124.2717" id="GameViewModel" rx="2.5" ry="2.5" style="stroke:#181818;stroke-width:0.5;" width="259" x="905" y="223"/><ellipse cx="974.25" cy="239" fill="#ADD1B2" rx="11" ry="11" style="stroke:#181818;stroke-width:1.0;"/><path d="M973.7188,245.9219 Q971.9688,245.9219 970.8281,245.1875 Q969.7031,244.4375 969.1406,243.0938 Q968.5938,241.7344 968.5938,239.9375 Q968.5938,237.9063 969.25,236.4531 Q969.9063,235 971.1875,234.2188 Q972.4688,233.4375 974.3438,233.4375 Q975.2344,233.4375 975.9063,233.625 Q976.5781,233.7969 977.2656,234.1406 L976.4531,236.1563 Q975.8281,235.8438 975.2813,235.7188 Q974.75,235.5938 974.2656,235.5938 Q973.0938,235.5938 972.3906,236.125 Q971.6875,236.6563 971.3906,237.6094 Q971.0938,238.5625 971.0938,239.8281 Q971.0938,241.8438 971.8125,242.8125 Q972.5313,243.7656 974.125,243.7656 Q974.7188,243.7656 975.3438,243.6094 Q975.9688,243.4531 976.7969,243.0781 L976.7969,245.2969 Q976.0625,245.6094 975.2656,245.7656 Q974.4844,245.9219 973.7188,245.9219 Z " fill="#000000"/><text fill="#000000" font-family="sans-serif" font-size="14" lengthAdjust="spacing" textLength="112" x="994.75" y="244.432">GameViewModel</text><line style="stroke:#181818;stroke-width:0.5;" x1="906" x2="1163" y1="255" y2="255"/><ellipse cx="916" cy="270.034" fill="none" rx="3" ry="3" style="stroke:#038048;stroke-width:1.0;"/><text fill="#000000" font-family="sans-serif" font-size="14" lengthAdjust="spacing" textLength="143" x="925" y="273.9659">CurrentTry : int «get»</text><line style="stroke:#181818;stroke-width:0.5;" x1="906" x2="1163" y1="282.0679" y2="282.0679"/><ellipse cx="916" cy="297.1019" fill="#84BE84" rx="3" ry="3" style="stroke:#038048;stroke-width:1.0;"/><text fill="#000000" font-family="sans-serif" font-size="14" lengthAdjust="spacing" textLength="120" x="925" y="301.0339">GameViewModel()</text><ellipse cx="916" cy="316.1698" fill="#84BE84" rx="3" ry="3" style="stroke:#038048;stroke-width:1.0;"/><text fill="#000000" font-family="sans-serif" font-size="14" lengthAdjust="spacing" textLength="233" x="925" y="320.1018">GameViewModel(settings:Settings)</text><ellipse cx="916" cy="335.2377" fill="#84BE84" rx="3" ry="3" style="stroke:#038048;stroke-width:1.0;"/><text fill="#000000" font-family="sans-serif" font-size="14" lengthAdjust="spacing" textLength="149" x="925" y="339.1697">StartNewGame() : void</text></g><!--class List`1--><g id="elem_List`1"><rect codeLine="7" fill="#F1F1F1" height="48" id="List`1" rx="2.5" ry="2.5" style="stroke:#181818;stroke-width:0.5;" width="77" x="870" y="407"/><ellipse cx="885" cy="423" fill="#ADD1B2" rx="11" ry="11" style="stroke:#181818;stroke-width:1.0;"/><path d="M884.4688,429.9219 Q882.7188,429.9219 881.5781,429.1875 Q880.4531,428.4375 879.8906,427.0938 Q879.3438,425.7344 879.3438,423.9375 Q879.3438,421.9063 880,420.4531 Q880.6563,419 881.9375,418.2188 Q883.2188,417.4375 885.0938,417.4375 Q885.9844,417.4375 886.6563,417.625 Q887.3281,417.7969 888.0156,418.1406 L887.2031,420.1563 Q886.5781,419.8438 886.0313,419.7188 Q885.5,419.5938 885.0156,419.5938 Q883.8438,419.5938 883.1406,420.125 Q882.4375,420.6563 882.1406,421.6094 Q881.8438,422.5625 881.8438,423.8281 Q881.8438,425.8438 882.5625,426.8125 Q883.2813,427.7656 884.875,427.7656 Q885.4688,427.7656 886.0938,427.6094 Q886.7188,427.4531 887.5469,427.0781 L887.5469,429.2969 Q886.8125,429.6094 886.0156,429.7656 Q885.2344,429.9219 884.4688,429.9219 Z " fill="#000000"/><text fill="#000000" font-family="sans-serif" font-size="14" lengthAdjust="spacing" textLength="35" x="899" y="428.432">List`1</text><rect fill="#FFFFFF" height="18.3441" style="stroke:#181818;stroke-width:1.0;stroke-dasharray:2.0,2.0;" width="8" x="942" y="404"/><text fill="#000000" font-family="sans-serif" font-size="12" font-style="italic" lengthAdjust="spacing" textLength="6" x="943" y="417.8281">T</text><line style="stroke:#181818;stroke-width:0.5;" x1="871" x2="946" y1="439" y2="439"/><line style="stroke:#181818;stroke-width:0.5;" x1="871" x2="946" y1="447" y2="447"/></g><!--class GameState--><g id="elem_GameState"><rect fill="#F1F1F1" height="48" id="GameState" rx="2.5" ry="2.5" style="stroke:#181818;stroke-width:0.5;" width="105" x="982" y="407"/><ellipse cx="997" cy="423" fill="#ADD1B2" rx="11" ry="11" style="stroke:#181818;stroke-width:1.0;"/><path d="M996.4688,429.9219 Q994.7188,429.9219 993.5781,429.1875 Q992.4531,428.4375 991.8906,427.0938 Q991.3438,425.7344 991.3438,423.9375 Q991.3438,421.9063 992,420.4531 Q992.6563,419 993.9375,418.2188 Q995.2188,417.4375 997.0938,417.4375 Q997.9844,417.4375 998.6563,417.625 Q999.3281,417.7969 1000.0156,418.1406 L999.2031,420.1563 Q998.5781,419.8438 998.0313,419.7188 Q997.5,419.5938 997.0156,419.5938 Q995.8438,419.5938 995.1406,420.125 Q994.4375,420.6563 994.1406,421.6094 Q993.8438,422.5625 993.8438,423.8281 Q993.8438,425.8438 994.5625,426.8125 Q995.2813,427.7656 996.875,427.7656 Q997.4688,427.7656 998.0938,427.6094 Q998.7188,427.4531 999.5469,427.0781 L999.5469,429.2969 Q998.8125,429.6094 998.0156,429.7656 Q997.2344,429.9219 996.4688,429.9219 Z " fill="#000000"/><text fill="#000000" font-family="sans-serif" font-size="14" lengthAdjust="spacing" textLength="73" x="1011" y="428.432">GameState</text><line style="stroke:#181818;stroke-width:0.5;" x1="983" x2="1086" y1="439" y2="439"/><line style="stroke:#181818;stroke-width:0.5;" x1="983" x2="1086" y1="447" y2="447"/></g><!--class ReactiveObject--><g id="elem_ReactiveObject"><rect fill="#F1F1F1" height="48" id="ReactiveObject" rx="2.5" ry="2.5" style="stroke:#181818;stroke-width:0.5;" width="132" x="405.5" y="7"/><ellipse cx="420.5" cy="23" fill="#ADD1B2" rx="11" ry="11" style="stroke:#181818;stroke-width:1.0;"/><path d="M419.9688,29.9219 Q418.2188,29.9219 417.0781,29.1875 Q415.9531,28.4375 415.3906,27.0938 Q414.8438,25.7344 414.8438,23.9375 Q414.8438,21.9063 415.5,20.4531 Q416.1563,19 417.4375,18.2188 Q418.7188,17.4375 420.5938,17.4375 Q421.4844,17.4375 422.1563,17.625 Q422.8281,17.7969 423.5156,18.1406 L422.7031,20.1563 Q422.0781,19.8438 421.5313,19.7188 Q421,19.5938 420.5156,19.5938 Q419.3438,19.5938 418.6406,20.125 Q417.9375,20.6563 417.6406,21.6094 Q417.3438,22.5625 417.3438,23.8281 Q417.3438,25.8438 418.0625,26.8125 Q418.7813,27.7656 420.375,27.7656 Q420.9688,27.7656 421.5938,27.6094 Q422.2188,27.4531 423.0469,27.0781 L423.0469,29.2969 Q422.3125,29.6094 421.5156,29.7656 Q420.7344,29.9219 419.9688,29.9219 Z " fill="#000000"/><text fill="#000000" font-family="sans-serif" font-size="14" lengthAdjust="spacing" textLength="100" x="434.5" y="28.432">ReactiveObject</text><line style="stroke:#181818;stroke-width:0.5;" x1="406.5" x2="536.5" y1="39" y2="39"/><line style="stroke:#181818;stroke-width:0.5;" x1="406.5" x2="536.5" y1="47" y2="47"/></g><!--reverse link ViewModelBase to AnswerViewModel--><g id="link_ViewModelBase_AnswerViewModel"><path codeLine="7" d="M538.99,172.6 C570.48,187.84 608.44,206.29 642.5,223 C648.38,225.89 654.42,228.86 660.52,231.86 " fill="none" id="ViewModelBase-backto-AnswerViewModel" style="stroke:#181818;stroke-width:1.0;"/><polygon fill="none" points="536.15,179,521.19,163.98,542.25,166.39,536.15,179" style="stroke:#181818;stroke-width:1.0;"/></g><!--link AnswerViewModel to Answer--><g id="link_AnswerViewModel_Answer"><path codeLine="8" d="M771.48,347.49 C773.26,365.81 775.13,385.07 776.62,400.37 " fill="none" id="AnswerViewModel-to-Answer" style="stroke:#181818;stroke-width:1.0;"/><polygon fill="#181818" points="777.08,405.16,780.1859,395.8137,776.5938,400.1837,772.2238,396.5916,777.08,405.16" style="stroke:#181818;stroke-width:1.0;"/><text fill="#000000" font-family="sans-serif" font-size="13" lengthAdjust="spacing" textLength="44" x="727.0108" y="395.2448">Answer</text></g><!--reverse link ViewModelBase to MainWindowViewModel--><g id="link_ViewModelBase_MainWindowViewModel"><path codeLine="6" d="M447.03,184.48 C444.98,199.57 444.7,216.56 446.19,232.17 " fill="none" id="ViewModelBase-backto-MainWindowViewModel" style="stroke:#181818;stroke-width:1.0;"/><polygon fill="none" points="440.18,183.04,451.19,164.94,453.88,185.96,440.18,183.04" style="stroke:#181818;stroke-width:1.0;"/></g><!--link MainWindowViewModel to ViewModelBase--><g id="link_MainWindowViewModel_ViewModelBase"><path codeLine="7" d="M471.5,232.17 C471.5,211.23 471.5,187.81 471.5,169.82 " fill="none" id="MainWindowViewModel-to-ViewModelBase" style="stroke:#181818;stroke-width:1.0;"/><polygon fill="#181818" points="471.5,164.97,467.5,173.97,471.5,169.97,475.5,173.97,471.5,164.97" style="stroke:#181818;stroke-width:1.0;"/><text fill="#000000" font-family="sans-serif" font-size="13" lengthAdjust="spacing" textLength="53" x="412.3719" y="185.0606">_content</text></g><!--link MainWindowViewModel to ViewModelBase--><g id="link_MainWindowViewModel_ViewModelBase"><path codeLine="8" d="M496.81,232.17 C498.82,211.05 497.6,187.4 493.13,169.35 " fill="none" id="MainWindowViewModel-to-ViewModelBase-1" style="stroke:#181818;stroke-width:1.0;"/><polygon fill="#181818" points="491.9,164.91,490.4652,174.6538,493.2434,169.7262,498.171,172.5044,491.9,164.91" style="stroke:#181818;stroke-width:1.0;"/><text fill="#000000" font-family="sans-serif" font-size="13" lengthAdjust="spacing" textLength="49" x="501.7783" y="185.0606">Content</text></g><!--reverse link ViewModelBase to SettingsViewModel--><g id="link_ViewModelBase_SettingsViewModel"><path codeLine="5" d="M398.63,172.09 C352.17,192.55 291.44,219.29 241,241.51 " fill="none" id="ViewModelBase-backto-SettingsViewModel" style="stroke:#181818;stroke-width:1.0;"/><polygon fill="none" points="395.72,165.72,416.85,164.07,401.37,178.53,395.72,165.72" style="stroke:#181818;stroke-width:1.0;"/></g><!--link SettingsViewModel to Settings--><g id="link_SettingsViewModel_Settings"><path codeLine="6" d="M132.76,328.43 C131.09,351.58 131.49,379.68 133.97,400.45 " fill="none" id="SettingsViewModel-to-Settings" style="stroke:#181818;stroke-width:1.0;"/><polygon fill="#181818" points="134.6,405.14,137.3558,395.6846,133.9289,400.1852,129.4282,396.7583,134.6,405.14" style="stroke:#181818;stroke-width:1.0;"/><text fill="#000000" font-family="sans-serif" font-size="13" lengthAdjust="spacing" textLength="54" x="71.4082" y="395.2071">_settings</text></g><!--link SettingsViewModel to Settings--><g id="link_SettingsViewModel_Settings"><path codeLine="7" d="M156.93,328.43 C158.7,351.58 158.27,379.68 155.65,400.45 " fill="none" id="SettingsViewModel-to-Settings-1" style="stroke:#181818;stroke-width:1.0;"/><polygon fill="#181818" points="154.98,405.15,160.1991,396.7977,155.6791,400.1991,152.2777,395.6791,154.98,405.15" style="stroke:#181818;stroke-width:1.0;"/><text fill="#000000" font-family="sans-serif" font-size="13" lengthAdjust="spacing" textLength="49" x="163.6798" y="395.2071">Settings</text></g><!--reverse link ViewModelBase to GameViewModel--><g id="link_ViewModelBase_GameViewModel"><path codeLine="9" d="M561.39,152.7 C646.5,165.96 777.31,189.5 887.5,223 C893.18,224.73 898.95,226.6 904.74,228.57 " fill="none" id="ViewModelBase-backto-GameViewModel" style="stroke:#181818;stroke-width:1.0;"/><polygon fill="none" points="560.46,159.64,541.74,149.71,562.57,145.8,560.46,159.64" style="stroke:#181818;stroke-width:1.0;"/></g><!--link GameViewModel to GameState--><g id="link_GameViewModel_GameState"><path codeLine="10" d="M1021.87,347.49 C1021.44,365.81 1022.14,385.07 1023.96,400.37 " fill="none" id="GameViewModel-to-GameState" style="stroke:#181818;stroke-width:1.0;"/><polygon fill="#181818" points="1024.61,405.17,1027.3926,395.7224,1023.9529,400.2134,1019.462,396.7737,1024.61,405.17" style="stroke:#181818;stroke-width:1.0;"/><text fill="#000000" font-family="sans-serif" font-size="13" lengthAdjust="spacing" textLength="36" x="1026.9394" y="395.2448">_state</text></g><!--link GameViewModel to GameState--><g id="link_GameViewModel_GameState"><path codeLine="11" d="M1047.87,347.49 C1048.32,365.81 1047.59,385.07 1045.66,400.37 " fill="none" id="GameViewModel-to-GameState-1" style="stroke:#181818;stroke-width:1.0;"/><polygon fill="#181818" points="1044.98,405.17,1050.2025,396.8198,1045.6811,400.2194,1042.2815,395.698,1044.98,405.17" style="stroke:#181818;stroke-width:1.0;"/><text fill="#000000" font-family="sans-serif" font-size="13" lengthAdjust="spacing" textLength="31" x="1051.361" y="395.2448">State</text></g><!--link GameViewModel to List`1--><g id="link_GameViewModel_List`1"><path codeLine="12" d="M980.7,347.49 C964.09,366.47 946.61,386.45 933.01,401.99 " fill="none" id="GameViewModel-to-List`1" style="stroke:#181818;stroke-width:1.0;"/><polygon fill="#181818" points="929.91,405.53,938.8546,401.4076,933.2096,401.7733,932.8439,396.1283,929.91,405.53" style="stroke:#181818;stroke-width:1.0;"/><text fill="#000000" font-family="sans-serif" font-size="13" lengthAdjust="spacing" textLength="108" x="947.9393" y="395.181">Answers&lt;Answer&gt;</text></g><!--link GameViewModel to Answer--><g id="link_GameViewModel_Answer"><path codeLine="13" d="M925.62,347.49 C890.84,367.12 854.18,387.83 826.28,403.58 " fill="none" id="GameViewModel-to-Answer" style="stroke:#181818;stroke-width:1.0;"/><polygon fill="#181818" points="822.14,405.92,831.9442,404.9833,826.4952,403.4639,828.0145,398.0149,822.14,405.92" style="stroke:#181818;stroke-width:1.0;"/><text fill="#000000" font-family="sans-serif" font-size="13" lengthAdjust="spacing" textLength="90" x="823.1497" y="395.2586">CurrentAnswer</text></g><!--reverse link ReactiveObject to ViewModelBase--><g id="link_ReactiveObject_ViewModelBase"><path codeLine="3" d="M471.5,76.72 C471.5,89.82 471.5,103.62 471.5,114.79 " fill="none" id="ReactiveObject-backto-ViewModelBase" style="stroke:#181818;stroke-width:1.0;"/><polygon fill="none" points="464.5,76.78,471.5,56.78,478.5,76.78,464.5,76.78" style="stroke:#181818;stroke-width:1.0;"/></g><!--SRC=[KypCIyufJKbLqDDtp2ikJoqAoqmjzyrFIStHAoZDpU5IHCZx9cRcXMVcfUINurOJd5fIafcNNenRXNjYRYfkMRYCKs9nAbWM0000]--></g></svg>