<?xml version="1.0" encoding="us-ascii" standalone="no"?><svg xmlns="http://www.w3.org/2000/svg" xmlns:xlink="http://www.w3.org/1999/xlink" contentStyleType="text/css" height="539px" preserveAspectRatio="none" style="width:961px;height:539px;background:#FFFFFF;" version="1.1" viewBox="0 0 961 539" width="961px" zoomAndPan="magnify"><defs/><g><!--class MainWindowViewModel--><g id="elem_MainWindowViewModel"><rect codeLine="1" fill="#F1F1F1" height="86.1358" id="MainWindowViewModel" rx="2.5" ry="2.5" style="stroke:#181818;stroke-width:0.5;" width="195" x="7" y="280.5"/><ellipse cx="22.9" cy="296.5" fill="#ADD1B2" rx="11" ry="11" style="stroke:#181818;stroke-width:1.0;"/><path d="M22.3688,303.4219 Q20.6188,303.4219 19.4781,302.6875 Q18.3531,301.9375 17.7906,300.5938 Q17.2438,299.2344 17.2438,297.4375 Q17.2438,295.4063 17.9,293.9531 Q18.5563,292.5 19.8375,291.7188 Q21.1188,290.9375 22.9938,290.9375 Q23.8844,290.9375 24.5563,291.125 Q25.2281,291.2969 25.9156,291.6406 L25.1031,293.6563 Q24.4781,293.3438 23.9313,293.2188 Q23.4,293.0938 22.9156,293.0938 Q21.7438,293.0938 21.0406,293.625 Q20.3375,294.1563 20.0406,295.1094 Q19.7438,296.0625 19.7438,297.3281 Q19.7438,299.3438 20.4625,300.3125 Q21.1813,301.2656 22.775,301.2656 Q23.3688,301.2656 23.9938,301.1094 Q24.6188,300.9531 25.4469,300.5781 L25.4469,302.7969 Q24.7125,303.1094 23.9156,303.2656 Q23.1344,303.4219 22.3688,303.4219 Z " fill="#000000"/><text fill="#000000" font-family="sans-serif" font-size="14" lengthAdjust="spacing" textLength="161" x="37.1" y="301.932">MainWindowViewModel</text><line style="stroke:#181818;stroke-width:0.5;" x1="8" x2="201" y1="312.5" y2="312.5"/><line style="stroke:#181818;stroke-width:0.5;" x1="8" x2="201" y1="320.5" y2="320.5"/><ellipse cx="18" cy="335.534" fill="#84BE84" rx="3" ry="3" style="stroke:#038048;stroke-width:1.0;"/><text fill="#000000" font-family="sans-serif" font-size="14" lengthAdjust="spacing" textLength="169" x="27" y="339.4659">MainWindowViewModel()</text><ellipse cx="18" cy="354.6019" fill="#84BE84" rx="3" ry="3" style="stroke:#038048;stroke-width:1.0;"/><text fill="#000000" font-family="sans-serif" font-size="14" lengthAdjust="spacing" textLength="149" x="27" y="358.5339">ToggleSettings() : void</text></g><!--class ViewModelBase--><g id="elem_ViewModelBase"><rect codeLine="1" fill="#F1F1F1" height="48" id="ViewModelBase" rx="2.5" ry="2.5" style="stroke:#181818;stroke-width:0.5;" width="137" x="36" y="115"/><ellipse cx="51" cy="131" fill="#ADD1B2" rx="11" ry="11" style="stroke:#181818;stroke-width:1.0;"/><path d="M50.4688,137.9219 Q48.7188,137.9219 47.5781,137.1875 Q46.4531,136.4375 45.8906,135.0938 Q45.3438,133.7344 45.3438,131.9375 Q45.3438,129.9063 46,128.4531 Q46.6563,127 47.9375,126.2188 Q49.2188,125.4375 51.0938,125.4375 Q51.9844,125.4375 52.6563,125.625 Q53.3281,125.7969 54.0156,126.1406 L53.2031,128.1563 Q52.5781,127.8438 52.0313,127.7188 Q51.5,127.5938 51.0156,127.5938 Q49.8438,127.5938 49.1406,128.125 Q48.4375,128.6563 48.1406,129.6094 Q47.8438,130.5625 47.8438,131.8281 Q47.8438,133.8438 48.5625,134.8125 Q49.2813,135.7656 50.875,135.7656 Q51.4688,135.7656 52.0938,135.6094 Q52.7188,135.4531 53.5469,135.0781 L53.5469,137.2969 Q52.8125,137.6094 52.0156,137.7656 Q51.2344,137.9219 50.4688,137.9219 Z " fill="#000000"/><text fill="#000000" font-family="sans-serif" font-size="14" lengthAdjust="spacing" textLength="105" x="65" y="136.432">ViewModelBase</text><line style="stroke:#181818;stroke-width:0.5;" x1="37" x2="172" y1="147" y2="147"/><line style="stroke:#181818;stroke-width:0.5;" x1="37" x2="172" y1="155" y2="155"/></g><!--class SettingsViewModel--><g id="elem_SettingsViewModel"><rect codeLine="1" fill="#F1F1F1" height="67.0679" id="SettingsViewModel" rx="2.5" ry="2.5" style="stroke:#181818;stroke-width:0.5;" width="275" x="679" y="290"/><ellipse cx="748.25" cy="306" fill="#ADD1B2" rx="11" ry="11" style="stroke:#181818;stroke-width:1.0;"/><path d="M747.7188,312.9219 Q745.9688,312.9219 744.8281,312.1875 Q743.7031,311.4375 743.1406,310.0938 Q742.5938,308.7344 742.5938,306.9375 Q742.5938,304.9063 743.25,303.4531 Q743.9063,302 745.1875,301.2188 Q746.4688,300.4375 748.3438,300.4375 Q749.2344,300.4375 749.9063,300.625 Q750.5781,300.7969 751.2656,301.1406 L750.4531,303.1563 Q749.8281,302.8438 749.2813,302.7188 Q748.75,302.5938 748.2656,302.5938 Q747.0938,302.5938 746.3906,303.125 Q745.6875,303.6563 745.3906,304.6094 Q745.0938,305.5625 745.0938,306.8281 Q745.0938,308.8438 745.8125,309.8125 Q746.5313,310.7656 748.125,310.7656 Q748.7188,310.7656 749.3438,310.6094 Q749.9688,310.4531 750.7969,310.0781 L750.7969,312.2969 Q750.0625,312.6094 749.2656,312.7656 Q748.4844,312.9219 747.7188,312.9219 Z " fill="#000000"/><text fill="#000000" font-family="sans-serif" font-size="14" lengthAdjust="spacing" textLength="128" x="768.75" y="311.432">SettingsViewModel</text><line style="stroke:#181818;stroke-width:0.5;" x1="680" x2="953" y1="322" y2="322"/><line style="stroke:#181818;stroke-width:0.5;" x1="680" x2="953" y1="330" y2="330"/><ellipse cx="690" cy="345.034" fill="#84BE84" rx="3" ry="3" style="stroke:#038048;stroke-width:1.0;"/><text fill="#000000" font-family="sans-serif" font-size="14" lengthAdjust="spacing" textLength="249" x="699" y="348.9659">SettingsViewModel(settings:Settings)</text></g><!--class Settings--><g id="elem_Settings"><rect fill="#F1F1F1" height="48" id="Settings" rx="2.5" ry="2.5" style="stroke:#181818;stroke-width:0.5;" width="87" x="773" y="484"/><ellipse cx="788" cy="500" fill="#ADD1B2" rx="11" ry="11" style="stroke:#181818;stroke-width:1.0;"/><path d="M787.4688,506.9219 Q785.7188,506.9219 784.5781,506.1875 Q783.4531,505.4375 782.8906,504.0938 Q782.3438,502.7344 782.3438,500.9375 Q782.3438,498.9063 783,497.4531 Q783.6563,496 784.9375,495.2188 Q786.2188,494.4375 788.0938,494.4375 Q788.9844,494.4375 789.6563,494.625 Q790.3281,494.7969 791.0156,495.1406 L790.2031,497.1563 Q789.5781,496.8438 789.0313,496.7188 Q788.5,496.5938 788.0156,496.5938 Q786.8438,496.5938 786.1406,497.125 Q785.4375,497.6563 785.1406,498.6094 Q784.8438,499.5625 784.8438,500.8281 Q784.8438,502.8438 785.5625,503.8125 Q786.2813,504.7656 787.875,504.7656 Q788.4688,504.7656 789.0938,504.6094 Q789.7188,504.4531 790.5469,504.0781 L790.5469,506.2969 Q789.8125,506.6094 789.0156,506.7656 Q788.2344,506.9219 787.4688,506.9219 Z " fill="#000000"/><text fill="#000000" font-family="sans-serif" font-size="14" lengthAdjust="spacing" textLength="55" x="802" y="505.432">Settings</text><line style="stroke:#181818;stroke-width:0.5;" x1="774" x2="859" y1="516" y2="516"/><line style="stroke:#181818;stroke-width:0.5;" x1="774" x2="859" y1="524" y2="524"/></g><!--class GameViewModel--><g id="elem_GameViewModel"><rect codeLine="1" fill="#F1F1F1" height="200.5433" id="GameViewModel" rx="2.5" ry="2.5" style="stroke:#181818;stroke-width:0.5;" width="259" x="237" y="223"/><ellipse cx="306.25" cy="239" fill="#ADD1B2" rx="11" ry="11" style="stroke:#181818;stroke-width:1.0;"/><path d="M305.7188,245.9219 Q303.9688,245.9219 302.8281,245.1875 Q301.7031,244.4375 301.1406,243.0938 Q300.5938,241.7344 300.5938,239.9375 Q300.5938,237.9063 301.25,236.4531 Q301.9063,235 303.1875,234.2188 Q304.4688,233.4375 306.3438,233.4375 Q307.2344,233.4375 307.9063,233.625 Q308.5781,233.7969 309.2656,234.1406 L308.4531,236.1563 Q307.8281,235.8438 307.2813,235.7188 Q306.75,235.5938 306.2656,235.5938 Q305.0938,235.5938 304.3906,236.125 Q303.6875,236.6563 303.3906,237.6094 Q303.0938,238.5625 303.0938,239.8281 Q303.0938,241.8438 303.8125,242.8125 Q304.5313,243.7656 306.125,243.7656 Q306.7188,243.7656 307.3438,243.6094 Q307.9688,243.4531 308.7969,243.0781 L308.7969,245.2969 Q308.0625,245.6094 307.2656,245.7656 Q306.4844,245.9219 305.7188,245.9219 Z " fill="#000000"/><text fill="#000000" font-family="sans-serif" font-size="14" lengthAdjust="spacing" textLength="112" x="326.75" y="244.432">GameViewModel</text><line style="stroke:#181818;stroke-width:0.5;" x1="238" x2="495" y1="255" y2="255"/><ellipse cx="248" cy="270.034" fill="none" rx="3" ry="3" style="stroke:#038048;stroke-width:1.0;"/><text fill="#000000" font-family="sans-serif" font-size="14" lengthAdjust="spacing" textLength="232" x="257" y="273.9659">CurrentAnswer : string &#171;get&#187; &#171;set&#187;</text><ellipse cx="248" cy="289.1019" fill="none" rx="3" ry="3" style="stroke:#038048;stroke-width:1.0;"/><text fill="#000000" font-family="sans-serif" font-size="14" lengthAdjust="spacing" textLength="181" x="257" y="293.0339">CurrentTry : int &#171;get&#187; &#171;set&#187;</text><line style="stroke:#181818;stroke-width:0.5;" x1="238" x2="495" y1="301.1358" y2="301.1358"/><ellipse cx="248" cy="316.1698" fill="#84BE84" rx="3" ry="3" style="stroke:#038048;stroke-width:1.0;"/><text fill="#000000" font-family="sans-serif" font-size="14" lengthAdjust="spacing" textLength="120" x="257" y="320.1018">GameViewModel()</text><ellipse cx="248" cy="335.2377" fill="#84BE84" rx="3" ry="3" style="stroke:#038048;stroke-width:1.0;"/><text fill="#000000" font-family="sans-serif" font-size="14" lengthAdjust="spacing" textLength="233" x="257" y="339.1697">GameViewModel(settings:Settings)</text><ellipse cx="248" cy="354.3056" fill="#84BE84" rx="3" ry="3" style="stroke:#038048;stroke-width:1.0;"/><text fill="#000000" font-family="sans-serif" font-size="14" lengthAdjust="spacing" textLength="149" x="257" y="358.2376">StartNewGame() : void</text><ellipse cx="248" cy="373.3735" fill="#84BE84" rx="3" ry="3" style="stroke:#038048;stroke-width:1.0;"/><text fill="#000000" font-family="sans-serif" font-size="14" lengthAdjust="spacing" textLength="193" x="257" y="377.3055">EnterLetter(letter:char) : void</text><ellipse cx="248" cy="392.4415" fill="#84BE84" rx="3" ry="3" style="stroke:#038048;stroke-width:1.0;"/><text fill="#000000" font-family="sans-serif" font-size="14" lengthAdjust="spacing" textLength="140" x="257" y="396.3734">RemoveLetter() : void</text><ellipse cx="248" cy="411.5094" fill="#84BE84" rx="3" ry="3" style="stroke:#038048;stroke-width:1.0;"/><text fill="#000000" font-family="sans-serif" font-size="14" lengthAdjust="spacing" textLength="152" x="257" y="415.4414">ConfirmAnswer() : void</text></g><!--class GameState--><g id="elem_GameState"><rect fill="#F1F1F1" height="48" id="GameState" rx="2.5" ry="2.5" style="stroke:#181818;stroke-width:0.5;" width="105" x="314" y="484"/><ellipse cx="329" cy="500" fill="#ADD1B2" rx="11" ry="11" style="stroke:#181818;stroke-width:1.0;"/><path d="M328.4688,506.9219 Q326.7188,506.9219 325.5781,506.1875 Q324.4531,505.4375 323.8906,504.0938 Q323.3438,502.7344 323.3438,500.9375 Q323.3438,498.9063 324,497.4531 Q324.6563,496 325.9375,495.2188 Q327.2188,494.4375 329.0938,494.4375 Q329.9844,494.4375 330.6563,494.625 Q331.3281,494.7969 332.0156,495.1406 L331.2031,497.1563 Q330.5781,496.8438 330.0313,496.7188 Q329.5,496.5938 329.0156,496.5938 Q327.8438,496.5938 327.1406,497.125 Q326.4375,497.6563 326.1406,498.6094 Q325.8438,499.5625 325.8438,500.8281 Q325.8438,502.8438 326.5625,503.8125 Q327.2813,504.7656 328.875,504.7656 Q329.4688,504.7656 330.0938,504.6094 Q330.7188,504.4531 331.5469,504.0781 L331.5469,506.2969 Q330.8125,506.6094 330.0156,506.7656 Q329.2344,506.9219 328.4688,506.9219 Z " fill="#000000"/><text fill="#000000" font-family="sans-serif" font-size="14" lengthAdjust="spacing" textLength="73" x="343" y="505.432">GameState</text><line style="stroke:#181818;stroke-width:0.5;" x1="315" x2="418" y1="516" y2="516"/><line style="stroke:#181818;stroke-width:0.5;" x1="315" x2="418" y1="524" y2="524"/></g><!--class GameStatus--><g id="elem_GameStatus"><rect fill="#F1F1F1" height="48" id="GameStatus" rx="2.5" ry="2.5" style="stroke:#181818;stroke-width:0.5;" width="113" x="531" y="299.5"/><ellipse cx="546" cy="315.5" fill="#ADD1B2" rx="11" ry="11" style="stroke:#181818;stroke-width:1.0;"/><path d="M545.4688,322.4219 Q543.7188,322.4219 542.5781,321.6875 Q541.4531,320.9375 540.8906,319.5938 Q540.3438,318.2344 540.3438,316.4375 Q540.3438,314.4063 541,312.9531 Q541.6563,311.5 542.9375,310.7188 Q544.2188,309.9375 546.0938,309.9375 Q546.9844,309.9375 547.6563,310.125 Q548.3281,310.2969 549.0156,310.6406 L548.2031,312.6563 Q547.5781,312.3438 547.0313,312.2188 Q546.5,312.0938 546.0156,312.0938 Q544.8438,312.0938 544.1406,312.625 Q543.4375,313.1563 543.1406,314.1094 Q542.8438,315.0625 542.8438,316.3281 Q542.8438,318.3438 543.5625,319.3125 Q544.2813,320.2656 545.875,320.2656 Q546.4688,320.2656 547.0938,320.1094 Q547.7188,319.9531 548.5469,319.5781 L548.5469,321.7969 Q547.8125,322.1094 547.0156,322.2656 Q546.2344,322.4219 545.4688,322.4219 Z " fill="#000000"/><text fill="#000000" font-family="sans-serif" font-size="14" lengthAdjust="spacing" textLength="81" x="560" y="320.932">GameStatus</text><line style="stroke:#181818;stroke-width:0.5;" x1="532" x2="643" y1="331.5" y2="331.5"/><line style="stroke:#181818;stroke-width:0.5;" x1="532" x2="643" y1="339.5" y2="339.5"/></g><!--class ReactiveObject--><g id="elem_ReactiveObject"><rect fill="#F1F1F1" height="48" id="ReactiveObject" rx="2.5" ry="2.5" style="stroke:#181818;stroke-width:0.5;" width="132" x="38.5" y="7"/><ellipse cx="53.5" cy="23" fill="#ADD1B2" rx="11" ry="11" style="stroke:#181818;stroke-width:1.0;"/><path d="M52.9688,29.9219 Q51.2188,29.9219 50.0781,29.1875 Q48.9531,28.4375 48.3906,27.0938 Q47.8438,25.7344 47.8438,23.9375 Q47.8438,21.9063 48.5,20.4531 Q49.1563,19 50.4375,18.2188 Q51.7188,17.4375 53.5938,17.4375 Q54.4844,17.4375 55.1563,17.625 Q55.8281,17.7969 56.5156,18.1406 L55.7031,20.1563 Q55.0781,19.8438 54.5313,19.7188 Q54,19.5938 53.5156,19.5938 Q52.3438,19.5938 51.6406,20.125 Q50.9375,20.6563 50.6406,21.6094 Q50.3438,22.5625 50.3438,23.8281 Q50.3438,25.8438 51.0625,26.8125 Q51.7813,27.7656 53.375,27.7656 Q53.9688,27.7656 54.5938,27.6094 Q55.2188,27.4531 56.0469,27.0781 L56.0469,29.2969 Q55.3125,29.6094 54.5156,29.7656 Q53.7344,29.9219 52.9688,29.9219 Z " fill="#000000"/><text fill="#000000" font-family="sans-serif" font-size="14" lengthAdjust="spacing" textLength="100" x="67.5" y="28.432">ReactiveObject</text><line style="stroke:#181818;stroke-width:0.5;" x1="39.5" x2="169.5" y1="39" y2="39"/><line style="stroke:#181818;stroke-width:0.5;" x1="39.5" x2="169.5" y1="47" y2="47"/></g><!--reverse link ViewModelBase to MainWindowViewModel--><g id="link_ViewModelBase_MainWindowViewModel"><path codeLine="5" d="M81.63,184.24 C77.02,213.45 77.13,251.51 81.96,280.3 " fill="none" id="ViewModelBase-backto-MainWindowViewModel" style="stroke:#181818;stroke-width:1.0;"/><polygon fill="none" points="74.74,182.98,85.89,164.96,88.41,186,74.74,182.98" style="stroke:#181818;stroke-width:1.0;"/></g><!--link MainWindowViewModel to ViewModelBase--><g id="link_MainWindowViewModel_ViewModelBase"><path codeLine="6" d="M104.5,280.3 C104.5,246.4 104.5,199.66 104.5,169.63 " fill="none" id="MainWindowViewModel-to-ViewModelBase" style="stroke:#181818;stroke-width:1.0;"/><polygon fill="#181818" points="104.5,165,100.5,174,104.5,170,108.5,174,104.5,165" style="stroke:#181818;stroke-width:1.0;"/><text fill="#000000" font-family="sans-serif" font-size="13" lengthAdjust="spacing" textLength="53" x="45.3719" y="185.0976">_content</text></g><!--link MainWindowViewModel to ViewModelBase--><g id="link_MainWindowViewModel_ViewModelBase"><path codeLine="7" d="M127.04,280.3 C132.73,246.4 131.88,199.66 124.47,169.63 " fill="none" id="MainWindowViewModel-to-ViewModelBase-1" style="stroke:#181818;stroke-width:1.0;"/><polygon fill="#181818" points="123.19,164.94,121.7014,174.6757,124.5068,169.7635,129.419,172.5688,123.19,164.94" style="stroke:#181818;stroke-width:1.0;"/><text fill="#000000" font-family="sans-serif" font-size="13" lengthAdjust="spacing" textLength="49" x="132.6852" y="185.0976">Content</text></g><!--reverse link ViewModelBase to SettingsViewModel--><g id="link_ViewModelBase_SettingsViewModel"><path codeLine="4" d="M194.61,141.86 C307.22,146.77 504.26,163.94 661.5,223 C703.56,238.8 746.14,267.23 776,289.66 " fill="none" id="ViewModelBase-backto-SettingsViewModel" style="stroke:#181818;stroke-width:1.0;"/><polygon fill="none" points="194.47,148.86,174.76,141.09,195.01,134.87,194.47,148.86" style="stroke:#181818;stroke-width:1.0;"/></g><!--link SettingsViewModel to Settings--><g id="link_SettingsViewModel_Settings"><path codeLine="5" d="M806.46,357.13 C802.74,391.25 802.85,444.34 806.8,477.32 " fill="none" id="SettingsViewModel-to-Settings" style="stroke:#181818;stroke-width:1.0;"/><polygon fill="#181818" points="807.44,482.13,810.2226,472.6824,806.7829,477.1734,802.292,473.7337,807.44,482.13" style="stroke:#181818;stroke-width:1.0;"/><text fill="#000000" font-family="sans-serif" font-size="13" lengthAdjust="spacing" textLength="54" x="744.4509" y="472.1945">_settings</text></g><!--link SettingsViewModel to Settings--><g id="link_SettingsViewModel_Settings"><path codeLine="6" d="M827.13,357.13 C831.07,391.25 830.95,444.34 826.78,477.32 " fill="none" id="SettingsViewModel-to-Settings-1" style="stroke:#181818;stroke-width:1.0;"/><polygon fill="#181818" points="826.1,482.13,831.3191,473.7777,826.7991,477.1791,823.3977,472.6591,826.1,482.13" style="stroke:#181818;stroke-width:1.0;"/><text fill="#000000" font-family="sans-serif" font-size="13" lengthAdjust="spacing" textLength="49" x="834.5743" y="472.1945">Settings</text></g><!--reverse link ViewModelBase to GameViewModel--><g id="link_ViewModelBase_GameViewModel"><path codeLine="11" d="M155.7,175.66 C179.1,191.96 207.98,212.08 236.78,232.14 " fill="none" id="ViewModelBase-backto-GameViewModel" style="stroke:#181818;stroke-width:1.0;"/><polygon fill="none" points="151.87,181.53,139.46,164.35,159.87,170.04,151.87,181.53" style="stroke:#181818;stroke-width:1.0;"/></g><!--link GameViewModel to GameState--><g id="link_GameViewModel_GameState"><path codeLine="12" d="M353.8,424.29 C354.03,443.81 355.04,462.8 356.83,477.65 " fill="none" id="GameViewModel-to-GameState" style="stroke:#181818;stroke-width:1.0;"/><polygon fill="#181818" points="357.45,482.25,360.2326,472.8024,356.7929,477.2934,352.302,473.8537,357.45,482.25" style="stroke:#181818;stroke-width:1.0;"/><text fill="#000000" font-family="sans-serif" font-size="13" lengthAdjust="spacing" textLength="36" x="314.7697" y="472.3453">_state</text></g><!--link GameViewModel to GameState--><g id="link_GameViewModel_GameState"><path codeLine="14" d="M379.95,424.29 C379.71,443.81 378.63,462.8 376.73,477.65 " fill="none" id="GameViewModel-to-GameState-1" style="stroke:#181818;stroke-width:1.0;"/><polygon fill="#181818" points="376.08,482.25,381.2991,473.8977,376.7791,477.2991,373.3777,472.7791,376.08,482.25" style="stroke:#181818;stroke-width:1.0;"/><text fill="#000000" font-family="sans-serif" font-size="13" lengthAdjust="spacing" textLength="31" x="382.2429" y="472.3453">State</text></g><!--link GameViewModel to GameStatus--><g id="link_GameViewModel_GameStatus"><path codeLine="13" d="M510.11,392.11 C526.07,385.58 542.03,374.34 557.99,358.38 " fill="none" id="GameViewModel-GameStatus" style="stroke:#181818;stroke-width:1.0;"/><polygon fill="none" points="497.86,396.08,504.7996,398.0401,509.278,392.3883,502.3384,390.4281,497.86,396.08" style="stroke:#181818;stroke-width:1.0;"/><polygon fill="#181818" points="566.89,348.93,557.806,352.7355,563.4604,352.5684,563.6275,358.2228,566.89,348.93" style="stroke:#181818;stroke-width:1.0;"/><line style="stroke:#181818;stroke-width:1.0;" x1="563.4604" x2="557.98" y1="352.5684" y2="358.39"/><text fill="#000000" font-family="sans-serif" font-size="13" lengthAdjust="spacing" textLength="43" x="515.4326" y="369.4006">_status</text></g><!--link GameViewModel to GameStatus--><g id="link_GameViewModel_GameStatus"><path codeLine="15" d="M496.42,250.45 C518.86,255.84 541.3,270.54 563.74,294.57 " fill="none" id="GameViewModel-to-GameStatus" style="stroke:#181818;stroke-width:1.0;"/><polygon fill="#181818" points="566.91,298.05,563.8247,288.6969,563.5502,294.3471,557.9,294.0726,566.91,298.05" style="stroke:#181818;stroke-width:1.0;"/><text fill="#000000" font-family="sans-serif" font-size="13" lengthAdjust="spacing" textLength="38" x="520.0464" y="287.7448">Status</text></g><!--reverse link ReactiveObject to ViewModelBase--><g id="link_ReactiveObject_ViewModelBase"><path codeLine="3" d="M104.5,76.72 C104.5,89.82 104.5,103.62 104.5,114.79 " fill="none" id="ReactiveObject-backto-ViewModelBase" style="stroke:#181818;stroke-width:1.0;"/><polygon fill="none" points="97.5,76.78,104.5,56.78,111.5,76.78,97.5,76.78" style="stroke:#181818;stroke-width:1.0;"/></g><!--SRC=[KypCIyufJKbLqDFtJSpC2y_CIyal3yjCBVVDJqdDqIiepStXKaIe2KujASdCIo_6hS8zCJSLjonSnYcnE1Ki2m00]--></g></svg>