<?xml version="1.0" encoding="UTF-8" standalone="no"?>
<!-- Created with Inkscape (http://www.inkscape.org/) -->

<svg
   width="32"
   height="32"
   viewBox="0 0 8.47 8.47"
   version="1.1"
   id="svg5"
   inkscape:version="1.2.2 (b0a8486541, 2022-12-01)"
   sodipodi:docname="icon.svg"
   xmlns:inkscape="http://www.inkscape.org/namespaces/inkscape"
   xmlns:sodipodi="http://sodipodi.sourceforge.net/DTD/sodipodi-0.dtd"
   xmlns="http://www.w3.org/2000/svg"
   xmlns:svg="http://www.w3.org/2000/svg">
  <sodipodi:namedview
     id="namedview7"
     pagecolor="#505050"
     bordercolor="#eeeeee"
     borderopacity="1"
     inkscape:showpageshadow="0"
     inkscape:pageopacity="0"
     inkscape:pagecheckerboard="0"
     inkscape:deskcolor="#505050"
     inkscape:document-units="mm"
     showgrid="false"
     inkscape:zoom="16"
     inkscape:cx="9.47"
     inkscape:cy="21.5"
     inkscape:window-width="1920"
     inkscape:window-height="1000"
     inkscape:window-x="0"
     inkscape:window-y="44"
     inkscape:window-maximized="1"
     inkscape:current-layer="layer1" />
  <defs
     id="defs2" />
  <g
     inkscape:label="Layer 1"
     inkscape:groupmode="layer"
     id="layer1">
    <rect
       style="opacity:1;fill:#309195;fill-opacity:1;stroke-width:0.600638;stroke-linecap:round;stroke-linejoin:round;stroke-miterlimit:2;stroke-dasharray:0.600638, 2.40255;paint-order:stroke fill markers"
       id="rect1068"
       width="8.47"
       height="8.47"
       x="0"
       y="0"
       ry="0.869" />
    <g
       aria-label="W"
       id="text853"
       style="font-size:7.937px;line-height:1.25;font-family:'Noto Music';-inkscape-font-specification:'Noto Music';fill:#1b3435;fill-opacity:1;stroke-width:0.265"
       transform="matrix(0.86,0,0,0.86,0.591,0.591)">
      <path
         d="M 4.24,3.25 C 4.01,3.96 3.79,4.61 3.56,5.22 3.33,5.82 3.11,6.41 2.88,6.98 H 2.11 C 1.83,6.17 1.77,6.08 1.65,5.61 1.27,4.25 0.956,2.54 0.769,1.48 1.03,1.34 1.3,1.34 1.58,1.48 1.65,1.89 1.73,2.31 1.81,2.72 1.89,3.13 1.97,3.53 2.05,3.92 2.14,4.31 2.22,4.68 2.31,5.04 2.4,5.39 2.48,5.72 2.57,6.02 2.78,5.47 3.01,4.86 3.25,4.19 3.48,3.52 3.7,2.84 3.91,2.13 4.1,2.08 4.3,2.04 4.58,2.13 4.79,2.84 5.01,3.52 5.25,4.19 5.5,4.86 5.73,5.47 5.94,6.02 6.02,5.73 6.1,5.4 6.19,5.04 6.28,4.69 6.36,4.32 6.44,3.93 6.52,3.54 6.6,3.14 6.68,2.73 6.76,2.31 6.84,1.89 6.91,1.48 7.14,1.43 7.36,1.38 7.7,1.48 7.51,2.54 7.16,4.27 6.79,5.64 6.67,6.1 6.63,6.17 6.36,6.98 H 5.59 C 5.36,6.41 5.13,5.82 4.9,5.22 4.68,4.61 4.46,3.96 4.24,3.25 Z"
         style="font-family:Ubuntu;-inkscape-font-specification:Ubuntu;fill:#1b3435;fill-opacity:1"
         id="path1013"
         sodipodi:nodetypes="csccaccssscsccscsssccaccsc" />
    </g>
  </g>
</svg>
