<?xml version="1.0" encoding="UTF-8" standalone="no"?>
<!-- Created with Inkscape (http://www.inkscape.org/) -->

<svg
   width="32"
   height="32"
   viewBox="0 0 8.47 8.47"
   version="1.1"
   id="svg5"
   inkscape:version="1.2.2 (b0a8486541, 2022-12-01)"
   sodipodi:docname="icon.svg"
   xmlns:inkscape="http://www.inkscape.org/namespaces/inkscape"
   xmlns:sodipodi="http://sodipodi.sourceforge.net/DTD/sodipodi-0.dtd"
   xmlns="http://www.w3.org/2000/svg"
   xmlns:svg="http://www.w3.org/2000/svg">
  <sodipodi:namedview
     id="namedview7"
     pagecolor="#505050"
     bordercolor="#eeeeee"
     borderopacity="1"
     inkscape:showpageshadow="0"
     inkscape:pageopacity="0"
     inkscape:pagecheckerboard="0"
     inkscape:deskcolor="#505050"
     inkscape:document-units="mm"
     showgrid="false"
     inkscape:zoom="22.6"
     inkscape:cx="8.31"
     inkscape:cy="9.61"
     inkscape:window-width="1920"
     inkscape:window-height="1000"
     inkscape:window-x="0"
     inkscape:window-y="44"
     inkscape:window-maximized="1"
     inkscape:current-layer="layer1" />
  <defs
     id="defs2" />
  <g
     inkscape:label="Layer 1"
     inkscape:groupmode="layer"
     id="layer1">
    <rect
       style="opacity:1;fill:#262f41;fill-opacity:1;stroke-width:0.600638;stroke-linecap:round;stroke-linejoin:round;stroke-miterlimit:2;stroke-dasharray:0.600638, 2.40255;paint-order:stroke fill markers"
       id="rect1068"
       width="8.47"
       height="8.47"
       x="0"
       y="0"
       ry="0.869" />
    <g
       aria-label="W"
       id="text853"
       style="font-size:7.937px;line-height:1.25;font-family:'Noto Music';-inkscape-font-specification:'Noto Music';fill:#529c58;fill-opacity:1;stroke-width:0.265"
       transform="matrix(0.86,0,0,0.86,0.591,0.591)">
      <path
         d="M 4.24,4.14 C 4.04,4.74 3.89,5.07 3.7,5.58 3.5,6.09 3.28,6.64 3.09,7.12 H 1.91 C 1.67,6.44 1.46,5.34 1.27,4.48 1.07,3.62 0.935,2.84 0.776,1.94 0.997,1.82 1.75,1.82 1.99,1.94 2.13,2.65 2.25,3.37 2.38,4.01 2.51,4.65 2.68,5.21 2.82,5.79 3,5.32 3.2,4.8 3.4,4.24 3.6,3.67 3.78,3.09 3.96,2.49 c 0.16,0 0.33,-0.1 0.57,0 C 4.71,3.09 4.89,3.67 5.1,4.24 5.31,4.8 5.5,5.32 5.68,5.79 5.84,5.19 5.97,4.66 6.1,4.02 6.23,3.38 6.38,2.61 6.5,1.94 6.7,1.9 7.41,1.85 7.7,1.94 7.54,2.84 7.35,3.71 7.16,4.57 6.97,5.43 6.79,6.44 6.56,7.12 H 5.38 C 5.19,6.64 4.93,6.19 4.71,5.61 4.46,4.95 4.43,4.74 4.24,4.14 Z"
         style="font-family:Ubuntu;-inkscape-font-specification:Ubuntu;fill:#529c58;fill-opacity:1;stroke-width:0.224552"
         id="path1013"
         sodipodi:nodetypes="cscczcczcsccsczcczccsc" />
    </g>
  </g>
</svg>
