<?xml version="1.0" encoding="us-ascii" standalone="no"?><svg xmlns="http://www.w3.org/2000/svg" xmlns:xlink="http://www.w3.org/1999/xlink" contentStyleType="text/css" height="561px" preserveAspectRatio="none" style="width:1355px;height:561px;background:#FFFFFF;" version="1.1" viewBox="0 0 1355 561" width="1355px" zoomAndPan="magnify"><defs/><g><!--class IconButton--><g id="elem_IconButton"><rect codeLine="1" fill="#F1F1F1" height="67.0679" id="IconButton" rx="2.5" ry="2.5" style="stroke:#181818;stroke-width:0.5;" width="199" x="7" y="248.656"/><ellipse cx="65.25" cy="264.656" fill="#ADD1B2" rx="11" ry="11" style="stroke:#181818;stroke-width:1.0;"/><path d="M64.7188,271.5779 Q62.9688,271.5779 61.8281,270.8435 Q60.7031,270.0935 60.1406,268.7498 Q59.5938,267.3904 59.5938,265.5935 Q59.5938,263.5623 60.25,262.1091 Q60.9063,260.656 62.1875,259.8748 Q63.4688,259.0935 65.3438,259.0935 Q66.2344,259.0935 66.9063,259.281 Q67.5781,259.4529 68.2656,259.7966 L67.4531,261.8123 Q66.8281,261.4998 66.2813,261.3748 Q65.75,261.2498 65.2656,261.2498 Q64.0938,261.2498 63.3906,261.781 Q62.6875,262.3123 62.3906,263.2654 Q62.0938,264.2185 62.0938,265.4841 Q62.0938,267.4998 62.8125,268.4685 Q63.5313,269.4216 65.125,269.4216 Q65.7188,269.4216 66.3438,269.2654 Q66.9688,269.1091 67.7969,268.7341 L67.7969,270.9529 Q67.0625,271.2654 66.2656,271.4216 Q65.4844,271.5779 64.7188,271.5779 Z " fill="#000000"/><text fill="#000000" font-family="sans-serif" font-size="14" lengthAdjust="spacing" textLength="74" x="85.75" y="270.088">IconButton</text><line style="stroke:#181818;stroke-width:0.5;" x1="8" x2="205" y1="280.656" y2="280.656"/><ellipse cx="18" cy="295.69" fill="none" rx="3" ry="3" style="stroke:#038048;stroke-width:1.0;"/><text fill="#000000" font-family="sans-serif" font-size="14" lengthAdjust="spacing" textLength="173" x="27" y="299.622">Icon : IImage? &#171;get&#187; &#171;set&#187;</text><line style="stroke:#181818;stroke-width:0.5;" x1="8" x2="205" y1="307.7239" y2="307.7239"/></g><!--class StyledProperty`1--><g id="elem_StyledProperty`1"><rect codeLine="19" fill="#F1F1F1" height="48" id="StyledProperty`1" rx="2.5" ry="2.5" style="stroke:#181818;stroke-width:0.5;" width="152" x="903.5" y="258.196"/><ellipse cx="918.5" cy="274.196" fill="#ADD1B2" rx="11" ry="11" style="stroke:#181818;stroke-width:1.0;"/><path d="M917.9688,281.1179 Q916.2188,281.1179 915.0781,280.3835 Q913.9531,279.6335 913.3906,278.2898 Q912.8438,276.9304 912.8438,275.1335 Q912.8438,273.1023 913.5,271.6491 Q914.1563,270.196 915.4375,269.4148 Q916.7188,268.6335 918.5938,268.6335 Q919.4844,268.6335 920.1563,268.821 Q920.8281,268.9929 921.5156,269.3366 L920.7031,271.3523 Q920.0781,271.0398 919.5313,270.9148 Q919,270.7898 918.5156,270.7898 Q917.3438,270.7898 916.6406,271.321 Q915.9375,271.8523 915.6406,272.8054 Q915.3438,273.7585 915.3438,275.0241 Q915.3438,277.0398 916.0625,278.0085 Q916.7813,278.9616 918.375,278.9616 Q918.9688,278.9616 919.5938,278.8054 Q920.2188,278.6491 921.0469,278.2741 L921.0469,280.4929 Q920.3125,280.8054 919.5156,280.9616 Q918.7344,281.1179 917.9688,281.1179 Z " fill="#000000"/><text fill="#000000" font-family="sans-serif" font-size="14" lengthAdjust="spacing" textLength="110" x="932.5" y="279.628">StyledProperty`1</text><rect fill="#FFFFFF" height="18.3441" style="stroke:#181818;stroke-width:1.0;stroke-dasharray:2.0,2.0;" width="8" x="1050.5" y="255.196"/><text fill="#000000" font-family="sans-serif" font-size="12" font-style="italic" lengthAdjust="spacing" textLength="6" x="1051.5" y="269.0241">T</text><line style="stroke:#181818;stroke-width:0.5;" x1="904.5" x2="1054.5" y1="290.196" y2="290.196"/><line style="stroke:#181818;stroke-width:0.5;" x1="904.5" x2="1054.5" y1="298.196" y2="298.196"/></g><!--class EventHandler`1--><g id="elem_EventHandler`1"><rect codeLine="6" fill="#F1F1F1" height="48" id="EventHandler`1" rx="2.5" ry="2.5" style="stroke:#181818;stroke-width:0.5;" width="145" x="542" y="10.016"/><ellipse cx="557" cy="26.016" fill="#ADD1B2" rx="11" ry="11" style="stroke:#181818;stroke-width:1.0;"/><path d="M556.4688,32.9379 Q554.7188,32.9379 553.5781,32.2035 Q552.4531,31.4535 551.8906,30.1098 Q551.3438,28.7504 551.3438,26.9535 Q551.3438,24.9223 552,23.4691 Q552.6563,22.016 553.9375,21.2348 Q555.2188,20.4535 557.0938,20.4535 Q557.9844,20.4535 558.6563,20.641 Q559.3281,20.8129 560.0156,21.1566 L559.2031,23.1723 Q558.5781,22.8598 558.0313,22.7348 Q557.5,22.6098 557.0156,22.6098 Q555.8438,22.6098 555.1406,23.141 Q554.4375,23.6723 554.1406,24.6254 Q553.8438,25.5785 553.8438,26.8441 Q553.8438,28.8598 554.5625,29.8285 Q555.2813,30.7816 556.875,30.7816 Q557.4688,30.7816 558.0938,30.6254 Q558.7188,30.4691 559.5469,30.0941 L559.5469,32.3129 Q558.8125,32.6254 558.0156,32.7816 Q557.2344,32.9379 556.4688,32.9379 Z " fill="#000000"/><text fill="#000000" font-family="sans-serif" font-size="14" lengthAdjust="spacing" textLength="103" x="571" y="31.448">EventHandler`1</text><rect fill="#FFFFFF" height="18.3441" style="stroke:#181818;stroke-width:1.0;stroke-dasharray:2.0,2.0;" width="8" x="682" y="7.016"/><text fill="#000000" font-family="sans-serif" font-size="12" font-style="italic" lengthAdjust="spacing" textLength="6" x="683" y="20.8441">T</text><line style="stroke:#181818;stroke-width:0.5;" x1="543" x2="686" y1="42.016" y2="42.016"/><line style="stroke:#181818;stroke-width:0.5;" x1="543" x2="686" y1="50.016" y2="50.016"/></g><!--class TemplatedControl--><g id="elem_TemplatedControl"><rect fill="#F1F1F1" height="48" id="TemplatedControl" rx="2.5" ry="2.5" style="stroke:#181818;stroke-width:0.5;" width="153" x="30" y="10.016"/><ellipse cx="45" cy="26.016" fill="#ADD1B2" rx="11" ry="11" style="stroke:#181818;stroke-width:1.0;"/><path d="M44.4688,32.9379 Q42.7188,32.9379 41.5781,32.2035 Q40.4531,31.4535 39.8906,30.1098 Q39.3438,28.7504 39.3438,26.9535 Q39.3438,24.9223 40,23.4691 Q40.6563,22.016 41.9375,21.2348 Q43.2188,20.4535 45.0938,20.4535 Q45.9844,20.4535 46.6563,20.641 Q47.3281,20.8129 48.0156,21.1566 L47.2031,23.1723 Q46.5781,22.8598 46.0313,22.7348 Q45.5,22.6098 45.0156,22.6098 Q43.8438,22.6098 43.1406,23.141 Q42.4375,23.6723 42.1406,24.6254 Q41.8438,25.5785 41.8438,26.8441 Q41.8438,28.8598 42.5625,29.8285 Q43.2813,30.7816 44.875,30.7816 Q45.4688,30.7816 46.0938,30.6254 Q46.7188,30.4691 47.5469,30.0941 L47.5469,32.3129 Q46.8125,32.6254 46.0156,32.7816 Q45.2344,32.9379 44.4688,32.9379 Z " fill="#000000"/><text fill="#000000" font-family="sans-serif" font-size="14" lengthAdjust="spacing" textLength="121" x="59" y="31.448">TemplatedControl</text><line style="stroke:#181818;stroke-width:0.5;" x1="31" x2="182" y1="42.016" y2="42.016"/><line style="stroke:#181818;stroke-width:0.5;" x1="31" x2="182" y1="50.016" y2="50.016"/></g><!--class AnswerField--><g id="elem_AnswerField"><rect codeLine="1" fill="#F1F1F1" height="328.3629" id="AnswerField" rx="2.5" ry="2.5" style="stroke:#181818;stroke-width:0.5;" width="419" x="241" y="118.016"/><ellipse cx="405.25" cy="140.722" fill="#ADD1B2" rx="11" ry="11" style="stroke:#181818;stroke-width:1.0;"/><path d="M404.7188,147.6439 Q402.9688,147.6439 401.8281,146.9095 Q400.7031,146.1595 400.1406,144.8158 Q399.5938,143.4564 399.5938,141.6595 Q399.5938,139.6283 400.25,138.1752 Q400.9063,136.722 402.1875,135.9408 Q403.4688,135.1595 405.3438,135.1595 Q406.2344,135.1595 406.9063,135.347 Q407.5781,135.5189 408.2656,135.8627 L407.4531,137.8783 Q406.8281,137.5658 406.2813,137.4408 Q405.75,137.3158 405.2656,137.3158 Q404.0938,137.3158 403.3906,137.847 Q402.6875,138.3783 402.3906,139.3314 Q402.0938,140.2845 402.0938,141.5502 Q402.0938,143.5658 402.8125,144.5345 Q403.5313,145.4877 405.125,145.4877 Q405.7188,145.4877 406.3438,145.3314 Q406.9688,145.1752 407.7969,144.8002 L407.7969,147.0189 Q407.0625,147.3314 406.2656,147.4877 Q405.4844,147.6439 404.7188,147.6439 Z " fill="#000000"/><text fill="#000000" font-family="sans-serif" font-size="12" font-style="italic" lengthAdjust="spacing" textLength="48" x="442.75" y="135.8441">&#171;partial&#187;</text><text fill="#000000" font-family="sans-serif" font-size="14" lengthAdjust="spacing" textLength="82" x="425.75" y="154.3261">AnswerField</text><line style="stroke:#181818;stroke-width:0.5;" x1="242" x2="659" y1="163.4281" y2="163.4281"/><rect fill="none" height="6" style="stroke:#C82930;stroke-width:1.0;" width="6" x="249" y="175.462"/><text fill="#000000" font-family="sans-serif" font-size="14" lengthAdjust="spacing" textLength="135" x="261" y="182.394">_maxLength : int = 5</text><ellipse cx="252" cy="197.5299" fill="none" rx="3" ry="3" style="stroke:#038048;stroke-width:1.0;"/><text fill="#000000" font-family="sans-serif" font-size="14" lengthAdjust="spacing" textLength="183" x="261" y="201.4619">MaxLength : int &#171;get&#187; &#171;set&#187;</text><ellipse cx="252" cy="216.5978" fill="none" rx="3" ry="3" style="stroke:#038048;stroke-width:1.0;"/><text fill="#000000" font-family="sans-serif" font-size="14" lengthAdjust="spacing" textLength="216" x="261" y="220.5298">CellSpacing : double &#171;get&#187; &#171;set&#187;</text><ellipse cx="252" cy="235.6658" fill="none" rx="3" ry="3" style="stroke:#038048;stroke-width:1.0;"/><text fill="#000000" font-family="sans-serif" font-size="14" lengthAdjust="spacing" textLength="164" x="261" y="239.5977">CellWidth : double &#171;get&#187;</text><ellipse cx="252" cy="254.7337" fill="none" rx="3" ry="3" style="stroke:#038048;stroke-width:1.0;"/><text fill="#000000" font-family="sans-serif" font-size="14" lengthAdjust="spacing" textLength="169" x="261" y="258.6657">CellHeight : double &#171;get&#187;</text><ellipse cx="252" cy="273.8016" fill="none" rx="3" ry="3" style="stroke:#038048;stroke-width:1.0;"/><text fill="#000000" font-family="sans-serif" font-size="14" lengthAdjust="spacing" textLength="295" x="261" y="277.7336">&#171;new&#187; BorderThickness : double &#171;get&#187; &#171;set&#187;</text><rect fill="none" height="6" style="stroke:#C82930;stroke-width:1.0;" width="6" x="249" y="289.8695"/><text fill="#000000" font-family="sans-serif" font-size="14" lengthAdjust="spacing" textLength="186" x="261" y="296.8015">_currentAnswer : string = ""</text><ellipse cx="252" cy="311.9374" fill="none" rx="3" ry="3" style="stroke:#038048;stroke-width:1.0;"/><text fill="#000000" font-family="sans-serif" font-size="14" lengthAdjust="spacing" textLength="232" x="261" y="315.8694">CurrentAnswer : string &#171;get&#187; &#171;set&#187;</text><rect fill="none" height="6" style="stroke:#C82930;stroke-width:1.0;" width="6" x="249" y="328.0053"/><text fill="#000000" font-family="sans-serif" font-size="14" lengthAdjust="spacing" textLength="183" x="261" y="334.9373">_correctAnswer : string = ""</text><ellipse cx="252" cy="350.0733" fill="none" rx="3" ry="3" style="stroke:#038048;stroke-width:1.0;"/><text fill="#000000" font-family="sans-serif" font-size="14" lengthAdjust="spacing" textLength="229" x="261" y="354.0052">CorrectAnswer : string &#171;get&#187; &#171;set&#187;</text><line style="stroke:#181818;stroke-width:0.5;" x1="242" x2="659" y1="362.1072" y2="362.1072"/><ellipse cx="252" cy="377.1412" fill="#84BE84" rx="3" ry="3" style="stroke:#038048;stroke-width:1.0;"/><text fill="#000000" font-family="sans-serif" font-size="14" lengthAdjust="spacing" textLength="90" x="261" y="381.0732">AnswerField()</text><rect fill="#F24D5C" height="6" style="stroke:#C82930;stroke-width:1.0;" width="6" x="249" y="393.2091"/><text fill="#000000" font-family="sans-serif" font-size="14" lengthAdjust="spacing" textLength="184" x="261" y="400.1411">InitializeComponent() : void</text><ellipse cx="252" cy="415.277" fill="#84BE84" rx="3" ry="3" style="stroke:#038048;stroke-width:1.0;"/><text fill="#000000" font-family="sans-serif" font-size="14" lengthAdjust="spacing" textLength="393" x="261" y="419.209">UseColors(uses:LetterUse[], length:int) : ISolidColorBrush[]</text><ellipse cx="252" cy="434.3449" fill="#84BE84" rx="3" ry="3" style="stroke:#038048;stroke-width:1.0;"/><text fill="#000000" font-family="sans-serif" font-size="14" lengthAdjust="spacing" textLength="332" x="261" y="438.2769">&#171;override&#187; Render(context:DrawingContext) : void</text></g><!--class DirectProperty`2--><g id="elem_DirectProperty`2"><rect codeLine="17" fill="#F1F1F1" height="48" id="DirectProperty`2" rx="2.5" ry="2.5" style="stroke:#181818;stroke-width:0.5;" width="174" x="694.5" y="258.196"/><ellipse cx="709.5" cy="274.196" fill="#ADD1B2" rx="11" ry="11" style="stroke:#181818;stroke-width:1.0;"/><path d="M708.9688,281.1179 Q707.2188,281.1179 706.0781,280.3835 Q704.9531,279.6335 704.3906,278.2898 Q703.8438,276.9304 703.8438,275.1335 Q703.8438,273.1023 704.5,271.6491 Q705.1563,270.196 706.4375,269.4148 Q707.7188,268.6335 709.5938,268.6335 Q710.4844,268.6335 711.1563,268.821 Q711.8281,268.9929 712.5156,269.3366 L711.7031,271.3523 Q711.0781,271.0398 710.5313,270.9148 Q710,270.7898 709.5156,270.7898 Q708.3438,270.7898 707.6406,271.321 Q706.9375,271.8523 706.6406,272.8054 Q706.3438,273.7585 706.3438,275.0241 Q706.3438,277.0398 707.0625,278.0085 Q707.7813,278.9616 709.375,278.9616 Q709.9688,278.9616 710.5938,278.8054 Q711.2188,278.6491 712.0469,278.2741 L712.0469,280.4929 Q711.3125,280.8054 710.5156,280.9616 Q709.7344,281.1179 708.9688,281.1179 Z " fill="#000000"/><text fill="#000000" font-family="sans-serif" font-size="14" lengthAdjust="spacing" textLength="109" x="723.5" y="279.628">DirectProperty`2</text><rect fill="#FFFFFF" height="18.3441" style="stroke:#181818;stroke-width:1.0;stroke-dasharray:2.0,2.0;" width="31" x="840.5" y="255.196"/><text fill="#000000" font-family="sans-serif" font-size="12" font-style="italic" lengthAdjust="spacing" textLength="29" x="841.5" y="269.0241">T1,T2</text><line style="stroke:#181818;stroke-width:0.5;" x1="695.5" x2="867.5" y1="290.196" y2="290.196"/><line style="stroke:#181818;stroke-width:0.5;" x1="695.5" x2="867.5" y1="298.196" y2="298.196"/></g><!--class UserControl--><g id="elem_UserControl"><rect fill="#F1F1F1" height="48" id="UserControl" rx="2.5" ry="2.5" style="stroke:#181818;stroke-width:0.5;" width="112" x="394.5" y="10.016"/><ellipse cx="409.5" cy="26.016" fill="#ADD1B2" rx="11" ry="11" style="stroke:#181818;stroke-width:1.0;"/><path d="M408.9688,32.9379 Q407.2188,32.9379 406.0781,32.2035 Q404.9531,31.4535 404.3906,30.1098 Q403.8438,28.7504 403.8438,26.9535 Q403.8438,24.9223 404.5,23.4691 Q405.1563,22.016 406.4375,21.2348 Q407.7188,20.4535 409.5938,20.4535 Q410.4844,20.4535 411.1563,20.641 Q411.8281,20.8129 412.5156,21.1566 L411.7031,23.1723 Q411.0781,22.8598 410.5313,22.7348 Q410,22.6098 409.5156,22.6098 Q408.3438,22.6098 407.6406,23.141 Q406.9375,23.6723 406.6406,24.6254 Q406.3438,25.5785 406.3438,26.8441 Q406.3438,28.8598 407.0625,29.8285 Q407.7813,30.7816 409.375,30.7816 Q409.9688,30.7816 410.5938,30.6254 Q411.2188,30.4691 412.0469,30.0941 L412.0469,32.3129 Q411.3125,32.6254 410.5156,32.7816 Q409.7344,32.9379 408.9688,32.9379 Z " fill="#000000"/><text fill="#000000" font-family="sans-serif" font-size="14" lengthAdjust="spacing" textLength="80" x="423.5" y="31.448">UserControl</text><line style="stroke:#181818;stroke-width:0.5;" x1="395.5" x2="505.5" y1="42.016" y2="42.016"/><line style="stroke:#181818;stroke-width:0.5;" x1="395.5" x2="505.5" y1="50.016" y2="50.016"/></g><!--class ISolidColorBrush--><g id="elem_ISolidColorBrush"><rect fill="#F1F1F1" height="48" id="ISolidColorBrush" rx="2.5" ry="2.5" style="stroke:#181818;stroke-width:0.5;" width="145" x="378" y="506.376"/><ellipse cx="393" cy="522.376" fill="#ADD1B2" rx="11" ry="11" style="stroke:#181818;stroke-width:1.0;"/><path d="M392.4688,529.2979 Q390.7188,529.2979 389.5781,528.5635 Q388.4531,527.8135 387.8906,526.4698 Q387.3438,525.1104 387.3438,523.3135 Q387.3438,521.2823 388,519.8291 Q388.6563,518.376 389.9375,517.5948 Q391.2188,516.8135 393.0938,516.8135 Q393.9844,516.8135 394.6563,517.001 Q395.3281,517.1729 396.0156,517.5166 L395.2031,519.5323 Q394.5781,519.2198 394.0313,519.0948 Q393.5,518.9698 393.0156,518.9698 Q391.8438,518.9698 391.1406,519.501 Q390.4375,520.0323 390.1406,520.9854 Q389.8438,521.9385 389.8438,523.2041 Q389.8438,525.2198 390.5625,526.1885 Q391.2813,527.1416 392.875,527.1416 Q393.4688,527.1416 394.0938,526.9854 Q394.7188,526.8291 395.5469,526.4541 L395.5469,528.6729 Q394.8125,528.9854 394.0156,529.1416 Q393.2344,529.2979 392.4688,529.2979 Z " fill="#000000"/><text fill="#000000" font-family="sans-serif" font-size="14" lengthAdjust="spacing" textLength="113" x="407" y="527.808">ISolidColorBrush</text><line style="stroke:#181818;stroke-width:0.5;" x1="379" x2="522" y1="538.376" y2="538.376"/><line style="stroke:#181818;stroke-width:0.5;" x1="379" x2="522" y1="546.376" y2="546.376"/></g><!--reverse link TemplatedControl to IconButton--><g id="link_TemplatedControl_IconButton"><path codeLine="8" d="M106.5,79.166 C106.5,127.736 106.5,204.656 106.5,248.236 " fill="none" id="TemplatedControl-backto-IconButton" style="stroke:#181818;stroke-width:1.0;"/><polygon fill="none" points="99.5,79.176,106.5,59.176,113.5,79.176,99.5,79.176" style="stroke:#181818;stroke-width:1.0;"/></g><!--link IconButton to StyledProperty`1--><g id="link_IconButton_StyledProperty`1"><path codeLine="9" d="M123.65,235.656 C143.75,188.716 182.02,118.906 241,88.016 C302.81,55.636 808.49,53.256 869,88.016 C927.07,121.366 957.07,198.046 970.45,244.446 " fill="none" id="IconButton-StyledProperty`1" style="stroke:#181818;stroke-width:1.0;"/><polygon fill="none" points="118.34,247.536,124.3261,243.5152,122.917,236.4432,116.9309,240.4639,118.34,247.536" style="stroke:#181818;stroke-width:1.0;"/><polygon fill="#181818" points="974.08,256.796,975.5757,247.0614,972.7667,251.9716,967.8566,249.1626,974.08,256.796" style="stroke:#181818;stroke-width:1.0;"/><line style="stroke:#181818;stroke-width:1.0;" x1="972.7667" x2="970.67" y1="251.9716" y2="244.251"/><text fill="#000000" font-family="sans-serif" font-size="13" lengthAdjust="spacing" textLength="141" x="990.7568" y="246.3529">IconProperty&lt;IImage?&gt;</text></g><!--reverse link UserControl to AnswerField--><g id="link_UserControl_AnswerField"><path codeLine="21" d="M450.5,78.846 C450.5,90.466 450.5,103.716 450.5,117.766 " fill="none" id="UserControl-backto-AnswerField" style="stroke:#181818;stroke-width:1.0;"/><polygon fill="none" points="443.5,79.176,450.5,59.176,457.5,79.176,443.5,79.176" style="stroke:#181818;stroke-width:1.0;"/></g><!--link AnswerField to DirectProperty`2--><g id="link_AnswerField_DirectProperty`2"><path codeLine="22" d="M672.87,390.786 C700.58,376.616 728.3,352.096 756.01,317.206 " fill="none" id="AnswerField-DirectProperty`2" style="stroke:#181818;stroke-width:1.0;"/><polygon fill="none" points="661.28,396.516,668.3976,397.6734,672.2035,391.5484,665.0859,390.391,661.28,396.516" style="stroke:#181818;stroke-width:1.0;"/><polygon fill="#181818" points="764.22,307.566,755.5605,312.2579,761.1701,311.5281,761.8999,317.1377,764.22,307.566" style="stroke:#181818;stroke-width:1.0;"/><line style="stroke:#181818;stroke-width:1.0;" x1="761.1701" x2="756.275" y1="311.5281" y2="317.861"/><text fill="#000000" font-family="sans-serif" font-size="13" lengthAdjust="spacing" textLength="227" x="740.6834" y="328.1459">MaxLengthProperty&lt;AnswerField,int&gt;</text></g><!--link AnswerField to DirectProperty`2--><g id="link_AnswerField_DirectProperty`2"><path codeLine="31" d="M674.13,282.196 C676.24,282.196 678.35,282.196 680.46,282.196 " fill="none" id="AnswerField-DirectProperty`2-1" style="stroke:#181818;stroke-width:1.0;"/><polygon fill="none" points="661.28,282.196,667.28,286.196,673.28,282.196,667.28,278.196,661.28,282.196" style="stroke:#181818;stroke-width:1.0;"/><polygon fill="#181818" points="693.38,282.196,684.38,278.196,688.38,282.196,684.38,286.196,693.38,282.196" style="stroke:#181818;stroke-width:1.0;"/><line style="stroke:#181818;stroke-width:1.0;" x1="688.38" x2="680.38" y1="282.196" y2="282.196"/><text fill="#000000" font-family="sans-serif" font-size="13" lengthAdjust="spacing" textLength="267" x="674.5065" y="246.4951">CurrentAnswerProperty&lt;AnswerField,string&gt;</text></g><!--link AnswerField to DirectProperty`2--><g id="link_AnswerField_DirectProperty`2"><path codeLine="32" d="M672.87,173.596 C700.58,187.766 728.3,212.296 756.01,247.186 " fill="none" id="AnswerField-DirectProperty`2-2" style="stroke:#181818;stroke-width:1.0;"/><polygon fill="none" points="661.28,167.876,665.0831,174.0027,672.2012,172.8486,668.3981,166.7219,661.28,167.876" style="stroke:#181818;stroke-width:1.0;"/><polygon fill="#181818" points="764.22,256.816,761.8916,247.2464,761.1667,252.8566,755.5565,252.1317,764.22,256.816" style="stroke:#181818;stroke-width:1.0;"/><line style="stroke:#181818;stroke-width:1.0;" x1="761.1667" x2="756.275" y1="252.8566" y2="246.526"/><text fill="#000000" font-family="sans-serif" font-size="13" lengthAdjust="spacing" textLength="265" x="666.8485" y="224.6242">CorrectAnswerProperty&lt;AnswerField,string&gt;</text></g><!--link AnswerField to StyledProperty`1--><g id="link_AnswerField_StyledProperty`1"><path codeLine="23" d="M670.24,112.366 C674.25,110.816 678.29,109.366 682.33,108.016 C703.24,101.036 861.56,97.036 880.67,108.016 C931.18,137.026 957.91,202.686 970.35,244.586 " fill="none" id="AnswerField-StyledProperty`1" style="stroke:#181818;stroke-width:1.0;"/><polygon fill="none" points="658.47,117.606,665.5401,119.0253,669.5694,113.045,662.4994,111.6257,658.47,117.606" style="stroke:#181818;stroke-width:1.0;"/><polygon fill="#181818" points="974.03,256.796,975.461,247.0517,972.6847,251.9804,967.756,249.2042,974.03,256.796" style="stroke:#181818;stroke-width:1.0;"/><line style="stroke:#181818;stroke-width:1.0;" x1="972.6847" x2="970.545" y1="251.9804" y2="244.271"/><text fill="#000000" font-family="sans-serif" font-size="13" lengthAdjust="spacing" textLength="177" x="772.9502" y="246.3529">CellSpacingProperty&lt;double&gt;</text></g><!--link AnswerField to StyledProperty`1--><g id="link_AnswerField_StyledProperty`1"><path codeLine="24" d="M655.56,111.366 C666.27,106.286 677.16,101.776 688.17,98.016 C707.79,91.296 856.85,87.686 874.83,98.016 C929.08,129.166 957.45,200.236 970.38,244.416 " fill="none" id="AnswerField-StyledProperty`1-1" style="stroke:#181818;stroke-width:1.0;"/><polygon fill="none" points="644.07,117.596,651.2254,118.4905,654.8031,112.2295,647.6477,111.335,644.07,117.596" style="stroke:#181818;stroke-width:1.0;"/><polygon fill="#181818" points="974.05,256.736,975.5222,246.9978,972.7251,251.9148,967.8082,249.1176,974.05,256.736" style="stroke:#181818;stroke-width:1.0;"/><line style="stroke:#181818;stroke-width:1.0;" x1="972.7251" x2="970.595" y1="251.9148" y2="244.201"/><text fill="#000000" font-family="sans-serif" font-size="13" lengthAdjust="spacing" textLength="284" x="1064.5144" y="261.2934">BackgroundCorrectProperty&lt;ISolidColorBrush&gt;</text></g><!--link AnswerField to StyledProperty`1--><g id="link_AnswerField_StyledProperty`1"><path codeLine="26" d="M643.4,110.916 C659.81,101.876 676.75,94.046 694,88.016 C712.35,81.596 852.14,78.326 869,88.016 C927.07,121.366 957.07,198.046 970.45,244.446 " fill="none" id="AnswerField-StyledProperty`1-2" style="stroke:#181818;stroke-width:1.0;"/><polygon fill="none" points="632.55,117.706,639.7446,118.1943,642.9624,111.741,635.7679,111.2527,632.55,117.706" style="stroke:#181818;stroke-width:1.0;"/><polygon fill="#181818" points="974.08,256.796,975.5757,247.0614,972.7667,251.9716,967.8566,249.1626,974.08,256.796" style="stroke:#181818;stroke-width:1.0;"/><line style="stroke:#181818;stroke-width:1.0;" x1="972.7667" x2="970.67" y1="251.9716" y2="244.251"/><text fill="#000000" font-family="sans-serif" font-size="13" lengthAdjust="spacing" textLength="289" x="1009.7193" y="246.3529">BackgroundPossibleProperty&lt;ISolidColorBrush&gt;</text></g><!--link AnswerField to StyledProperty`1--><g id="link_AnswerField_StyledProperty`1"><path codeLine="28" d="M633.99,110.196 C655.07,97.256 677.16,86.116 699.83,78.016 C716.92,71.906 847.43,68.976 863.17,78.016 C925.15,113.616 956.78,196.126 970.57,244.656 " fill="none" id="AnswerField-StyledProperty`1-3" style="stroke:#181818;stroke-width:1.0;"/><polygon fill="none" points="623.4,117.556,630.6093,117.7185,633.5321,111.1263,626.3228,110.9638,623.4,117.556" style="stroke:#181818;stroke-width:1.0;"/><polygon fill="#181818" points="974.15,256.956,975.6795,247.2266,972.8535,252.127,967.9531,249.3011,974.15,256.956" style="stroke:#181818;stroke-width:1.0;"/><line style="stroke:#181818;stroke-width:1.0;" x1="972.8535" x2="970.775" y1="252.127" y2="244.406"/><text fill="#000000" font-family="sans-serif" font-size="13" lengthAdjust="spacing" textLength="281" x="668.2023" y="245.0917">BackgroundWrongProperty&lt;ISolidColorBrush&gt;</text></g><!--link AnswerField to StyledProperty`1--><g id="link_AnswerField_StyledProperty`1"><path codeLine="30" d="M625.76,109.706 C650.98,92.766 677.86,78.136 705.67,68.016 C721.5,62.246 842.72,59.616 857.33,68.016 C923.16,105.826 956.41,194.016 970.63,244.656 " fill="none" id="AnswerField-StyledProperty`1-4" style="stroke:#181818;stroke-width:1.0;"/><polygon fill="none" points="615.29,117.636,622.5001,117.513,625.1596,110.8103,617.9496,110.9333,615.29,117.636" style="stroke:#181818;stroke-width:1.0;"/><polygon fill="#181818" points="974.15,256.866,975.7029,247.1404,972.8651,252.0339,967.9715,249.1962,974.15,256.866" style="stroke:#181818;stroke-width:1.0;"/><line style="stroke:#181818;stroke-width:1.0;" x1="972.8651" x2="970.8" y1="252.0339" y2="244.306"/><text fill="#000000" font-family="sans-serif" font-size="13" lengthAdjust="spacing" textLength="208" x="694.0099" y="246.4896">BorderThicknessProperty&lt;double&gt;</text></g><!--link AnswerField to ISolidColorBrush--><g id="link_AnswerField_ISolidColorBrush"><path codeLine="25" d="M425.55,446.716 C426.92,467.256 429.37,486.106 432.89,500.606 " fill="none" id="AnswerField-to-ISolidColorBrush" style="stroke:#181818;stroke-width:1.0;"/><polygon fill="#181818" points="434.35,505.146,435.8996,495.4198,433.0635,500.3144,428.1689,497.4783,434.35,505.146" style="stroke:#181818;stroke-width:1.0;"/><text fill="#000000" font-family="sans-serif" font-size="13" lengthAdjust="spacing" textLength="117" x="298.2209" y="494.7464">BackgroundCorrect</text></g><!--link AnswerField to ISolidColorBrush--><g id="link_AnswerField_ISolidColorBrush"><path codeLine="27" d="M450.5,446.716 C450.5,467.076 450.5,485.776 450.5,500.216 " fill="none" id="AnswerField-to-ISolidColorBrush-1" style="stroke:#181818;stroke-width:1.0;"/><polygon fill="#181818" points="450.5,505.146,454.5,496.146,450.5,500.146,446.5,496.146,450.5,505.146" style="stroke:#181818;stroke-width:1.0;"/><text fill="#000000" font-family="sans-serif" font-size="13" lengthAdjust="spacing" textLength="122" x="466.1313" y="494.7464">BackgroundPossible</text></g><!--link AnswerField to ISolidColorBrush--><g id="link_AnswerField_ISolidColorBrush"><path codeLine="29" d="M475.45,446.716 C474.08,467.256 471.63,486.106 468.11,500.606 " fill="none" id="AnswerField-to-ISolidColorBrush-2" style="stroke:#181818;stroke-width:1.0;"/><polygon fill="#181818" points="466.65,505.146,472.8311,497.4783,467.9365,500.3144,465.1004,495.4198,466.65,505.146" style="stroke:#181818;stroke-width:1.0;"/><text fill="#000000" font-family="sans-serif" font-size="13" lengthAdjust="spacing" textLength="114" x="530.6563" y="506.5882">BackgroundWrong</text></g><!--SRC=[KypCIyufJKbLqDFtJCxFSoejASdFqqkiICpDqIiepStXKaGeSCmhBayjSijCpKb1KW40]--></g></svg>