<?xml version="1.0" encoding="UTF-8" standalone="no"?><svg xmlns="http://www.w3.org/2000/svg" xmlns:xlink="http://www.w3.org/1999/xlink" contentStyleType="text/css" height="387px" preserveAspectRatio="none" style="width:1707px;height:387px;background:#FFFFFF;" version="1.1" viewBox="0 0 1707 387" width="1707px" zoomAndPan="magnify"><defs/><g><!--class SettingsView--><g id="elem_SettingsView"><rect codeLine="1" fill="#F1F1F1" height="156.7516" id="SettingsView" rx="2.5" ry="2.5" style="stroke:#181818;stroke-width:0.5;" width="682" x="7" y="115"/><ellipse cx="300.75" cy="137.706" fill="#ADD1B2" rx="11" ry="11" style="stroke:#181818;stroke-width:1.0;"/><path d="M300.2188,144.6279 Q298.4688,144.6279 297.3281,143.8935 Q296.2031,143.1435 295.6406,141.7998 Q295.0938,140.4404 295.0938,138.6435 Q295.0938,136.6123 295.75,135.1591 Q296.4063,133.706 297.6875,132.9248 Q298.9688,132.1435 300.8438,132.1435 Q301.7344,132.1435 302.4063,132.331 Q303.0781,132.5029 303.7656,132.8466 L302.9531,134.8623 Q302.3281,134.5498 301.7813,134.4248 Q301.25,134.2998 300.7656,134.2998 Q299.5938,134.2998 298.8906,134.831 Q298.1875,135.3623 297.8906,136.3154 Q297.5938,137.2685 297.5938,138.5341 Q297.5938,140.5498 298.3125,141.5185 Q299.0313,142.4716 300.625,142.4716 Q301.2188,142.4716 301.8438,142.3154 Q302.4688,142.1591 303.2969,141.7841 L303.2969,144.0029 Q302.5625,144.3154 301.7656,144.4716 Q300.9844,144.6279 300.2188,144.6279 Z " fill="#000000"/><text fill="#000000" font-family="sans-serif" font-size="12" font-style="italic" lengthAdjust="spacing" textLength="48" x="340.25" y="132.8281">«partial»</text><text fill="#000000" font-family="sans-serif" font-size="14" lengthAdjust="spacing" textLength="86" x="321.25" y="151.31">SettingsView</text><line style="stroke:#181818;stroke-width:0.5;" x1="8" x2="688" y1="160.412" y2="160.412"/><line style="stroke:#181818;stroke-width:0.5;" x1="8" x2="688" y1="168.412" y2="168.412"/><ellipse cx="18" cy="183.446" fill="#84BE84" rx="3" ry="3" style="stroke:#038048;stroke-width:1.0;"/><text fill="#000000" font-family="sans-serif" font-size="14" lengthAdjust="spacing" textLength="94" x="27" y="187.378">SettingsView()</text><rect fill="#F24D5C" height="6" style="stroke:#C82930;stroke-width:1.0;" width="6" x="15" y="199.5139"/><text fill="#000000" font-family="sans-serif" font-size="14" lengthAdjust="spacing" textLength="184" x="27" y="206.4459">InitializeComponent() : void</text><rect fill="#F24D5C" height="6" style="stroke:#C82930;stroke-width:1.0;" width="6" x="15" y="218.5818"/><text fill="#000000" font-family="sans-serif" font-size="14" lengthAdjust="spacing" textLength="514" x="27" y="225.5138">Close_OnPointerReleased(sender:object?, e:PointerReleasedEventArgs) : void</text><rect fill="#F24D5C" height="6" style="stroke:#C82930;stroke-width:1.0;" width="6" x="15" y="237.6497"/><text fill="#000000" font-family="sans-serif" font-size="14" lengthAdjust="spacing" textLength="654" x="27" y="244.5817">WordLength_OnValueChanged(sender:object?, e:NumericUpDownValueChangedEventArgs) : void</text><rect fill="#F24D5C" height="6" style="stroke:#C82930;stroke-width:1.0;" width="6" x="15" y="256.7177"/><text fill="#000000" font-family="sans-serif" font-size="14" lengthAdjust="spacing" textLength="656" x="27" y="263.6496">MaxAnswers_OnValueChanged(sender:object?, e:NumericUpDownValueChangedEventArgs) : void</text></g><!--class UserControl--><g id="elem_UserControl"><rect fill="#F1F1F1" height="48" id="UserControl" rx="2.5" ry="2.5" style="stroke:#181818;stroke-width:0.5;" width="112" x="955" y="7"/><ellipse cx="970" cy="23" fill="#ADD1B2" rx="11" ry="11" style="stroke:#181818;stroke-width:1.0;"/><path d="M969.4688,29.9219 Q967.7188,29.9219 966.5781,29.1875 Q965.4531,28.4375 964.8906,27.0938 Q964.3438,25.7344 964.3438,23.9375 Q964.3438,21.9063 965,20.4531 Q965.6563,19 966.9375,18.2188 Q968.2188,17.4375 970.0938,17.4375 Q970.9844,17.4375 971.6563,17.625 Q972.3281,17.7969 973.0156,18.1406 L972.2031,20.1563 Q971.5781,19.8438 971.0313,19.7188 Q970.5,19.5938 970.0156,19.5938 Q968.8438,19.5938 968.1406,20.125 Q967.4375,20.6563 967.1406,21.6094 Q966.8438,22.5625 966.8438,23.8281 Q966.8438,25.8438 967.5625,26.8125 Q968.2813,27.7656 969.875,27.7656 Q970.4688,27.7656 971.0938,27.6094 Q971.7188,27.4531 972.5469,27.0781 L972.5469,29.2969 Q971.8125,29.6094 971.0156,29.7656 Q970.2344,29.9219 969.4688,29.9219 Z " fill="#000000"/><text fill="#000000" font-family="sans-serif" font-size="14" lengthAdjust="spacing" textLength="80" x="984" y="28.432">UserControl</text><line style="stroke:#181818;stroke-width:0.5;" x1="956" x2="1066" y1="39" y2="39"/><line style="stroke:#181818;stroke-width:0.5;" x1="956" x2="1066" y1="47" y2="47"/></g><!--class GameView--><g id="elem_GameView"><rect codeLine="1" fill="#F1F1F1" height="137.6837" id="GameView" rx="2.5" ry="2.5" style="stroke:#181818;stroke-width:0.5;" width="573" x="724.5" y="124.5"/><ellipse cx="971.75" cy="147.206" fill="#ADD1B2" rx="11" ry="11" style="stroke:#181818;stroke-width:1.0;"/><path d="M971.2188,154.1279 Q969.4688,154.1279 968.3281,153.3935 Q967.2031,152.6435 966.6406,151.2998 Q966.0938,149.9404 966.0938,148.1435 Q966.0938,146.1123 966.75,144.6591 Q967.4063,143.206 968.6875,142.4248 Q969.9688,141.6435 971.8438,141.6435 Q972.7344,141.6435 973.4063,141.831 Q974.0781,142.0029 974.7656,142.3466 L973.9531,144.3623 Q973.3281,144.0498 972.7813,143.9248 Q972.25,143.7998 971.7656,143.7998 Q970.5938,143.7998 969.8906,144.331 Q969.1875,144.8623 968.8906,145.8154 Q968.5938,146.7685 968.5938,148.0341 Q968.5938,150.0498 969.3125,151.0185 Q970.0313,151.9716 971.625,151.9716 Q972.2188,151.9716 972.8438,151.8154 Q973.4688,151.6591 974.2969,151.2841 L974.2969,153.5029 Q973.5625,153.8154 972.7656,153.9716 Q971.9844,154.1279 971.2188,154.1279 Z " fill="#000000"/><text fill="#000000" font-family="sans-serif" font-size="12" font-style="italic" lengthAdjust="spacing" textLength="48" x="1003.25" y="142.3281">«partial»</text><text fill="#000000" font-family="sans-serif" font-size="14" lengthAdjust="spacing" textLength="70" x="992.25" y="160.81">GameView</text><line style="stroke:#181818;stroke-width:0.5;" x1="725.5" x2="1296.5" y1="169.912" y2="169.912"/><line style="stroke:#181818;stroke-width:0.5;" x1="725.5" x2="1296.5" y1="177.912" y2="177.912"/><ellipse cx="735.5" cy="192.946" fill="#84BE84" rx="3" ry="3" style="stroke:#038048;stroke-width:1.0;"/><text fill="#000000" font-family="sans-serif" font-size="14" lengthAdjust="spacing" textLength="78" x="744.5" y="196.878">GameView()</text><polygon fill="#FFFF44" points="735.5,207.0139,739.5,211.0139,735.5,215.0139,731.5,211.0139" style="stroke:#B38D22;stroke-width:1.0;"/><text fill="#000000" font-family="sans-serif" font-size="14" lengthAdjust="spacing" textLength="289" x="744.5" y="215.9459">«override» OnKeyUp(e:KeyEventArgs) : void</text><rect fill="#F24D5C" height="6" style="stroke:#C82930;stroke-width:1.0;" width="6" x="732.5" y="228.0818"/><text fill="#000000" font-family="sans-serif" font-size="14" lengthAdjust="spacing" textLength="547" x="744.5" y="235.0138">NewGame_OnPointerReleased(sender:object?, e:PointerReleasedEventArgs) : void</text><rect fill="#F24D5C" height="6" style="stroke:#C82930;stroke-width:1.0;" width="6" x="732.5" y="247.1497"/><text fill="#000000" font-family="sans-serif" font-size="14" lengthAdjust="spacing" textLength="533" x="744.5" y="254.0817">Settings_OnPointerReleased(sender:object?, e:PointerReleasedEventArgs) : void</text></g><!--class IEnumerable`1--><g id="elem_IEnumerable`1"><rect codeLine="7" fill="#F1F1F1" height="48" id="IEnumerable`1" rx="2.5" ry="2.5" style="stroke:#181818;stroke-width:0.5;" width="141" x="940.5" y="332"/><ellipse cx="955.5" cy="348" fill="#ADD1B2" rx="11" ry="11" style="stroke:#181818;stroke-width:1.0;"/><path d="M954.9688,354.9219 Q953.2188,354.9219 952.0781,354.1875 Q950.9531,353.4375 950.3906,352.0938 Q949.8438,350.7344 949.8438,348.9375 Q949.8438,346.9063 950.5,345.4531 Q951.1563,344 952.4375,343.2188 Q953.7188,342.4375 955.5938,342.4375 Q956.4844,342.4375 957.1563,342.625 Q957.8281,342.7969 958.5156,343.1406 L957.7031,345.1563 Q957.0781,344.8438 956.5313,344.7188 Q956,344.5938 955.5156,344.5938 Q954.3438,344.5938 953.6406,345.125 Q952.9375,345.6563 952.6406,346.6094 Q952.3438,347.5625 952.3438,348.8281 Q952.3438,350.8438 953.0625,351.8125 Q953.7813,352.7656 955.375,352.7656 Q955.9688,352.7656 956.5938,352.6094 Q957.2188,352.4531 958.0469,352.0781 L958.0469,354.2969 Q957.3125,354.6094 956.5156,354.7656 Q955.7344,354.9219 954.9688,354.9219 Z " fill="#000000"/><text fill="#000000" font-family="sans-serif" font-size="14" lengthAdjust="spacing" textLength="99" x="969.5" y="353.432">IEnumerable`1</text><rect fill="#FFFFFF" height="18.3441" style="stroke:#181818;stroke-width:1.0;stroke-dasharray:2.0,2.0;" width="8" x="1076.5" y="329"/><text fill="#000000" font-family="sans-serif" font-size="12" font-style="italic" lengthAdjust="spacing" textLength="6" x="1077.5" y="342.8281">T</text><line style="stroke:#181818;stroke-width:0.5;" x1="941.5" x2="1080.5" y1="364" y2="364"/><line style="stroke:#181818;stroke-width:0.5;" x1="941.5" x2="1080.5" y1="372" y2="372"/></g><!--class MainWindow--><g id="elem_MainWindow"><rect codeLine="1" fill="#F1F1F1" height="80.4799" id="MainWindow" rx="2.5" ry="2.5" style="stroke:#181818;stroke-width:0.5;" width="122" x="1578" y="153.5"/><ellipse cx="1593.9" cy="176.206" fill="#ADD1B2" rx="11" ry="11" style="stroke:#181818;stroke-width:1.0;"/><path d="M1593.3688,183.1279 Q1591.6188,183.1279 1590.4781,182.3935 Q1589.3531,181.6435 1588.7906,180.2998 Q1588.2438,178.9404 1588.2438,177.1435 Q1588.2438,175.1123 1588.9,173.6591 Q1589.5563,172.206 1590.8375,171.4248 Q1592.1188,170.6435 1593.9938,170.6435 Q1594.8844,170.6435 1595.5563,170.831 Q1596.2281,171.0029 1596.9156,171.3466 L1596.1031,173.3623 Q1595.4781,173.0498 1594.9313,172.9248 Q1594.4,172.7998 1593.9156,172.7998 Q1592.7438,172.7998 1592.0406,173.331 Q1591.3375,173.8623 1591.0406,174.8154 Q1590.7438,175.7685 1590.7438,177.0341 Q1590.7438,179.0498 1591.4625,180.0185 Q1592.1813,180.9716 1593.775,180.9716 Q1594.3688,180.9716 1594.9938,180.8154 Q1595.6188,180.6591 1596.4469,180.2841 L1596.4469,182.5029 Q1595.7125,182.8154 1594.9156,182.9716 Q1594.1344,183.1279 1593.3688,183.1279 Z " fill="#000000"/><text fill="#000000" font-family="sans-serif" font-size="12" font-style="italic" lengthAdjust="spacing" textLength="48" x="1628.1" y="171.3281">«partial»</text><text fill="#000000" font-family="sans-serif" font-size="14" lengthAdjust="spacing" textLength="88" x="1608.1" y="189.81">MainWindow</text><line style="stroke:#181818;stroke-width:0.5;" x1="1579" x2="1699" y1="198.912" y2="198.912"/><line style="stroke:#181818;stroke-width:0.5;" x1="1579" x2="1699" y1="206.912" y2="206.912"/><ellipse cx="1589" cy="221.946" fill="#84BE84" rx="3" ry="3" style="stroke:#038048;stroke-width:1.0;"/><text fill="#000000" font-family="sans-serif" font-size="14" lengthAdjust="spacing" textLength="96" x="1598" y="225.878">MainWindow()</text></g><!--class Window--><g id="elem_Window"><rect fill="#F1F1F1" height="48" id="Window" rx="2.5" ry="2.5" style="stroke:#181818;stroke-width:0.5;" width="86" x="1596" y="7"/><ellipse cx="1611" cy="23" fill="#ADD1B2" rx="11" ry="11" style="stroke:#181818;stroke-width:1.0;"/><path d="M1610.4688,29.9219 Q1608.7188,29.9219 1607.5781,29.1875 Q1606.4531,28.4375 1605.8906,27.0938 Q1605.3438,25.7344 1605.3438,23.9375 Q1605.3438,21.9063 1606,20.4531 Q1606.6563,19 1607.9375,18.2188 Q1609.2188,17.4375 1611.0938,17.4375 Q1611.9844,17.4375 1612.6563,17.625 Q1613.3281,17.7969 1614.0156,18.1406 L1613.2031,20.1563 Q1612.5781,19.8438 1612.0313,19.7188 Q1611.5,19.5938 1611.0156,19.5938 Q1609.8438,19.5938 1609.1406,20.125 Q1608.4375,20.6563 1608.1406,21.6094 Q1607.8438,22.5625 1607.8438,23.8281 Q1607.8438,25.8438 1608.5625,26.8125 Q1609.2813,27.7656 1610.875,27.7656 Q1611.4688,27.7656 1612.0938,27.6094 Q1612.7188,27.4531 1613.5469,27.0781 L1613.5469,29.2969 Q1612.8125,29.6094 1612.0156,29.7656 Q1611.2344,29.9219 1610.4688,29.9219 Z " fill="#000000"/><text fill="#000000" font-family="sans-serif" font-size="14" lengthAdjust="spacing" textLength="54" x="1625" y="28.432">Window</text><line style="stroke:#181818;stroke-width:0.5;" x1="1597" x2="1681" y1="39" y2="39"/><line style="stroke:#181818;stroke-width:0.5;" x1="1597" x2="1681" y1="47" y2="47"/></g><!--class AnswerView--><g id="elem_AnswerView"><rect codeLine="1" fill="#F1F1F1" height="99.5479" id="AnswerView" rx="2.5" ry="2.5" style="stroke:#181818;stroke-width:0.5;" width="210" x="1333" y="143.5"/><ellipse cx="1393.25" cy="166.206" fill="#ADD1B2" rx="11" ry="11" style="stroke:#181818;stroke-width:1.0;"/><path d="M1392.7188,173.1279 Q1390.9688,173.1279 1389.8281,172.3935 Q1388.7031,171.6435 1388.1406,170.2998 Q1387.5938,168.9404 1387.5938,167.1435 Q1387.5938,165.1123 1388.25,163.6591 Q1388.9063,162.206 1390.1875,161.4248 Q1391.4688,160.6435 1393.3438,160.6435 Q1394.2344,160.6435 1394.9063,160.831 Q1395.5781,161.0029 1396.2656,161.3466 L1395.4531,163.3623 Q1394.8281,163.0498 1394.2813,162.9248 Q1393.75,162.7998 1393.2656,162.7998 Q1392.0938,162.7998 1391.3906,163.331 Q1390.6875,163.8623 1390.3906,164.8154 Q1390.0938,165.7685 1390.0938,167.0341 Q1390.0938,169.0498 1390.8125,170.0185 Q1391.5313,170.9716 1393.125,170.9716 Q1393.7188,170.9716 1394.3438,170.8154 Q1394.9688,170.6591 1395.7969,170.2841 L1395.7969,172.5029 Q1395.0625,172.8154 1394.2656,172.9716 Q1393.4844,173.1279 1392.7188,173.1279 Z " fill="#000000"/><text fill="#000000" font-family="sans-serif" font-size="12" font-style="italic" lengthAdjust="spacing" textLength="48" x="1430.25" y="161.3281">«partial»</text><text fill="#000000" font-family="sans-serif" font-size="14" lengthAdjust="spacing" textLength="81" x="1413.75" y="179.81">AnswerView</text><line style="stroke:#181818;stroke-width:0.5;" x1="1334" x2="1542" y1="188.912" y2="188.912"/><line style="stroke:#181818;stroke-width:0.5;" x1="1334" x2="1542" y1="196.912" y2="196.912"/><ellipse cx="1344" cy="211.946" fill="#84BE84" rx="3" ry="3" style="stroke:#038048;stroke-width:1.0;"/><text fill="#000000" font-family="sans-serif" font-size="14" lengthAdjust="spacing" textLength="89" x="1353" y="215.878">AnswerView()</text><rect fill="#F24D5C" height="6" style="stroke:#C82930;stroke-width:1.0;" width="6" x="1341" y="228.0139"/><text fill="#000000" font-family="sans-serif" font-size="14" lengthAdjust="spacing" textLength="184" x="1353" y="234.9459">InitializeComponent() : void</text></g><!--reverse link UserControl to SettingsView--><g id="link_UserControl_SettingsView"><path codeLine="8" d="M934.18,50.6 C868.29,66.55 768.65,90.67 670.11,114.52 " fill="none" id="UserControl-backto-SettingsView" style="stroke:#181818;stroke-width:1.0;"/><polygon fill="none" points="932.2,43.87,953.29,45.97,935.5,57.48,932.2,43.87" style="stroke:#181818;stroke-width:1.0;"/></g><!--reverse link UserControl to GameView--><g id="link_UserControl_GameView"><path codeLine="9" d="M1011,76.8 C1011,91.53 1011,108.27 1011,124.34 " fill="none" id="UserControl-backto-GameView" style="stroke:#181818;stroke-width:1.0;"/><polygon fill="none" points="1004,76.85,1011,56.85,1018,76.85,1004,76.85" style="stroke:#181818;stroke-width:1.0;"/></g><!--link GameView to IEnumerable`1--><g id="link_GameView_IEnumerable`1"><path codeLine="10" d="M1011,262.57 C1011,284.48 1011,307.64 1011,325.29 " fill="none" id="GameView-to-IEnumerable`1" style="stroke:#181818;stroke-width:1.0;"/><polygon fill="#181818" points="1011,330.02,1015,321.02,1011,325.02,1007,321.02,1011,330.02" style="stroke:#181818;stroke-width:1.0;"/><text fill="#000000" font-family="sans-serif" font-size="13" lengthAdjust="spacing" textLength="212" x="771.8375" y="320.0689">AnswerModels&lt;AnswerViewModel&gt;</text></g><!--reverse link Window to MainWindow--><g id="link_Window_MainWindow"><path codeLine="4" d="M1639,76.78 C1639,100.81 1639,130.16 1639,153.29 " fill="none" id="Window-backto-MainWindow" style="stroke:#181818;stroke-width:1.0;"/><polygon fill="none" points="1632,76.85,1639,56.85,1646,76.85,1632,76.85" style="stroke:#181818;stroke-width:1.0;"/></g><!--reverse link UserControl to AnswerView--><g id="link_UserControl_AnswerView"><path codeLine="5" d="M1088.32,46.49 C1151.08,59.81 1240.97,82.44 1315,115 C1332.67,122.77 1350.77,132.82 1367.45,143.09 " fill="none" id="UserControl-backto-AnswerView" style="stroke:#181818;stroke-width:1.0;"/><polygon fill="none" points="1086.98,53.37,1068.81,42.48,1089.81,39.65,1086.98,53.37" style="stroke:#181818;stroke-width:1.0;"/></g><!--SRC=[KypCIyufJKbLqDCFJYqfoSnBBmxBJ2tNIwn8pCtHAoZDpU5IH2XnJynDnIFjcvYP5vwPbv9VZaUHOrvnUMeHcW80]--></g></svg>