<?xml version="1.0" encoding="us-ascii" standalone="no"?><svg xmlns="http://www.w3.org/2000/svg" xmlns:xlink="http://www.w3.org/1999/xlink" contentStyleType="text/css" height="297px" preserveAspectRatio="none" style="width:1674px;height:297px;background:#FFFFFF;" version="1.1" viewBox="0 0 1674 297" width="1674px" zoomAndPan="magnify"><defs/><g><!--class SettingsView--><g id="elem_SettingsView"><rect codeLine="1" fill="#F1F1F1" height="156.7516" id="SettingsView" rx="2.5" ry="2.5" style="stroke:#181818;stroke-width:0.5;" width="682" x="7" y="124.5"/><ellipse cx="300.75" cy="147.206" fill="#ADD1B2" rx="11" ry="11" style="stroke:#181818;stroke-width:1.0;"/><path d="M300.2188,154.1279 Q298.4688,154.1279 297.3281,153.3935 Q296.2031,152.6435 295.6406,151.2998 Q295.0938,149.9404 295.0938,148.1435 Q295.0938,146.1123 295.75,144.6591 Q296.4063,143.206 297.6875,142.4248 Q298.9688,141.6435 300.8438,141.6435 Q301.7344,141.6435 302.4063,141.831 Q303.0781,142.0029 303.7656,142.3466 L302.9531,144.3623 Q302.3281,144.0498 301.7813,143.9248 Q301.25,143.7998 300.7656,143.7998 Q299.5938,143.7998 298.8906,144.331 Q298.1875,144.8623 297.8906,145.8154 Q297.5938,146.7685 297.5938,148.0341 Q297.5938,150.0498 298.3125,151.0185 Q299.0313,151.9716 300.625,151.9716 Q301.2188,151.9716 301.8438,151.8154 Q302.4688,151.6591 303.2969,151.2841 L303.2969,153.5029 Q302.5625,153.8154 301.7656,153.9716 Q300.9844,154.1279 300.2188,154.1279 Z " fill="#000000"/><text fill="#000000" font-family="sans-serif" font-size="12" font-style="italic" lengthAdjust="spacing" textLength="48" x="340.25" y="142.3281">&#171;partial&#187;</text><text fill="#000000" font-family="sans-serif" font-size="14" lengthAdjust="spacing" textLength="86" x="321.25" y="160.81">SettingsView</text><line style="stroke:#181818;stroke-width:0.5;" x1="8" x2="688" y1="169.912" y2="169.912"/><line style="stroke:#181818;stroke-width:0.5;" x1="8" x2="688" y1="177.912" y2="177.912"/><ellipse cx="18" cy="192.946" fill="#84BE84" rx="3" ry="3" style="stroke:#038048;stroke-width:1.0;"/><text fill="#000000" font-family="sans-serif" font-size="14" lengthAdjust="spacing" textLength="94" x="27" y="196.878">SettingsView()</text><rect fill="#F24D5C" height="6" style="stroke:#C82930;stroke-width:1.0;" width="6" x="15" y="209.0139"/><text fill="#000000" font-family="sans-serif" font-size="14" lengthAdjust="spacing" textLength="184" x="27" y="215.9459">InitializeComponent() : void</text><rect fill="#F24D5C" height="6" style="stroke:#C82930;stroke-width:1.0;" width="6" x="15" y="228.0818"/><text fill="#000000" font-family="sans-serif" font-size="14" lengthAdjust="spacing" textLength="514" x="27" y="235.0138">Close_OnPointerReleased(sender:object?, e:PointerReleasedEventArgs) : void</text><rect fill="#F24D5C" height="6" style="stroke:#C82930;stroke-width:1.0;" width="6" x="15" y="247.1497"/><text fill="#000000" font-family="sans-serif" font-size="14" lengthAdjust="spacing" textLength="654" x="27" y="254.0817">WordLength_OnValueChanged(sender:object?, e:NumericUpDownValueChangedEventArgs) : void</text><rect fill="#F24D5C" height="6" style="stroke:#C82930;stroke-width:1.0;" width="6" x="15" y="266.2177"/><text fill="#000000" font-family="sans-serif" font-size="14" lengthAdjust="spacing" textLength="656" x="27" y="273.1496">MaxAnswers_OnValueChanged(sender:object?, e:NumericUpDownValueChangedEventArgs) : void</text></g><!--class UserControl--><g id="elem_UserControl"><rect fill="#F1F1F1" height="48" id="UserControl" rx="2.5" ry="2.5" style="stroke:#181818;stroke-width:0.5;" width="112" x="624" y="7"/><ellipse cx="639" cy="23" fill="#ADD1B2" rx="11" ry="11" style="stroke:#181818;stroke-width:1.0;"/><path d="M638.4688,29.9219 Q636.7188,29.9219 635.5781,29.1875 Q634.4531,28.4375 633.8906,27.0938 Q633.3438,25.7344 633.3438,23.9375 Q633.3438,21.9063 634,20.4531 Q634.6563,19 635.9375,18.2188 Q637.2188,17.4375 639.0938,17.4375 Q639.9844,17.4375 640.6563,17.625 Q641.3281,17.7969 642.0156,18.1406 L641.2031,20.1563 Q640.5781,19.8438 640.0313,19.7188 Q639.5,19.5938 639.0156,19.5938 Q637.8438,19.5938 637.1406,20.125 Q636.4375,20.6563 636.1406,21.6094 Q635.8438,22.5625 635.8438,23.8281 Q635.8438,25.8438 636.5625,26.8125 Q637.2813,27.7656 638.875,27.7656 Q639.4688,27.7656 640.0938,27.6094 Q640.7188,27.4531 641.5469,27.0781 L641.5469,29.2969 Q640.8125,29.6094 640.0156,29.7656 Q639.2344,29.9219 638.4688,29.9219 Z " fill="#000000"/><text fill="#000000" font-family="sans-serif" font-size="14" lengthAdjust="spacing" textLength="80" x="653" y="28.432">UserControl</text><line style="stroke:#181818;stroke-width:0.5;" x1="625" x2="735" y1="39" y2="39"/><line style="stroke:#181818;stroke-width:0.5;" x1="625" x2="735" y1="47" y2="47"/></g><!--class GameView--><g id="elem_GameView"><rect codeLine="1" fill="#F1F1F1" height="175.8195" id="GameView" rx="2.5" ry="2.5" style="stroke:#181818;stroke-width:0.5;" width="573" x="724.5" y="115"/><ellipse cx="971.75" cy="137.706" fill="#ADD1B2" rx="11" ry="11" style="stroke:#181818;stroke-width:1.0;"/><path d="M971.2188,144.6279 Q969.4688,144.6279 968.3281,143.8935 Q967.2031,143.1435 966.6406,141.7998 Q966.0938,140.4404 966.0938,138.6435 Q966.0938,136.6123 966.75,135.1591 Q967.4063,133.706 968.6875,132.9248 Q969.9688,132.1435 971.8438,132.1435 Q972.7344,132.1435 973.4063,132.331 Q974.0781,132.5029 974.7656,132.8466 L973.9531,134.8623 Q973.3281,134.5498 972.7813,134.4248 Q972.25,134.2998 971.7656,134.2998 Q970.5938,134.2998 969.8906,134.831 Q969.1875,135.3623 968.8906,136.3154 Q968.5938,137.2685 968.5938,138.5341 Q968.5938,140.5498 969.3125,141.5185 Q970.0313,142.4716 971.625,142.4716 Q972.2188,142.4716 972.8438,142.3154 Q973.4688,142.1591 974.2969,141.7841 L974.2969,144.0029 Q973.5625,144.3154 972.7656,144.4716 Q971.9844,144.6279 971.2188,144.6279 Z " fill="#000000"/><text fill="#000000" font-family="sans-serif" font-size="12" font-style="italic" lengthAdjust="spacing" textLength="48" x="1003.25" y="132.8281">&#171;partial&#187;</text><text fill="#000000" font-family="sans-serif" font-size="14" lengthAdjust="spacing" textLength="70" x="992.25" y="151.31">GameView</text><line style="stroke:#181818;stroke-width:0.5;" x1="725.5" x2="1296.5" y1="160.412" y2="160.412"/><line style="stroke:#181818;stroke-width:0.5;" x1="725.5" x2="1296.5" y1="168.412" y2="168.412"/><ellipse cx="735.5" cy="183.446" fill="#84BE84" rx="3" ry="3" style="stroke:#038048;stroke-width:1.0;"/><text fill="#000000" font-family="sans-serif" font-size="14" lengthAdjust="spacing" textLength="78" x="744.5" y="187.378">GameView()</text><rect fill="#F24D5C" height="6" style="stroke:#C82930;stroke-width:1.0;" width="6" x="732.5" y="199.5139"/><text fill="#000000" font-family="sans-serif" font-size="14" lengthAdjust="spacing" textLength="168" x="744.5" y="206.4459">RebuildLetterGrid() : void</text><rect fill="#F24D5C" height="6" style="stroke:#C82930;stroke-width:1.0;" width="6" x="732.5" y="218.5818"/><text fill="#000000" font-family="sans-serif" font-size="14" lengthAdjust="spacing" textLength="126" x="744.5" y="225.5138">ShowStatus() : void</text><polygon fill="#FFFF44" points="735.5,235.6497,739.5,239.6497,735.5,243.6497,731.5,239.6497" style="stroke:#B38D22;stroke-width:1.0;"/><text fill="#000000" font-family="sans-serif" font-size="14" lengthAdjust="spacing" textLength="191" x="744.5" y="244.5817">&#171;override&#187; OnLoaded() : void</text><rect fill="#F24D5C" height="6" style="stroke:#C82930;stroke-width:1.0;" width="6" x="732.5" y="256.7177"/><text fill="#000000" font-family="sans-serif" font-size="14" lengthAdjust="spacing" textLength="547" x="744.5" y="263.6496">NewGame_OnPointerReleased(sender:object?, e:PointerReleasedEventArgs) : void</text><rect fill="#F24D5C" height="6" style="stroke:#C82930;stroke-width:1.0;" width="6" x="732.5" y="275.7856"/><text fill="#000000" font-family="sans-serif" font-size="14" lengthAdjust="spacing" textLength="533" x="744.5" y="282.7176">Settings_OnPointerReleased(sender:object?, e:PointerReleasedEventArgs) : void</text></g><!--class MainWindow--><g id="elem_MainWindow"><rect codeLine="1" fill="#F1F1F1" height="99.5479" id="MainWindow" rx="2.5" ry="2.5" style="stroke:#181818;stroke-width:0.5;" width="334" x="1333" y="153"/><ellipse cx="1451.75" cy="175.706" fill="#ADD1B2" rx="11" ry="11" style="stroke:#181818;stroke-width:1.0;"/><path d="M1451.2188,182.6279 Q1449.4688,182.6279 1448.3281,181.8935 Q1447.2031,181.1435 1446.6406,179.7998 Q1446.0938,178.4404 1446.0938,176.6435 Q1446.0938,174.6123 1446.75,173.1591 Q1447.4063,171.706 1448.6875,170.9248 Q1449.9688,170.1435 1451.8438,170.1435 Q1452.7344,170.1435 1453.4063,170.331 Q1454.0781,170.5029 1454.7656,170.8466 L1453.9531,172.8623 Q1453.3281,172.5498 1452.7813,172.4248 Q1452.25,172.2998 1451.7656,172.2998 Q1450.5938,172.2998 1449.8906,172.831 Q1449.1875,173.3623 1448.8906,174.3154 Q1448.5938,175.2685 1448.5938,176.5341 Q1448.5938,178.5498 1449.3125,179.5185 Q1450.0313,180.4716 1451.625,180.4716 Q1452.2188,180.4716 1452.8438,180.3154 Q1453.4688,180.1591 1454.2969,179.7841 L1454.2969,182.0029 Q1453.5625,182.3154 1452.7656,182.4716 Q1451.9844,182.6279 1451.2188,182.6279 Z " fill="#000000"/><text fill="#000000" font-family="sans-serif" font-size="12" font-style="italic" lengthAdjust="spacing" textLength="48" x="1492.25" y="170.8281">&#171;partial&#187;</text><text fill="#000000" font-family="sans-serif" font-size="14" lengthAdjust="spacing" textLength="88" x="1472.25" y="189.31">MainWindow</text><line style="stroke:#181818;stroke-width:0.5;" x1="1334" x2="1666" y1="198.412" y2="198.412"/><line style="stroke:#181818;stroke-width:0.5;" x1="1334" x2="1666" y1="206.412" y2="206.412"/><ellipse cx="1344" cy="221.446" fill="#84BE84" rx="3" ry="3" style="stroke:#038048;stroke-width:1.0;"/><text fill="#000000" font-family="sans-serif" font-size="14" lengthAdjust="spacing" textLength="96" x="1353" y="225.378">MainWindow()</text><polygon fill="#FFFF44" points="1344,235.5139,1348,239.5139,1344,243.5139,1340,239.5139" style="stroke:#B38D22;stroke-width:1.0;"/><text fill="#000000" font-family="sans-serif" font-size="14" lengthAdjust="spacing" textLength="308" x="1353" y="244.4459">&#171;override&#187; OnKeyDown(e:KeyEventArgs) : void</text></g><!--class Window--><g id="elem_Window"><rect fill="#F1F1F1" height="48" id="Window" rx="2.5" ry="2.5" style="stroke:#181818;stroke-width:0.5;" width="86" x="1457" y="7"/><ellipse cx="1472" cy="23" fill="#ADD1B2" rx="11" ry="11" style="stroke:#181818;stroke-width:1.0;"/><path d="M1471.4688,29.9219 Q1469.7188,29.9219 1468.5781,29.1875 Q1467.4531,28.4375 1466.8906,27.0938 Q1466.3438,25.7344 1466.3438,23.9375 Q1466.3438,21.9063 1467,20.4531 Q1467.6563,19 1468.9375,18.2188 Q1470.2188,17.4375 1472.0938,17.4375 Q1472.9844,17.4375 1473.6563,17.625 Q1474.3281,17.7969 1475.0156,18.1406 L1474.2031,20.1563 Q1473.5781,19.8438 1473.0313,19.7188 Q1472.5,19.5938 1472.0156,19.5938 Q1470.8438,19.5938 1470.1406,20.125 Q1469.4375,20.6563 1469.1406,21.6094 Q1468.8438,22.5625 1468.8438,23.8281 Q1468.8438,25.8438 1469.5625,26.8125 Q1470.2813,27.7656 1471.875,27.7656 Q1472.4688,27.7656 1473.0938,27.6094 Q1473.7188,27.4531 1474.5469,27.0781 L1474.5469,29.2969 Q1473.8125,29.6094 1473.0156,29.7656 Q1472.2344,29.9219 1471.4688,29.9219 Z " fill="#000000"/><text fill="#000000" font-family="sans-serif" font-size="14" lengthAdjust="spacing" textLength="54" x="1486" y="28.432">Window</text><line style="stroke:#181818;stroke-width:0.5;" x1="1458" x2="1542" y1="39" y2="39"/><line style="stroke:#181818;stroke-width:0.5;" x1="1458" x2="1542" y1="47" y2="47"/></g><!--reverse link UserControl to SettingsView--><g id="link_UserControl_SettingsView"><path codeLine="8" d="M615.35,65.1 C582.39,81.98 540.78,103.29 500.26,124.03 " fill="none" id="UserControl-backto-SettingsView" style="stroke:#181818;stroke-width:1.0;"/><polygon fill="none" points="611.85,59.03,632.84,56.15,618.23,71.5,611.85,59.03" style="stroke:#181818;stroke-width:1.0;"/></g><!--reverse link UserControl to GameView--><g id="link_UserControl_GameView"><path codeLine="9" d="M744.81,65.28 C772.68,79.6 806.71,97.08 841,114.69 " fill="none" id="UserControl-backto-GameView" style="stroke:#181818;stroke-width:1.0;"/><polygon fill="none" points="741.62,71.51,727.02,56.15,748.01,59.06,741.62,71.51" style="stroke:#181818;stroke-width:1.0;"/></g><!--reverse link Window to MainWindow--><g id="link_Window_MainWindow"><path codeLine="5" d="M1500,76.48 C1500,99.82 1500,128.48 1500,152.52 " fill="none" id="Window-backto-MainWindow" style="stroke:#181818;stroke-width:1.0;"/><polygon fill="none" points="1493,76.79,1500,56.79,1507,76.79,1493,76.79" style="stroke:#181818;stroke-width:1.0;"/></g><!--SRC=[KypCIyufJKbLqDCFJYqfoSnBBmxBJ2tNIwn8pCtHAoZDpU5IH2XnJynDnIFjcvYP5vwPbv9VZgO80000]--></g></svg>