<?xml version="1.0" encoding="us-ascii" standalone="no"?><svg xmlns="http://www.w3.org/2000/svg" xmlns:xlink="http://www.w3.org/1999/xlink" contentStyleType="text/css" height="633px" preserveAspectRatio="none" style="width:1486px;height:633px;background:#FFFFFF;" version="1.1" viewBox="0 0 1486 633" width="1486px" zoomAndPan="magnify"><defs/><g><!--class StatsViewModel--><g id="elem_StatsViewModel"><rect codeLine="1" fill="#F1F1F1" height="276.815" id="StatsViewModel" rx="2.5" ry="2.5" style="stroke:#181818;stroke-width:0.5;" width="221" x="453.5" y="242.06"/><ellipse cx="506.75" cy="258.06" fill="#ADD1B2" rx="11" ry="11" style="stroke:#181818;stroke-width:1.0;"/><path d="M506.2188,264.9819 Q504.4688,264.9819 503.3281,264.2475 Q502.2031,263.4975 501.6406,262.1538 Q501.0938,260.7944 501.0938,258.9975 Q501.0938,256.9663 501.75,255.5131 Q502.4063,254.06 503.6875,253.2788 Q504.9688,252.4975 506.8438,252.4975 Q507.7344,252.4975 508.4063,252.685 Q509.0781,252.8569 509.7656,253.2006 L508.9531,255.2163 Q508.3281,254.9038 507.7813,254.7788 Q507.25,254.6538 506.7656,254.6538 Q505.5938,254.6538 504.8906,255.185 Q504.1875,255.7163 503.8906,256.6694 Q503.5938,257.6225 503.5938,258.8881 Q503.5938,260.9038 504.3125,261.8725 Q505.0313,262.8256 506.625,262.8256 Q507.2188,262.8256 507.8438,262.6694 Q508.4688,262.5131 509.2969,262.1381 L509.2969,264.3569 Q508.5625,264.6694 507.7656,264.8256 Q506.9844,264.9819 506.2188,264.9819 Z " fill="#000000"/><text fill="#000000" font-family="sans-serif" font-size="14" lengthAdjust="spacing" textLength="106" x="527.25" y="263.492">StatsViewModel</text><line style="stroke:#181818;stroke-width:0.5;" x1="454.5" x2="673.5" y1="274.06" y2="274.06"/><rect fill="none" height="6" style="stroke:#C82930;stroke-width:1.0;" width="6" x="461.5" y="286.094"/><text fill="#000000" font-family="sans-serif" font-size="14" lengthAdjust="spacing" textLength="116" x="473.5" y="293.0259">_stats : PlayStats?</text><ellipse cx="464.5" cy="308.1619" fill="none" rx="3" ry="3" style="stroke:#038048;stroke-width:1.0;"/><text fill="#000000" font-family="sans-serif" font-size="14" lengthAdjust="spacing" textLength="103" x="473.5" y="312.0939">Wins : int &#171;get&#187;</text><ellipse cx="464.5" cy="327.2298" fill="none" rx="3" ry="3" style="stroke:#038048;stroke-width:1.0;"/><text fill="#000000" font-family="sans-serif" font-size="14" lengthAdjust="spacing" textLength="107" x="473.5" y="331.1618">Loses : int &#171;get&#187;</text><ellipse cx="464.5" cy="346.2977" fill="none" rx="3" ry="3" style="stroke:#038048;stroke-width:1.0;"/><text fill="#000000" font-family="sans-serif" font-size="14" lengthAdjust="spacing" textLength="104" x="473.5" y="350.2297">Plays : int &#171;get&#187;</text><ellipse cx="464.5" cy="365.3656" fill="none" rx="3" ry="3" style="stroke:#038048;stroke-width:1.0;"/><text fill="#000000" font-family="sans-serif" font-size="14" lengthAdjust="spacing" textLength="186" x="473.5" y="369.2976">LongestGuess : string &#171;get&#187;</text><ellipse cx="464.5" cy="384.4335" fill="none" rx="3" ry="3" style="stroke:#038048;stroke-width:1.0;"/><text fill="#000000" font-family="sans-serif" font-size="14" lengthAdjust="spacing" textLength="195" x="473.5" y="388.3655">QuickestVictory : string &#171;get&#187;</text><ellipse cx="464.5" cy="403.5015" fill="none" rx="3" ry="3" style="stroke:#038048;stroke-width:1.0;"/><text fill="#000000" font-family="sans-serif" font-size="14" lengthAdjust="spacing" textLength="167" x="473.5" y="407.4334">ScreenTitle : string &#171;get&#187;</text><ellipse cx="464.5" cy="422.5694" fill="none" rx="3" ry="3" style="stroke:#038048;stroke-width:1.0;"/><text fill="#000000" font-family="sans-serif" font-size="14" lengthAdjust="spacing" textLength="151" x="473.5" y="426.5014">StatWins : string &#171;get&#187;</text><ellipse cx="464.5" cy="441.6373" fill="none" rx="3" ry="3" style="stroke:#038048;stroke-width:1.0;"/><text fill="#000000" font-family="sans-serif" font-size="14" lengthAdjust="spacing" textLength="155" x="473.5" y="445.5693">StatLoses : string &#171;get&#187;</text><ellipse cx="464.5" cy="460.7052" fill="none" rx="3" ry="3" style="stroke:#038048;stroke-width:1.0;"/><text fill="#000000" font-family="sans-serif" font-size="14" lengthAdjust="spacing" textLength="151" x="473.5" y="464.6372">StatTotal : string &#171;get&#187;</text><ellipse cx="464.5" cy="479.7731" fill="none" rx="3" ry="3" style="stroke:#038048;stroke-width:1.0;"/><text fill="#000000" font-family="sans-serif" font-size="14" lengthAdjust="spacing" textLength="171" x="473.5" y="483.7051">StatLongest : string &#171;get&#187;</text><ellipse cx="464.5" cy="498.841" fill="none" rx="3" ry="3" style="stroke:#038048;stroke-width:1.0;"/><text fill="#000000" font-family="sans-serif" font-size="14" lengthAdjust="spacing" textLength="176" x="473.5" y="502.773">StatQuickest : string &#171;get&#187;</text><line style="stroke:#181818;stroke-width:0.5;" x1="454.5" x2="673.5" y1="510.875" y2="510.875"/></g><!--class ViewModelBase--><g id="elem_ViewModelBase"><rect codeLine="1" fill="#F1F1F1" height="67.0679" id="ViewModelBase" rx="2.5" ry="2.5" style="stroke:#181818;stroke-width:0.5;" width="216" x="704" y="115"/><ellipse cx="755.25" cy="131" fill="#ADD1B2" rx="11" ry="11" style="stroke:#181818;stroke-width:1.0;"/><path d="M754.7188,137.9219 Q752.9688,137.9219 751.8281,137.1875 Q750.7031,136.4375 750.1406,135.0938 Q749.5938,133.7344 749.5938,131.9375 Q749.5938,129.9063 750.25,128.4531 Q750.9063,127 752.1875,126.2188 Q753.4688,125.4375 755.3438,125.4375 Q756.2344,125.4375 756.9063,125.625 Q757.5781,125.7969 758.2656,126.1406 L757.4531,128.1563 Q756.8281,127.8438 756.2813,127.7188 Q755.75,127.5938 755.2656,127.5938 Q754.0938,127.5938 753.3906,128.125 Q752.6875,128.6563 752.3906,129.6094 Q752.0938,130.5625 752.0938,131.8281 Q752.0938,133.8438 752.8125,134.8125 Q753.5313,135.7656 755.125,135.7656 Q755.7188,135.7656 756.3438,135.6094 Q756.9688,135.4531 757.7969,135.0781 L757.7969,137.2969 Q757.0625,137.6094 756.2656,137.7656 Q755.4844,137.9219 754.7188,137.9219 Z " fill="#000000"/><text fill="#000000" font-family="sans-serif" font-size="14" lengthAdjust="spacing" textLength="105" x="775.75" y="136.432">ViewModelBase</text><line style="stroke:#181818;stroke-width:0.5;" x1="705" x2="919" y1="147" y2="147"/><line style="stroke:#181818;stroke-width:0.5;" x1="705" x2="919" y1="155" y2="155"/><ellipse cx="715" cy="170.034" fill="#84BE84" rx="3" ry="3" style="stroke:#038048;stroke-width:1.0;"/><text fill="#000000" font-family="sans-serif" font-size="14" lengthAdjust="spacing" text-decoration="underline" textLength="190" x="724" y="173.9659">GetString(key:string) : string</text></g><!--class PlayStats--><g id="elem_PlayStats"><rect fill="#F1F1F1" height="48" id="PlayStats" rx="2.5" ry="2.5" style="stroke:#181818;stroke-width:0.5;" width="92" x="518" y="578.88"/><ellipse cx="533" cy="594.88" fill="#ADD1B2" rx="11" ry="11" style="stroke:#181818;stroke-width:1.0;"/><path d="M532.4688,601.8019 Q530.7188,601.8019 529.5781,601.0675 Q528.4531,600.3175 527.8906,598.9738 Q527.3438,597.6144 527.3438,595.8175 Q527.3438,593.7863 528,592.3331 Q528.6563,590.88 529.9375,590.0988 Q531.2188,589.3175 533.0938,589.3175 Q533.9844,589.3175 534.6563,589.505 Q535.3281,589.6769 536.0156,590.0206 L535.2031,592.0363 Q534.5781,591.7238 534.0313,591.5988 Q533.5,591.4738 533.0156,591.4738 Q531.8438,591.4738 531.1406,592.005 Q530.4375,592.5363 530.1406,593.4894 Q529.8438,594.4425 529.8438,595.7081 Q529.8438,597.7238 530.5625,598.6925 Q531.2813,599.6456 532.875,599.6456 Q533.4688,599.6456 534.0938,599.4894 Q534.7188,599.3331 535.5469,598.9581 L535.5469,601.1769 Q534.8125,601.4894 534.0156,601.6456 Q533.2344,601.8019 532.4688,601.8019 Z " fill="#000000"/><text fill="#000000" font-family="sans-serif" font-size="14" lengthAdjust="spacing" textLength="60" x="547" y="600.312">PlayStats</text><line style="stroke:#181818;stroke-width:0.5;" x1="519" x2="609" y1="610.88" y2="610.88"/><line style="stroke:#181818;stroke-width:0.5;" x1="519" x2="609" y1="618.88" y2="618.88"/></g><!--class MainViewModel--><g id="elem_MainViewModel"><rect codeLine="1" fill="#F1F1F1" height="105.2038" id="MainViewModel" rx="2.5" ry="2.5" style="stroke:#181818;stroke-width:0.5;" width="206" x="709" y="327.87"/><ellipse cx="754.25" cy="343.87" fill="#ADD1B2" rx="11" ry="11" style="stroke:#181818;stroke-width:1.0;"/><path d="M753.7188,350.7919 Q751.9688,350.7919 750.8281,350.0575 Q749.7031,349.3075 749.1406,347.9638 Q748.5938,346.6044 748.5938,344.8075 Q748.5938,342.7763 749.25,341.3231 Q749.9063,339.87 751.1875,339.0888 Q752.4688,338.3075 754.3438,338.3075 Q755.2344,338.3075 755.9063,338.495 Q756.5781,338.6669 757.2656,339.0106 L756.4531,341.0263 Q755.8281,340.7138 755.2813,340.5888 Q754.75,340.4638 754.2656,340.4638 Q753.0938,340.4638 752.3906,340.995 Q751.6875,341.5263 751.3906,342.4794 Q751.0938,343.4325 751.0938,344.6981 Q751.0938,346.7138 751.8125,347.6825 Q752.5313,348.6356 754.125,348.6356 Q754.7188,348.6356 755.3438,348.4794 Q755.9688,348.3231 756.7969,347.9481 L756.7969,350.1669 Q756.0625,350.4794 755.2656,350.6356 Q754.4844,350.7919 753.7188,350.7919 Z " fill="#000000"/><text fill="#000000" font-family="sans-serif" font-size="14" lengthAdjust="spacing" textLength="107" x="774.75" y="349.302">MainViewModel</text><line style="stroke:#181818;stroke-width:0.5;" x1="710" x2="914" y1="359.87" y2="359.87"/><line style="stroke:#181818;stroke-width:0.5;" x1="710" x2="914" y1="367.87" y2="367.87"/><ellipse cx="720" cy="382.904" fill="#84BE84" rx="3" ry="3" style="stroke:#038048;stroke-width:1.0;"/><text fill="#000000" font-family="sans-serif" font-size="14" lengthAdjust="spacing" textLength="115" x="729" y="386.8359">MainViewModel()</text><ellipse cx="720" cy="401.9719" fill="#84BE84" rx="3" ry="3" style="stroke:#038048;stroke-width:1.0;"/><text fill="#000000" font-family="sans-serif" font-size="14" lengthAdjust="spacing" textLength="149" x="729" y="405.9039">ToggleSettings() : void</text><ellipse cx="720" cy="421.0398" fill="#84BE84" rx="3" ry="3" style="stroke:#038048;stroke-width:1.0;"/><text fill="#000000" font-family="sans-serif" font-size="14" lengthAdjust="spacing" textLength="180" x="729" y="424.9718">ToggleLeaderboard() : void</text></g><!--class Settings--><g id="elem_Settings"><rect fill="#F1F1F1" height="48" id="Settings" rx="2.5" ry="2.5" style="stroke:#181818;stroke-width:0.5;" width="87" x="968.5" y="578.88"/><ellipse cx="983.5" cy="594.88" fill="#ADD1B2" rx="11" ry="11" style="stroke:#181818;stroke-width:1.0;"/><path d="M982.9688,601.8019 Q981.2188,601.8019 980.0781,601.0675 Q978.9531,600.3175 978.3906,598.9738 Q977.8438,597.6144 977.8438,595.8175 Q977.8438,593.7863 978.5,592.3331 Q979.1563,590.88 980.4375,590.0988 Q981.7188,589.3175 983.5938,589.3175 Q984.4844,589.3175 985.1563,589.505 Q985.8281,589.6769 986.5156,590.0206 L985.7031,592.0363 Q985.0781,591.7238 984.5313,591.5988 Q984,591.4738 983.5156,591.4738 Q982.3438,591.4738 981.6406,592.005 Q980.9375,592.5363 980.6406,593.4894 Q980.3438,594.4425 980.3438,595.7081 Q980.3438,597.7238 981.0625,598.6925 Q981.7813,599.6456 983.375,599.6456 Q983.9688,599.6456 984.5938,599.4894 Q985.2188,599.3331 986.0469,598.9581 L986.0469,601.1769 Q985.3125,601.4894 984.5156,601.6456 Q983.7344,601.8019 982.9688,601.8019 Z " fill="#000000"/><text fill="#000000" font-family="sans-serif" font-size="14" lengthAdjust="spacing" textLength="55" x="997.5" y="600.312">Settings</text><line style="stroke:#181818;stroke-width:0.5;" x1="969.5" x2="1054.5" y1="610.88" y2="610.88"/><line style="stroke:#181818;stroke-width:0.5;" x1="969.5" x2="1054.5" y1="618.88" y2="618.88"/></g><!--class SettingsViewModel--><g id="elem_SettingsViewModel"><rect codeLine="1" fill="#F1F1F1" height="105.2038" id="SettingsViewModel" rx="2.5" ry="2.5" style="stroke:#181818;stroke-width:0.5;" width="275" x="949.5" y="327.87"/><ellipse cx="1018.75" cy="343.87" fill="#ADD1B2" rx="11" ry="11" style="stroke:#181818;stroke-width:1.0;"/><path d="M1018.2188,350.7919 Q1016.4688,350.7919 1015.3281,350.0575 Q1014.2031,349.3075 1013.6406,347.9638 Q1013.0938,346.6044 1013.0938,344.8075 Q1013.0938,342.7763 1013.75,341.3231 Q1014.4063,339.87 1015.6875,339.0888 Q1016.9688,338.3075 1018.8438,338.3075 Q1019.7344,338.3075 1020.4063,338.495 Q1021.0781,338.6669 1021.7656,339.0106 L1020.9531,341.0263 Q1020.3281,340.7138 1019.7813,340.5888 Q1019.25,340.4638 1018.7656,340.4638 Q1017.5938,340.4638 1016.8906,340.995 Q1016.1875,341.5263 1015.8906,342.4794 Q1015.5938,343.4325 1015.5938,344.6981 Q1015.5938,346.7138 1016.3125,347.6825 Q1017.0313,348.6356 1018.625,348.6356 Q1019.2188,348.6356 1019.8438,348.4794 Q1020.4688,348.3231 1021.2969,347.9481 L1021.2969,350.1669 Q1020.5625,350.4794 1019.7656,350.6356 Q1018.9844,350.7919 1018.2188,350.7919 Z " fill="#000000"/><text fill="#000000" font-family="sans-serif" font-size="14" lengthAdjust="spacing" textLength="128" x="1039.25" y="349.302">SettingsViewModel</text><line style="stroke:#181818;stroke-width:0.5;" x1="950.5" x2="1223.5" y1="359.87" y2="359.87"/><ellipse cx="960.5" cy="374.904" fill="none" rx="3" ry="3" style="stroke:#038048;stroke-width:1.0;"/><text fill="#000000" font-family="sans-serif" font-size="14" lengthAdjust="spacing" textLength="167" x="969.5" y="378.8359">ScreenTitle : string &#171;get&#187;</text><line style="stroke:#181818;stroke-width:0.5;" x1="950.5" x2="1223.5" y1="386.9379" y2="386.9379"/><ellipse cx="960.5" cy="401.9719" fill="#84BE84" rx="3" ry="3" style="stroke:#038048;stroke-width:1.0;"/><text fill="#000000" font-family="sans-serif" font-size="14" lengthAdjust="spacing" textLength="136" x="969.5" y="405.9039">SettingsViewModel()</text><ellipse cx="960.5" cy="421.0398" fill="#84BE84" rx="3" ry="3" style="stroke:#038048;stroke-width:1.0;"/><text fill="#000000" font-family="sans-serif" font-size="14" lengthAdjust="spacing" textLength="249" x="969.5" y="424.9718">SettingsViewModel(settings:Settings)</text></g><!--class IEnumerable`1--><g id="elem_IEnumerable`1"><rect codeLine="6" fill="#F1F1F1" height="48" id="IEnumerable`1" rx="2.5" ry="2.5" style="stroke:#181818;stroke-width:0.5;" width="141" x="1090.5" y="578.88"/><ellipse cx="1105.5" cy="594.88" fill="#ADD1B2" rx="11" ry="11" style="stroke:#181818;stroke-width:1.0;"/><path d="M1104.9688,601.8019 Q1103.2188,601.8019 1102.0781,601.0675 Q1100.9531,600.3175 1100.3906,598.9738 Q1099.8438,597.6144 1099.8438,595.8175 Q1099.8438,593.7863 1100.5,592.3331 Q1101.1563,590.88 1102.4375,590.0988 Q1103.7188,589.3175 1105.5938,589.3175 Q1106.4844,589.3175 1107.1563,589.505 Q1107.8281,589.6769 1108.5156,590.0206 L1107.7031,592.0363 Q1107.0781,591.7238 1106.5313,591.5988 Q1106,591.4738 1105.5156,591.4738 Q1104.3438,591.4738 1103.6406,592.005 Q1102.9375,592.5363 1102.6406,593.4894 Q1102.3438,594.4425 1102.3438,595.7081 Q1102.3438,597.7238 1103.0625,598.6925 Q1103.7813,599.6456 1105.375,599.6456 Q1105.9688,599.6456 1106.5938,599.4894 Q1107.2188,599.3331 1108.0469,598.9581 L1108.0469,601.1769 Q1107.3125,601.4894 1106.5156,601.6456 Q1105.7344,601.8019 1104.9688,601.8019 Z " fill="#000000"/><text fill="#000000" font-family="sans-serif" font-size="14" lengthAdjust="spacing" textLength="99" x="1119.5" y="600.312">IEnumerable`1</text><rect fill="#FFFFFF" height="18.3441" style="stroke:#181818;stroke-width:1.0;stroke-dasharray:2.0,2.0;" width="8" x="1226.5" y="575.88"/><text fill="#000000" font-family="sans-serif" font-size="12" font-style="italic" lengthAdjust="spacing" textLength="6" x="1227.5" y="589.7081">T</text><line style="stroke:#181818;stroke-width:0.5;" x1="1091.5" x2="1230.5" y1="610.88" y2="610.88"/><line style="stroke:#181818;stroke-width:0.5;" x1="1091.5" x2="1230.5" y1="618.88" y2="618.88"/></g><!--class GameViewModel--><g id="elem_GameViewModel"><rect codeLine="1" fill="#F1F1F1" height="200.5433" id="GameViewModel" rx="2.5" ry="2.5" style="stroke:#181818;stroke-width:0.5;" width="264" x="7" y="280.2"/><ellipse cx="78.75" cy="296.2" fill="#ADD1B2" rx="11" ry="11" style="stroke:#181818;stroke-width:1.0;"/><path d="M78.2188,303.1219 Q76.4688,303.1219 75.3281,302.3875 Q74.2031,301.6375 73.6406,300.2938 Q73.0938,298.9344 73.0938,297.1375 Q73.0938,295.1063 73.75,293.6531 Q74.4063,292.2 75.6875,291.4188 Q76.9688,290.6375 78.8438,290.6375 Q79.7344,290.6375 80.4063,290.825 Q81.0781,290.9969 81.7656,291.3406 L80.9531,293.3563 Q80.3281,293.0438 79.7813,292.9188 Q79.25,292.7938 78.7656,292.7938 Q77.5938,292.7938 76.8906,293.325 Q76.1875,293.8563 75.8906,294.8094 Q75.5938,295.7625 75.5938,297.0281 Q75.5938,299.0438 76.3125,300.0125 Q77.0313,300.9656 78.625,300.9656 Q79.2188,300.9656 79.8438,300.8094 Q80.4688,300.6531 81.2969,300.2781 L81.2969,302.4969 Q80.5625,302.8094 79.7656,302.9656 Q78.9844,303.1219 78.2188,303.1219 Z " fill="#000000"/><text fill="#000000" font-family="sans-serif" font-size="14" lengthAdjust="spacing" textLength="112" x="99.25" y="301.632">GameViewModel</text><line style="stroke:#181818;stroke-width:0.5;" x1="8" x2="270" y1="312.2" y2="312.2"/><ellipse cx="18" cy="327.234" fill="none" rx="3" ry="3" style="stroke:#038048;stroke-width:1.0;"/><text fill="#000000" font-family="sans-serif" font-size="14" lengthAdjust="spacing" textLength="238" x="27" y="331.1659">CurrentAnswer : string? &#171;get&#187; &#171;set&#187;</text><ellipse cx="18" cy="346.3019" fill="none" rx="3" ry="3" style="stroke:#038048;stroke-width:1.0;"/><text fill="#000000" font-family="sans-serif" font-size="14" lengthAdjust="spacing" textLength="181" x="27" y="350.2339">CurrentTry : int &#171;get&#187; &#171;set&#187;</text><line style="stroke:#181818;stroke-width:0.5;" x1="8" x2="270" y1="358.3358" y2="358.3358"/><ellipse cx="18" cy="373.3698" fill="#84BE84" rx="3" ry="3" style="stroke:#038048;stroke-width:1.0;"/><text fill="#000000" font-family="sans-serif" font-size="14" lengthAdjust="spacing" textLength="120" x="27" y="377.3018">GameViewModel()</text><ellipse cx="18" cy="392.4377" fill="#84BE84" rx="3" ry="3" style="stroke:#038048;stroke-width:1.0;"/><text fill="#000000" font-family="sans-serif" font-size="14" lengthAdjust="spacing" textLength="233" x="27" y="396.3697">GameViewModel(settings:Settings)</text><ellipse cx="18" cy="411.5056" fill="#84BE84" rx="3" ry="3" style="stroke:#038048;stroke-width:1.0;"/><text fill="#000000" font-family="sans-serif" font-size="14" lengthAdjust="spacing" textLength="149" x="27" y="415.4376">StartNewGame() : void</text><ellipse cx="18" cy="430.5735" fill="#84BE84" rx="3" ry="3" style="stroke:#038048;stroke-width:1.0;"/><text fill="#000000" font-family="sans-serif" font-size="14" lengthAdjust="spacing" textLength="193" x="27" y="434.5055">EnterLetter(letter:char) : void</text><ellipse cx="18" cy="449.6415" fill="#84BE84" rx="3" ry="3" style="stroke:#038048;stroke-width:1.0;"/><text fill="#000000" font-family="sans-serif" font-size="14" lengthAdjust="spacing" textLength="140" x="27" y="453.5734">RemoveLetter() : void</text><ellipse cx="18" cy="468.7094" fill="#84BE84" rx="3" ry="3" style="stroke:#038048;stroke-width:1.0;"/><text fill="#000000" font-family="sans-serif" font-size="14" lengthAdjust="spacing" textLength="152" x="27" y="472.6414">ConfirmAnswer() : void</text></g><!--class GameState--><g id="elem_GameState"><rect fill="#F1F1F1" height="48" id="GameState" rx="2.5" ry="2.5" style="stroke:#181818;stroke-width:0.5;" width="105" x="86.5" y="578.88"/><ellipse cx="101.5" cy="594.88" fill="#ADD1B2" rx="11" ry="11" style="stroke:#181818;stroke-width:1.0;"/><path d="M100.9688,601.8019 Q99.2188,601.8019 98.0781,601.0675 Q96.9531,600.3175 96.3906,598.9738 Q95.8438,597.6144 95.8438,595.8175 Q95.8438,593.7863 96.5,592.3331 Q97.1563,590.88 98.4375,590.0988 Q99.7188,589.3175 101.5938,589.3175 Q102.4844,589.3175 103.1563,589.505 Q103.8281,589.6769 104.5156,590.0206 L103.7031,592.0363 Q103.0781,591.7238 102.5313,591.5988 Q102,591.4738 101.5156,591.4738 Q100.3438,591.4738 99.6406,592.005 Q98.9375,592.5363 98.6406,593.4894 Q98.3438,594.4425 98.3438,595.7081 Q98.3438,597.7238 99.0625,598.6925 Q99.7813,599.6456 101.375,599.6456 Q101.9688,599.6456 102.5938,599.4894 Q103.2188,599.3331 104.0469,598.9581 L104.0469,601.1769 Q103.3125,601.4894 102.5156,601.6456 Q101.7344,601.8019 100.9688,601.8019 Z " fill="#000000"/><text fill="#000000" font-family="sans-serif" font-size="14" lengthAdjust="spacing" textLength="73" x="115.5" y="600.312">GameState</text><line style="stroke:#181818;stroke-width:0.5;" x1="87.5" x2="190.5" y1="610.88" y2="610.88"/><line style="stroke:#181818;stroke-width:0.5;" x1="87.5" x2="190.5" y1="618.88" y2="618.88"/></g><!--class GameStatus--><g id="elem_GameStatus"><rect fill="#F1F1F1" height="48" id="GameStatus" rx="2.5" ry="2.5" style="stroke:#181818;stroke-width:0.5;" width="113" x="305.5" y="356.47"/><ellipse cx="320.5" cy="372.47" fill="#ADD1B2" rx="11" ry="11" style="stroke:#181818;stroke-width:1.0;"/><path d="M319.9688,379.3919 Q318.2188,379.3919 317.0781,378.6575 Q315.9531,377.9075 315.3906,376.5637 Q314.8438,375.2044 314.8438,373.4075 Q314.8438,371.3762 315.5,369.9231 Q316.1563,368.47 317.4375,367.6887 Q318.7188,366.9075 320.5938,366.9075 Q321.4844,366.9075 322.1563,367.095 Q322.8281,367.2669 323.5156,367.6106 L322.7031,369.6262 Q322.0781,369.3137 321.5313,369.1887 Q321,369.0637 320.5156,369.0637 Q319.3438,369.0637 318.6406,369.595 Q317.9375,370.1262 317.6406,371.0794 Q317.3438,372.0325 317.3438,373.2981 Q317.3438,375.3137 318.0625,376.2825 Q318.7813,377.2356 320.375,377.2356 Q320.9688,377.2356 321.5938,377.0794 Q322.2188,376.9231 323.0469,376.5481 L323.0469,378.7669 Q322.3125,379.0794 321.5156,379.2356 Q320.7344,379.3919 319.9688,379.3919 Z " fill="#000000"/><text fill="#000000" font-family="sans-serif" font-size="14" lengthAdjust="spacing" textLength="81" x="334.5" y="377.902">GameStatus</text><line style="stroke:#181818;stroke-width:0.5;" x1="306.5" x2="417.5" y1="388.47" y2="388.47"/><line style="stroke:#181818;stroke-width:0.5;" x1="306.5" x2="417.5" y1="396.47" y2="396.47"/></g><!--class ReactiveObject--><g id="elem_ReactiveObject"><rect fill="#F1F1F1" height="48" id="ReactiveObject" rx="2.5" ry="2.5" style="stroke:#181818;stroke-width:0.5;" width="132" x="746" y="7"/><ellipse cx="761" cy="23" fill="#ADD1B2" rx="11" ry="11" style="stroke:#181818;stroke-width:1.0;"/><path d="M760.4688,29.9219 Q758.7188,29.9219 757.5781,29.1875 Q756.4531,28.4375 755.8906,27.0938 Q755.3438,25.7344 755.3438,23.9375 Q755.3438,21.9063 756,20.4531 Q756.6563,19 757.9375,18.2188 Q759.2188,17.4375 761.0938,17.4375 Q761.9844,17.4375 762.6563,17.625 Q763.3281,17.7969 764.0156,18.1406 L763.2031,20.1563 Q762.5781,19.8438 762.0313,19.7188 Q761.5,19.5938 761.0156,19.5938 Q759.8438,19.5938 759.1406,20.125 Q758.4375,20.6563 758.1406,21.6094 Q757.8438,22.5625 757.8438,23.8281 Q757.8438,25.8438 758.5625,26.8125 Q759.2813,27.7656 760.875,27.7656 Q761.4688,27.7656 762.0938,27.6094 Q762.7188,27.4531 763.5469,27.0781 L763.5469,29.2969 Q762.8125,29.6094 762.0156,29.7656 Q761.2344,29.9219 760.4688,29.9219 Z " fill="#000000"/><text fill="#000000" font-family="sans-serif" font-size="14" lengthAdjust="spacing" textLength="100" x="775" y="28.432">ReactiveObject</text><line style="stroke:#181818;stroke-width:0.5;" x1="747" x2="877" y1="39" y2="39"/><line style="stroke:#181818;stroke-width:0.5;" x1="747" x2="877" y1="47" y2="47"/></g><!--reverse link ViewModelBase to StatsViewModel--><g id="link_ViewModelBase_StatsViewModel"><path codeLine="15" d="M748.83,195.16 C730.03,209.55 709.72,225.92 692,242.06 C686.34,247.22 680.63,252.59 674.95,258.09 " fill="none" id="ViewModelBase-backto-StatsViewModel" style="stroke:#181818;stroke-width:1.0;"/><polygon fill="none" points="744.38,188.99,764.57,182.56,752.8,200.18,744.38,188.99" style="stroke:#181818;stroke-width:1.0;"/></g><!--link StatsViewModel to PlayStats--><g id="link_StatsViewModel_PlayStats"><path codeLine="16" d="M564,519.18 C564,539.28 564,558.08 564,572.66 " fill="none" id="StatsViewModel-to-PlayStats" style="stroke:#181818;stroke-width:1.0;"/><polygon fill="#181818" points="564,577.64,568,568.64,564,572.64,560,568.64,564,577.64" style="stroke:#181818;stroke-width:1.0;"/><text fill="#000000" font-family="sans-serif" font-size="13" lengthAdjust="spacing" textLength="30" x="530.1563" y="567.2378">Stats</text></g><!--reverse link ViewModelBase to MainViewModel--><g id="link_ViewModelBase_MainViewModel"><path codeLine="6" d="M789.43,202.93 C784.46,240.42 784.52,290.3 789.62,327.48 " fill="none" id="ViewModelBase-backto-MainViewModel" style="stroke:#181818;stroke-width:1.0;"/><polygon fill="none" points="782.66,202,792.94,183.48,796.46,204.37,782.66,202" style="stroke:#181818;stroke-width:1.0;"/></g><!--link MainViewModel to ViewModelBase--><g id="link_MainViewModel_ViewModelBase"><path codeLine="7" d="M812,327.48 C812,285.27 812,226.67 812,188.43 " fill="none" id="MainViewModel-to-ViewModelBase" style="stroke:#181818;stroke-width:1.0;"/><polygon fill="#181818" points="812,183.48,808,192.48,812,188.48,816,192.48,812,183.48" style="stroke:#181818;stroke-width:1.0;"/><text fill="#000000" font-family="sans-serif" font-size="13" lengthAdjust="spacing" textLength="53" x="754.2797" y="204.0006">_content</text></g><!--link MainViewModel to ViewModelBase--><g id="link_MainViewModel_ViewModelBase"><path codeLine="9" d="M834.38,327.48 C840.19,285.09 839.46,226.19 832.18,187.96 " fill="none" id="MainViewModel-to-ViewModelBase-1" style="stroke:#181818;stroke-width:1.0;"/><polygon fill="#181818" points="831.06,183.48,828.9673,193.104,832.0735,188.3762,836.8013,191.4824,831.06,183.48" style="stroke:#181818;stroke-width:1.0;"/><text fill="#000000" font-family="sans-serif" font-size="13" lengthAdjust="spacing" textLength="49" x="838.8191" y="204.0006">Content</text></g><!--link MainViewModel to Settings--><g id="link_MainViewModel_Settings"><path codeLine="8" d="M856.42,433.55 C878.8,459.47 906.52,491.11 932,518.88 C949.34,537.78 969.36,558.55 985.04,574.59 " fill="none" id="MainViewModel-to-Settings" style="stroke:#181818;stroke-width:1.0;"/><polygon fill="#181818" points="987.93,577.56,984.4875,568.3324,984.4304,573.9889,978.7738,573.9318,987.93,577.56" style="stroke:#181818;stroke-width:1.0;"/><text fill="#000000" font-family="sans-serif" font-size="13" lengthAdjust="spacing" textLength="54" x="922.0996" y="567.1373">_settings</text></g><!--reverse link ViewModelBase to SettingsViewModel--><g id="link_ViewModelBase_SettingsViewModel"><path codeLine="8" d="M872.76,195.1 C891.93,209.82 913.05,226.39 932,242.06 C965.25,269.57 1001.39,301.48 1030.4,327.62 " fill="none" id="ViewModelBase-backto-SettingsViewModel" style="stroke:#181818;stroke-width:1.0;"/><polygon fill="none" points="868.83,200.14,857.17,182.45,877.32,189.01,868.83,200.14" style="stroke:#181818;stroke-width:1.0;"/></g><!--link SettingsViewModel to Settings--><g id="link_SettingsViewModel_Settings"><path codeLine="9" d="M1058.31,433.43 C1040.59,477.04 1020.64,537.73 1012.86,573.1 " fill="none" id="SettingsViewModel-to-Settings" style="stroke:#181818;stroke-width:1.0;"/><polygon fill="#181818" points="1011.72,577.56,1017.4836,569.5737,1012.7472,572.6666,1009.6542,567.9302,1011.72,577.56" style="stroke:#181818;stroke-width:1.0;"/><text fill="#000000" font-family="sans-serif" font-size="13" lengthAdjust="spacing" textLength="54" x="1018.567" y="567.1373">_settings</text></g><!--link SettingsViewModel to Settings--><g id="link_SettingsViewModel_Settings"><path codeLine="10" d="M1080.98,433.43 C1069.14,477.22 1047.62,538.23 1031.05,573.54 " fill="none" id="SettingsViewModel-to-Settings-1" style="stroke:#181818;stroke-width:1.0;"/><polygon fill="#181818" points="1028.64,577.56,1036.1295,571.1641,1030.7958,573.0486,1028.9113,567.7149,1028.64,577.56" style="stroke:#181818;stroke-width:1.0;"/><text fill="#000000" font-family="sans-serif" font-size="13" lengthAdjust="spacing" textLength="49" x="1033.4747" y="568.5823">Settings</text></g><!--link SettingsViewModel to IEnumerable`1--><g id="link_SettingsViewModel_IEnumerable`1"><path codeLine="11" d="M1104.44,433.43 C1119.09,477.04 1139.46,537.73 1151.34,573.1 " fill="none" id="SettingsViewModel-to-IEnumerable`1" style="stroke:#181818;stroke-width:1.0;"/><polygon fill="#181818" points="1153.17,577.56,1154.1098,567.7561,1151.5846,572.818,1146.5226,570.2928,1153.17,577.56" style="stroke:#181818;stroke-width:1.0;"/><text fill="#000000" font-family="sans-serif" font-size="13" lengthAdjust="spacing" textLength="291" x="1188.4479" y="567.1373">SettingFields&lt;(FieldInfo field, Configurable conf)&gt;</text></g><!--reverse link ViewModelBase to GameViewModel--><g id="link_ViewModelBase_GameViewModel"><path codeLine="11" d="M682.98,152.21 C572.88,159.08 413.02,180.15 288,242.06 C268.13,251.9 249.02,265.22 231.5,279.71 " fill="none" id="ViewModelBase-backto-GameViewModel" style="stroke:#181818;stroke-width:1.0;"/><polygon fill="none" points="682.26,145.19,702.62,151.06,683.05,159.17,682.26,145.19" style="stroke:#181818;stroke-width:1.0;"/></g><!--link GameViewModel to GameState--><g id="link_GameViewModel_GameState"><path codeLine="12" d="M126.3,481.04 C125.97,514.48 127.21,549.24 130.04,572.85 " fill="none" id="GameViewModel-to-GameState" style="stroke:#181818;stroke-width:1.0;"/><polygon fill="#181818" points="130.79,577.6,133.5993,568.1603,130.147,572.6415,125.6658,569.1892,130.79,577.6" style="stroke:#181818;stroke-width:1.0;"/><text fill="#000000" font-family="sans-serif" font-size="13" lengthAdjust="spacing" textLength="36" x="88.0737" y="567.1876">_state</text></g><!--link GameViewModel to GameState--><g id="link_GameViewModel_GameState"><path codeLine="14" d="M152.44,481.04 C152.8,514.48 151.48,549.24 148.49,572.85 " fill="none" id="GameViewModel-to-GameState-1" style="stroke:#181818;stroke-width:1.0;"/><polygon fill="#181818" points="147.69,577.6,152.8888,569.235,148.3771,572.6474,144.9647,568.1357,147.69,577.6" style="stroke:#181818;stroke-width:1.0;"/><text fill="#000000" font-family="sans-serif" font-size="13" lengthAdjust="spacing" textLength="31" x="153.8887" y="567.1876">State</text></g><!--link GameViewModel to GameStatus--><g id="link_GameViewModel_GameStatus"><path codeLine="13" d="M284.68,448.61 C300.7,441.99 316.72,430.7 332.75,414.76 " fill="none" id="GameViewModel-GameStatus" style="stroke:#181818;stroke-width:1.0;"/><polygon fill="none" points="272.41,453.03,279.3677,454.9249,283.7929,449.2313,276.8352,447.3364,272.41,453.03" style="stroke:#181818;stroke-width:1.0;"/><polygon fill="#181818" points="341.18,405.83,332.0784,409.5931,337.7335,409.4524,337.8742,415.1075,341.18,405.83" style="stroke:#181818;stroke-width:1.0;"/><line style="stroke:#181818;stroke-width:1.0;" x1="337.7335" x2="332.225" y1="409.4524" y2="415.255"/><text fill="#000000" font-family="sans-serif" font-size="13" lengthAdjust="spacing" textLength="43" x="289.6248" y="426.4075">_status</text></g><!--link GameViewModel to GameStatus--><g id="link_GameViewModel_GameStatus"><path codeLine="15" d="M271.41,307.91 C293.71,313.55 316.01,328.22 338.31,351.91 " fill="none" id="GameViewModel-to-GameStatus" style="stroke:#181818;stroke-width:1.0;"/><polygon fill="#181818" points="341.18,355.12,338.0192,345.7921,337.7904,351.4443,332.1382,351.2155,341.18,355.12" style="stroke:#181818;stroke-width:1.0;"/><text fill="#000000" font-family="sans-serif" font-size="13" lengthAdjust="spacing" textLength="38" x="294.2324" y="344.6897">Status</text></g><!--reverse link ReactiveObject to ViewModelBase--><g id="link_ReactiveObject_ViewModelBase"><path codeLine="4" d="M812,76.12 C812,88.89 812,102.59 812,114.55 " fill="none" id="ReactiveObject-backto-ViewModelBase" style="stroke:#181818;stroke-width:1.0;"/><polygon fill="none" points="805,76.38,812,56.38,819,76.38,805,76.38" style="stroke:#181818;stroke-width:1.0;"/></g><!--SRC=[KypCIyufJKbLqDCFBaaiAGxBJ2ttpKz9pT4hACtDuL94IFicPkRXbWrEBId9p4l7ezyzCJSLjonSnYcnE1Ki2m00]--></g></svg>