<?xml version="1.0" encoding="us-ascii" standalone="no"?><svg xmlns="http://www.w3.org/2000/svg" xmlns:xlink="http://www.w3.org/1999/xlink" contentStyleType="text/css" height="363px" preserveAspectRatio="none" style="width:1161px;height:363px;background:#FFFFFF;" version="1.1" viewBox="0 0 1161 363" width="1161px" zoomAndPan="magnify"><defs/><g><!--class Settings--><g id="elem_Settings"><rect codeLine="1" fill="#F1F1F1" height="105.2038" id="Settings" rx="2.5" ry="2.5" style="stroke:#181818;stroke-width:0.5;" width="165" x="7" y="241.956"/><ellipse cx="57.75" cy="257.956" fill="#ADD1B2" rx="11" ry="11" style="stroke:#181818;stroke-width:1.0;"/><path d="M57.2188,264.8779 Q55.4688,264.8779 54.3281,264.1435 Q53.2031,263.3935 52.6406,262.0498 Q52.0938,260.6904 52.0938,258.8935 Q52.0938,256.8623 52.75,255.4091 Q53.4063,253.956 54.6875,253.1748 Q55.9688,252.3935 57.8438,252.3935 Q58.7344,252.3935 59.4063,252.581 Q60.0781,252.7529 60.7656,253.0966 L59.9531,255.1123 Q59.3281,254.7998 58.7813,254.6748 Q58.25,254.5498 57.7656,254.5498 Q56.5938,254.5498 55.8906,255.081 Q55.1875,255.6123 54.8906,256.5654 Q54.5938,257.5185 54.5938,258.7841 Q54.5938,260.7998 55.3125,261.7685 Q56.0313,262.7216 57.625,262.7216 Q58.2188,262.7216 58.8438,262.5654 Q59.4688,262.4091 60.2969,262.0341 L60.2969,264.2529 Q59.5625,264.5654 58.7656,264.7216 Q57.9844,264.8779 57.2188,264.8779 Z " fill="#000000"/><text fill="#000000" font-family="sans-serif" font-size="14" lengthAdjust="spacing" textLength="55" x="78.25" y="263.388">Settings</text><line style="stroke:#181818;stroke-width:0.5;" x1="8" x2="171" y1="273.956" y2="273.956"/><ellipse cx="18" cy="288.99" fill="none" rx="3" ry="3" style="stroke:#038048;stroke-width:1.0;"/><text fill="#000000" font-family="sans-serif" font-size="14" lengthAdjust="spacing" textLength="119" x="27" y="292.922">Language : string</text><ellipse cx="18" cy="308.0579" fill="none" rx="3" ry="3" style="stroke:#038048;stroke-width:1.0;"/><text fill="#000000" font-family="sans-serif" font-size="14" lengthAdjust="spacing" textLength="137" x="27" y="311.9899">WordLength : int = 5</text><ellipse cx="18" cy="327.1258" fill="none" rx="3" ry="3" style="stroke:#038048;stroke-width:1.0;"/><text fill="#000000" font-family="sans-serif" font-size="14" lengthAdjust="spacing" textLength="139" x="27" y="331.0578">MaxAnswers : int = 5</text><line style="stroke:#181818;stroke-width:0.5;" x1="8" x2="171" y1="339.1598" y2="339.1598"/></g><!--class GameState--><g id="elem_GameState"><rect codeLine="1" fill="#F1F1F1" height="143.3396" id="GameState" rx="2.5" ry="2.5" style="stroke:#181818;stroke-width:0.5;" width="250" x="42.5" y="19.546"/><ellipse cx="126.75" cy="35.546" fill="#ADD1B2" rx="11" ry="11" style="stroke:#181818;stroke-width:1.0;"/><path d="M126.2188,42.4679 Q124.4688,42.4679 123.3281,41.7335 Q122.2031,40.9835 121.6406,39.6398 Q121.0938,38.2804 121.0938,36.4835 Q121.0938,34.4523 121.75,32.9991 Q122.4063,31.546 123.6875,30.7648 Q124.9688,29.9835 126.8438,29.9835 Q127.7344,29.9835 128.4063,30.171 Q129.0781,30.3429 129.7656,30.6866 L128.9531,32.7023 Q128.3281,32.3898 127.7813,32.2648 Q127.25,32.1398 126.7656,32.1398 Q125.5938,32.1398 124.8906,32.671 Q124.1875,33.2023 123.8906,34.1554 Q123.5938,35.1085 123.5938,36.3741 Q123.5938,38.3898 124.3125,39.3585 Q125.0313,40.3116 126.625,40.3116 Q127.2188,40.3116 127.8438,40.1554 Q128.4688,39.9991 129.2969,39.6241 L129.2969,41.8429 Q128.5625,42.1554 127.7656,42.3116 Q126.9844,42.4679 126.2188,42.4679 Z " fill="#000000"/><text fill="#000000" font-family="sans-serif" font-size="14" lengthAdjust="spacing" textLength="73" x="147.25" y="40.978">GameState</text><line style="stroke:#181818;stroke-width:0.5;" x1="43.5" x2="291.5" y1="51.546" y2="51.546"/><ellipse cx="53.5" cy="66.58" fill="none" rx="3" ry="3" style="stroke:#038048;stroke-width:1.0;"/><text fill="#000000" font-family="sans-serif" font-size="14" lengthAdjust="spacing" textLength="151" x="62.5" y="70.512">CorrectAnswer : string</text><ellipse cx="53.5" cy="85.6479" fill="none" rx="3" ry="3" style="stroke:#038048;stroke-width:1.0;"/><text fill="#000000" font-family="sans-serif" font-size="14" lengthAdjust="spacing" textLength="103" x="62.5" y="89.5799">CurrentTry : int</text><line style="stroke:#181818;stroke-width:0.5;" x1="43.5" x2="291.5" y1="97.6819" y2="97.6819"/><ellipse cx="53.5" cy="112.7158" fill="#84BE84" rx="3" ry="3" style="stroke:#038048;stroke-width:1.0;"/><text fill="#000000" font-family="sans-serif" font-size="14" lengthAdjust="spacing" textLength="194" x="62.5" y="116.6478">GameState(settings:Settings)</text><ellipse cx="53.5" cy="131.7837" fill="#84BE84" rx="3" ry="3" style="stroke:#038048;stroke-width:1.0;"/><text fill="#000000" font-family="sans-serif" font-size="14" lengthAdjust="spacing" textLength="85" x="62.5" y="135.7157">Reset() : void</text><ellipse cx="53.5" cy="150.8517" fill="#84BE84" rx="3" ry="3" style="stroke:#038048;stroke-width:1.0;"/><text fill="#000000" font-family="sans-serif" font-size="14" lengthAdjust="spacing" text-decoration="underline" textLength="224" x="62.5" y="154.7836">RandomWord(length:int) : string?</text></g><!--class List`1--><g id="elem_List`1"><rect codeLine="8" fill="#F1F1F1" height="48" id="List`1" rx="2.5" ry="2.5" style="stroke:#181818;stroke-width:0.5;" width="77" x="207" y="270.556"/><ellipse cx="222" cy="286.556" fill="#ADD1B2" rx="11" ry="11" style="stroke:#181818;stroke-width:1.0;"/><path d="M221.4688,293.4779 Q219.7188,293.4779 218.5781,292.7435 Q217.4531,291.9935 216.8906,290.6498 Q216.3438,289.2904 216.3438,287.4935 Q216.3438,285.4623 217,284.0091 Q217.6563,282.556 218.9375,281.7748 Q220.2188,280.9935 222.0938,280.9935 Q222.9844,280.9935 223.6563,281.181 Q224.3281,281.3529 225.0156,281.6966 L224.2031,283.7123 Q223.5781,283.3998 223.0313,283.2748 Q222.5,283.1498 222.0156,283.1498 Q220.8438,283.1498 220.1406,283.681 Q219.4375,284.2123 219.1406,285.1654 Q218.8438,286.1185 218.8438,287.3841 Q218.8438,289.3998 219.5625,290.3685 Q220.2813,291.3216 221.875,291.3216 Q222.4688,291.3216 223.0938,291.1654 Q223.7188,291.0091 224.5469,290.6341 L224.5469,292.8529 Q223.8125,293.1654 223.0156,293.3216 Q222.2344,293.4779 221.4688,293.4779 Z " fill="#000000"/><text fill="#000000" font-family="sans-serif" font-size="14" lengthAdjust="spacing" textLength="35" x="236" y="291.988">List`1</text><rect fill="#FFFFFF" height="18.3441" style="stroke:#181818;stroke-width:1.0;stroke-dasharray:2.0,2.0;" width="8" x="279" y="267.556"/><text fill="#000000" font-family="sans-serif" font-size="12" font-style="italic" lengthAdjust="spacing" textLength="6" x="280" y="281.3841">T</text><line style="stroke:#181818;stroke-width:0.5;" x1="208" x2="283" y1="302.556" y2="302.556"/><line style="stroke:#181818;stroke-width:0.5;" x1="208" x2="283" y1="310.556" y2="310.556"/></g><!--class Random--><g id="elem_Random"><rect fill="#F1F1F1" height="48" id="Random" rx="2.5" ry="2.5" style="stroke:#181818;stroke-width:0.5;" width="88" x="327.5" y="67.216"/><ellipse cx="342.5" cy="83.216" fill="#ADD1B2" rx="11" ry="11" style="stroke:#181818;stroke-width:1.0;"/><path d="M341.9688,90.1379 Q340.2188,90.1379 339.0781,89.4035 Q337.9531,88.6535 337.3906,87.3098 Q336.8438,85.9504 336.8438,84.1535 Q336.8438,82.1223 337.5,80.6691 Q338.1563,79.216 339.4375,78.4348 Q340.7188,77.6535 342.5938,77.6535 Q343.4844,77.6535 344.1563,77.841 Q344.8281,78.0129 345.5156,78.3566 L344.7031,80.3723 Q344.0781,80.0598 343.5313,79.9348 Q343,79.8098 342.5156,79.8098 Q341.3438,79.8098 340.6406,80.341 Q339.9375,80.8723 339.6406,81.8254 Q339.3438,82.7785 339.3438,84.0441 Q339.3438,86.0598 340.0625,87.0285 Q340.7813,87.9816 342.375,87.9816 Q342.9688,87.9816 343.5938,87.8254 Q344.2188,87.6691 345.0469,87.2941 L345.0469,89.5129 Q344.3125,89.8254 343.5156,89.9816 Q342.7344,90.1379 341.9688,90.1379 Z " fill="#000000"/><text fill="#000000" font-family="sans-serif" font-size="14" lengthAdjust="spacing" textLength="56" x="356.5" y="88.648">Random</text><line style="stroke:#181818;stroke-width:0.5;" x1="328.5" x2="414.5" y1="99.216" y2="99.216"/><line style="stroke:#181818;stroke-width:0.5;" x1="328.5" x2="414.5" y1="107.216" y2="107.216"/></g><!--class PlayStats--><g id="elem_PlayStats"><rect codeLine="1" fill="#F1F1F1" height="156.7516" id="PlayStats" rx="2.5" ry="2.5" style="stroke:#181818;stroke-width:0.5;" width="159" x="450" y="12.846"/><ellipse cx="495.25" cy="35.552" fill="#ADD1B2" rx="11" ry="11" style="stroke:#181818;stroke-width:1.0;"/><path d="M494.7188,42.4739 Q492.9688,42.4739 491.8281,41.7395 Q490.7031,40.9895 490.1406,39.6458 Q489.5938,38.2864 489.5938,36.4895 Q489.5938,34.4583 490.25,33.0052 Q490.9063,31.552 492.1875,30.7708 Q493.4688,29.9895 495.3438,29.9895 Q496.2344,29.9895 496.9063,30.177 Q497.5781,30.3489 498.2656,30.6927 L497.4531,32.7083 Q496.8281,32.3958 496.2813,32.2708 Q495.75,32.1458 495.2656,32.1458 Q494.0938,32.1458 493.3906,32.677 Q492.6875,33.2083 492.3906,34.1614 Q492.0938,35.1145 492.0938,36.3802 Q492.0938,38.3958 492.8125,39.3645 Q493.5313,40.3177 495.125,40.3177 Q495.7188,40.3177 496.3438,40.1614 Q496.9688,40.0052 497.7969,39.6302 L497.7969,41.8489 Q497.0625,42.1614 496.2656,42.3177 Q495.4844,42.4739 494.7188,42.4739 Z " fill="#000000"/><text fill="#000000" font-family="sans-serif" font-size="12" font-style="italic" lengthAdjust="spacing" textLength="42" x="524.75" y="30.6741">&#171;struct&#187;</text><text fill="#000000" font-family="sans-serif" font-size="14" lengthAdjust="spacing" textLength="60" x="515.75" y="49.1561">PlayStats</text><line style="stroke:#181818;stroke-width:0.5;" x1="451" x2="608" y1="58.2581" y2="58.2581"/><ellipse cx="461" cy="73.292" fill="none" rx="3" ry="3" style="stroke:#038048;stroke-width:1.0;"/><text fill="#000000" font-family="sans-serif" font-size="14" lengthAdjust="spacing" textLength="63" x="470" y="77.224">Wins : int</text><ellipse cx="461" cy="92.3599" fill="none" rx="3" ry="3" style="stroke:#038048;stroke-width:1.0;"/><text fill="#000000" font-family="sans-serif" font-size="14" lengthAdjust="spacing" textLength="67" x="470" y="96.2919">Loses : int</text><ellipse cx="461" cy="111.4278" fill="none" rx="3" ry="3" style="stroke:#038048;stroke-width:1.0;"/><text fill="#000000" font-family="sans-serif" font-size="14" lengthAdjust="spacing" textLength="64" x="470" y="115.3598">Plays : int</text><ellipse cx="461" cy="130.4958" fill="none" rx="3" ry="3" style="stroke:#038048;stroke-width:1.0;"/><text fill="#000000" font-family="sans-serif" font-size="14" lengthAdjust="spacing" textLength="124" x="470" y="134.4277">LongestGuess : int</text><ellipse cx="461" cy="149.5637" fill="none" rx="3" ry="3" style="stroke:#038048;stroke-width:1.0;"/><text fill="#000000" font-family="sans-serif" font-size="14" lengthAdjust="spacing" textLength="133" x="470" y="153.4957">QuickestVictory : int</text><line style="stroke:#181818;stroke-width:0.5;" x1="451" x2="608" y1="161.5976" y2="161.5976"/></g><!--class GameStatus--><g id="elem_GameStatus"><rect codeLine="1" fill="#F1F1F1" height="105.2038" id="GameStatus" rx="2.5" ry="2.5" style="stroke:#181818;stroke-width:0.5;" width="113" x="644" y="38.616"/><ellipse cx="659" cy="54.616" fill="#EB937F" rx="11" ry="11" style="stroke:#181818;stroke-width:1.0;"/><path d="M655.3594,61.116 L655.3594,48.9754 L663.0156,48.9754 L663.0156,51.1004 L657.7344,51.1004 L657.7344,53.7566 L662.75,53.7566 L662.75,55.8816 L657.7344,55.8816 L657.7344,58.991 L663.0156,58.991 L663.0156,61.116 L655.3594,61.116 Z " fill="#000000"/><text fill="#000000" font-family="sans-serif" font-size="14" lengthAdjust="spacing" textLength="81" x="673" y="60.048">GameStatus</text><line style="stroke:#181818;stroke-width:0.5;" x1="645" x2="756" y1="70.616" y2="70.616"/><text fill="#000000" font-family="sans-serif" font-size="14" lengthAdjust="spacing" textLength="51" x="650" y="89.582">Play= 0,</text><text fill="#000000" font-family="sans-serif" font-size="14" lengthAdjust="spacing" textLength="50" x="650" y="108.6499">Win= 1,</text><text fill="#000000" font-family="sans-serif" font-size="14" lengthAdjust="spacing" textLength="54" x="650" y="127.7178">Lose= 2,</text><line style="stroke:#181818;stroke-width:0.5;" x1="645" x2="756" y1="135.8198" y2="135.8198"/></g><!--class Ranged`1--><g id="elem_Ranged`1"><rect codeLine="1" fill="#F1F1F1" height="162.4075" id="Ranged`1" rx="2.5" ry="2.5" style="stroke:#181818;stroke-width:0.5;" width="203" x="792" y="10.016"/><ellipse cx="852.25" cy="26.016" fill="#ADD1B2" rx="11" ry="11" style="stroke:#181818;stroke-width:1.0;"/><path d="M851.7188,32.9379 Q849.9688,32.9379 848.8281,32.2035 Q847.7031,31.4535 847.1406,30.1098 Q846.5938,28.7504 846.5938,26.9535 Q846.5938,24.9223 847.25,23.4691 Q847.9063,22.016 849.1875,21.2348 Q850.4688,20.4535 852.3438,20.4535 Q853.2344,20.4535 853.9063,20.641 Q854.5781,20.8129 855.2656,21.1566 L854.4531,23.1723 Q853.8281,22.8598 853.2813,22.7348 Q852.75,22.6098 852.2656,22.6098 Q851.0938,22.6098 850.3906,23.141 Q849.6875,23.6723 849.3906,24.6254 Q849.0938,25.5785 849.0938,26.8441 Q849.0938,28.8598 849.8125,29.8285 Q850.5313,30.7816 852.125,30.7816 Q852.7188,30.7816 853.3438,30.6254 Q853.9688,30.4691 854.7969,30.0941 L854.7969,32.3129 Q854.0625,32.6254 853.2656,32.7816 Q852.4844,32.9379 851.7188,32.9379 Z " fill="#000000"/><text fill="#000000" font-family="sans-serif" font-size="14" lengthAdjust="spacing" textLength="64" x="872.75" y="31.448">Ranged`1</text><rect fill="#FFFFFF" height="18.3441" style="stroke:#181818;stroke-width:1.0;stroke-dasharray:2.0,2.0;" width="8" x="990" y="7.016"/><text fill="#000000" font-family="sans-serif" font-size="12" font-style="italic" lengthAdjust="spacing" textLength="6" x="991" y="20.8441">T</text><line style="stroke:#181818;stroke-width:0.5;" x1="793" x2="994" y1="42.016" y2="42.016"/><ellipse cx="803" cy="57.05" fill="none" rx="3" ry="3" style="stroke:#038048;stroke-width:1.0;"/><text fill="#000000" font-family="sans-serif" font-size="14" lengthAdjust="spacing" textLength="46" x="812" y="60.982">Min : T</text><ellipse cx="803" cy="76.1179" fill="none" rx="3" ry="3" style="stroke:#038048;stroke-width:1.0;"/><text fill="#000000" font-family="sans-serif" font-size="14" lengthAdjust="spacing" textLength="177" x="812" y="80.0499">StartInclusive : bool = true</text><ellipse cx="803" cy="95.1858" fill="none" rx="3" ry="3" style="stroke:#038048;stroke-width:1.0;"/><text fill="#000000" font-family="sans-serif" font-size="14" lengthAdjust="spacing" textLength="48" x="812" y="99.1178">Max : T</text><ellipse cx="803" cy="114.2537" fill="none" rx="3" ry="3" style="stroke:#038048;stroke-width:1.0;"/><text fill="#000000" font-family="sans-serif" font-size="14" lengthAdjust="spacing" textLength="175" x="812" y="118.1857">EndInclusive : bool = false</text><line style="stroke:#181818;stroke-width:0.5;" x1="793" x2="994" y1="126.2877" y2="126.2877"/><ellipse cx="803" cy="141.3217" fill="#84BE84" rx="3" ry="3" style="stroke:#038048;stroke-width:1.0;"/><text fill="#000000" font-family="sans-serif" font-size="14" lengthAdjust="spacing" textLength="146" x="812" y="145.2536">Ranged(min:T, max:T)</text><ellipse cx="803" cy="160.3896" fill="#84BE84" rx="3" ry="3" style="stroke:#038048;stroke-width:1.0;"/><text fill="#000000" font-family="sans-serif" font-size="14" lengthAdjust="spacing" textLength="155" x="812" y="164.3215">Includes(value:T) : bool</text></g><!--class IComparable`1--><g id="elem_IComparable`1"><rect codeLine="9" fill="#F1F1F1" height="48" id="IComparable`1" rx="2.5" ry="2.5" style="stroke:#181818;stroke-width:0.5;" width="141" x="459" y="270.556"/><ellipse cx="474" cy="286.556" fill="#ADD1B2" rx="11" ry="11" style="stroke:#181818;stroke-width:1.0;"/><path d="M473.4688,293.4779 Q471.7188,293.4779 470.5781,292.7435 Q469.4531,291.9935 468.8906,290.6498 Q468.3438,289.2904 468.3438,287.4935 Q468.3438,285.4623 469,284.0091 Q469.6563,282.556 470.9375,281.7748 Q472.2188,280.9935 474.0938,280.9935 Q474.9844,280.9935 475.6563,281.181 Q476.3281,281.3529 477.0156,281.6966 L476.2031,283.7123 Q475.5781,283.3998 475.0313,283.2748 Q474.5,283.1498 474.0156,283.1498 Q472.8438,283.1498 472.1406,283.681 Q471.4375,284.2123 471.1406,285.1654 Q470.8438,286.1185 470.8438,287.3841 Q470.8438,289.3998 471.5625,290.3685 Q472.2813,291.3216 473.875,291.3216 Q474.4688,291.3216 475.0938,291.1654 Q475.7188,291.0091 476.5469,290.6341 L476.5469,292.8529 Q475.8125,293.1654 475.0156,293.3216 Q474.2344,293.4779 473.4688,293.4779 Z " fill="#000000"/><text fill="#000000" font-family="sans-serif" font-size="14" lengthAdjust="spacing" textLength="99" x="488" y="291.988">IComparable`1</text><rect fill="#FFFFFF" height="18.3441" style="stroke:#181818;stroke-width:1.0;stroke-dasharray:2.0,2.0;" width="8" x="595" y="267.556"/><text fill="#000000" font-family="sans-serif" font-size="12" font-style="italic" lengthAdjust="spacing" textLength="6" x="596" y="281.3841">T</text><line style="stroke:#181818;stroke-width:0.5;" x1="460" x2="599" y1="302.556" y2="302.556"/><line style="stroke:#181818;stroke-width:0.5;" x1="460" x2="599" y1="310.556" y2="310.556"/></g><!--class LetterUse--><g id="elem_LetterUse"><rect codeLine="1" fill="#F1F1F1" height="124.2717" id="LetterUse" rx="2.5" ry="2.5" style="stroke:#181818;stroke-width:0.5;" width="99" x="635" y="232.426"/><ellipse cx="651.35" cy="248.426" fill="#EB937F" rx="11" ry="11" style="stroke:#181818;stroke-width:1.0;"/><path d="M647.7094,254.926 L647.7094,242.7854 L655.3656,242.7854 L655.3656,244.9104 L650.0844,244.9104 L650.0844,247.5666 L655.1,247.5666 L655.1,249.6916 L650.0844,249.6916 L650.0844,252.801 L655.3656,252.801 L655.3656,254.926 L647.7094,254.926 Z " fill="#000000"/><text fill="#000000" font-family="sans-serif" font-size="14" lengthAdjust="spacing" textLength="64" x="665.65" y="253.858">LetterUse</text><line style="stroke:#181818;stroke-width:0.5;" x1="636" x2="733" y1="264.426" y2="264.426"/><text fill="#000000" font-family="sans-serif" font-size="14" lengthAdjust="spacing" textLength="87" x="641" y="283.392">Unknown= 0,</text><text fill="#000000" font-family="sans-serif" font-size="14" lengthAdjust="spacing" textLength="69" x="641" y="302.4599">Wrong= 1,</text><text fill="#000000" font-family="sans-serif" font-size="14" lengthAdjust="spacing" textLength="79" x="641" y="321.5278">Possible= 2,</text><text fill="#000000" font-family="sans-serif" font-size="14" lengthAdjust="spacing" textLength="73" x="641" y="340.5957">Correct= 3,</text><line style="stroke:#181818;stroke-width:0.5;" x1="636" x2="733" y1="348.6977" y2="348.6977"/></g><!--class WordUtil--><g id="elem_WordUtil"><rect codeLine="7" fill="#F1F1F1" height="80.4799" id="WordUtil" rx="2.5" ry="2.5" style="stroke:#181818;stroke-width:0.5;" width="386" x="768.5" y="254.316"/><ellipse cx="927.75" cy="277.022" fill="#ADD1B2" rx="11" ry="11" style="stroke:#181818;stroke-width:1.0;"/><path d="M927.2188,283.9439 Q925.4688,283.9439 924.3281,283.2095 Q923.2031,282.4595 922.6406,281.1158 Q922.0938,279.7564 922.0938,277.9595 Q922.0938,275.9283 922.75,274.4752 Q923.4063,273.022 924.6875,272.2408 Q925.9688,271.4595 927.8438,271.4595 Q928.7344,271.4595 929.4063,271.647 Q930.0781,271.8189 930.7656,272.1627 L929.9531,274.1783 Q929.3281,273.8658 928.7813,273.7408 Q928.25,273.6158 927.7656,273.6158 Q926.5938,273.6158 925.8906,274.147 Q925.1875,274.6783 924.8906,275.6314 Q924.5938,276.5845 924.5938,277.8502 Q924.5938,279.8658 925.3125,280.8345 Q926.0313,281.7877 927.625,281.7877 Q928.2188,281.7877 928.8438,281.6314 Q929.4688,281.4752 930.2969,281.1002 L930.2969,283.3189 Q929.5625,283.6314 928.7656,283.7877 Q927.9844,283.9439 927.2188,283.9439 Z " fill="#000000"/><text fill="#000000" font-family="sans-serif" font-size="12" font-style="italic" lengthAdjust="spacing" textLength="40" x="957.75" y="272.1441">&#171;static&#187;</text><text fill="#000000" font-family="sans-serif" font-size="14" lengthAdjust="spacing" textLength="59" x="948.25" y="290.6261">WordUtil</text><line style="stroke:#181818;stroke-width:0.5;" x1="769.5" x2="1153.5" y1="299.7281" y2="299.7281"/><line style="stroke:#181818;stroke-width:0.5;" x1="769.5" x2="1153.5" y1="307.7281" y2="307.7281"/><ellipse cx="779.5" cy="322.762" fill="#84BE84" rx="3" ry="3" style="stroke:#038048;stroke-width:1.0;"/><text fill="#000000" font-family="sans-serif" font-size="14" lengthAdjust="spacing" text-decoration="underline" textLength="360" x="788.5" y="326.694">MatchInput(target:string, current:string) : LetterUse[]</text></g><!--link GameState to Settings--><g id="link_GameState_Settings"><path codeLine="10" d="M140,163.206 C130.74,187.106 120.53,213.456 111.73,236.166 " fill="none" id="GameState-to-Settings" style="stroke:#181818;stroke-width:1.0;"/><polygon fill="#181818" points="109.65,240.556,116.6256,233.6033,111.4526,235.8923,109.1636,230.7192,109.65,240.556" style="stroke:#181818;stroke-width:1.0;"/><text fill="#000000" font-family="sans-serif" font-size="13" lengthAdjust="spacing" textLength="49" x="60.0655" y="230.2362">Settings</text></g><!--link GameState to List`1--><g id="link_GameState_List`1"><path codeLine="11" d="M195,163.206 C208.59,198.296 224.24,238.676 234.47,265.076 " fill="none" id="GameState-to-List`1" style="stroke:#181818;stroke-width:1.0;"/><polygon fill="#181818" points="236.56,269.496,237.0202,259.6579,234.745,264.8371,229.5659,262.5619,236.56,269.496" style="stroke:#181818;stroke-width:1.0;"/><text fill="#000000" font-family="sans-serif" font-size="13" lengthAdjust="spacing" textLength="99" x="247.4605" y="258.7374">Answers&lt;string&gt;</text></g><!--link GameState to Random--><g id="link_GameState_Random"><path codeLine="12" d="M306.36,91.216 C308.63,91.216 310.9,91.216 313.17,91.216 " fill="none" id="GameState-Random" style="stroke:#181818;stroke-width:1.0;"/><polygon fill="none" points="293.61,91.216,299.61,95.216,305.61,91.216,299.61,87.216,293.61,91.216" style="stroke:#181818;stroke-width:1.0;"/><polygon fill="#181818" points="326.12,91.216,317.12,87.216,321.12,91.216,317.12,95.216,326.12,91.216" style="stroke:#181818;stroke-width:1.0;"/><line style="stroke:#181818;stroke-width:1.0;" x1="321.12" x2="313.12" y1="91.216" y2="91.216"/><text fill="#000000" font-family="sans-serif" font-size="13" lengthAdjust="spacing" textLength="34" x="285.279" y="85.2835">_rand</text></g><!--SRC=[KypCIyufJKbLqDCFJYqfoSnBBzOhACtDuL94IBWdvgO6boIMf6B81EGaLe9aSEifnPGAIinBJqt14FO1MfzQ55eCiGK0]--></g></svg>