<?xml version="1.0" encoding="UTF-8" standalone="no"?>
<svg
        width="32"
        height="32"
        viewBox="0 0 8.47 8.47"
        version="1.1"
        xmlns="http://www.w3.org/2000/svg"
>
  <g id="layer1">
    <rect
       style="fill:#262f41"
       width="8.47"
       height="8.47"
       x="0"
       y="0"
       ry="0.87" />
    <g aria-label="W"
       transform="matrix(0.86,0,0,0.86,0.591,0.591)">
      <path
         d="M 4.24,4.14 C 4.04,4.74 3.89,5.07 3.7,5.58 3.5,6.09 3.28,6.64 3.09,7.12 H 1.91 C 1.67,6.44 1.46,5.34 1.27,4.48 1.07,3.62 0.935,2.84 0.776,1.94 0.997,1.82 1.75,1.82 1.99,1.94 2.13,2.65 2.25,3.37 2.38,4.01 2.51,4.65 2.68,5.21 2.82,5.79 3,5.32 3.2,4.8 3.4,4.24 3.6,3.67 3.78,3.09 3.96,2.49 c 0.16,0 0.33,-0.1 0.57,0 C 4.71,3.09 4.89,3.67 5.1,4.24 5.31,4.8 5.5,5.32 5.68,5.79 5.84,5.19 5.97,4.66 6.1,4.02 6.23,3.38 6.38,2.61 6.5,1.94 6.7,1.9 7.41,1.85 7.7,1.94 7.54,2.84 7.35,3.71 7.16,4.57 6.97,5.43 6.79,6.44 6.56,7.12 H 5.38 C 5.19,6.64 4.93,6.19 4.71,5.61 4.46,4.95 4.43,4.74 4.24,4.14 Z"
         style="fill:#529c58;fill-opacity:1" />
    </g>
  </g>
</svg>
