<?xml version="1.0" encoding="UTF-8" standalone="no"?><svg xmlns="http://www.w3.org/2000/svg" xmlns:xlink="http://www.w3.org/1999/xlink" contentStyleType="text/css" height="488px" preserveAspectRatio="none" style="width:1045px;height:488px;background:#FFFFFF;" version="1.1" viewBox="0 0 1045 488" width="1045px" zoomAndPan="magnify"><defs/><g><!--class AnswerField--><g id="elem_AnswerField"><rect codeLine="1" fill="#F1F1F1" height="366.4987" id="AnswerField" rx="2.5" ry="2.5" style="stroke:#181818;stroke-width:0.5;" width="358" x="7" y="115"/><ellipse cx="140.75" cy="137.706" fill="#ADD1B2" rx="11" ry="11" style="stroke:#181818;stroke-width:1.0;"/><path d="M140.2188,144.6279 Q138.4688,144.6279 137.3281,143.8935 Q136.2031,143.1435 135.6406,141.7998 Q135.0938,140.4404 135.0938,138.6435 Q135.0938,136.6123 135.75,135.1591 Q136.4063,133.706 137.6875,132.9248 Q138.9688,132.1435 140.8438,132.1435 Q141.7344,132.1435 142.4063,132.331 Q143.0781,132.5029 143.7656,132.8466 L142.9531,134.8623 Q142.3281,134.5498 141.7813,134.4248 Q141.25,134.2998 140.7656,134.2998 Q139.5938,134.2998 138.8906,134.831 Q138.1875,135.3623 137.8906,136.3154 Q137.5938,137.2685 137.5938,138.5341 Q137.5938,140.5498 138.3125,141.5185 Q139.0313,142.4716 140.625,142.4716 Q141.2188,142.4716 141.8438,142.3154 Q142.4688,142.1591 143.2969,141.7841 L143.2969,144.0029 Q142.5625,144.3154 141.7656,144.4716 Q140.9844,144.6279 140.2188,144.6279 Z " fill="#000000"/><text fill="#000000" font-family="sans-serif" font-size="12" font-style="italic" lengthAdjust="spacing" textLength="48" x="178.25" y="132.8281">«partial»</text><text fill="#000000" font-family="sans-serif" font-size="14" lengthAdjust="spacing" textLength="82" x="161.25" y="151.31">AnswerField</text><line style="stroke:#181818;stroke-width:0.5;" x1="8" x2="364" y1="160.412" y2="160.412"/><rect fill="none" height="6" style="stroke:#C82930;stroke-width:1.0;" width="6" x="15" y="172.446"/><text fill="#000000" font-family="sans-serif" font-size="14" lengthAdjust="spacing" textLength="135" x="27" y="179.378">_maxLength : int = 5</text><ellipse cx="18" cy="194.5139" fill="none" rx="3" ry="3" style="stroke:#038048;stroke-width:1.0;"/><text fill="#000000" font-family="sans-serif" font-size="14" lengthAdjust="spacing" textLength="183" x="27" y="198.4459">MaxLength : int «get» «set»</text><ellipse cx="18" cy="213.5818" fill="none" rx="3" ry="3" style="stroke:#038048;stroke-width:1.0;"/><text fill="#000000" font-family="sans-serif" font-size="14" lengthAdjust="spacing" textLength="202" x="27" y="217.5138">CellWidth : double «get» «set»</text><ellipse cx="18" cy="232.6497" fill="none" rx="3" ry="3" style="stroke:#038048;stroke-width:1.0;"/><text fill="#000000" font-family="sans-serif" font-size="14" lengthAdjust="spacing" textLength="207" x="27" y="236.5817">CellHeight : double «get» «set»</text><ellipse cx="18" cy="251.7177" fill="none" rx="3" ry="3" style="stroke:#038048;stroke-width:1.0;"/><text fill="#000000" font-family="sans-serif" font-size="14" lengthAdjust="spacing" textLength="216" x="27" y="255.6496">CellSpacing : double «get» «set»</text><ellipse cx="18" cy="270.7856" fill="none" rx="3" ry="3" style="stroke:#038048;stroke-width:1.0;"/><text fill="#000000" font-family="sans-serif" font-size="14" lengthAdjust="spacing" textLength="249" x="27" y="274.7176">BorderThickness : double «get» «set»</text><rect fill="none" height="6" style="stroke:#C82930;stroke-width:1.0;" width="6" x="15" y="286.8535"/><text fill="#000000" font-family="sans-serif" font-size="14" lengthAdjust="spacing" textLength="186" x="27" y="293.7855">_currentAnswer : string = ""</text><ellipse cx="18" cy="308.9214" fill="none" rx="3" ry="3" style="stroke:#038048;stroke-width:1.0;"/><text fill="#000000" font-family="sans-serif" font-size="14" lengthAdjust="spacing" textLength="232" x="27" y="312.8534">CurrentAnswer : string «get» «set»</text><rect fill="none" height="6" style="stroke:#C82930;stroke-width:1.0;" width="6" x="15" y="324.9893"/><text fill="#000000" font-family="sans-serif" font-size="14" lengthAdjust="spacing" textLength="161" x="27" y="331.9213">_correctAnswer : string?</text><ellipse cx="18" cy="347.0572" fill="none" rx="3" ry="3" style="stroke:#038048;stroke-width:1.0;"/><text fill="#000000" font-family="sans-serif" font-size="14" lengthAdjust="spacing" textLength="235" x="27" y="350.9892">CorrectAnswer : string? «get» «set»</text><ellipse cx="18" cy="366.1252" fill="none" rx="3" ry="3" style="stroke:#038048;stroke-width:1.0;"/><text fill="#000000" font-family="sans-serif" font-size="14" lengthAdjust="spacing" textLength="192" x="27" y="370.0571">ContentWidth : double «get»</text><ellipse cx="18" cy="385.1931" fill="none" rx="3" ry="3" style="stroke:#038048;stroke-width:1.0;"/><text fill="#000000" font-family="sans-serif" font-size="14" lengthAdjust="spacing" textLength="197" x="27" y="389.1251">ContentHeight : double «get»</text><line style="stroke:#181818;stroke-width:0.5;" x1="8" x2="364" y1="397.227" y2="397.227"/><ellipse cx="18" cy="412.261" fill="#84BE84" rx="3" ry="3" style="stroke:#038048;stroke-width:1.0;"/><text fill="#000000" font-family="sans-serif" font-size="14" lengthAdjust="spacing" textLength="90" x="27" y="416.193">AnswerField()</text><rect fill="#F24D5C" height="6" style="stroke:#C82930;stroke-width:1.0;" width="6" x="15" y="428.3289"/><text fill="#000000" font-family="sans-serif" font-size="14" lengthAdjust="spacing" textLength="184" x="27" y="435.2609">InitializeComponent() : void</text><ellipse cx="18" cy="450.3968" fill="#84BE84" rx="3" ry="3" style="stroke:#038048;stroke-width:1.0;"/><text fill="#000000" font-family="sans-serif" font-size="14" lengthAdjust="spacing" textLength="269" x="27" y="454.3288">UseColor(position:int) : ISolidColorBrush</text><ellipse cx="18" cy="469.4647" fill="#84BE84" rx="3" ry="3" style="stroke:#038048;stroke-width:1.0;"/><text fill="#000000" font-family="sans-serif" font-size="14" lengthAdjust="spacing" textLength="332" x="27" y="473.3967">«override» Render(context:DrawingContext) : void</text></g><!--class DirectProperty`2--><g id="elem_DirectProperty`2"><rect codeLine="19" fill="#F1F1F1" height="48" id="DirectProperty`2" rx="2.5" ry="2.5" style="stroke:#181818;stroke-width:0.5;" width="174" x="587" y="274"/><ellipse cx="602" cy="290" fill="#ADD1B2" rx="11" ry="11" style="stroke:#181818;stroke-width:1.0;"/><path d="M601.4688,296.9219 Q599.7188,296.9219 598.5781,296.1875 Q597.4531,295.4375 596.8906,294.0938 Q596.3438,292.7344 596.3438,290.9375 Q596.3438,288.9063 597,287.4531 Q597.6563,286 598.9375,285.2188 Q600.2188,284.4375 602.0938,284.4375 Q602.9844,284.4375 603.6563,284.625 Q604.3281,284.7969 605.0156,285.1406 L604.2031,287.1563 Q603.5781,286.8438 603.0313,286.7188 Q602.5,286.5938 602.0156,286.5938 Q600.8438,286.5938 600.1406,287.125 Q599.4375,287.6563 599.1406,288.6094 Q598.8438,289.5625 598.8438,290.8281 Q598.8438,292.8438 599.5625,293.8125 Q600.2813,294.7656 601.875,294.7656 Q602.4688,294.7656 603.0938,294.6094 Q603.7188,294.4531 604.5469,294.0781 L604.5469,296.2969 Q603.8125,296.6094 603.0156,296.7656 Q602.2344,296.9219 601.4688,296.9219 Z " fill="#000000"/><text fill="#000000" font-family="sans-serif" font-size="14" lengthAdjust="spacing" textLength="109" x="616" y="295.432">DirectProperty`2</text><rect fill="#FFFFFF" height="18.3441" style="stroke:#181818;stroke-width:1.0;stroke-dasharray:2.0,2.0;" width="31" x="733" y="271"/><text fill="#000000" font-family="sans-serif" font-size="12" font-style="italic" lengthAdjust="spacing" textLength="29" x="734" y="284.8281">T1,T2</text><line style="stroke:#181818;stroke-width:0.5;" x1="588" x2="760" y1="306" y2="306"/><line style="stroke:#181818;stroke-width:0.5;" x1="588" x2="760" y1="314" y2="314"/></g><!--class StyledProperty`1--><g id="elem_StyledProperty`1"><rect codeLine="21" fill="#F1F1F1" height="48" id="StyledProperty`1" rx="2.5" ry="2.5" style="stroke:#181818;stroke-width:0.5;" width="152" x="400" y="274"/><ellipse cx="415" cy="290" fill="#ADD1B2" rx="11" ry="11" style="stroke:#181818;stroke-width:1.0;"/><path d="M414.4688,296.9219 Q412.7188,296.9219 411.5781,296.1875 Q410.4531,295.4375 409.8906,294.0938 Q409.3438,292.7344 409.3438,290.9375 Q409.3438,288.9063 410,287.4531 Q410.6563,286 411.9375,285.2188 Q413.2188,284.4375 415.0938,284.4375 Q415.9844,284.4375 416.6563,284.625 Q417.3281,284.7969 418.0156,285.1406 L417.2031,287.1563 Q416.5781,286.8438 416.0313,286.7188 Q415.5,286.5938 415.0156,286.5938 Q413.8438,286.5938 413.1406,287.125 Q412.4375,287.6563 412.1406,288.6094 Q411.8438,289.5625 411.8438,290.8281 Q411.8438,292.8438 412.5625,293.8125 Q413.2813,294.7656 414.875,294.7656 Q415.4688,294.7656 416.0938,294.6094 Q416.7188,294.4531 417.5469,294.0781 L417.5469,296.2969 Q416.8125,296.6094 416.0156,296.7656 Q415.2344,296.9219 414.4688,296.9219 Z " fill="#000000"/><text fill="#000000" font-family="sans-serif" font-size="14" lengthAdjust="spacing" textLength="110" x="429" y="295.432">StyledProperty`1</text><rect fill="#FFFFFF" height="18.3441" style="stroke:#181818;stroke-width:1.0;stroke-dasharray:2.0,2.0;" width="8" x="547" y="271"/><text fill="#000000" font-family="sans-serif" font-size="12" font-style="italic" lengthAdjust="spacing" textLength="6" x="548" y="284.8281">T</text><line style="stroke:#181818;stroke-width:0.5;" x1="401" x2="551" y1="306" y2="306"/><line style="stroke:#181818;stroke-width:0.5;" x1="401" x2="551" y1="314" y2="314"/></g><!--class UserControl--><g id="elem_UserControl"><rect fill="#F1F1F1" height="48" id="UserControl" rx="2.5" ry="2.5" style="stroke:#181818;stroke-width:0.5;" width="112" x="130" y="7"/><ellipse cx="145" cy="23" fill="#ADD1B2" rx="11" ry="11" style="stroke:#181818;stroke-width:1.0;"/><path d="M144.4688,29.9219 Q142.7188,29.9219 141.5781,29.1875 Q140.4531,28.4375 139.8906,27.0938 Q139.3438,25.7344 139.3438,23.9375 Q139.3438,21.9063 140,20.4531 Q140.6563,19 141.9375,18.2188 Q143.2188,17.4375 145.0938,17.4375 Q145.9844,17.4375 146.6563,17.625 Q147.3281,17.7969 148.0156,18.1406 L147.2031,20.1563 Q146.5781,19.8438 146.0313,19.7188 Q145.5,19.5938 145.0156,19.5938 Q143.8438,19.5938 143.1406,20.125 Q142.4375,20.6563 142.1406,21.6094 Q141.8438,22.5625 141.8438,23.8281 Q141.8438,25.8438 142.5625,26.8125 Q143.2813,27.7656 144.875,27.7656 Q145.4688,27.7656 146.0938,27.6094 Q146.7188,27.4531 147.5469,27.0781 L147.5469,29.2969 Q146.8125,29.6094 146.0156,29.7656 Q145.2344,29.9219 144.4688,29.9219 Z " fill="#000000"/><text fill="#000000" font-family="sans-serif" font-size="14" lengthAdjust="spacing" textLength="80" x="159" y="28.432">UserControl</text><line style="stroke:#181818;stroke-width:0.5;" x1="131" x2="241" y1="39" y2="39"/><line style="stroke:#181818;stroke-width:0.5;" x1="131" x2="241" y1="47" y2="47"/></g><!--reverse link UserControl to AnswerField--><g id="link_UserControl_AnswerField"><path codeLine="23" d="M186,76.55 C186,87.92 186,100.88 186,114.67 " fill="none" id="UserControl-backto-AnswerField" style="stroke:#181818;stroke-width:1.0;"/><polygon fill="none" points="179,76.57,186,56.57,193,76.57,179,76.57" style="stroke:#181818;stroke-width:1.0;"/></g><!--link AnswerField to DirectProperty`2--><g id="link_AnswerField_DirectProperty`2"><path codeLine="24" d="M373.6897,108.1857 C373.6897,108.1857 385.84,102.38 391.75,100 C426.69,85.92 528.59,81.24 561.25,100 C620.65,134.12 651.28,212.68 664.88,259.95 " fill="none" id="AnswerField-DirectProperty`2" style="stroke:#181818;stroke-width:1.0;"/><polygon fill="none" points="363.1,113.83,370.2763,114.5377,373.6897,108.1857,366.5134,107.4779,363.1,113.83" style="stroke:#181818;stroke-width:1.0;"/><polygon fill="#181818" points="668.25,272.35,669.7485,262.6158,666.9381,267.5252,662.0288,264.7148,668.25,272.35" style="stroke:#181818;stroke-width:1.0;"/><line style="stroke:#181818;stroke-width:1.0;" x1="666.9381" x2="664.845" y1="267.5252" y2="259.805"/><text fill="#000000" font-family="sans-serif" font-size="13" lengthAdjust="spacing" textLength="227" x="409.6964" y="262.0164">MaxLengthProperty&lt;AnswerField,int&gt;</text></g><!--link AnswerField to DirectProperty`2--><g id="link_AnswerField_DirectProperty`2"><path codeLine="29" d="M358.2128,107.211 C358.2128,107.211 386.2,90.89 400.5,85 C431.73,72.13 523.21,68.18 552.5,85 C617.68,122.44 650.75,209.56 664.99,260.02 " fill="none" id="AnswerField-DirectProperty`2-1" style="stroke:#181818;stroke-width:1.0;"/><polygon fill="none" points="348.21,113.84,355.4211,113.8598,358.2128,107.211,351.0017,107.1912,348.21,113.84" style="stroke:#181818;stroke-width:1.0;"/><polygon fill="#181818" points="668.28,272.35,669.8225,262.6227,666.99,267.5193,662.0934,264.6867,668.28,272.35" style="stroke:#181818;stroke-width:1.0;"/><line style="stroke:#181818;stroke-width:1.0;" x1="666.99" x2="664.93" y1="267.5193" y2="259.785"/><text fill="#000000" font-family="sans-serif" font-size="13" lengthAdjust="spacing" textLength="267" x="703.1157" y="262.0164">CurrentAnswerProperty&lt;AnswerField,string&gt;</text></g><!--link AnswerField to DirectProperty`2--><g id="link_AnswerField_DirectProperty`2"><path codeLine="30" d="M346.8054,106.3686 C346.8054,106.3686 387.48,79.15 409.25,70 C436.8,58.42 517.83,55.11 543.75,70 C614.57,110.68 650.06,206.09 664.98,259.7 " fill="none" id="AnswerField-DirectProperty`2-2" style="stroke:#181818;stroke-width:1.0;"/><polygon fill="none" points="337.29,113.68,344.4848,113.1961,346.8054,106.3686,339.6106,106.8525,337.29,113.68" style="stroke:#181818;stroke-width:1.0;"/><polygon fill="#181818" points="668.27,272.17,669.8408,262.4472,666.994,267.3356,662.1057,264.4888,668.27,272.17" style="stroke:#181818;stroke-width:1.0;"/><line style="stroke:#181818;stroke-width:1.0;" x1="666.994" x2="664.955" y1="267.3356" y2="259.6"/><text fill="#000000" font-family="sans-serif" font-size="13" lengthAdjust="spacing" textLength="271" x="767.907" y="275.6953">CorrectAnswerProperty&lt;AnswerField,string?&gt;</text></g><!--link AnswerField to StyledProperty`1--><g id="link_AnswerField_StyledProperty`1"><path codeLine="25" d="M377.2219,421.2775 C377.2219,421.2775 429.36,376.43 455.14,334.65 " fill="none" id="AnswerField-StyledProperty`1" style="stroke:#181818;stroke-width:1.0;"/><polygon fill="none" points="366.61,426.88,373.7834,427.616,377.2219,421.2775,370.0484,420.5414,366.61,426.88" style="stroke:#181818;stroke-width:1.0;"/><polygon fill="#181818" points="461.81,323.51,453.7528,329.174,459.2399,327.7989,460.615,333.2861,461.81,323.51" style="stroke:#181818;stroke-width:1.0;"/><line style="stroke:#181818;stroke-width:1.0;" x1="459.2399" x2="455.135" y1="327.7989" y2="334.66"/><text fill="#000000" font-family="sans-serif" font-size="13" lengthAdjust="spacing" textLength="166" x="433.0822" y="343.9437">CellWidthProperty&lt;double&gt;</text></g><!--link AnswerField to StyledProperty`1--><g id="link_AnswerField_StyledProperty`1"><path codeLine="26" d="M378.5704,338.8054 C378.5704,338.8054 404.28,332.4 416.69,327.77 " fill="none" id="AnswerField-StyledProperty`1-1" style="stroke:#181818;stroke-width:1.0;"/><polygon fill="none" points="366.76,340.93,373.3734,343.8045,378.5704,338.8054,371.957,335.9309,366.76,340.93" style="stroke:#181818;stroke-width:1.0;"/><polygon fill="#181818" points="428.75,322.92,418.9078,322.5586,424.1095,324.7817,421.8865,329.9834,428.75,322.92" style="stroke:#181818;stroke-width:1.0;"/><line style="stroke:#181818;stroke-width:1.0;" x1="424.1095" x2="416.685" y1="324.7817" y2="327.775"/><text fill="#000000" font-family="sans-serif" font-size="13" lengthAdjust="spacing" textLength="171" x="373.6487" y="348.0003">CellHeightProperty&lt;double&gt;</text></g><!--link AnswerField to StyledProperty`1--><g id="link_AnswerField_StyledProperty`1"><path codeLine="27" d="M378.5704,257.1946 C378.5704,257.1946 404.28,263.6 416.69,268.23 " fill="none" id="AnswerField-StyledProperty`1-2" style="stroke:#181818;stroke-width:1.0;"/><polygon fill="none" points="366.76,255.07,371.957,260.0691,378.5704,257.1946,373.3734,252.1955,366.76,255.07" style="stroke:#181818;stroke-width:1.0;"/><polygon fill="#181818" points="428.75,273.08,421.8865,266.0166,424.1095,271.2183,418.9078,273.4414,428.75,273.08" style="stroke:#181818;stroke-width:1.0;"/><line style="stroke:#181818;stroke-width:1.0;" x1="424.1095" x2="416.685" y1="271.2183" y2="268.225"/><text fill="#000000" font-family="sans-serif" font-size="13" lengthAdjust="spacing" textLength="177" x="371.8331" y="245.5603">CellSpacingProperty&lt;double&gt;</text></g><!--link AnswerField to StyledProperty`1--><g id="link_AnswerField_StyledProperty`1"><path codeLine="28" d="M377.2219,174.7225 C377.2219,174.7225 429.36,219.57 455.14,261.35 " fill="none" id="AnswerField-StyledProperty`1-3" style="stroke:#181818;stroke-width:1.0;"/><polygon fill="none" points="366.61,169.12,370.0484,175.4586,377.2219,174.7225,373.7834,168.384,366.61,169.12" style="stroke:#181818;stroke-width:1.0;"/><polygon fill="#181818" points="461.81,272.49,460.615,262.7139,459.2399,268.2011,453.7528,266.826,461.81,272.49" style="stroke:#181818;stroke-width:1.0;"/><line style="stroke:#181818;stroke-width:1.0;" x1="459.2399" x2="455.135" y1="268.2011" y2="261.34"/><text fill="#000000" font-family="sans-serif" font-size="13" lengthAdjust="spacing" textLength="208" x="370.6064" y="262.4976">BorderThicknessProperty&lt;double&gt;</text></g><!--SRC=[KypCIyufJKbLqDDtp2ikJorooqpDIT5Bh4ZCpT4hACtD0G00]--></g></svg>