<?xml version="1.0" encoding="UTF-8" standalone="no"?><svg xmlns="http://www.w3.org/2000/svg" xmlns:xlink="http://www.w3.org/1999/xlink" contentStyleType="text/css" height="431px" preserveAspectRatio="none" style="width:928px;height:431px;background:#FFFFFF;" version="1.1" viewBox="0 0 928 431" width="928px" zoomAndPan="magnify"><defs/><g><!--class AnswerField--><g id="elem_AnswerField"><rect codeLine="1" fill="#F1F1F1" height="309.295" id="AnswerField" rx="2.5" ry="2.5" style="stroke:#181818;stroke-width:0.5;" width="358" x="7" y="115"/><ellipse cx="140.75" cy="137.706" fill="#ADD1B2" rx="11" ry="11" style="stroke:#181818;stroke-width:1.0;"/><path d="M140.2188,144.6279 Q138.4688,144.6279 137.3281,143.8935 Q136.2031,143.1435 135.6406,141.7998 Q135.0938,140.4404 135.0938,138.6435 Q135.0938,136.6123 135.75,135.1591 Q136.4063,133.706 137.6875,132.9248 Q138.9688,132.1435 140.8438,132.1435 Q141.7344,132.1435 142.4063,132.331 Q143.0781,132.5029 143.7656,132.8466 L142.9531,134.8623 Q142.3281,134.5498 141.7813,134.4248 Q141.25,134.2998 140.7656,134.2998 Q139.5938,134.2998 138.8906,134.831 Q138.1875,135.3623 137.8906,136.3154 Q137.5938,137.2685 137.5938,138.5341 Q137.5938,140.5498 138.3125,141.5185 Q139.0313,142.4716 140.625,142.4716 Q141.2188,142.4716 141.8438,142.3154 Q142.4688,142.1591 143.2969,141.7841 L143.2969,144.0029 Q142.5625,144.3154 141.7656,144.4716 Q140.9844,144.6279 140.2188,144.6279 Z " fill="#000000"/><text fill="#000000" font-family="sans-serif" font-size="12" font-style="italic" lengthAdjust="spacing" textLength="48" x="178.25" y="132.8281">«partial»</text><text fill="#000000" font-family="sans-serif" font-size="14" lengthAdjust="spacing" textLength="82" x="161.25" y="151.31">AnswerField</text><line style="stroke:#181818;stroke-width:0.5;" x1="8" x2="364" y1="160.412" y2="160.412"/><rect fill="none" height="6" style="stroke:#C82930;stroke-width:1.0;" width="6" x="15" y="172.446"/><text fill="#000000" font-family="sans-serif" font-size="14" lengthAdjust="spacing" textLength="135" x="27" y="179.378">_maxLength : int = 5</text><ellipse cx="18" cy="194.5139" fill="none" rx="3" ry="3" style="stroke:#038048;stroke-width:1.0;"/><text fill="#000000" font-family="sans-serif" font-size="14" lengthAdjust="spacing" textLength="183" x="27" y="198.4459">MaxLength : int «get» «set»</text><ellipse cx="18" cy="213.5818" fill="none" rx="3" ry="3" style="stroke:#038048;stroke-width:1.0;"/><text fill="#000000" font-family="sans-serif" font-size="14" lengthAdjust="spacing" textLength="202" x="27" y="217.5138">CellWidth : double «get» «set»</text><ellipse cx="18" cy="232.6497" fill="none" rx="3" ry="3" style="stroke:#038048;stroke-width:1.0;"/><text fill="#000000" font-family="sans-serif" font-size="14" lengthAdjust="spacing" textLength="207" x="27" y="236.5817">CellHeight : double «get» «set»</text><ellipse cx="18" cy="251.7177" fill="none" rx="3" ry="3" style="stroke:#038048;stroke-width:1.0;"/><text fill="#000000" font-family="sans-serif" font-size="14" lengthAdjust="spacing" textLength="216" x="27" y="255.6496">CellSpacing : double «get» «set»</text><ellipse cx="18" cy="270.7856" fill="none" rx="3" ry="3" style="stroke:#038048;stroke-width:1.0;"/><text fill="#000000" font-family="sans-serif" font-size="14" lengthAdjust="spacing" textLength="249" x="27" y="274.7176">BorderThickness : double «get» «set»</text><rect fill="none" height="6" style="stroke:#C82930;stroke-width:1.0;" width="6" x="15" y="286.8535"/><text fill="#000000" font-family="sans-serif" font-size="14" lengthAdjust="spacing" textLength="186" x="27" y="293.7855">_currentAnswer : string = ""</text><ellipse cx="18" cy="308.9214" fill="none" rx="3" ry="3" style="stroke:#038048;stroke-width:1.0;"/><text fill="#000000" font-family="sans-serif" font-size="14" lengthAdjust="spacing" textLength="232" x="27" y="312.8534">CurrentAnswer : string «get» «set»</text><ellipse cx="18" cy="327.9893" fill="none" rx="3" ry="3" style="stroke:#038048;stroke-width:1.0;"/><text fill="#000000" font-family="sans-serif" font-size="14" lengthAdjust="spacing" textLength="192" x="27" y="331.9213">ContentWidth : double «get»</text><ellipse cx="18" cy="347.0572" fill="none" rx="3" ry="3" style="stroke:#038048;stroke-width:1.0;"/><text fill="#000000" font-family="sans-serif" font-size="14" lengthAdjust="spacing" textLength="197" x="27" y="350.9892">ContentHeight : double «get»</text><line style="stroke:#181818;stroke-width:0.5;" x1="8" x2="364" y1="359.0912" y2="359.0912"/><ellipse cx="18" cy="374.1252" fill="#84BE84" rx="3" ry="3" style="stroke:#038048;stroke-width:1.0;"/><text fill="#000000" font-family="sans-serif" font-size="14" lengthAdjust="spacing" textLength="90" x="27" y="378.0571">AnswerField()</text><rect fill="#F24D5C" height="6" style="stroke:#C82930;stroke-width:1.0;" width="6" x="15" y="390.1931"/><text fill="#000000" font-family="sans-serif" font-size="14" lengthAdjust="spacing" textLength="184" x="27" y="397.1251">InitializeComponent() : void</text><ellipse cx="18" cy="412.261" fill="#84BE84" rx="3" ry="3" style="stroke:#038048;stroke-width:1.0;"/><text fill="#000000" font-family="sans-serif" font-size="14" lengthAdjust="spacing" textLength="332" x="27" y="416.193">«override» Render(context:DrawingContext) : void</text></g><!--class DirectProperty`2--><g id="elem_DirectProperty`2"><rect codeLine="16" fill="#F1F1F1" height="48" id="DirectProperty`2" rx="2.5" ry="2.5" style="stroke:#181818;stroke-width:0.5;" width="174" x="587" y="245.5"/><ellipse cx="602" cy="261.5" fill="#ADD1B2" rx="11" ry="11" style="stroke:#181818;stroke-width:1.0;"/><path d="M601.4688,268.4219 Q599.7188,268.4219 598.5781,267.6875 Q597.4531,266.9375 596.8906,265.5938 Q596.3438,264.2344 596.3438,262.4375 Q596.3438,260.4063 597,258.9531 Q597.6563,257.5 598.9375,256.7188 Q600.2188,255.9375 602.0938,255.9375 Q602.9844,255.9375 603.6563,256.125 Q604.3281,256.2969 605.0156,256.6406 L604.2031,258.6563 Q603.5781,258.3438 603.0313,258.2188 Q602.5,258.0938 602.0156,258.0938 Q600.8438,258.0938 600.1406,258.625 Q599.4375,259.1563 599.1406,260.1094 Q598.8438,261.0625 598.8438,262.3281 Q598.8438,264.3438 599.5625,265.3125 Q600.2813,266.2656 601.875,266.2656 Q602.4688,266.2656 603.0938,266.1094 Q603.7188,265.9531 604.5469,265.5781 L604.5469,267.7969 Q603.8125,268.1094 603.0156,268.2656 Q602.2344,268.4219 601.4688,268.4219 Z " fill="#000000"/><text fill="#000000" font-family="sans-serif" font-size="14" lengthAdjust="spacing" textLength="109" x="616" y="266.932">DirectProperty`2</text><rect fill="#FFFFFF" height="18.3441" style="stroke:#181818;stroke-width:1.0;stroke-dasharray:2.0,2.0;" width="31" x="733" y="242.5"/><text fill="#000000" font-family="sans-serif" font-size="12" font-style="italic" lengthAdjust="spacing" textLength="29" x="734" y="256.3281">T1,T2</text><line style="stroke:#181818;stroke-width:0.5;" x1="588" x2="760" y1="277.5" y2="277.5"/><line style="stroke:#181818;stroke-width:0.5;" x1="588" x2="760" y1="285.5" y2="285.5"/></g><!--class StyledProperty`1--><g id="elem_StyledProperty`1"><rect codeLine="18" fill="#F1F1F1" height="48" id="StyledProperty`1" rx="2.5" ry="2.5" style="stroke:#181818;stroke-width:0.5;" width="152" x="400" y="245.5"/><ellipse cx="415" cy="261.5" fill="#ADD1B2" rx="11" ry="11" style="stroke:#181818;stroke-width:1.0;"/><path d="M414.4688,268.4219 Q412.7188,268.4219 411.5781,267.6875 Q410.4531,266.9375 409.8906,265.5938 Q409.3438,264.2344 409.3438,262.4375 Q409.3438,260.4063 410,258.9531 Q410.6563,257.5 411.9375,256.7188 Q413.2188,255.9375 415.0938,255.9375 Q415.9844,255.9375 416.6563,256.125 Q417.3281,256.2969 418.0156,256.6406 L417.2031,258.6563 Q416.5781,258.3438 416.0313,258.2188 Q415.5,258.0938 415.0156,258.0938 Q413.8438,258.0938 413.1406,258.625 Q412.4375,259.1563 412.1406,260.1094 Q411.8438,261.0625 411.8438,262.3281 Q411.8438,264.3438 412.5625,265.3125 Q413.2813,266.2656 414.875,266.2656 Q415.4688,266.2656 416.0938,266.1094 Q416.7188,265.9531 417.5469,265.5781 L417.5469,267.7969 Q416.8125,268.1094 416.0156,268.2656 Q415.2344,268.4219 414.4688,268.4219 Z " fill="#000000"/><text fill="#000000" font-family="sans-serif" font-size="14" lengthAdjust="spacing" textLength="110" x="429" y="266.932">StyledProperty`1</text><rect fill="#FFFFFF" height="18.3441" style="stroke:#181818;stroke-width:1.0;stroke-dasharray:2.0,2.0;" width="8" x="547" y="242.5"/><text fill="#000000" font-family="sans-serif" font-size="12" font-style="italic" lengthAdjust="spacing" textLength="6" x="548" y="256.3281">T</text><line style="stroke:#181818;stroke-width:0.5;" x1="401" x2="551" y1="277.5" y2="277.5"/><line style="stroke:#181818;stroke-width:0.5;" x1="401" x2="551" y1="285.5" y2="285.5"/></g><!--class UserControl--><g id="elem_UserControl"><rect fill="#F1F1F1" height="48" id="UserControl" rx="2.5" ry="2.5" style="stroke:#181818;stroke-width:0.5;" width="112" x="130" y="7"/><ellipse cx="145" cy="23" fill="#ADD1B2" rx="11" ry="11" style="stroke:#181818;stroke-width:1.0;"/><path d="M144.4688,29.9219 Q142.7188,29.9219 141.5781,29.1875 Q140.4531,28.4375 139.8906,27.0938 Q139.3438,25.7344 139.3438,23.9375 Q139.3438,21.9063 140,20.4531 Q140.6563,19 141.9375,18.2188 Q143.2188,17.4375 145.0938,17.4375 Q145.9844,17.4375 146.6563,17.625 Q147.3281,17.7969 148.0156,18.1406 L147.2031,20.1563 Q146.5781,19.8438 146.0313,19.7188 Q145.5,19.5938 145.0156,19.5938 Q143.8438,19.5938 143.1406,20.125 Q142.4375,20.6563 142.1406,21.6094 Q141.8438,22.5625 141.8438,23.8281 Q141.8438,25.8438 142.5625,26.8125 Q143.2813,27.7656 144.875,27.7656 Q145.4688,27.7656 146.0938,27.6094 Q146.7188,27.4531 147.5469,27.0781 L147.5469,29.2969 Q146.8125,29.6094 146.0156,29.7656 Q145.2344,29.9219 144.4688,29.9219 Z " fill="#000000"/><text fill="#000000" font-family="sans-serif" font-size="14" lengthAdjust="spacing" textLength="80" x="159" y="28.432">UserControl</text><line style="stroke:#181818;stroke-width:0.5;" x1="131" x2="241" y1="39" y2="39"/><line style="stroke:#181818;stroke-width:0.5;" x1="131" x2="241" y1="47" y2="47"/></g><!--reverse link UserControl to AnswerField--><g id="link_UserControl_AnswerField"><path codeLine="20" d="M186,76.26 C186,87.77 186,100.84 186,114.63 " fill="none" id="UserControl-backto-AnswerField" style="stroke:#181818;stroke-width:1.0;"/><polygon fill="none" points="179,76.62,186,56.62,193,76.62,179,76.62" style="stroke:#181818;stroke-width:1.0;"/></g><!--link AnswerField to DirectProperty`2--><g id="link_AnswerField_DirectProperty`2"><path codeLine="21" d="M364.6658,108.1397 C364.6658,108.1397 384.71,98.61 394.67,95 C428.85,82.59 526.29,77.8 558.33,95 C612.02,123.82 644.99,189.73 661.36,231.79 " fill="none" id="AnswerField-DirectProperty`2" style="stroke:#181818;stroke-width:1.0;"/><polygon fill="none" points="354.09,113.81,361.268,114.5001,364.6658,108.1397,357.4878,107.4496,354.09,113.81" style="stroke:#181818;stroke-width:1.0;"/><polygon fill="#181818" points="665.85,243.89,666.4744,234.061,664.1131,239.2014,658.9726,236.84,665.85,243.89" style="stroke:#181818;stroke-width:1.0;"/><line style="stroke:#181818;stroke-width:1.0;" x1="664.1131" x2="661.325" y1="239.2014" y2="231.7"/><text fill="#000000" font-family="sans-serif" font-size="13" lengthAdjust="spacing" textLength="227" x="694.8226" y="233.5164">MaxLengthProperty&lt;AnswerField,int&gt;</text></g><!--link AnswerField to DirectProperty`2--><g id="link_AnswerField_DirectProperty`2"><path codeLine="26" d="M345.3262,106.9483 C345.3262,106.9483 385.39,82.92 406.33,75 C464.67,52.94 491.8,45.34 546.67,75 C607.99,108.15 644.53,185.11 661.81,231.67 " fill="none" id="AnswerField-DirectProperty`2-1" style="stroke:#181818;stroke-width:1.0;"/><polygon fill="none" points="335.44,113.75,342.6503,113.6445,345.3262,106.9483,338.1159,107.0538,335.44,113.75" style="stroke:#181818;stroke-width:1.0;"/><polygon fill="#181818" points="666.15,243.91,666.9146,234.0909,664.4802,239.1971,659.3739,236.7626,666.15,243.91" style="stroke:#181818;stroke-width:1.0;"/><line style="stroke:#181818;stroke-width:1.0;" x1="664.4802" x2="661.81" y1="239.1971" y2="231.66"/><text fill="#000000" font-family="sans-serif" font-size="13" lengthAdjust="spacing" textLength="267" x="361.8093" y="233.5545">CurrentAnswerProperty&lt;AnswerField,string&gt;</text></g><!--link AnswerField to StyledProperty`1--><g id="link_AnswerField_StyledProperty`1"><path codeLine="22" d="M377.5955,373.3611 C377.5955,373.3611 427.06,337.81 451.49,305.36 " fill="none" id="AnswerField-StyledProperty`1" style="stroke:#181818;stroke-width:1.0;"/><polygon fill="none" points="366.65,378.28,373.7624,379.4691,377.5955,373.3611,370.4831,372.172,366.65,378.28" style="stroke:#181818;stroke-width:1.0;"/><polygon fill="#181818" points="458.89,295.2,450.3583,300.1204,455.9465,299.2418,456.8252,304.83,458.89,295.2" style="stroke:#181818;stroke-width:1.0;"/><line style="stroke:#181818;stroke-width:1.0;" x1="455.9465" x2="451.24" y1="299.2418" y2="305.71"/><text fill="#000000" font-family="sans-serif" font-size="13" lengthAdjust="spacing" textLength="166" x="429.4354" y="315.573">CellWidthProperty&lt;double&gt;</text></g><!--link AnswerField to StyledProperty`1--><g id="link_AnswerField_StyledProperty`1"><path codeLine="23" d="M378.623,303.9322 C378.623,303.9322 396.54,300.37 405.06,298.05 " fill="none" id="AnswerField-StyledProperty`1-1" style="stroke:#181818;stroke-width:1.0;"/><polygon fill="none" points="366.76,305.74,373.2941,308.7904,378.623,303.9322,372.0889,300.8817,366.76,305.74" style="stroke:#181818;stroke-width:1.0;"/><polygon fill="#181818" points="417.45,294.36,407.6836,293.0881,412.657,295.7836,409.9614,300.757,417.45,294.36" style="stroke:#181818;stroke-width:1.0;"/><line style="stroke:#181818;stroke-width:1.0;" x1="412.657" x2="404.995" y1="295.7836" y2="298.07"/><text fill="#000000" font-family="sans-serif" font-size="13" lengthAdjust="spacing" textLength="171" x="373.8406" y="322.3238">CellHeightProperty&lt;double&gt;</text></g><!--link AnswerField to StyledProperty`1--><g id="link_AnswerField_StyledProperty`1"><path codeLine="24" d="M378.623,235.0678 C378.623,235.0678 396.54,238.63 405.06,240.95 " fill="none" id="AnswerField-StyledProperty`1-2" style="stroke:#181818;stroke-width:1.0;"/><polygon fill="none" points="366.76,233.26,372.0889,238.1183,378.623,235.0678,373.2941,230.2096,366.76,233.26" style="stroke:#181818;stroke-width:1.0;"/><polygon fill="#181818" points="417.45,244.64,409.9614,238.243,412.657,243.2164,407.6836,245.9119,417.45,244.64" style="stroke:#181818;stroke-width:1.0;"/><line style="stroke:#181818;stroke-width:1.0;" x1="412.657" x2="404.995" y1="243.2164" y2="240.93"/><text fill="#000000" font-family="sans-serif" font-size="13" lengthAdjust="spacing" textLength="177" x="362.2974" y="233.7004">CellSpacingProperty&lt;double&gt;</text></g><!--link AnswerField to StyledProperty`1--><g id="link_AnswerField_StyledProperty`1"><path codeLine="25" d="M377.5955,165.6389 C377.5955,165.6389 427.06,201.19 451.49,233.64 " fill="none" id="AnswerField-StyledProperty`1-3" style="stroke:#181818;stroke-width:1.0;"/><polygon fill="none" points="366.65,160.72,370.4831,166.828,377.5955,165.6389,373.7624,159.5309,366.65,160.72" style="stroke:#181818;stroke-width:1.0;"/><polygon fill="#181818" points="458.89,243.8,456.8252,234.17,455.9465,239.7582,450.3583,238.8796,458.89,243.8" style="stroke:#181818;stroke-width:1.0;"/><line style="stroke:#181818;stroke-width:1.0;" x1="455.9465" x2="451.24" y1="239.7582" y2="233.29"/><text fill="#000000" font-family="sans-serif" font-size="13" lengthAdjust="spacing" textLength="208" x="372.7483" y="218.5823">BorderThicknessProperty&lt;double&gt;</text></g><!--SRC=[KypCIyufJKbLqDDtp2ikJorooqpDIT5Bh4ZCpT4hACtD0G00]--></g></svg>