<?xml version="1.0" encoding="UTF-8" standalone="no"?><svg xmlns="http://www.w3.org/2000/svg" xmlns:xlink="http://www.w3.org/1999/xlink" contentStyleType="text/css" height="155px" preserveAspectRatio="none" style="width:401px;height:155px;background:#FFFFFF;" version="1.1" viewBox="0 0 401 155" width="401px" zoomAndPan="magnify"><defs/><g><!--class Answer--><g id="elem_Answer"><rect codeLine="1" fill="#F1F1F1" height="134.9599" id="Answer" rx="2.5" ry="2.5" style="stroke:#181818;stroke-width:0.5;" width="380" x="7" y="7"/><ellipse cx="167.75" cy="37.8781" fill="#ADD1B2" rx="11" ry="11" style="stroke:#181818;stroke-width:1.0;"/><path d="M167.2188,44.7999 Q165.4688,44.7999 164.3281,44.0656 Q163.2031,43.3156 162.6406,41.9718 Q162.0938,40.6124 162.0938,38.8156 Q162.0938,36.7843 162.75,35.3312 Q163.4063,33.8781 164.6875,33.0968 Q165.9688,32.3156 167.8438,32.3156 Q168.7344,32.3156 169.4063,32.5031 Q170.0781,32.6749 170.7656,33.0187 L169.9531,35.0343 Q169.3281,34.7218 168.7813,34.5968 Q168.25,34.4718 167.7656,34.4718 Q166.5938,34.4718 165.8906,35.0031 Q165.1875,35.5343 164.8906,36.4874 Q164.5938,37.4406 164.5938,38.7062 Q164.5938,40.7218 165.3125,41.6906 Q166.0313,42.6437 167.625,42.6437 Q168.2188,42.6437 168.8438,42.4874 Q169.4688,42.3312 170.2969,41.9562 L170.2969,44.1749 Q169.5625,44.4874 168.7656,44.6437 Q167.9844,44.7999 167.2188,44.7999 Z " fill="#000000"/><text fill="#000000" font-family="sans-serif" font-size="12" font-style="italic" lengthAdjust="spacing" textLength="47" x="189.75" y="24.8281">«record»</text><text fill="#000000" font-family="sans-serif" font-size="12" font-style="italic" lengthAdjust="spacing" textLength="42" x="192.25" y="41.1722">«struct»</text><text fill="#000000" font-family="sans-serif" font-size="14" lengthAdjust="spacing" textLength="50" x="188.25" y="59.6542">Answer</text><line style="stroke:#181818;stroke-width:0.5;" x1="8" x2="386" y1="68.7561" y2="68.7561"/><ellipse cx="18" cy="83.7901" fill="none" rx="3" ry="3" style="stroke:#038048;stroke-width:1.0;"/><text fill="#000000" font-family="sans-serif" font-size="14" lengthAdjust="spacing" textLength="169" x="27" y="87.7221">Value : string «get» «init»</text><line style="stroke:#181818;stroke-width:0.5;" x1="8" x2="386" y1="95.8241" y2="95.8241"/><ellipse cx="18" cy="110.858" fill="#84BE84" rx="3" ry="3" style="stroke:#038048;stroke-width:1.0;"/><text fill="#000000" font-family="sans-serif" font-size="14" lengthAdjust="spacing" textLength="213" x="27" y="114.79">Letter(index:int) : AnswerLetter?</text><ellipse cx="18" cy="129.9259" fill="#84BE84" rx="3" ry="3" style="stroke:#038048;stroke-width:1.0;"/><text fill="#000000" font-family="sans-serif" font-size="14" lengthAdjust="spacing" textLength="354" x="27" y="133.8579">GetLetterUse(state:GameState, index:int) : LetterUse?</text></g><!--SRC=[LOp12i9034Jl_OeSA_e5Isdnr8itqVko7KgWHjYaM13_tRHR17DwpBn9cg8gdKLVoDGq6UcPXxPrLCjpCiTtHNv7kiTf1WNoWcLqOuHj9WixxDO5PiWrou0biDZ15-LzQRhTws4bk2bgjMW8VNpWkjA9_kO_hwi-Nm00]--></g></svg>