<?xml version="1.0" encoding="UTF-8" standalone="no"?><svg xmlns="http://www.w3.org/2000/svg" xmlns:xlink="http://www.w3.org/1999/xlink" contentStyleType="text/css" height="136px" preserveAspectRatio="none" style="width:385px;height:136px;background:#FFFFFF;" version="1.1" viewBox="0 0 385 136" width="385px" zoomAndPan="magnify"><defs/><g><!--class AnswerLetter--><g id="elem_AnswerLetter"><rect codeLine="1" fill="#F1F1F1" height="115.892" id="AnswerLetter" rx="2.5" ry="2.5" style="stroke:#181818;stroke-width:0.5;" width="364" x="7" y="7"/><ellipse cx="140.25" cy="37.8781" fill="#ADD1B2" rx="11" ry="11" style="stroke:#181818;stroke-width:1.0;"/><path d="M139.7188,44.7999 Q137.9688,44.7999 136.8281,44.0656 Q135.7031,43.3156 135.1406,41.9718 Q134.5938,40.6124 134.5938,38.8156 Q134.5938,36.7843 135.25,35.3312 Q135.9063,33.8781 137.1875,33.0968 Q138.4688,32.3156 140.3438,32.3156 Q141.2344,32.3156 141.9063,32.5031 Q142.5781,32.6749 143.2656,33.0187 L142.4531,35.0343 Q141.8281,34.7218 141.2813,34.5968 Q140.75,34.4718 140.2656,34.4718 Q139.0938,34.4718 138.3906,35.0031 Q137.6875,35.5343 137.3906,36.4874 Q137.0938,37.4406 137.0938,38.7062 Q137.0938,40.7218 137.8125,41.6906 Q138.5313,42.6437 140.125,42.6437 Q140.7188,42.6437 141.3438,42.4874 Q141.9688,42.3312 142.7969,41.9562 L142.7969,44.1749 Q142.0625,44.4874 141.2656,44.6437 Q140.4844,44.7999 139.7188,44.7999 Z " fill="#000000"/><text fill="#000000" font-family="sans-serif" font-size="12" font-style="italic" lengthAdjust="spacing" textLength="47" x="181.75" y="24.8281">«record»</text><text fill="#000000" font-family="sans-serif" font-size="12" font-style="italic" lengthAdjust="spacing" textLength="42" x="184.25" y="41.1722">«struct»</text><text fill="#000000" font-family="sans-serif" font-size="14" lengthAdjust="spacing" textLength="89" x="160.75" y="59.6542">AnswerLetter</text><line style="stroke:#181818;stroke-width:0.5;" x1="8" x2="370" y1="68.7561" y2="68.7561"/><ellipse cx="18" cy="83.7901" fill="none" rx="3" ry="3" style="stroke:#038048;stroke-width:1.0;"/><text fill="#000000" font-family="sans-serif" font-size="14" lengthAdjust="spacing" textLength="159" x="27" y="87.7221">Value : char «get» «init»</text><line style="stroke:#181818;stroke-width:0.5;" x1="8" x2="370" y1="95.8241" y2="95.8241"/><ellipse cx="18" cy="110.858" fill="#84BE84" rx="3" ry="3" style="stroke:#038048;stroke-width:1.0;"/><text fill="#000000" font-family="sans-serif" font-size="14" lengthAdjust="spacing" textLength="338" x="27" y="114.79">UseColor(state:GameState, position:int) : LetterUse</text></g><!--SRC=[BSsn2i903CRnlK-HKQbFS9I2T71n4xk7CzZ0zI99YeFuxashcNx3do-ve1cSgxr9h-HE2bsdb4KVVHyqroLxyDD0N0iZbeKWGPvmIv_aUyUL0__cRZH84JsOerEwu4otJITuYR6prCJLZx7oUnbzyrq1]--></g></svg>