<?xml version="1.0" encoding="UTF-8" standalone="no"?><svg xmlns="http://www.w3.org/2000/svg" xmlns:xlink="http://www.w3.org/1999/xlink" contentStyleType="text/css" height="138px" preserveAspectRatio="none" style="width:391px;height:138px;background:#FFFFFF;" version="1.1" viewBox="0 0 391 138" width="391px" zoomAndPan="magnify"><defs/><g><!--class GameState--><g id="elem_GameState"><rect codeLine="1" fill="#F1F1F1" height="124.2717" id="GameState" rx="2.5" ry="2.5" style="stroke:#181818;stroke-width:0.5;" width="254" x="7" y="7"/><ellipse cx="93.25" cy="23" fill="#ADD1B2" rx="11" ry="11" style="stroke:#181818;stroke-width:1.0;"/><path d="M92.7188,29.9219 Q90.9688,29.9219 89.8281,29.1875 Q88.7031,28.4375 88.1406,27.0938 Q87.5938,25.7344 87.5938,23.9375 Q87.5938,21.9063 88.25,20.4531 Q88.9063,19 90.1875,18.2188 Q91.4688,17.4375 93.3438,17.4375 Q94.2344,17.4375 94.9063,17.625 Q95.5781,17.7969 96.2656,18.1406 L95.4531,20.1563 Q94.8281,19.8438 94.2813,19.7188 Q93.75,19.5938 93.2656,19.5938 Q92.0938,19.5938 91.3906,20.125 Q90.6875,20.6563 90.3906,21.6094 Q90.0938,22.5625 90.0938,23.8281 Q90.0938,25.8438 90.8125,26.8125 Q91.5313,27.7656 93.125,27.7656 Q93.7188,27.7656 94.3438,27.6094 Q94.9688,27.4531 95.7969,27.0781 L95.7969,29.2969 Q95.0625,29.6094 94.2656,29.7656 Q93.4844,29.9219 92.7188,29.9219 Z " fill="#000000"/><text fill="#000000" font-family="sans-serif" font-size="14" lengthAdjust="spacing" textLength="73" x="113.75" y="28.432">GameState</text><line style="stroke:#181818;stroke-width:0.5;" x1="8" x2="260" y1="39" y2="39"/><ellipse cx="18" cy="54.034" fill="none" rx="3" ry="3" style="stroke:#038048;stroke-width:1.0;"/><text fill="#000000" font-family="sans-serif" font-size="14" lengthAdjust="spacing" text-decoration="underline" textLength="137" x="27" y="57.9659">WordLength : int = 5</text><ellipse cx="18" cy="73.1019" fill="none" rx="3" ry="3" style="stroke:#038048;stroke-width:1.0;"/><text fill="#000000" font-family="sans-serif" font-size="14" lengthAdjust="spacing" text-decoration="underline" textLength="139" x="27" y="77.0339">MaxAnswers : int = 5</text><ellipse cx="18" cy="92.1698" fill="none" rx="3" ry="3" style="stroke:#038048;stroke-width:1.0;"/><text fill="#000000" font-family="sans-serif" font-size="14" lengthAdjust="spacing" textLength="228" x="27" y="96.1018">«readonly» CorrectAnswer : string</text><line style="stroke:#181818;stroke-width:0.5;" x1="8" x2="260" y1="104.2038" y2="104.2038"/><ellipse cx="18" cy="119.2377" fill="#84BE84" rx="3" ry="3" style="stroke:#038048;stroke-width:1.0;"/><text fill="#000000" font-family="sans-serif" font-size="14" lengthAdjust="spacing" textLength="81" x="27" y="123.1697">GameState()</text></g><!--class Random--><g id="elem_Random"><rect fill="#F1F1F1" height="48" id="Random" rx="2.5" ry="2.5" style="stroke:#181818;stroke-width:0.5;" width="88" x="296" y="45"/><ellipse cx="311" cy="61" fill="#ADD1B2" rx="11" ry="11" style="stroke:#181818;stroke-width:1.0;"/><path d="M310.4688,67.9219 Q308.7188,67.9219 307.5781,67.1875 Q306.4531,66.4375 305.8906,65.0938 Q305.3438,63.7344 305.3438,61.9375 Q305.3438,59.9063 306,58.4531 Q306.6563,57 307.9375,56.2188 Q309.2188,55.4375 311.0938,55.4375 Q311.9844,55.4375 312.6563,55.625 Q313.3281,55.7969 314.0156,56.1406 L313.2031,58.1563 Q312.5781,57.8438 312.0313,57.7188 Q311.5,57.5938 311.0156,57.5938 Q309.8438,57.5938 309.1406,58.125 Q308.4375,58.6563 308.1406,59.6094 Q307.8438,60.5625 307.8438,61.8281 Q307.8438,63.8438 308.5625,64.8125 Q309.2813,65.7656 310.875,65.7656 Q311.4688,65.7656 312.0938,65.6094 Q312.7188,65.4531 313.5469,65.0781 L313.5469,67.2969 Q312.8125,67.6094 312.0156,67.7656 Q311.2344,67.9219 310.4688,67.9219 Z " fill="#000000"/><text fill="#000000" font-family="sans-serif" font-size="14" lengthAdjust="spacing" textLength="56" x="325" y="66.432">Random</text><line style="stroke:#181818;stroke-width:0.5;" x1="297" x2="383" y1="77" y2="77"/><line style="stroke:#181818;stroke-width:0.5;" x1="297" x2="383" y1="85" y2="85"/></g><!--link GameState to Random--><g id="link_GameState_Random"><path codeLine="7" d="M274.65,69 C274.65,69 279.43,69 281.43,69 " fill="none" id="GameState-Random" style="stroke:#181818;stroke-width:1.0;"/><polygon fill="none" points="262.65,69,268.65,73,274.65,69,268.65,65,262.65,69" style="stroke:#181818;stroke-width:1.0;"/><polygon fill="#181818" points="294.13,69,285.13,65,289.13,69,285.13,73,294.13,69" style="stroke:#181818;stroke-width:1.0;"/><line style="stroke:#181818;stroke-width:1.0;" x1="289.13" x2="281.13" y1="69" y2="69"/><text fill="#000000" font-family="sans-serif" font-size="13" lengthAdjust="spacing" textLength="54" x="233.4473" y="56.058">_random</text></g><!--SRC=[Iyv9B2vMS4_CJGqkIIn9LQZcKW02RONgOY0tCxbM8Jo_ACKdDI-z94F1IY4phqJ1Li4KNOrlOeLZNd5vQb4nXXeRcwBKn9Jyl9nAEpi5v_oYejJa4eXQeDBYagBCl7IeIhWRD3IvQhaGBihNjLDGYYzAp4l9prLI20BJ0000]--></g></svg>