<?xml version="1.0" encoding="UTF-8" standalone="no"?><svg xmlns="http://www.w3.org/2000/svg" xmlns:xlink="http://www.w3.org/1999/xlink" contentStyleType="text/css" height="531px" preserveAspectRatio="none" style="width:1443px;height:531px;background:#FFFFFF;" version="1.1" viewBox="0 0 1443 531" width="1443px" zoomAndPan="magnify"><defs/><g><!--class WordList--><g id="elem_WordList"><rect codeLine="1" fill="#F1F1F1" height="156.7516" id="WordList" rx="2.5" ry="2.5" style="stroke:#181818;stroke-width:0.5;" width="203" x="197" y="7"/><ellipse cx="264.75" cy="29.706" fill="#ADD1B2" rx="11" ry="11" style="stroke:#181818;stroke-width:1.0;"/><path d="M264.2188,36.6279 Q262.4688,36.6279 261.3281,35.8935 Q260.2031,35.1435 259.6406,33.7998 Q259.0938,32.4404 259.0938,30.6435 Q259.0938,28.6123 259.75,27.1591 Q260.4063,25.706 261.6875,24.9248 Q262.9688,24.1435 264.8438,24.1435 Q265.7344,24.1435 266.4063,24.331 Q267.0781,24.5029 267.7656,24.8466 L266.9531,26.8623 Q266.3281,26.5498 265.7813,26.4248 Q265.25,26.2998 264.7656,26.2998 Q263.5938,26.2998 262.8906,26.831 Q262.1875,27.3623 261.8906,28.3154 Q261.5938,29.2685 261.5938,30.5341 Q261.5938,32.5498 262.3125,33.5185 Q263.0313,34.4716 264.625,34.4716 Q265.2188,34.4716 265.8438,34.3154 Q266.4688,34.1591 267.2969,33.7841 L267.2969,36.0029 Q266.5625,36.3154 265.7656,36.4716 Q264.9844,36.6279 264.2188,36.6279 Z " fill="#000000"/><text fill="#000000" font-family="sans-serif" font-size="12" font-style="italic" lengthAdjust="spacing" textLength="40" x="294.75" y="24.8281">«static»</text><text fill="#000000" font-family="sans-serif" font-size="14" lengthAdjust="spacing" textLength="59" x="285.25" y="43.31">WordList</text><line style="stroke:#181818;stroke-width:0.5;" x1="198" x2="399" y1="52.412" y2="52.412"/><rect fill="none" height="6" style="stroke:#C82930;stroke-width:1.0;" width="6" x="205" y="64.446"/><text fill="#000000" font-family="sans-serif" font-size="14" lengthAdjust="spacing" text-decoration="underline" textLength="157" x="217" y="71.378">_words : string[]? = null</text><line style="stroke:#181818;stroke-width:0.5;" x1="198" x2="399" y1="79.4799" y2="79.4799"/><ellipse cx="208" cy="94.5139" fill="#84BE84" rx="3" ry="3" style="stroke:#038048;stroke-width:1.0;"/><text fill="#000000" font-family="sans-serif" font-size="14" lengthAdjust="spacing" text-decoration="underline" textLength="93" x="217" y="98.4459">Get() : string[]</text><ellipse cx="208" cy="113.5818" fill="#84BE84" rx="3" ry="3" style="stroke:#038048;stroke-width:1.0;"/><text fill="#000000" font-family="sans-serif" font-size="14" lengthAdjust="spacing" text-decoration="underline" textLength="177" x="217" y="117.5138">GetSized(size:int) : string[]</text><ellipse cx="208" cy="132.6497" fill="#84BE84" rx="3" ry="3" style="stroke:#038048;stroke-width:1.0;"/><text fill="#000000" font-family="sans-serif" font-size="14" lengthAdjust="spacing" text-decoration="underline" textLength="78" x="217" y="136.5817">Count() : int</text><ellipse cx="208" cy="151.7177" fill="#84BE84" rx="3" ry="3" style="stroke:#038048;stroke-width:1.0;"/><text fill="#000000" font-family="sans-serif" font-size="14" lengthAdjust="spacing" text-decoration="underline" textLength="162" x="217" y="155.6496">CountSized(size:int) : int</text></g><!--class Answer--><g id="elem_Answer"><rect codeLine="1" fill="#F1F1F1" height="134.9599" id="Answer" rx="2.5" ry="2.5" style="stroke:#181818;stroke-width:0.5;" width="380" x="435.5" y="18"/><ellipse cx="596.25" cy="48.8781" fill="#ADD1B2" rx="11" ry="11" style="stroke:#181818;stroke-width:1.0;"/><path d="M595.7188,55.7999 Q593.9688,55.7999 592.8281,55.0656 Q591.7031,54.3156 591.1406,52.9718 Q590.5938,51.6124 590.5938,49.8156 Q590.5938,47.7843 591.25,46.3312 Q591.9063,44.8781 593.1875,44.0968 Q594.4688,43.3156 596.3438,43.3156 Q597.2344,43.3156 597.9063,43.5031 Q598.5781,43.6749 599.2656,44.0187 L598.4531,46.0343 Q597.8281,45.7218 597.2813,45.5968 Q596.75,45.4718 596.2656,45.4718 Q595.0938,45.4718 594.3906,46.0031 Q593.6875,46.5343 593.3906,47.4874 Q593.0938,48.4406 593.0938,49.7062 Q593.0938,51.7218 593.8125,52.6906 Q594.5313,53.6437 596.125,53.6437 Q596.7188,53.6437 597.3438,53.4874 Q597.9688,53.3312 598.7969,52.9562 L598.7969,55.1749 Q598.0625,55.4874 597.2656,55.6437 Q596.4844,55.7999 595.7188,55.7999 Z " fill="#000000"/><text fill="#000000" font-family="sans-serif" font-size="12" font-style="italic" lengthAdjust="spacing" textLength="47" x="618.25" y="35.8281">«record»</text><text fill="#000000" font-family="sans-serif" font-size="12" font-style="italic" lengthAdjust="spacing" textLength="42" x="620.75" y="52.1722">«struct»</text><text fill="#000000" font-family="sans-serif" font-size="14" lengthAdjust="spacing" textLength="50" x="616.75" y="70.6542">Answer</text><line style="stroke:#181818;stroke-width:0.5;" x1="436.5" x2="814.5" y1="79.7561" y2="79.7561"/><ellipse cx="446.5" cy="94.7901" fill="none" rx="3" ry="3" style="stroke:#038048;stroke-width:1.0;"/><text fill="#000000" font-family="sans-serif" font-size="14" lengthAdjust="spacing" textLength="169" x="455.5" y="98.7221">Value : string «get» «init»</text><line style="stroke:#181818;stroke-width:0.5;" x1="436.5" x2="814.5" y1="106.8241" y2="106.8241"/><ellipse cx="446.5" cy="121.858" fill="#84BE84" rx="3" ry="3" style="stroke:#038048;stroke-width:1.0;"/><text fill="#000000" font-family="sans-serif" font-size="14" lengthAdjust="spacing" textLength="213" x="455.5" y="125.79">Letter(index:int) : AnswerLetter?</text><ellipse cx="446.5" cy="140.9259" fill="#84BE84" rx="3" ry="3" style="stroke:#038048;stroke-width:1.0;"/><text fill="#000000" font-family="sans-serif" font-size="14" lengthAdjust="spacing" textLength="354" x="455.5" y="144.8579">GetLetterUse(state:GameState, index:int) : LetterUse?</text></g><!--class GameState--><g id="elem_GameState"><rect codeLine="1" fill="#F1F1F1" height="124.2717" id="GameState" rx="2.5" ry="2.5" style="stroke:#181818;stroke-width:0.5;" width="254" x="219.5" y="400"/><ellipse cx="305.75" cy="416" fill="#ADD1B2" rx="11" ry="11" style="stroke:#181818;stroke-width:1.0;"/><path d="M305.2188,422.9219 Q303.4688,422.9219 302.3281,422.1875 Q301.2031,421.4375 300.6406,420.0938 Q300.0938,418.7344 300.0938,416.9375 Q300.0938,414.9063 300.75,413.4531 Q301.4063,412 302.6875,411.2188 Q303.9688,410.4375 305.8438,410.4375 Q306.7344,410.4375 307.4063,410.625 Q308.0781,410.7969 308.7656,411.1406 L307.9531,413.1563 Q307.3281,412.8438 306.7813,412.7188 Q306.25,412.5938 305.7656,412.5938 Q304.5938,412.5938 303.8906,413.125 Q303.1875,413.6563 302.8906,414.6094 Q302.5938,415.5625 302.5938,416.8281 Q302.5938,418.8438 303.3125,419.8125 Q304.0313,420.7656 305.625,420.7656 Q306.2188,420.7656 306.8438,420.6094 Q307.4688,420.4531 308.2969,420.0781 L308.2969,422.2969 Q307.5625,422.6094 306.7656,422.7656 Q305.9844,422.9219 305.2188,422.9219 Z " fill="#000000"/><text fill="#000000" font-family="sans-serif" font-size="14" lengthAdjust="spacing" textLength="73" x="326.25" y="421.432">GameState</text><line style="stroke:#181818;stroke-width:0.5;" x1="220.5" x2="472.5" y1="432" y2="432"/><ellipse cx="230.5" cy="447.034" fill="none" rx="3" ry="3" style="stroke:#038048;stroke-width:1.0;"/><text fill="#000000" font-family="sans-serif" font-size="14" lengthAdjust="spacing" text-decoration="underline" textLength="137" x="239.5" y="450.9659">WordLength : int = 5</text><ellipse cx="230.5" cy="466.1019" fill="none" rx="3" ry="3" style="stroke:#038048;stroke-width:1.0;"/><text fill="#000000" font-family="sans-serif" font-size="14" lengthAdjust="spacing" text-decoration="underline" textLength="139" x="239.5" y="470.0339">MaxAnswers : int = 5</text><ellipse cx="230.5" cy="485.1698" fill="none" rx="3" ry="3" style="stroke:#038048;stroke-width:1.0;"/><text fill="#000000" font-family="sans-serif" font-size="14" lengthAdjust="spacing" textLength="228" x="239.5" y="489.1018">«readonly» CorrectAnswer : string</text><line style="stroke:#181818;stroke-width:0.5;" x1="220.5" x2="472.5" y1="497.2038" y2="497.2038"/><ellipse cx="230.5" cy="512.2377" fill="#84BE84" rx="3" ry="3" style="stroke:#038048;stroke-width:1.0;"/><text fill="#000000" font-family="sans-serif" font-size="14" lengthAdjust="spacing" textLength="81" x="239.5" y="516.1697">GameState()</text></g><!--class Random--><g id="elem_Random"><rect fill="#F1F1F1" height="48" id="Random" rx="2.5" ry="2.5" style="stroke:#181818;stroke-width:0.5;" width="88" x="508.5" y="438"/><ellipse cx="523.5" cy="454" fill="#ADD1B2" rx="11" ry="11" style="stroke:#181818;stroke-width:1.0;"/><path d="M522.9688,460.9219 Q521.2188,460.9219 520.0781,460.1875 Q518.9531,459.4375 518.3906,458.0938 Q517.8438,456.7344 517.8438,454.9375 Q517.8438,452.9063 518.5,451.4531 Q519.1563,450 520.4375,449.2188 Q521.7188,448.4375 523.5938,448.4375 Q524.4844,448.4375 525.1563,448.625 Q525.8281,448.7969 526.5156,449.1406 L525.7031,451.1563 Q525.0781,450.8438 524.5313,450.7188 Q524,450.5938 523.5156,450.5938 Q522.3438,450.5938 521.6406,451.125 Q520.9375,451.6563 520.6406,452.6094 Q520.3438,453.5625 520.3438,454.8281 Q520.3438,456.8438 521.0625,457.8125 Q521.7813,458.7656 523.375,458.7656 Q523.9688,458.7656 524.5938,458.6094 Q525.2188,458.4531 526.0469,458.0781 L526.0469,460.2969 Q525.3125,460.6094 524.5156,460.7656 Q523.7344,460.9219 522.9688,460.9219 Z " fill="#000000"/><text fill="#000000" font-family="sans-serif" font-size="14" lengthAdjust="spacing" textLength="56" x="537.5" y="459.432">Random</text><line style="stroke:#181818;stroke-width:0.5;" x1="509.5" x2="595.5" y1="470" y2="470"/><line style="stroke:#181818;stroke-width:0.5;" x1="509.5" x2="595.5" y1="478" y2="478"/></g><!--class LetterUse--><g id="elem_LetterUse"><rect codeLine="1" fill="#F1F1F1" height="105.2038" id="LetterUse" rx="2.5" ry="2.5" style="stroke:#181818;stroke-width:0.5;" width="96" x="250.5" y="229.5"/><ellipse cx="265.5" cy="245.5" fill="#EB937F" rx="11" ry="11" style="stroke:#181818;stroke-width:1.0;"/><path d="M261.8594,252 L261.8594,239.8594 L269.5156,239.8594 L269.5156,241.9844 L264.2344,241.9844 L264.2344,244.6406 L269.25,244.6406 L269.25,246.7656 L264.2344,246.7656 L264.2344,249.875 L269.5156,249.875 L269.5156,252 L261.8594,252 Z " fill="#000000"/><text fill="#000000" font-family="sans-serif" font-size="14" lengthAdjust="spacing" textLength="64" x="279.5" y="250.932">LetterUse</text><line style="stroke:#181818;stroke-width:0.5;" x1="251.5" x2="345.5" y1="261.5" y2="261.5"/><text fill="#000000" font-family="sans-serif" font-size="14" lengthAdjust="spacing" textLength="69" x="256.5" y="280.4659">Wrong= 0,</text><text fill="#000000" font-family="sans-serif" font-size="14" lengthAdjust="spacing" textLength="79" x="256.5" y="299.5339">Possible= 1,</text><text fill="#000000" font-family="sans-serif" font-size="14" lengthAdjust="spacing" textLength="74" x="256.5" y="318.6018">Currect= 2,</text><line style="stroke:#181818;stroke-width:0.5;" x1="251.5" x2="345.5" y1="326.7038" y2="326.7038"/></g><!--class AnswerLetter--><g id="elem_AnswerLetter"><rect codeLine="1" fill="#F1F1F1" height="115.892" id="AnswerLetter" rx="2.5" ry="2.5" style="stroke:#181818;stroke-width:0.5;" width="364" x="381.5" y="224"/><ellipse cx="514.75" cy="254.8781" fill="#ADD1B2" rx="11" ry="11" style="stroke:#181818;stroke-width:1.0;"/><path d="M514.2188,261.7999 Q512.4688,261.7999 511.3281,261.0656 Q510.2031,260.3156 509.6406,258.9718 Q509.0938,257.6124 509.0938,255.8156 Q509.0938,253.7843 509.75,252.3312 Q510.4063,250.8781 511.6875,250.0968 Q512.9688,249.3156 514.8438,249.3156 Q515.7344,249.3156 516.4063,249.5031 Q517.0781,249.6749 517.7656,250.0187 L516.9531,252.0343 Q516.3281,251.7218 515.7813,251.5968 Q515.25,251.4718 514.7656,251.4718 Q513.5938,251.4718 512.8906,252.0031 Q512.1875,252.5343 511.8906,253.4874 Q511.5938,254.4406 511.5938,255.7062 Q511.5938,257.7218 512.3125,258.6906 Q513.0313,259.6437 514.625,259.6437 Q515.2188,259.6437 515.8438,259.4874 Q516.4688,259.3312 517.2969,258.9562 L517.2969,261.1749 Q516.5625,261.4874 515.7656,261.6437 Q514.9844,261.7999 514.2188,261.7999 Z " fill="#000000"/><text fill="#000000" font-family="sans-serif" font-size="12" font-style="italic" lengthAdjust="spacing" textLength="47" x="556.25" y="241.8281">«record»</text><text fill="#000000" font-family="sans-serif" font-size="12" font-style="italic" lengthAdjust="spacing" textLength="42" x="558.75" y="258.1722">«struct»</text><text fill="#000000" font-family="sans-serif" font-size="14" lengthAdjust="spacing" textLength="89" x="535.25" y="276.6542">AnswerLetter</text><line style="stroke:#181818;stroke-width:0.5;" x1="382.5" x2="744.5" y1="285.7561" y2="285.7561"/><ellipse cx="392.5" cy="300.7901" fill="none" rx="3" ry="3" style="stroke:#038048;stroke-width:1.0;"/><text fill="#000000" font-family="sans-serif" font-size="14" lengthAdjust="spacing" textLength="159" x="401.5" y="304.7221">Value : char «get» «init»</text><line style="stroke:#181818;stroke-width:0.5;" x1="382.5" x2="744.5" y1="312.8241" y2="312.8241"/><ellipse cx="392.5" cy="327.858" fill="#84BE84" rx="3" ry="3" style="stroke:#038048;stroke-width:1.0;"/><text fill="#000000" font-family="sans-serif" font-size="14" lengthAdjust="spacing" textLength="338" x="401.5" y="331.79">UseColor(state:GameState, position:int) : LetterUse</text></g><!--class LetterDisplay--><g id="elem_LetterDisplay"><rect codeLine="1" fill="#F1F1F1" height="105.2038" id="LetterDisplay" rx="2.5" ry="2.5" style="stroke:#181818;stroke-width:0.5;" width="358" x="780.5" y="229.5"/><ellipse cx="911.25" cy="245.5" fill="#ADD1B2" rx="11" ry="11" style="stroke:#181818;stroke-width:1.0;"/><path d="M910.7188,252.4219 Q908.9688,252.4219 907.8281,251.6875 Q906.7031,250.9375 906.1406,249.5938 Q905.5938,248.2344 905.5938,246.4375 Q905.5938,244.4063 906.25,242.9531 Q906.9063,241.5 908.1875,240.7188 Q909.4688,239.9375 911.3438,239.9375 Q912.2344,239.9375 912.9063,240.125 Q913.5781,240.2969 914.2656,240.6406 L913.4531,242.6563 Q912.8281,242.3438 912.2813,242.2188 Q911.75,242.0938 911.2656,242.0938 Q910.0938,242.0938 909.3906,242.625 Q908.6875,243.1563 908.3906,244.1094 Q908.0938,245.0625 908.0938,246.3281 Q908.0938,248.3438 908.8125,249.3125 Q909.5313,250.2656 911.125,250.2656 Q911.7188,250.2656 912.3438,250.1094 Q912.9688,249.9531 913.7969,249.5781 L913.7969,251.7969 Q913.0625,252.1094 912.2656,252.2656 Q911.4844,252.4219 910.7188,252.4219 Z " fill="#000000"/><text fill="#000000" font-family="sans-serif" font-size="14" lengthAdjust="spacing" textLength="88" x="931.75" y="250.932">LetterDisplay</text><line style="stroke:#181818;stroke-width:0.5;" x1="781.5" x2="1137.5" y1="261.5" y2="261.5"/><ellipse cx="791.5" cy="276.534" fill="none" rx="3" ry="3" style="stroke:#038048;stroke-width:1.0;"/><text fill="#000000" font-family="sans-serif" font-size="14" lengthAdjust="spacing" textLength="119" x="800.5" y="280.4659">Letter : string = ""</text><line style="stroke:#181818;stroke-width:0.5;" x1="781.5" x2="1137.5" y1="288.5679" y2="288.5679"/><ellipse cx="791.5" cy="303.6019" fill="#84BE84" rx="3" ry="3" style="stroke:#038048;stroke-width:1.0;"/><text fill="#000000" font-family="sans-serif" font-size="14" lengthAdjust="spacing" textLength="96" x="800.5" y="307.5339">LetterDisplay()</text><ellipse cx="791.5" cy="322.6698" fill="#84BE84" rx="3" ry="3" style="stroke:#038048;stroke-width:1.0;"/><text fill="#000000" font-family="sans-serif" font-size="14" lengthAdjust="spacing" textLength="332" x="800.5" y="326.6018">«override» Render(context:DrawingContext) : void</text></g><!--class Control--><g id="elem_Control"><rect fill="#F1F1F1" height="48" id="Control" rx="2.5" ry="2.5" style="stroke:#181818;stroke-width:0.5;" width="81" x="919" y="61.5"/><ellipse cx="934" cy="77.5" fill="#ADD1B2" rx="11" ry="11" style="stroke:#181818;stroke-width:1.0;"/><path d="M933.4688,84.4219 Q931.7188,84.4219 930.5781,83.6875 Q929.4531,82.9375 928.8906,81.5938 Q928.3438,80.2344 928.3438,78.4375 Q928.3438,76.4063 929,74.9531 Q929.6563,73.5 930.9375,72.7188 Q932.2188,71.9375 934.0938,71.9375 Q934.9844,71.9375 935.6563,72.125 Q936.3281,72.2969 937.0156,72.6406 L936.2031,74.6563 Q935.5781,74.3438 935.0313,74.2188 Q934.5,74.0938 934.0156,74.0938 Q932.8438,74.0938 932.1406,74.625 Q931.4375,75.1563 931.1406,76.1094 Q930.8438,77.0625 930.8438,78.3281 Q930.8438,80.3438 931.5625,81.3125 Q932.2813,82.2656 933.875,82.2656 Q934.4688,82.2656 935.0938,82.1094 Q935.7188,81.9531 936.5469,81.5781 L936.5469,83.7969 Q935.8125,84.1094 935.0156,84.2656 Q934.2344,84.4219 933.4688,84.4219 Z " fill="#000000"/><text fill="#000000" font-family="sans-serif" font-size="14" lengthAdjust="spacing" textLength="49" x="948" y="82.932">Control</text><line style="stroke:#181818;stroke-width:0.5;" x1="920" x2="999" y1="93.5" y2="93.5"/><line style="stroke:#181818;stroke-width:0.5;" x1="920" x2="999" y1="101.5" y2="101.5"/></g><!--class FormattedText--><g id="elem_FormattedText"><rect fill="#F1F1F1" height="48" id="FormattedText" rx="2.5" ry="2.5" style="stroke:#181818;stroke-width:0.5;" width="129" x="806" y="438"/><ellipse cx="821" cy="454" fill="#ADD1B2" rx="11" ry="11" style="stroke:#181818;stroke-width:1.0;"/><path d="M820.4688,460.9219 Q818.7188,460.9219 817.5781,460.1875 Q816.4531,459.4375 815.8906,458.0938 Q815.3438,456.7344 815.3438,454.9375 Q815.3438,452.9063 816,451.4531 Q816.6563,450 817.9375,449.2188 Q819.2188,448.4375 821.0938,448.4375 Q821.9844,448.4375 822.6563,448.625 Q823.3281,448.7969 824.0156,449.1406 L823.2031,451.1563 Q822.5781,450.8438 822.0313,450.7188 Q821.5,450.5938 821.0156,450.5938 Q819.8438,450.5938 819.1406,451.125 Q818.4375,451.6563 818.1406,452.6094 Q817.8438,453.5625 817.8438,454.8281 Q817.8438,456.8438 818.5625,457.8125 Q819.2813,458.7656 820.875,458.7656 Q821.4688,458.7656 822.0938,458.6094 Q822.7188,458.4531 823.5469,458.0781 L823.5469,460.2969 Q822.8125,460.6094 822.0156,460.7656 Q821.2344,460.9219 820.4688,460.9219 Z " fill="#000000"/><text fill="#000000" font-family="sans-serif" font-size="14" lengthAdjust="spacing" textLength="97" x="835" y="459.432">FormattedText</text><line style="stroke:#181818;stroke-width:0.5;" x1="807" x2="934" y1="470" y2="470"/><line style="stroke:#181818;stroke-width:0.5;" x1="807" x2="934" y1="478" y2="478"/></g><!--class FilledLetterDisplay--><g id="elem_FilledLetterDisplay"><rect codeLine="1" fill="#F1F1F1" height="48" id="FilledLetterDisplay" rx="2.5" ry="2.5" style="stroke:#181818;stroke-width:0.5;" width="156" x="970.5" y="438"/><ellipse cx="985.5" cy="454" fill="#ADD1B2" rx="11" ry="11" style="stroke:#181818;stroke-width:1.0;"/><path d="M984.9688,460.9219 Q983.2188,460.9219 982.0781,460.1875 Q980.9531,459.4375 980.3906,458.0938 Q979.8438,456.7344 979.8438,454.9375 Q979.8438,452.9063 980.5,451.4531 Q981.1563,450 982.4375,449.2188 Q983.7188,448.4375 985.5938,448.4375 Q986.4844,448.4375 987.1563,448.625 Q987.8281,448.7969 988.5156,449.1406 L987.7031,451.1563 Q987.0781,450.8438 986.5313,450.7188 Q986,450.5938 985.5156,450.5938 Q984.3438,450.5938 983.6406,451.125 Q982.9375,451.6563 982.6406,452.6094 Q982.3438,453.5625 982.3438,454.8281 Q982.3438,456.8438 983.0625,457.8125 Q983.7813,458.7656 985.375,458.7656 Q985.9688,458.7656 986.5938,458.6094 Q987.2188,458.4531 988.0469,458.0781 L988.0469,460.2969 Q987.3125,460.6094 986.5156,460.7656 Q985.7344,460.9219 984.9688,460.9219 Z " fill="#000000"/><text fill="#000000" font-family="sans-serif" font-size="14" lengthAdjust="spacing" textLength="124" x="999.5" y="459.432">FilledLetterDisplay</text><line style="stroke:#181818;stroke-width:0.5;" x1="971.5" x2="1125.5" y1="470" y2="470"/><line style="stroke:#181818;stroke-width:0.5;" x1="971.5" x2="1125.5" y1="478" y2="478"/></g><!--class MainViewModel--><g id="elem_MainViewModel"><rect codeLine="1" fill="#F1F1F1" height="67.0679" id="MainViewModel" rx="2.5" ry="2.5" style="stroke:#181818;stroke-width:0.5;" width="177" x="7" y="428.5"/><ellipse cx="39.1" cy="444.5" fill="#ADD1B2" rx="11" ry="11" style="stroke:#181818;stroke-width:1.0;"/><path d="M38.5688,451.4219 Q36.8188,451.4219 35.6781,450.6875 Q34.5531,449.9375 33.9906,448.5938 Q33.4438,447.2344 33.4438,445.4375 Q33.4438,443.4063 34.1,441.9531 Q34.7563,440.5 36.0375,439.7188 Q37.3188,438.9375 39.1938,438.9375 Q40.0844,438.9375 40.7563,439.125 Q41.4281,439.2969 42.1156,439.6406 L41.3031,441.6563 Q40.6781,441.3438 40.1313,441.2188 Q39.6,441.0938 39.1156,441.0938 Q37.9438,441.0938 37.2406,441.625 Q36.5375,442.1563 36.2406,443.1094 Q35.9438,444.0625 35.9438,445.3281 Q35.9438,447.3438 36.6625,448.3125 Q37.3813,449.2656 38.975,449.2656 Q39.5688,449.2656 40.1938,449.1094 Q40.8188,448.9531 41.6469,448.5781 L41.6469,450.7969 Q40.9125,451.1094 40.1156,451.2656 Q39.3344,451.4219 38.5688,451.4219 Z " fill="#000000"/><text fill="#000000" font-family="sans-serif" font-size="14" lengthAdjust="spacing" textLength="107" x="56.9" y="449.932">MainViewModel</text><line style="stroke:#181818;stroke-width:0.5;" x1="8" x2="183" y1="460.5" y2="460.5"/><ellipse cx="18" cy="475.534" fill="none" rx="3" ry="3" style="stroke:#038048;stroke-width:1.0;"/><text fill="#000000" font-family="sans-serif" font-size="14" lengthAdjust="spacing" textLength="151" x="27" y="479.4659">Greeting : string «get»</text><line style="stroke:#181818;stroke-width:0.5;" x1="8" x2="183" y1="487.5679" y2="487.5679"/></g><!--class ViewModelBase--><g id="elem_ViewModelBase"><rect codeLine="1" fill="#F1F1F1" height="48" id="ViewModelBase" rx="2.5" ry="2.5" style="stroke:#181818;stroke-width:0.5;" width="137" x="27" y="258"/><ellipse cx="42" cy="274" fill="#ADD1B2" rx="11" ry="11" style="stroke:#181818;stroke-width:1.0;"/><path d="M41.4688,280.9219 Q39.7188,280.9219 38.5781,280.1875 Q37.4531,279.4375 36.8906,278.0938 Q36.3438,276.7344 36.3438,274.9375 Q36.3438,272.9063 37,271.4531 Q37.6563,270 38.9375,269.2188 Q40.2188,268.4375 42.0938,268.4375 Q42.9844,268.4375 43.6563,268.625 Q44.3281,268.7969 45.0156,269.1406 L44.2031,271.1563 Q43.5781,270.8438 43.0313,270.7188 Q42.5,270.5938 42.0156,270.5938 Q40.8438,270.5938 40.1406,271.125 Q39.4375,271.6563 39.1406,272.6094 Q38.8438,273.5625 38.8438,274.8281 Q38.8438,276.8438 39.5625,277.8125 Q40.2813,278.7656 41.875,278.7656 Q42.4688,278.7656 43.0938,278.6094 Q43.7188,278.4531 44.5469,278.0781 L44.5469,280.2969 Q43.8125,280.6094 43.0156,280.7656 Q42.2344,280.9219 41.4688,280.9219 Z " fill="#000000"/><text fill="#000000" font-family="sans-serif" font-size="14" lengthAdjust="spacing" textLength="105" x="56" y="279.432">ViewModelBase</text><line style="stroke:#181818;stroke-width:0.5;" x1="28" x2="163" y1="290" y2="290"/><line style="stroke:#181818;stroke-width:0.5;" x1="28" x2="163" y1="298" y2="298"/></g><!--class ReactiveObject--><g id="elem_ReactiveObject"><rect fill="#F1F1F1" height="48" id="ReactiveObject" rx="2.5" ry="2.5" style="stroke:#181818;stroke-width:0.5;" width="132" x="29.5" y="61.5"/><ellipse cx="44.5" cy="77.5" fill="#ADD1B2" rx="11" ry="11" style="stroke:#181818;stroke-width:1.0;"/><path d="M43.9688,84.4219 Q42.2188,84.4219 41.0781,83.6875 Q39.9531,82.9375 39.3906,81.5938 Q38.8438,80.2344 38.8438,78.4375 Q38.8438,76.4063 39.5,74.9531 Q40.1563,73.5 41.4375,72.7188 Q42.7188,71.9375 44.5938,71.9375 Q45.4844,71.9375 46.1563,72.125 Q46.8281,72.2969 47.5156,72.6406 L46.7031,74.6563 Q46.0781,74.3438 45.5313,74.2188 Q45,74.0938 44.5156,74.0938 Q43.3438,74.0938 42.6406,74.625 Q41.9375,75.1563 41.6406,76.1094 Q41.3438,77.0625 41.3438,78.3281 Q41.3438,80.3438 42.0625,81.3125 Q42.7813,82.2656 44.375,82.2656 Q44.9688,82.2656 45.5938,82.1094 Q46.2188,81.9531 47.0469,81.5781 L47.0469,83.7969 Q46.3125,84.1094 45.5156,84.2656 Q44.7344,84.4219 43.9688,84.4219 Z " fill="#000000"/><text fill="#000000" font-family="sans-serif" font-size="14" lengthAdjust="spacing" textLength="100" x="58.5" y="82.932">ReactiveObject</text><line style="stroke:#181818;stroke-width:0.5;" x1="30.5" x2="160.5" y1="93.5" y2="93.5"/><line style="stroke:#181818;stroke-width:0.5;" x1="30.5" x2="160.5" y1="101.5" y2="101.5"/></g><!--class MainWindow--><g id="elem_MainWindow"><rect codeLine="1" fill="#F1F1F1" height="80.4799" id="MainWindow" rx="2.5" ry="2.5" style="stroke:#181818;stroke-width:0.5;" width="122" x="1173.5" y="242"/><ellipse cx="1189.4" cy="264.706" fill="#ADD1B2" rx="11" ry="11" style="stroke:#181818;stroke-width:1.0;"/><path d="M1188.8688,271.6279 Q1187.1188,271.6279 1185.9781,270.8935 Q1184.8531,270.1435 1184.2906,268.7998 Q1183.7438,267.4404 1183.7438,265.6435 Q1183.7438,263.6123 1184.4,262.1591 Q1185.0563,260.706 1186.3375,259.9248 Q1187.6188,259.1435 1189.4938,259.1435 Q1190.3844,259.1435 1191.0563,259.331 Q1191.7281,259.5029 1192.4156,259.8466 L1191.6031,261.8623 Q1190.9781,261.5498 1190.4313,261.4248 Q1189.9,261.2998 1189.4156,261.2998 Q1188.2438,261.2998 1187.5406,261.831 Q1186.8375,262.3623 1186.5406,263.3154 Q1186.2438,264.2685 1186.2438,265.5341 Q1186.2438,267.5498 1186.9625,268.5185 Q1187.6813,269.4716 1189.275,269.4716 Q1189.8688,269.4716 1190.4938,269.3154 Q1191.1188,269.1591 1191.9469,268.7841 L1191.9469,271.0029 Q1191.2125,271.3154 1190.4156,271.4716 Q1189.6344,271.6279 1188.8688,271.6279 Z " fill="#000000"/><text fill="#000000" font-family="sans-serif" font-size="12" font-style="italic" lengthAdjust="spacing" textLength="48" x="1223.6" y="259.8281">«partial»</text><text fill="#000000" font-family="sans-serif" font-size="14" lengthAdjust="spacing" textLength="88" x="1203.6" y="278.31">MainWindow</text><line style="stroke:#181818;stroke-width:0.5;" x1="1174.5" x2="1294.5" y1="287.412" y2="287.412"/><line style="stroke:#181818;stroke-width:0.5;" x1="1174.5" x2="1294.5" y1="295.412" y2="295.412"/><ellipse cx="1184.5" cy="310.446" fill="#84BE84" rx="3" ry="3" style="stroke:#038048;stroke-width:1.0;"/><text fill="#000000" font-family="sans-serif" font-size="14" lengthAdjust="spacing" textLength="96" x="1193.5" y="314.378">MainWindow()</text></g><!--class Window--><g id="elem_Window"><rect fill="#F1F1F1" height="48" id="Window" rx="2.5" ry="2.5" style="stroke:#181818;stroke-width:0.5;" width="86" x="1191.5" y="61.5"/><ellipse cx="1206.5" cy="77.5" fill="#ADD1B2" rx="11" ry="11" style="stroke:#181818;stroke-width:1.0;"/><path d="M1205.9688,84.4219 Q1204.2188,84.4219 1203.0781,83.6875 Q1201.9531,82.9375 1201.3906,81.5938 Q1200.8438,80.2344 1200.8438,78.4375 Q1200.8438,76.4063 1201.5,74.9531 Q1202.1563,73.5 1203.4375,72.7188 Q1204.7188,71.9375 1206.5938,71.9375 Q1207.4844,71.9375 1208.1563,72.125 Q1208.8281,72.2969 1209.5156,72.6406 L1208.7031,74.6563 Q1208.0781,74.3438 1207.5313,74.2188 Q1207,74.0938 1206.5156,74.0938 Q1205.3438,74.0938 1204.6406,74.625 Q1203.9375,75.1563 1203.6406,76.1094 Q1203.3438,77.0625 1203.3438,78.3281 Q1203.3438,80.3438 1204.0625,81.3125 Q1204.7813,82.2656 1206.375,82.2656 Q1206.9688,82.2656 1207.5938,82.1094 Q1208.2188,81.9531 1209.0469,81.5781 L1209.0469,83.7969 Q1208.3125,84.1094 1207.5156,84.2656 Q1206.7344,84.4219 1205.9688,84.4219 Z " fill="#000000"/><text fill="#000000" font-family="sans-serif" font-size="14" lengthAdjust="spacing" textLength="54" x="1220.5" y="82.932">Window</text><line style="stroke:#181818;stroke-width:0.5;" x1="1192.5" x2="1276.5" y1="93.5" y2="93.5"/><line style="stroke:#181818;stroke-width:0.5;" x1="1192.5" x2="1276.5" y1="101.5" y2="101.5"/></g><!--class MainView--><g id="elem_MainView"><rect codeLine="1" fill="#F1F1F1" height="80.4799" id="MainView" rx="2.5" ry="2.5" style="stroke:#181818;stroke-width:0.5;" width="99" x="1331" y="242"/><ellipse cx="1346.9" cy="264.706" fill="#ADD1B2" rx="11" ry="11" style="stroke:#181818;stroke-width:1.0;"/><path d="M1346.3688,271.6279 Q1344.6188,271.6279 1343.4781,270.8935 Q1342.3531,270.1435 1341.7906,268.7998 Q1341.2438,267.4404 1341.2438,265.6435 Q1341.2438,263.6123 1341.9,262.1591 Q1342.5563,260.706 1343.8375,259.9248 Q1345.1188,259.1435 1346.9938,259.1435 Q1347.8844,259.1435 1348.5563,259.331 Q1349.2281,259.5029 1349.9156,259.8466 L1349.1031,261.8623 Q1348.4781,261.5498 1347.9313,261.4248 Q1347.4,261.2998 1346.9156,261.2998 Q1345.7438,261.2998 1345.0406,261.831 Q1344.3375,262.3623 1344.0406,263.3154 Q1343.7438,264.2685 1343.7438,265.5341 Q1343.7438,267.5498 1344.4625,268.5185 Q1345.1813,269.4716 1346.775,269.4716 Q1347.3688,269.4716 1347.9938,269.3154 Q1348.6188,269.1591 1349.4469,268.7841 L1349.4469,271.0029 Q1348.7125,271.3154 1347.9156,271.4716 Q1347.1344,271.6279 1346.3688,271.6279 Z " fill="#000000"/><text fill="#000000" font-family="sans-serif" font-size="12" font-style="italic" lengthAdjust="spacing" textLength="48" x="1369.6" y="259.8281">«partial»</text><text fill="#000000" font-family="sans-serif" font-size="14" lengthAdjust="spacing" textLength="65" x="1361.1" y="278.31">MainView</text><line style="stroke:#181818;stroke-width:0.5;" x1="1332" x2="1429" y1="287.412" y2="287.412"/><line style="stroke:#181818;stroke-width:0.5;" x1="1332" x2="1429" y1="295.412" y2="295.412"/><ellipse cx="1342" cy="310.446" fill="#84BE84" rx="3" ry="3" style="stroke:#038048;stroke-width:1.0;"/><text fill="#000000" font-family="sans-serif" font-size="14" lengthAdjust="spacing" textLength="73" x="1351" y="314.378">MainView()</text></g><!--class UserControl--><g id="elem_UserControl"><rect fill="#F1F1F1" height="48" id="UserControl" rx="2.5" ry="2.5" style="stroke:#181818;stroke-width:0.5;" width="112" x="1324.5" y="61.5"/><ellipse cx="1339.5" cy="77.5" fill="#ADD1B2" rx="11" ry="11" style="stroke:#181818;stroke-width:1.0;"/><path d="M1338.9688,84.4219 Q1337.2188,84.4219 1336.0781,83.6875 Q1334.9531,82.9375 1334.3906,81.5938 Q1333.8438,80.2344 1333.8438,78.4375 Q1333.8438,76.4063 1334.5,74.9531 Q1335.1563,73.5 1336.4375,72.7188 Q1337.7188,71.9375 1339.5938,71.9375 Q1340.4844,71.9375 1341.1563,72.125 Q1341.8281,72.2969 1342.5156,72.6406 L1341.7031,74.6563 Q1341.0781,74.3438 1340.5313,74.2188 Q1340,74.0938 1339.5156,74.0938 Q1338.3438,74.0938 1337.6406,74.625 Q1336.9375,75.1563 1336.6406,76.1094 Q1336.3438,77.0625 1336.3438,78.3281 Q1336.3438,80.3438 1337.0625,81.3125 Q1337.7813,82.2656 1339.375,82.2656 Q1339.9688,82.2656 1340.5938,82.1094 Q1341.2188,81.9531 1342.0469,81.5781 L1342.0469,83.7969 Q1341.3125,84.1094 1340.5156,84.2656 Q1339.7344,84.4219 1338.9688,84.4219 Z " fill="#000000"/><text fill="#000000" font-family="sans-serif" font-size="14" lengthAdjust="spacing" textLength="80" x="1353.5" y="82.932">UserControl</text><line style="stroke:#181818;stroke-width:0.5;" x1="1325.5" x2="1435.5" y1="93.5" y2="93.5"/><line style="stroke:#181818;stroke-width:0.5;" x1="1325.5" x2="1435.5" y1="101.5" y2="101.5"/></g><!--link GameState to Random--><g id="link_GameState_Random"><path codeLine="7" d="M487.15,462 C487.15,462 491.93,462 493.93,462 " fill="none" id="GameState-Random" style="stroke:#181818;stroke-width:1.0;"/><polygon fill="none" points="475.15,462,481.15,466,487.15,462,481.15,458,475.15,462" style="stroke:#181818;stroke-width:1.0;"/><polygon fill="#181818" points="506.63,462,497.63,458,501.63,462,497.63,466,506.63,462" style="stroke:#181818;stroke-width:1.0;"/><line style="stroke:#181818;stroke-width:1.0;" x1="501.63" x2="493.63" y1="462" y2="462"/><text fill="#000000" font-family="sans-serif" font-size="13" lengthAdjust="spacing" textLength="54" x="445.9473" y="449.058">_random</text></g><!--reverse link Control to LetterDisplay--><g id="link_Control_LetterDisplay"><path codeLine="6" d="M959.5,131.16 C959.5,160.42 959.5,198.77 959.5,229.34 " fill="none" id="Control-backto-LetterDisplay" style="stroke:#181818;stroke-width:1.0;"/><polygon fill="none" points="952.5,131.47,959.5,111.47,966.5,131.47,952.5,131.47" style="stroke:#181818;stroke-width:1.0;"/></g><!--link LetterDisplay to FormattedText--><g id="link_LetterDisplay_FormattedText"><path codeLine="7" d="M933.52,334.96 C917.68,366.64 898.04,405.93 884.93,432.14 " fill="none" id="LetterDisplay-to-FormattedText" style="stroke:#181818;stroke-width:1.0;"/><polygon fill="#181818" points="882.75,436.5,890.3606,430.2487,884.9918,432.0307,883.2098,426.6619,882.75,436.5" style="stroke:#181818;stroke-width:1.0;"/><text fill="#000000" font-family="sans-serif" font-size="13" lengthAdjust="spacing" textLength="30" x="851.1482" y="426.0672">_text</text></g><!--reverse link LetterDisplay to FilledLetterDisplay--><g id="link_LetterDisplay_FilledLetterDisplay"><path codeLine="3" d="M995.02,354.03 C1009.95,383.9 1026.29,416.57 1036.93,437.85 " fill="none" id="LetterDisplay-backto-FilledLetterDisplay" style="stroke:#181818;stroke-width:1.0;"/><polygon fill="none" points="988.84,357.34,986.16,336.32,1001.36,351.08,988.84,357.34" style="stroke:#181818;stroke-width:1.0;"/></g><!--reverse link ViewModelBase to MainViewModel--><g id="link_ViewModelBase_MainViewModel"><path codeLine="4" d="M95.5,327.39 C95.5,358.61 95.5,399.7 95.5,428.03 " fill="none" id="ViewModelBase-backto-MainViewModel" style="stroke:#181818;stroke-width:1.0;"/><polygon fill="none" points="88.5,327.78,95.5,307.78,102.5,327.78,88.5,327.78" style="stroke:#181818;stroke-width:1.0;"/></g><!--link MainViewModel to GameState--><g id="link_MainViewModel_GameState"><path codeLine="5" d="M197.75,462 C197.75,462 202.71,462 204.73,462 " fill="none" id="MainViewModel-GameState" style="stroke:#181818;stroke-width:1.0;"/><polygon fill="none" points="185.75,462,191.75,466,197.75,462,191.75,458,185.75,462" style="stroke:#181818;stroke-width:1.0;"/><polygon fill="#181818" points="217.58,462,208.58,458,212.58,462,208.58,466,217.58,462" style="stroke:#181818;stroke-width:1.0;"/><line style="stroke:#181818;stroke-width:1.0;" x1="212.58" x2="204.58" y1="462" y2="462"/><text fill="#000000" font-family="sans-serif" font-size="13" lengthAdjust="spacing" textLength="31" x="191.7376" y="457.5284">State</text></g><!--reverse link ReactiveObject to ViewModelBase--><g id="link_ReactiveObject_ViewModelBase"><path codeLine="3" d="M95.5,131.24 C95.5,170.69 95.5,226.61 95.5,257.76 " fill="none" id="ReactiveObject-backto-ViewModelBase" style="stroke:#181818;stroke-width:1.0;"/><polygon fill="none" points="88.5,131.47,95.5,111.47,102.5,131.47,88.5,131.47" style="stroke:#181818;stroke-width:1.0;"/></g><!--reverse link Window to MainWindow--><g id="link_Window_MainWindow"><path codeLine="4" d="M1234.5,131.33 C1234.5,164.65 1234.5,209.69 1234.5,241.63 " fill="none" id="Window-backto-MainWindow" style="stroke:#181818;stroke-width:1.0;"/><polygon fill="none" points="1227.5,131.47,1234.5,111.47,1241.5,131.47,1227.5,131.47" style="stroke:#181818;stroke-width:1.0;"/></g><!--reverse link UserControl to MainView--><g id="link_UserControl_MainView"><path codeLine="4" d="M1380.5,131.33 C1380.5,164.65 1380.5,209.69 1380.5,241.63 " fill="none" id="UserControl-backto-MainView" style="stroke:#181818;stroke-width:1.0;"/><polygon fill="none" points="1373.5,131.47,1380.5,111.47,1387.5,131.47,1373.5,131.47" style="stroke:#181818;stroke-width:1.0;"/></g><!--SRC=[KypCIyufJKbLqDFtpKz9pT67ylKAIdDpk1GHiixvkGNvUQbv9SKubOHbffQ33S6l15KM0000]--></g></svg>