<?xml version="1.0" encoding="UTF-8" standalone="no"?><svg xmlns="http://www.w3.org/2000/svg" xmlns:xlink="http://www.w3.org/1999/xlink" contentStyleType="text/css" height="1111px" preserveAspectRatio="none" style="width:3942px;height:1111px;background:#FFFFFF;" version="1.1" viewBox="0 0 3942 1111" width="3942px" zoomAndPan="magnify"><defs/><g><!--class Settings--><g id="elem_Settings"><rect codeLine="1" fill="#F1F1F1" height="173.0957" id="Settings" rx="2.5" ry="2.5" style="stroke:#181818;stroke-width:0.5;" width="219" x="35" y="927"/><ellipse cx="112.75" cy="957.8781" fill="#ADD1B2" rx="11" ry="11" style="stroke:#181818;stroke-width:1.0;"/><path d="M112.2188,964.7999 Q110.4688,964.7999 109.3281,964.0656 Q108.2031,963.3156 107.6406,961.9718 Q107.0938,960.6124 107.0938,958.8156 Q107.0938,956.7843 107.75,955.3312 Q108.4063,953.8781 109.6875,953.0968 Q110.9688,952.3156 112.8438,952.3156 Q113.7344,952.3156 114.4063,952.5031 Q115.0781,952.6749 115.7656,953.0187 L114.9531,955.0343 Q114.3281,954.7218 113.7813,954.5968 Q113.25,954.4718 112.7656,954.4718 Q111.5938,954.4718 110.8906,955.0031 Q110.1875,955.5343 109.8906,956.4874 Q109.5938,957.4406 109.5938,958.7062 Q109.5938,960.7218 110.3125,961.6906 Q111.0313,962.6437 112.625,962.6437 Q113.2188,962.6437 113.8438,962.4874 Q114.4688,962.3312 115.2969,961.9562 L115.2969,964.1749 Q114.5625,964.4874 113.7656,964.6437 Q112.9844,964.7999 112.2188,964.7999 Z " fill="#000000"/><text fill="#000000" font-family="sans-serif" font-size="12" font-style="italic" lengthAdjust="spacing" textLength="47" x="137.25" y="944.8281">«record»</text><text fill="#000000" font-family="sans-serif" font-size="12" font-style="italic" lengthAdjust="spacing" textLength="42" x="139.75" y="961.1722">«struct»</text><text fill="#000000" font-family="sans-serif" font-size="14" lengthAdjust="spacing" textLength="55" x="133.25" y="979.6542">Settings</text><line style="stroke:#181818;stroke-width:0.5;" x1="36" x2="253" y1="988.7561" y2="988.7561"/><ellipse cx="46" cy="1003.7901" fill="none" rx="3" ry="3" style="stroke:#038048;stroke-width:1.0;"/><text fill="#000000" font-family="sans-serif" font-size="14" lengthAdjust="spacing" textLength="141" x="55" y="1007.7221">_wordLength : int = 5</text><ellipse cx="46" cy="1022.858" fill="none" rx="3" ry="3" style="stroke:#038048;stroke-width:1.0;"/><text fill="#000000" font-family="sans-serif" font-size="14" lengthAdjust="spacing" textLength="145" x="55" y="1026.79">_maxAnswers : int = 5</text><ellipse cx="46" cy="1041.9259" fill="none" rx="3" ry="3" style="stroke:#038048;stroke-width:1.0;"/><text fill="#000000" font-family="sans-serif" font-size="14" lengthAdjust="spacing" textLength="191" x="55" y="1045.8579">WordLength : int «get» «set»</text><ellipse cx="46" cy="1060.9939" fill="none" rx="3" ry="3" style="stroke:#038048;stroke-width:1.0;"/><text fill="#000000" font-family="sans-serif" font-size="14" lengthAdjust="spacing" textLength="193" x="55" y="1064.9258">MaxAnswers : int «get» «set»</text><line style="stroke:#181818;stroke-width:0.5;" x1="36" x2="253" y1="1073.0278" y2="1073.0278"/><ellipse cx="46" cy="1088.0618" fill="#84BE84" rx="3" ry="3" style="stroke:#038048;stroke-width:1.0;"/><text fill="#000000" font-family="sans-serif" font-size="14" lengthAdjust="spacing" textLength="63" x="55" y="1091.9937">Settings()</text></g><!--class WordList--><g id="elem_WordList"><rect codeLine="1" fill="#F1F1F1" height="156.7516" id="WordList" rx="2.5" ry="2.5" style="stroke:#181818;stroke-width:0.5;" width="203" x="3459" y="7"/><ellipse cx="3526.75" cy="29.706" fill="#ADD1B2" rx="11" ry="11" style="stroke:#181818;stroke-width:1.0;"/><path d="M3526.2188,36.6279 Q3524.4688,36.6279 3523.3281,35.8935 Q3522.2031,35.1435 3521.6406,33.7998 Q3521.0938,32.4404 3521.0938,30.6435 Q3521.0938,28.6123 3521.75,27.1591 Q3522.4063,25.706 3523.6875,24.9248 Q3524.9688,24.1435 3526.8438,24.1435 Q3527.7344,24.1435 3528.4063,24.331 Q3529.0781,24.5029 3529.7656,24.8466 L3528.9531,26.8623 Q3528.3281,26.5498 3527.7813,26.4248 Q3527.25,26.2998 3526.7656,26.2998 Q3525.5938,26.2998 3524.8906,26.831 Q3524.1875,27.3623 3523.8906,28.3154 Q3523.5938,29.2685 3523.5938,30.5341 Q3523.5938,32.5498 3524.3125,33.5185 Q3525.0313,34.4716 3526.625,34.4716 Q3527.2188,34.4716 3527.8438,34.3154 Q3528.4688,34.1591 3529.2969,33.7841 L3529.2969,36.0029 Q3528.5625,36.3154 3527.7656,36.4716 Q3526.9844,36.6279 3526.2188,36.6279 Z " fill="#000000"/><text fill="#000000" font-family="sans-serif" font-size="12" font-style="italic" lengthAdjust="spacing" textLength="40" x="3556.75" y="24.8281">«static»</text><text fill="#000000" font-family="sans-serif" font-size="14" lengthAdjust="spacing" textLength="59" x="3547.25" y="43.31">WordList</text><line style="stroke:#181818;stroke-width:0.5;" x1="3460" x2="3661" y1="52.412" y2="52.412"/><rect fill="none" height="6" style="stroke:#C82930;stroke-width:1.0;" width="6" x="3467" y="64.446"/><text fill="#000000" font-family="sans-serif" font-size="14" lengthAdjust="spacing" text-decoration="underline" textLength="157" x="3479" y="71.378">_words : string[]? = null</text><line style="stroke:#181818;stroke-width:0.5;" x1="3460" x2="3661" y1="79.4799" y2="79.4799"/><ellipse cx="3470" cy="94.5139" fill="#84BE84" rx="3" ry="3" style="stroke:#038048;stroke-width:1.0;"/><text fill="#000000" font-family="sans-serif" font-size="14" lengthAdjust="spacing" text-decoration="underline" textLength="93" x="3479" y="98.4459">Get() : string[]</text><ellipse cx="3470" cy="113.5818" fill="#84BE84" rx="3" ry="3" style="stroke:#038048;stroke-width:1.0;"/><text fill="#000000" font-family="sans-serif" font-size="14" lengthAdjust="spacing" text-decoration="underline" textLength="177" x="3479" y="117.5138">GetSized(size:int) : string[]</text><ellipse cx="3470" cy="132.6497" fill="#84BE84" rx="3" ry="3" style="stroke:#038048;stroke-width:1.0;"/><text fill="#000000" font-family="sans-serif" font-size="14" lengthAdjust="spacing" text-decoration="underline" textLength="78" x="3479" y="136.5817">Count() : int</text><ellipse cx="3470" cy="151.7177" fill="#84BE84" rx="3" ry="3" style="stroke:#038048;stroke-width:1.0;"/><text fill="#000000" font-family="sans-serif" font-size="14" lengthAdjust="spacing" text-decoration="underline" textLength="162" x="3479" y="155.6496">CountSized(size:int) : int</text></g><!--class Answer--><g id="elem_Answer"><rect codeLine="1" fill="#F1F1F1" height="181.4754" id="Answer" rx="2.5" ry="2.5" style="stroke:#181818;stroke-width:0.5;" width="380" x="594.5" y="923"/><ellipse cx="755.25" cy="939" fill="#ADD1B2" rx="11" ry="11" style="stroke:#181818;stroke-width:1.0;"/><path d="M754.7188,945.9219 Q752.9688,945.9219 751.8281,945.1875 Q750.7031,944.4375 750.1406,943.0938 Q749.5938,941.7344 749.5938,939.9375 Q749.5938,937.9063 750.25,936.4531 Q750.9063,935 752.1875,934.2188 Q753.4688,933.4375 755.3438,933.4375 Q756.2344,933.4375 756.9063,933.625 Q757.5781,933.7969 758.2656,934.1406 L757.4531,936.1563 Q756.8281,935.8438 756.2813,935.7188 Q755.75,935.5938 755.2656,935.5938 Q754.0938,935.5938 753.3906,936.125 Q752.6875,936.6563 752.3906,937.6094 Q752.0938,938.5625 752.0938,939.8281 Q752.0938,941.8438 752.8125,942.8125 Q753.5313,943.7656 755.125,943.7656 Q755.7188,943.7656 756.3438,943.6094 Q756.9688,943.4531 757.7969,943.0781 L757.7969,945.2969 Q757.0625,945.6094 756.2656,945.7656 Q755.4844,945.9219 754.7188,945.9219 Z " fill="#000000"/><text fill="#000000" font-family="sans-serif" font-size="14" lengthAdjust="spacing" textLength="50" x="775.75" y="944.432">Answer</text><line style="stroke:#181818;stroke-width:0.5;" x1="595.5" x2="973.5" y1="955" y2="955"/><rect fill="none" height="6" style="stroke:#C82930;stroke-width:1.0;" width="6" x="602.5" y="967.034"/><text fill="#000000" font-family="sans-serif" font-size="14" lengthAdjust="spacing" textLength="94" x="614.5" y="973.9659">_value : string</text><rect fill="none" height="6" style="stroke:#C82930;stroke-width:1.0;" width="6" x="602.5" y="986.1019"/><text fill="#000000" font-family="sans-serif" font-size="14" lengthAdjust="spacing" textLength="90" x="614.5" y="993.0339">_locked : bool</text><ellipse cx="605.5" cy="1008.1698" fill="none" rx="3" ry="3" style="stroke:#038048;stroke-width:1.0;"/><text fill="#000000" font-family="sans-serif" font-size="14" lengthAdjust="spacing" textLength="167" x="614.5" y="1012.1018">Value : string «get» «set»</text><ellipse cx="605.5" cy="1027.2377" fill="none" rx="3" ry="3" style="stroke:#038048;stroke-width:1.0;"/><text fill="#000000" font-family="sans-serif" font-size="14" lengthAdjust="spacing" textLength="165" x="614.5" y="1031.1697">Locked : bool «get» «set»</text><line style="stroke:#181818;stroke-width:0.5;" x1="595.5" x2="973.5" y1="1039.2717" y2="1039.2717"/><ellipse cx="605.5" cy="1054.3056" fill="#84BE84" rx="3" ry="3" style="stroke:#038048;stroke-width:1.0;"/><text fill="#000000" font-family="sans-serif" font-size="14" lengthAdjust="spacing" textLength="138" x="614.5" y="1058.2376">Answer(value:string)</text><ellipse cx="605.5" cy="1073.3735" fill="#84BE84" rx="3" ry="3" style="stroke:#038048;stroke-width:1.0;"/><text fill="#000000" font-family="sans-serif" font-size="14" lengthAdjust="spacing" textLength="213" x="614.5" y="1077.3055">Letter(index:int) : AnswerLetter?</text><ellipse cx="605.5" cy="1092.4415" fill="#84BE84" rx="3" ry="3" style="stroke:#038048;stroke-width:1.0;"/><text fill="#000000" font-family="sans-serif" font-size="14" lengthAdjust="spacing" textLength="354" x="614.5" y="1096.3734">GetLetterUse(state:GameState, index:int) : LetterUse?</text></g><!--class GameState--><g id="elem_GameState"><rect codeLine="1" fill="#F1F1F1" height="67.0679" id="GameState" rx="2.5" ry="2.5" style="stroke:#181818;stroke-width:0.5;" width="220" x="388.5" y="786.5"/><ellipse cx="457.75" cy="802.5" fill="#ADD1B2" rx="11" ry="11" style="stroke:#181818;stroke-width:1.0;"/><path d="M457.2188,809.4219 Q455.4688,809.4219 454.3281,808.6875 Q453.2031,807.9375 452.6406,806.5938 Q452.0938,805.2344 452.0938,803.4375 Q452.0938,801.4063 452.75,799.9531 Q453.4063,798.5 454.6875,797.7188 Q455.9688,796.9375 457.8438,796.9375 Q458.7344,796.9375 459.4063,797.125 Q460.0781,797.2969 460.7656,797.6406 L459.9531,799.6563 Q459.3281,799.3438 458.7813,799.2188 Q458.25,799.0938 457.7656,799.0938 Q456.5938,799.0938 455.8906,799.625 Q455.1875,800.1563 454.8906,801.1094 Q454.5938,802.0625 454.5938,803.3281 Q454.5938,805.3438 455.3125,806.3125 Q456.0313,807.2656 457.625,807.2656 Q458.2188,807.2656 458.8438,807.1094 Q459.4688,806.9531 460.2969,806.5781 L460.2969,808.7969 Q459.5625,809.1094 458.7656,809.2656 Q457.9844,809.4219 457.2188,809.4219 Z " fill="#000000"/><text fill="#000000" font-family="sans-serif" font-size="14" lengthAdjust="spacing" textLength="73" x="478.25" y="807.932">GameState</text><line style="stroke:#181818;stroke-width:0.5;" x1="389.5" x2="607.5" y1="818.5" y2="818.5"/><line style="stroke:#181818;stroke-width:0.5;" x1="389.5" x2="607.5" y1="826.5" y2="826.5"/><ellipse cx="399.5" cy="841.534" fill="#84BE84" rx="3" ry="3" style="stroke:#038048;stroke-width:1.0;"/><text fill="#000000" font-family="sans-serif" font-size="14" lengthAdjust="spacing" textLength="194" x="408.5" y="845.4659">GameState(settings:Settings)</text></g><!--class List`1--><g id="elem_List`1"><rect codeLine="7" fill="#F1F1F1" height="48" id="List`1" rx="2.5" ry="2.5" style="stroke:#181818;stroke-width:0.5;" width="77" x="378" y="989.5"/><ellipse cx="393" cy="1005.5" fill="#ADD1B2" rx="11" ry="11" style="stroke:#181818;stroke-width:1.0;"/><path d="M392.4688,1012.4219 Q390.7188,1012.4219 389.5781,1011.6875 Q388.4531,1010.9375 387.8906,1009.5938 Q387.3438,1008.2344 387.3438,1006.4375 Q387.3438,1004.4063 388,1002.9531 Q388.6563,1001.5 389.9375,1000.7188 Q391.2188,999.9375 393.0938,999.9375 Q393.9844,999.9375 394.6563,1000.125 Q395.3281,1000.2969 396.0156,1000.6406 L395.2031,1002.6563 Q394.5781,1002.3438 394.0313,1002.2188 Q393.5,1002.0938 393.0156,1002.0938 Q391.8438,1002.0938 391.1406,1002.625 Q390.4375,1003.1563 390.1406,1004.1094 Q389.8438,1005.0625 389.8438,1006.3281 Q389.8438,1008.3438 390.5625,1009.3125 Q391.2813,1010.2656 392.875,1010.2656 Q393.4688,1010.2656 394.0938,1010.1094 Q394.7188,1009.9531 395.5469,1009.5781 L395.5469,1011.7969 Q394.8125,1012.1094 394.0156,1012.2656 Q393.2344,1012.4219 392.4688,1012.4219 Z " fill="#000000"/><text fill="#000000" font-family="sans-serif" font-size="14" lengthAdjust="spacing" textLength="35" x="407" y="1010.932">List`1</text><rect fill="#FFFFFF" height="18.3441" style="stroke:#181818;stroke-width:1.0;stroke-dasharray:2.0,2.0;" width="8" x="450" y="986.5"/><text fill="#000000" font-family="sans-serif" font-size="12" font-style="italic" lengthAdjust="spacing" textLength="6" x="451" y="1000.3281">T</text><line style="stroke:#181818;stroke-width:0.5;" x1="379" x2="454" y1="1021.5" y2="1021.5"/><line style="stroke:#181818;stroke-width:0.5;" x1="379" x2="454" y1="1029.5" y2="1029.5"/></g><!--class Random--><g id="elem_Random"><rect fill="#F1F1F1" height="48" id="Random" rx="2.5" ry="2.5" style="stroke:#181818;stroke-width:0.5;" width="88" x="643.5" y="796"/><ellipse cx="658.5" cy="812" fill="#ADD1B2" rx="11" ry="11" style="stroke:#181818;stroke-width:1.0;"/><path d="M657.9688,818.9219 Q656.2188,818.9219 655.0781,818.1875 Q653.9531,817.4375 653.3906,816.0938 Q652.8438,814.7344 652.8438,812.9375 Q652.8438,810.9063 653.5,809.4531 Q654.1563,808 655.4375,807.2188 Q656.7188,806.4375 658.5938,806.4375 Q659.4844,806.4375 660.1563,806.625 Q660.8281,806.7969 661.5156,807.1406 L660.7031,809.1563 Q660.0781,808.8438 659.5313,808.7188 Q659,808.5938 658.5156,808.5938 Q657.3438,808.5938 656.6406,809.125 Q655.9375,809.6563 655.6406,810.6094 Q655.3438,811.5625 655.3438,812.8281 Q655.3438,814.8438 656.0625,815.8125 Q656.7813,816.7656 658.375,816.7656 Q658.9688,816.7656 659.5938,816.6094 Q660.2188,816.4531 661.0469,816.0781 L661.0469,818.2969 Q660.3125,818.6094 659.5156,818.7656 Q658.7344,818.9219 657.9688,818.9219 Z " fill="#000000"/><text fill="#000000" font-family="sans-serif" font-size="14" lengthAdjust="spacing" textLength="56" x="672.5" y="817.432">Random</text><line style="stroke:#181818;stroke-width:0.5;" x1="644.5" x2="730.5" y1="828" y2="828"/><line style="stroke:#181818;stroke-width:0.5;" x1="644.5" x2="730.5" y1="836" y2="836"/></g><!--class LetterUse--><g id="elem_LetterUse"><rect codeLine="1" fill="#F1F1F1" height="124.2717" id="LetterUse" rx="2.5" ry="2.5" style="stroke:#181818;stroke-width:0.5;" width="99" x="3697" y="23.5"/><ellipse cx="3713.35" cy="39.5" fill="#EB937F" rx="11" ry="11" style="stroke:#181818;stroke-width:1.0;"/><path d="M3709.7094,46 L3709.7094,33.8594 L3717.3656,33.8594 L3717.3656,35.9844 L3712.0844,35.9844 L3712.0844,38.6406 L3717.1,38.6406 L3717.1,40.7656 L3712.0844,40.7656 L3712.0844,43.875 L3717.3656,43.875 L3717.3656,46 L3709.7094,46 Z " fill="#000000"/><text fill="#000000" font-family="sans-serif" font-size="14" lengthAdjust="spacing" textLength="64" x="3727.65" y="44.932">LetterUse</text><line style="stroke:#181818;stroke-width:0.5;" x1="3698" x2="3795" y1="55.5" y2="55.5"/><text fill="#000000" font-family="sans-serif" font-size="14" lengthAdjust="spacing" textLength="87" x="3703" y="74.4659">Unknown= 0,</text><text fill="#000000" font-family="sans-serif" font-size="14" lengthAdjust="spacing" textLength="69" x="3703" y="93.5339">Wrong= 1,</text><text fill="#000000" font-family="sans-serif" font-size="14" lengthAdjust="spacing" textLength="79" x="3703" y="112.6018">Possible= 2,</text><text fill="#000000" font-family="sans-serif" font-size="14" lengthAdjust="spacing" textLength="74" x="3703" y="131.6697">Currect= 3,</text><line style="stroke:#181818;stroke-width:0.5;" x1="3698" x2="3795" y1="139.7717" y2="139.7717"/></g><!--class AnswerLetter--><g id="elem_AnswerLetter"><rect codeLine="1" fill="#F1F1F1" height="115.892" id="AnswerLetter" rx="2.5" ry="2.5" style="stroke:#181818;stroke-width:0.5;" width="364" x="3378.5" y="320.5"/><ellipse cx="3511.75" cy="351.3781" fill="#ADD1B2" rx="11" ry="11" style="stroke:#181818;stroke-width:1.0;"/><path d="M3511.2188,358.2999 Q3509.4688,358.2999 3508.3281,357.5656 Q3507.2031,356.8156 3506.6406,355.4718 Q3506.0938,354.1124 3506.0938,352.3156 Q3506.0938,350.2843 3506.75,348.8312 Q3507.4063,347.3781 3508.6875,346.5968 Q3509.9688,345.8156 3511.8438,345.8156 Q3512.7344,345.8156 3513.4063,346.0031 Q3514.0781,346.1749 3514.7656,346.5187 L3513.9531,348.5343 Q3513.3281,348.2218 3512.7813,348.0968 Q3512.25,347.9718 3511.7656,347.9718 Q3510.5938,347.9718 3509.8906,348.5031 Q3509.1875,349.0343 3508.8906,349.9874 Q3508.5938,350.9406 3508.5938,352.2062 Q3508.5938,354.2218 3509.3125,355.1906 Q3510.0313,356.1437 3511.625,356.1437 Q3512.2188,356.1437 3512.8438,355.9874 Q3513.4688,355.8312 3514.2969,355.4562 L3514.2969,357.6749 Q3513.5625,357.9874 3512.7656,358.1437 Q3511.9844,358.2999 3511.2188,358.2999 Z " fill="#000000"/><text fill="#000000" font-family="sans-serif" font-size="12" font-style="italic" lengthAdjust="spacing" textLength="47" x="3553.25" y="338.3281">«record»</text><text fill="#000000" font-family="sans-serif" font-size="12" font-style="italic" lengthAdjust="spacing" textLength="42" x="3555.75" y="354.6722">«struct»</text><text fill="#000000" font-family="sans-serif" font-size="14" lengthAdjust="spacing" textLength="89" x="3532.25" y="373.1542">AnswerLetter</text><line style="stroke:#181818;stroke-width:0.5;" x1="3379.5" x2="3741.5" y1="382.2561" y2="382.2561"/><ellipse cx="3389.5" cy="397.2901" fill="none" rx="3" ry="3" style="stroke:#038048;stroke-width:1.0;"/><text fill="#000000" font-family="sans-serif" font-size="14" lengthAdjust="spacing" textLength="159" x="3398.5" y="401.2221">Value : char «get» «init»</text><line style="stroke:#181818;stroke-width:0.5;" x1="3379.5" x2="3741.5" y1="409.3241" y2="409.3241"/><ellipse cx="3389.5" cy="424.358" fill="#84BE84" rx="3" ry="3" style="stroke:#038048;stroke-width:1.0;"/><text fill="#000000" font-family="sans-serif" font-size="14" lengthAdjust="spacing" textLength="338" x="3398.5" y="428.29">UseColor(state:GameState, position:int) : LetterUse</text></g><!--class AnswerField--><g id="elem_AnswerField"><rect codeLine="1" fill="#F1F1F1" height="309.295" id="AnswerField" rx="2.5" ry="2.5" style="stroke:#181818;stroke-width:0.5;" width="358" x="1018.5" y="224"/><ellipse cx="1152.25" cy="246.706" fill="#ADD1B2" rx="11" ry="11" style="stroke:#181818;stroke-width:1.0;"/><path d="M1151.7188,253.6279 Q1149.9688,253.6279 1148.8281,252.8935 Q1147.7031,252.1435 1147.1406,250.7998 Q1146.5938,249.4404 1146.5938,247.6435 Q1146.5938,245.6123 1147.25,244.1591 Q1147.9063,242.706 1149.1875,241.9248 Q1150.4688,241.1435 1152.3438,241.1435 Q1153.2344,241.1435 1153.9063,241.331 Q1154.5781,241.5029 1155.2656,241.8466 L1154.4531,243.8623 Q1153.8281,243.5498 1153.2813,243.4248 Q1152.75,243.2998 1152.2656,243.2998 Q1151.0938,243.2998 1150.3906,243.831 Q1149.6875,244.3623 1149.3906,245.3154 Q1149.0938,246.2685 1149.0938,247.5341 Q1149.0938,249.5498 1149.8125,250.5185 Q1150.5313,251.4716 1152.125,251.4716 Q1152.7188,251.4716 1153.3438,251.3154 Q1153.9688,251.1591 1154.7969,250.7841 L1154.7969,253.0029 Q1154.0625,253.3154 1153.2656,253.4716 Q1152.4844,253.6279 1151.7188,253.6279 Z " fill="#000000"/><text fill="#000000" font-family="sans-serif" font-size="12" font-style="italic" lengthAdjust="spacing" textLength="48" x="1189.75" y="241.8281">«partial»</text><text fill="#000000" font-family="sans-serif" font-size="14" lengthAdjust="spacing" textLength="82" x="1172.75" y="260.31">AnswerField</text><line style="stroke:#181818;stroke-width:0.5;" x1="1019.5" x2="1375.5" y1="269.412" y2="269.412"/><rect fill="none" height="6" style="stroke:#C82930;stroke-width:1.0;" width="6" x="1026.5" y="281.446"/><text fill="#000000" font-family="sans-serif" font-size="14" lengthAdjust="spacing" textLength="135" x="1038.5" y="288.378">_maxLength : int = 5</text><ellipse cx="1029.5" cy="303.5139" fill="none" rx="3" ry="3" style="stroke:#038048;stroke-width:1.0;"/><text fill="#000000" font-family="sans-serif" font-size="14" lengthAdjust="spacing" textLength="183" x="1038.5" y="307.4459">MaxLength : int «get» «set»</text><ellipse cx="1029.5" cy="322.5818" fill="none" rx="3" ry="3" style="stroke:#038048;stroke-width:1.0;"/><text fill="#000000" font-family="sans-serif" font-size="14" lengthAdjust="spacing" textLength="202" x="1038.5" y="326.5138">CellWidth : double «get» «set»</text><ellipse cx="1029.5" cy="341.6497" fill="none" rx="3" ry="3" style="stroke:#038048;stroke-width:1.0;"/><text fill="#000000" font-family="sans-serif" font-size="14" lengthAdjust="spacing" textLength="207" x="1038.5" y="345.5817">CellHeight : double «get» «set»</text><ellipse cx="1029.5" cy="360.7177" fill="none" rx="3" ry="3" style="stroke:#038048;stroke-width:1.0;"/><text fill="#000000" font-family="sans-serif" font-size="14" lengthAdjust="spacing" textLength="216" x="1038.5" y="364.6496">CellSpacing : double «get» «set»</text><ellipse cx="1029.5" cy="379.7856" fill="none" rx="3" ry="3" style="stroke:#038048;stroke-width:1.0;"/><text fill="#000000" font-family="sans-serif" font-size="14" lengthAdjust="spacing" textLength="249" x="1038.5" y="383.7176">BorderThickness : double «get» «set»</text><rect fill="none" height="6" style="stroke:#C82930;stroke-width:1.0;" width="6" x="1026.5" y="395.8535"/><text fill="#000000" font-family="sans-serif" font-size="14" lengthAdjust="spacing" textLength="186" x="1038.5" y="402.7855">_currentAnswer : string = ""</text><ellipse cx="1029.5" cy="417.9214" fill="none" rx="3" ry="3" style="stroke:#038048;stroke-width:1.0;"/><text fill="#000000" font-family="sans-serif" font-size="14" lengthAdjust="spacing" textLength="232" x="1038.5" y="421.8534">CurrentAnswer : string «get» «set»</text><ellipse cx="1029.5" cy="436.9893" fill="none" rx="3" ry="3" style="stroke:#038048;stroke-width:1.0;"/><text fill="#000000" font-family="sans-serif" font-size="14" lengthAdjust="spacing" textLength="192" x="1038.5" y="440.9213">ContentWidth : double «get»</text><ellipse cx="1029.5" cy="456.0572" fill="none" rx="3" ry="3" style="stroke:#038048;stroke-width:1.0;"/><text fill="#000000" font-family="sans-serif" font-size="14" lengthAdjust="spacing" textLength="197" x="1038.5" y="459.9892">ContentHeight : double «get»</text><line style="stroke:#181818;stroke-width:0.5;" x1="1019.5" x2="1375.5" y1="468.0912" y2="468.0912"/><ellipse cx="1029.5" cy="483.1252" fill="#84BE84" rx="3" ry="3" style="stroke:#038048;stroke-width:1.0;"/><text fill="#000000" font-family="sans-serif" font-size="14" lengthAdjust="spacing" textLength="90" x="1038.5" y="487.0571">AnswerField()</text><rect fill="#F24D5C" height="6" style="stroke:#C82930;stroke-width:1.0;" width="6" x="1026.5" y="499.1931"/><text fill="#000000" font-family="sans-serif" font-size="14" lengthAdjust="spacing" textLength="184" x="1038.5" y="506.1251">InitializeComponent() : void</text><ellipse cx="1029.5" cy="521.261" fill="#84BE84" rx="3" ry="3" style="stroke:#038048;stroke-width:1.0;"/><text fill="#000000" font-family="sans-serif" font-size="14" lengthAdjust="spacing" textLength="332" x="1038.5" y="525.193">«override» Render(context:DrawingContext) : void</text></g><!--class DirectProperty`2--><g id="elem_DirectProperty`2"><rect codeLine="16" fill="#F1F1F1" height="48" id="DirectProperty`2" rx="2.5" ry="2.5" style="stroke:#181818;stroke-width:0.5;" width="174" x="1598.5" y="354.5"/><ellipse cx="1613.5" cy="370.5" fill="#ADD1B2" rx="11" ry="11" style="stroke:#181818;stroke-width:1.0;"/><path d="M1612.9688,377.4219 Q1611.2188,377.4219 1610.0781,376.6875 Q1608.9531,375.9375 1608.3906,374.5938 Q1607.8438,373.2344 1607.8438,371.4375 Q1607.8438,369.4063 1608.5,367.9531 Q1609.1563,366.5 1610.4375,365.7188 Q1611.7188,364.9375 1613.5938,364.9375 Q1614.4844,364.9375 1615.1563,365.125 Q1615.8281,365.2969 1616.5156,365.6406 L1615.7031,367.6563 Q1615.0781,367.3438 1614.5313,367.2188 Q1614,367.0938 1613.5156,367.0938 Q1612.3438,367.0938 1611.6406,367.625 Q1610.9375,368.1563 1610.6406,369.1094 Q1610.3438,370.0625 1610.3438,371.3281 Q1610.3438,373.3438 1611.0625,374.3125 Q1611.7813,375.2656 1613.375,375.2656 Q1613.9688,375.2656 1614.5938,375.1094 Q1615.2188,374.9531 1616.0469,374.5781 L1616.0469,376.7969 Q1615.3125,377.1094 1614.5156,377.2656 Q1613.7344,377.4219 1612.9688,377.4219 Z " fill="#000000"/><text fill="#000000" font-family="sans-serif" font-size="14" lengthAdjust="spacing" textLength="109" x="1627.5" y="375.932">DirectProperty`2</text><rect fill="#FFFFFF" height="18.3441" style="stroke:#181818;stroke-width:1.0;stroke-dasharray:2.0,2.0;" width="31" x="1744.5" y="351.5"/><text fill="#000000" font-family="sans-serif" font-size="12" font-style="italic" lengthAdjust="spacing" textLength="29" x="1745.5" y="365.3281">T1,T2</text><line style="stroke:#181818;stroke-width:0.5;" x1="1599.5" x2="1771.5" y1="386.5" y2="386.5"/><line style="stroke:#181818;stroke-width:0.5;" x1="1599.5" x2="1771.5" y1="394.5" y2="394.5"/></g><!--class StyledProperty`1--><g id="elem_StyledProperty`1"><rect codeLine="18" fill="#F1F1F1" height="48" id="StyledProperty`1" rx="2.5" ry="2.5" style="stroke:#181818;stroke-width:0.5;" width="152" x="1411.5" y="354.5"/><ellipse cx="1426.5" cy="370.5" fill="#ADD1B2" rx="11" ry="11" style="stroke:#181818;stroke-width:1.0;"/><path d="M1425.9688,377.4219 Q1424.2188,377.4219 1423.0781,376.6875 Q1421.9531,375.9375 1421.3906,374.5938 Q1420.8438,373.2344 1420.8438,371.4375 Q1420.8438,369.4063 1421.5,367.9531 Q1422.1563,366.5 1423.4375,365.7188 Q1424.7188,364.9375 1426.5938,364.9375 Q1427.4844,364.9375 1428.1563,365.125 Q1428.8281,365.2969 1429.5156,365.6406 L1428.7031,367.6563 Q1428.0781,367.3438 1427.5313,367.2188 Q1427,367.0938 1426.5156,367.0938 Q1425.3438,367.0938 1424.6406,367.625 Q1423.9375,368.1563 1423.6406,369.1094 Q1423.3438,370.0625 1423.3438,371.3281 Q1423.3438,373.3438 1424.0625,374.3125 Q1424.7813,375.2656 1426.375,375.2656 Q1426.9688,375.2656 1427.5938,375.1094 Q1428.2188,374.9531 1429.0469,374.5781 L1429.0469,376.7969 Q1428.3125,377.1094 1427.5156,377.2656 Q1426.7344,377.4219 1425.9688,377.4219 Z " fill="#000000"/><text fill="#000000" font-family="sans-serif" font-size="14" lengthAdjust="spacing" textLength="110" x="1440.5" y="375.932">StyledProperty`1</text><rect fill="#FFFFFF" height="18.3441" style="stroke:#181818;stroke-width:1.0;stroke-dasharray:2.0,2.0;" width="8" x="1558.5" y="351.5"/><text fill="#000000" font-family="sans-serif" font-size="12" font-style="italic" lengthAdjust="spacing" textLength="6" x="1559.5" y="365.3281">T</text><line style="stroke:#181818;stroke-width:0.5;" x1="1412.5" x2="1562.5" y1="386.5" y2="386.5"/><line style="stroke:#181818;stroke-width:0.5;" x1="1412.5" x2="1562.5" y1="394.5" y2="394.5"/></g><!--class UserControl--><g id="elem_UserControl"><rect fill="#F1F1F1" height="48" id="UserControl" rx="2.5" ry="2.5" style="stroke:#181818;stroke-width:0.5;" width="112" x="2423.5" y="61.5"/><ellipse cx="2438.5" cy="77.5" fill="#ADD1B2" rx="11" ry="11" style="stroke:#181818;stroke-width:1.0;"/><path d="M2437.9688,84.4219 Q2436.2188,84.4219 2435.0781,83.6875 Q2433.9531,82.9375 2433.3906,81.5938 Q2432.8438,80.2344 2432.8438,78.4375 Q2432.8438,76.4063 2433.5,74.9531 Q2434.1563,73.5 2435.4375,72.7188 Q2436.7188,71.9375 2438.5938,71.9375 Q2439.4844,71.9375 2440.1563,72.125 Q2440.8281,72.2969 2441.5156,72.6406 L2440.7031,74.6563 Q2440.0781,74.3438 2439.5313,74.2188 Q2439,74.0938 2438.5156,74.0938 Q2437.3438,74.0938 2436.6406,74.625 Q2435.9375,75.1563 2435.6406,76.1094 Q2435.3438,77.0625 2435.3438,78.3281 Q2435.3438,80.3438 2436.0625,81.3125 Q2436.7813,82.2656 2438.375,82.2656 Q2438.9688,82.2656 2439.5938,82.1094 Q2440.2188,81.9531 2441.0469,81.5781 L2441.0469,83.7969 Q2440.3125,84.1094 2439.5156,84.2656 Q2438.7344,84.4219 2437.9688,84.4219 Z " fill="#000000"/><text fill="#000000" font-family="sans-serif" font-size="14" lengthAdjust="spacing" textLength="80" x="2452.5" y="82.932">UserControl</text><line style="stroke:#181818;stroke-width:0.5;" x1="2424.5" x2="2534.5" y1="93.5" y2="93.5"/><line style="stroke:#181818;stroke-width:0.5;" x1="2424.5" x2="2534.5" y1="101.5" y2="101.5"/></g><!--class AnswerViewModel--><g id="elem_AnswerViewModel"><rect codeLine="1" fill="#F1F1F1" height="124.2717" id="AnswerViewModel" rx="2.5" ry="2.5" style="stroke:#181818;stroke-width:0.5;" width="209" x="663" y="593"/><ellipse cx="702.3" cy="609" fill="#ADD1B2" rx="11" ry="11" style="stroke:#181818;stroke-width:1.0;"/><path d="M701.7688,615.9219 Q700.0188,615.9219 698.8781,615.1875 Q697.7531,614.4375 697.1906,613.0938 Q696.6438,611.7344 696.6438,609.9375 Q696.6438,607.9063 697.3,606.4531 Q697.9563,605 699.2375,604.2188 Q700.5188,603.4375 702.3938,603.4375 Q703.2844,603.4375 703.9563,603.625 Q704.6281,603.7969 705.3156,604.1406 L704.5031,606.1563 Q703.8781,605.8438 703.3313,605.7188 Q702.8,605.5938 702.3156,605.5938 Q701.1438,605.5938 700.4406,606.125 Q699.7375,606.6563 699.4406,607.6094 Q699.1438,608.5625 699.1438,609.8281 Q699.1438,611.8438 699.8625,612.8125 Q700.5813,613.7656 702.175,613.7656 Q702.7688,613.7656 703.3938,613.6094 Q704.0188,613.4531 704.8469,613.0781 L704.8469,615.2969 Q704.1125,615.6094 703.3156,615.7656 Q702.5344,615.9219 701.7688,615.9219 Z " fill="#000000"/><text fill="#000000" font-family="sans-serif" font-size="14" lengthAdjust="spacing" textLength="123" x="721.7" y="614.432">AnswerViewModel</text><line style="stroke:#181818;stroke-width:0.5;" x1="664" x2="871" y1="625" y2="625"/><rect fill="none" height="6" style="stroke:#C82930;stroke-width:1.0;" width="6" x="671" y="637.034"/><text fill="#000000" font-family="sans-serif" font-size="14" lengthAdjust="spacing" textLength="137" x="683" y="643.9659">_content : string = ""</text><rect fill="none" height="6" style="stroke:#C82930;stroke-width:1.0;" width="6" x="671" y="656.1019"/><text fill="#000000" font-family="sans-serif" font-size="14" lengthAdjust="spacing" textLength="138" x="683" y="663.0339">_locked : bool = false</text><ellipse cx="674" cy="678.1698" fill="none" rx="3" ry="3" style="stroke:#038048;stroke-width:1.0;"/><text fill="#000000" font-family="sans-serif" font-size="14" lengthAdjust="spacing" textLength="183" x="683" y="682.1018">Content : string «get» «set»</text><ellipse cx="674" cy="697.2377" fill="none" rx="3" ry="3" style="stroke:#038048;stroke-width:1.0;"/><text fill="#000000" font-family="sans-serif" font-size="14" lengthAdjust="spacing" textLength="165" x="683" y="701.1697">Locked : bool «get» «set»</text><line style="stroke:#181818;stroke-width:0.5;" x1="664" x2="871" y1="709.2717" y2="709.2717"/></g><!--class ViewModelBase--><g id="elem_ViewModelBase"><rect codeLine="1" fill="#F1F1F1" height="48" id="ViewModelBase" rx="2.5" ry="2.5" style="stroke:#181818;stroke-width:0.5;" width="137" x="846" y="354.5"/><ellipse cx="861" cy="370.5" fill="#ADD1B2" rx="11" ry="11" style="stroke:#181818;stroke-width:1.0;"/><path d="M860.4688,377.4219 Q858.7188,377.4219 857.5781,376.6875 Q856.4531,375.9375 855.8906,374.5938 Q855.3438,373.2344 855.3438,371.4375 Q855.3438,369.4063 856,367.9531 Q856.6563,366.5 857.9375,365.7188 Q859.2188,364.9375 861.0938,364.9375 Q861.9844,364.9375 862.6563,365.125 Q863.3281,365.2969 864.0156,365.6406 L863.2031,367.6563 Q862.5781,367.3438 862.0313,367.2188 Q861.5,367.0938 861.0156,367.0938 Q859.8438,367.0938 859.1406,367.625 Q858.4375,368.1563 858.1406,369.1094 Q857.8438,370.0625 857.8438,371.3281 Q857.8438,373.3438 858.5625,374.3125 Q859.2813,375.2656 860.875,375.2656 Q861.4688,375.2656 862.0938,375.1094 Q862.7188,374.9531 863.5469,374.5781 L863.5469,376.7969 Q862.8125,377.1094 862.0156,377.2656 Q861.2344,377.4219 860.4688,377.4219 Z " fill="#000000"/><text fill="#000000" font-family="sans-serif" font-size="14" lengthAdjust="spacing" textLength="105" x="875" y="375.932">ViewModelBase</text><line style="stroke:#181818;stroke-width:0.5;" x1="847" x2="982" y1="386.5" y2="386.5"/><line style="stroke:#181818;stroke-width:0.5;" x1="847" x2="982" y1="394.5" y2="394.5"/></g><!--class MainWindowViewModel--><g id="elem_MainWindowViewModel"><rect codeLine="1" fill="#F1F1F1" height="105.2038" id="MainWindowViewModel" rx="2.5" ry="2.5" style="stroke:#181818;stroke-width:0.5;" width="308" x="907.5" y="602.5"/><ellipse cx="976.75" cy="618.5" fill="#ADD1B2" rx="11" ry="11" style="stroke:#181818;stroke-width:1.0;"/><path d="M976.2188,625.4219 Q974.4688,625.4219 973.3281,624.6875 Q972.2031,623.9375 971.6406,622.5938 Q971.0938,621.2344 971.0938,619.4375 Q971.0938,617.4063 971.75,615.9531 Q972.4063,614.5 973.6875,613.7188 Q974.9688,612.9375 976.8438,612.9375 Q977.7344,612.9375 978.4063,613.125 Q979.0781,613.2969 979.7656,613.6406 L978.9531,615.6563 Q978.3281,615.3438 977.7813,615.2188 Q977.25,615.0938 976.7656,615.0938 Q975.5938,615.0938 974.8906,615.625 Q974.1875,616.1563 973.8906,617.1094 Q973.5938,618.0625 973.5938,619.3281 Q973.5938,621.3438 974.3125,622.3125 Q975.0313,623.2656 976.625,623.2656 Q977.2188,623.2656 977.8438,623.1094 Q978.4688,622.9531 979.2969,622.5781 L979.2969,624.7969 Q978.5625,625.1094 977.7656,625.2656 Q976.9844,625.4219 976.2188,625.4219 Z " fill="#000000"/><text fill="#000000" font-family="sans-serif" font-size="14" lengthAdjust="spacing" textLength="161" x="997.25" y="623.932">MainWindowViewModel</text><line style="stroke:#181818;stroke-width:0.5;" x1="908.5" x2="1214.5" y1="634.5" y2="634.5"/><line style="stroke:#181818;stroke-width:0.5;" x1="908.5" x2="1214.5" y1="642.5" y2="642.5"/><ellipse cx="918.5" cy="657.534" fill="#84BE84" rx="3" ry="3" style="stroke:#038048;stroke-width:1.0;"/><text fill="#000000" font-family="sans-serif" font-size="14" lengthAdjust="spacing" textLength="282" x="927.5" y="661.4659">MainWindowViewModel(settings:Settings)</text><ellipse cx="918.5" cy="676.6019" fill="#84BE84" rx="3" ry="3" style="stroke:#038048;stroke-width:1.0;"/><text fill="#000000" font-family="sans-serif" font-size="14" lengthAdjust="spacing" textLength="140" x="927.5" y="680.5339">OpenSettings() : void</text><ellipse cx="918.5" cy="695.6698" fill="#84BE84" rx="3" ry="3" style="stroke:#038048;stroke-width:1.0;"/><text fill="#000000" font-family="sans-serif" font-size="14" lengthAdjust="spacing" textLength="139" x="927.5" y="699.6018">CloseSettings() : void</text></g><!--class SettingsViewModel--><g id="elem_SettingsViewModel"><rect codeLine="1" fill="#F1F1F1" height="86.1358" id="SettingsViewModel" rx="2.5" ry="2.5" style="stroke:#181818;stroke-width:0.5;" width="275" x="7" y="777"/><ellipse cx="76.25" cy="793" fill="#ADD1B2" rx="11" ry="11" style="stroke:#181818;stroke-width:1.0;"/><path d="M75.7188,799.9219 Q73.9688,799.9219 72.8281,799.1875 Q71.7031,798.4375 71.1406,797.0938 Q70.5938,795.7344 70.5938,793.9375 Q70.5938,791.9063 71.25,790.4531 Q71.9063,789 73.1875,788.2188 Q74.4688,787.4375 76.3438,787.4375 Q77.2344,787.4375 77.9063,787.625 Q78.5781,787.7969 79.2656,788.1406 L78.4531,790.1563 Q77.8281,789.8438 77.2813,789.7188 Q76.75,789.5938 76.2656,789.5938 Q75.0938,789.5938 74.3906,790.125 Q73.6875,790.6563 73.3906,791.6094 Q73.0938,792.5625 73.0938,793.8281 Q73.0938,795.8438 73.8125,796.8125 Q74.5313,797.7656 76.125,797.7656 Q76.7188,797.7656 77.3438,797.6094 Q77.9688,797.4531 78.7969,797.0781 L78.7969,799.2969 Q78.0625,799.6094 77.2656,799.7656 Q76.4844,799.9219 75.7188,799.9219 Z " fill="#000000"/><text fill="#000000" font-family="sans-serif" font-size="14" lengthAdjust="spacing" textLength="128" x="96.75" y="798.432">SettingsViewModel</text><line style="stroke:#181818;stroke-width:0.5;" x1="8" x2="281" y1="809" y2="809"/><line style="stroke:#181818;stroke-width:0.5;" x1="8" x2="281" y1="817" y2="817"/><ellipse cx="18" cy="832.034" fill="#84BE84" rx="3" ry="3" style="stroke:#038048;stroke-width:1.0;"/><text fill="#000000" font-family="sans-serif" font-size="14" lengthAdjust="spacing" textLength="136" x="27" y="835.9659">SettingsViewModel()</text><ellipse cx="18" cy="851.1019" fill="#84BE84" rx="3" ry="3" style="stroke:#038048;stroke-width:1.0;"/><text fill="#000000" font-family="sans-serif" font-size="14" lengthAdjust="spacing" textLength="249" x="27" y="855.0339">SettingsViewModel(settings:Settings)</text></g><!--class GameViewModel--><g id="elem_GameViewModel"><rect codeLine="1" fill="#F1F1F1" height="124.2717" id="GameViewModel" rx="2.5" ry="2.5" style="stroke:#181818;stroke-width:0.5;" width="259" x="369" y="593"/><ellipse cx="438.25" cy="609" fill="#ADD1B2" rx="11" ry="11" style="stroke:#181818;stroke-width:1.0;"/><path d="M437.7188,615.9219 Q435.9688,615.9219 434.8281,615.1875 Q433.7031,614.4375 433.1406,613.0938 Q432.5938,611.7344 432.5938,609.9375 Q432.5938,607.9063 433.25,606.4531 Q433.9063,605 435.1875,604.2188 Q436.4688,603.4375 438.3438,603.4375 Q439.2344,603.4375 439.9063,603.625 Q440.5781,603.7969 441.2656,604.1406 L440.4531,606.1563 Q439.8281,605.8438 439.2813,605.7188 Q438.75,605.5938 438.2656,605.5938 Q437.0938,605.5938 436.3906,606.125 Q435.6875,606.6563 435.3906,607.6094 Q435.0938,608.5625 435.0938,609.8281 Q435.0938,611.8438 435.8125,612.8125 Q436.5313,613.7656 438.125,613.7656 Q438.7188,613.7656 439.3438,613.6094 Q439.9688,613.4531 440.7969,613.0781 L440.7969,615.2969 Q440.0625,615.6094 439.2656,615.7656 Q438.4844,615.9219 437.7188,615.9219 Z " fill="#000000"/><text fill="#000000" font-family="sans-serif" font-size="14" lengthAdjust="spacing" textLength="112" x="458.75" y="614.432">GameViewModel</text><line style="stroke:#181818;stroke-width:0.5;" x1="370" x2="627" y1="625" y2="625"/><ellipse cx="380" cy="640.034" fill="none" rx="3" ry="3" style="stroke:#038048;stroke-width:1.0;"/><text fill="#000000" font-family="sans-serif" font-size="14" lengthAdjust="spacing" textLength="143" x="389" y="643.9659">CurrentTry : int «get»</text><line style="stroke:#181818;stroke-width:0.5;" x1="370" x2="627" y1="652.0679" y2="652.0679"/><ellipse cx="380" cy="667.1019" fill="#84BE84" rx="3" ry="3" style="stroke:#038048;stroke-width:1.0;"/><text fill="#000000" font-family="sans-serif" font-size="14" lengthAdjust="spacing" textLength="120" x="389" y="671.0339">GameViewModel()</text><ellipse cx="380" cy="686.1698" fill="#84BE84" rx="3" ry="3" style="stroke:#038048;stroke-width:1.0;"/><text fill="#000000" font-family="sans-serif" font-size="14" lengthAdjust="spacing" textLength="233" x="389" y="690.1018">GameViewModel(settings:Settings)</text><ellipse cx="380" cy="705.2377" fill="#84BE84" rx="3" ry="3" style="stroke:#038048;stroke-width:1.0;"/><text fill="#000000" font-family="sans-serif" font-size="14" lengthAdjust="spacing" textLength="149" x="389" y="709.1697">StartNewGame() : void</text></g><!--class ReactiveObject--><g id="elem_ReactiveObject"><rect fill="#F1F1F1" height="48" id="ReactiveObject" rx="2.5" ry="2.5" style="stroke:#181818;stroke-width:0.5;" width="132" x="848.5" y="61.5"/><ellipse cx="863.5" cy="77.5" fill="#ADD1B2" rx="11" ry="11" style="stroke:#181818;stroke-width:1.0;"/><path d="M862.9688,84.4219 Q861.2188,84.4219 860.0781,83.6875 Q858.9531,82.9375 858.3906,81.5938 Q857.8438,80.2344 857.8438,78.4375 Q857.8438,76.4063 858.5,74.9531 Q859.1563,73.5 860.4375,72.7188 Q861.7188,71.9375 863.5938,71.9375 Q864.4844,71.9375 865.1563,72.125 Q865.8281,72.2969 866.5156,72.6406 L865.7031,74.6563 Q865.0781,74.3438 864.5313,74.2188 Q864,74.0938 863.5156,74.0938 Q862.3438,74.0938 861.6406,74.625 Q860.9375,75.1563 860.6406,76.1094 Q860.3438,77.0625 860.3438,78.3281 Q860.3438,80.3438 861.0625,81.3125 Q861.7813,82.2656 863.375,82.2656 Q863.9688,82.2656 864.5938,82.1094 Q865.2188,81.9531 866.0469,81.5781 L866.0469,83.7969 Q865.3125,84.1094 864.5156,84.2656 Q863.7344,84.4219 862.9688,84.4219 Z " fill="#000000"/><text fill="#000000" font-family="sans-serif" font-size="14" lengthAdjust="spacing" textLength="100" x="877.5" y="82.932">ReactiveObject</text><line style="stroke:#181818;stroke-width:0.5;" x1="849.5" x2="979.5" y1="93.5" y2="93.5"/><line style="stroke:#181818;stroke-width:0.5;" x1="849.5" x2="979.5" y1="101.5" y2="101.5"/></g><!--class SettingsView--><g id="elem_SettingsView"><rect codeLine="1" fill="#F1F1F1" height="156.7516" id="SettingsView" rx="2.5" ry="2.5" style="stroke:#181818;stroke-width:0.5;" width="682" x="1807.5" y="300"/><ellipse cx="2101.25" cy="322.706" fill="#ADD1B2" rx="11" ry="11" style="stroke:#181818;stroke-width:1.0;"/><path d="M2100.7188,329.6279 Q2098.9688,329.6279 2097.8281,328.8935 Q2096.7031,328.1435 2096.1406,326.7998 Q2095.5938,325.4404 2095.5938,323.6435 Q2095.5938,321.6123 2096.25,320.1591 Q2096.9063,318.706 2098.1875,317.9248 Q2099.4688,317.1435 2101.3438,317.1435 Q2102.2344,317.1435 2102.9063,317.331 Q2103.5781,317.5029 2104.2656,317.8466 L2103.4531,319.8623 Q2102.8281,319.5498 2102.2813,319.4248 Q2101.75,319.2998 2101.2656,319.2998 Q2100.0938,319.2998 2099.3906,319.831 Q2098.6875,320.3623 2098.3906,321.3154 Q2098.0938,322.2685 2098.0938,323.5341 Q2098.0938,325.5498 2098.8125,326.5185 Q2099.5313,327.4716 2101.125,327.4716 Q2101.7188,327.4716 2102.3438,327.3154 Q2102.9688,327.1591 2103.7969,326.7841 L2103.7969,329.0029 Q2103.0625,329.3154 2102.2656,329.4716 Q2101.4844,329.6279 2100.7188,329.6279 Z " fill="#000000"/><text fill="#000000" font-family="sans-serif" font-size="12" font-style="italic" lengthAdjust="spacing" textLength="48" x="2140.75" y="317.8281">«partial»</text><text fill="#000000" font-family="sans-serif" font-size="14" lengthAdjust="spacing" textLength="86" x="2121.75" y="336.31">SettingsView</text><line style="stroke:#181818;stroke-width:0.5;" x1="1808.5" x2="2488.5" y1="345.412" y2="345.412"/><line style="stroke:#181818;stroke-width:0.5;" x1="1808.5" x2="2488.5" y1="353.412" y2="353.412"/><ellipse cx="1818.5" cy="368.446" fill="#84BE84" rx="3" ry="3" style="stroke:#038048;stroke-width:1.0;"/><text fill="#000000" font-family="sans-serif" font-size="14" lengthAdjust="spacing" textLength="94" x="1827.5" y="372.378">SettingsView()</text><rect fill="#F24D5C" height="6" style="stroke:#C82930;stroke-width:1.0;" width="6" x="1815.5" y="384.5139"/><text fill="#000000" font-family="sans-serif" font-size="14" lengthAdjust="spacing" textLength="184" x="1827.5" y="391.4459">InitializeComponent() : void</text><rect fill="#F24D5C" height="6" style="stroke:#C82930;stroke-width:1.0;" width="6" x="1815.5" y="403.5818"/><text fill="#000000" font-family="sans-serif" font-size="14" lengthAdjust="spacing" textLength="514" x="1827.5" y="410.5138">Close_OnPointerReleased(sender:object?, e:PointerReleasedEventArgs) : void</text><rect fill="#F24D5C" height="6" style="stroke:#C82930;stroke-width:1.0;" width="6" x="1815.5" y="422.6497"/><text fill="#000000" font-family="sans-serif" font-size="14" lengthAdjust="spacing" textLength="654" x="1827.5" y="429.5817">WordLength_OnValueChanged(sender:object?, e:NumericUpDownValueChangedEventArgs) : void</text><rect fill="#F24D5C" height="6" style="stroke:#C82930;stroke-width:1.0;" width="6" x="1815.5" y="441.7177"/><text fill="#000000" font-family="sans-serif" font-size="14" lengthAdjust="spacing" textLength="656" x="1827.5" y="448.6496">MaxAnswers_OnValueChanged(sender:object?, e:NumericUpDownValueChangedEventArgs) : void</text></g><!--class GameView--><g id="elem_GameView"><rect codeLine="1" fill="#F1F1F1" height="137.6837" id="GameView" rx="2.5" ry="2.5" style="stroke:#181818;stroke-width:0.5;" width="573" x="2525" y="309.5"/><ellipse cx="2772.25" cy="332.206" fill="#ADD1B2" rx="11" ry="11" style="stroke:#181818;stroke-width:1.0;"/><path d="M2771.7188,339.1279 Q2769.9688,339.1279 2768.8281,338.3935 Q2767.7031,337.6435 2767.1406,336.2998 Q2766.5938,334.9404 2766.5938,333.1435 Q2766.5938,331.1123 2767.25,329.6591 Q2767.9063,328.206 2769.1875,327.4248 Q2770.4688,326.6435 2772.3438,326.6435 Q2773.2344,326.6435 2773.9063,326.831 Q2774.5781,327.0029 2775.2656,327.3466 L2774.4531,329.3623 Q2773.8281,329.0498 2773.2813,328.9248 Q2772.75,328.7998 2772.2656,328.7998 Q2771.0938,328.7998 2770.3906,329.331 Q2769.6875,329.8623 2769.3906,330.8154 Q2769.0938,331.7685 2769.0938,333.0341 Q2769.0938,335.0498 2769.8125,336.0185 Q2770.5313,336.9716 2772.125,336.9716 Q2772.7188,336.9716 2773.3438,336.8154 Q2773.9688,336.6591 2774.7969,336.2841 L2774.7969,338.5029 Q2774.0625,338.8154 2773.2656,338.9716 Q2772.4844,339.1279 2771.7188,339.1279 Z " fill="#000000"/><text fill="#000000" font-family="sans-serif" font-size="12" font-style="italic" lengthAdjust="spacing" textLength="48" x="2803.75" y="327.3281">«partial»</text><text fill="#000000" font-family="sans-serif" font-size="14" lengthAdjust="spacing" textLength="70" x="2792.75" y="345.81">GameView</text><line style="stroke:#181818;stroke-width:0.5;" x1="2526" x2="3097" y1="354.912" y2="354.912"/><line style="stroke:#181818;stroke-width:0.5;" x1="2526" x2="3097" y1="362.912" y2="362.912"/><ellipse cx="2536" cy="377.946" fill="#84BE84" rx="3" ry="3" style="stroke:#038048;stroke-width:1.0;"/><text fill="#000000" font-family="sans-serif" font-size="14" lengthAdjust="spacing" textLength="78" x="2545" y="381.878">GameView()</text><polygon fill="#FFFF44" points="2536,392.0139,2540,396.0139,2536,400.0139,2532,396.0139" style="stroke:#B38D22;stroke-width:1.0;"/><text fill="#000000" font-family="sans-serif" font-size="14" lengthAdjust="spacing" textLength="289" x="2545" y="400.9459">«override» OnKeyUp(e:KeyEventArgs) : void</text><rect fill="#F24D5C" height="6" style="stroke:#C82930;stroke-width:1.0;" width="6" x="2533" y="413.0818"/><text fill="#000000" font-family="sans-serif" font-size="14" lengthAdjust="spacing" textLength="547" x="2545" y="420.0138">NewGame_OnPointerReleased(sender:object?, e:PointerReleasedEventArgs) : void</text><rect fill="#F24D5C" height="6" style="stroke:#C82930;stroke-width:1.0;" width="6" x="2533" y="432.1497"/><text fill="#000000" font-family="sans-serif" font-size="14" lengthAdjust="spacing" textLength="533" x="2545" y="439.0817">Settings_OnPointerReleased(sender:object?, e:PointerReleasedEventArgs) : void</text></g><!--class IEnumerable`1--><g id="elem_IEnumerable`1"><rect codeLine="7" fill="#F1F1F1" height="48" id="IEnumerable`1" rx="2.5" ry="2.5" style="stroke:#181818;stroke-width:0.5;" width="141" x="2741" y="631"/><ellipse cx="2756" cy="647" fill="#ADD1B2" rx="11" ry="11" style="stroke:#181818;stroke-width:1.0;"/><path d="M2755.4688,653.9219 Q2753.7188,653.9219 2752.5781,653.1875 Q2751.4531,652.4375 2750.8906,651.0938 Q2750.3438,649.7344 2750.3438,647.9375 Q2750.3438,645.9063 2751,644.4531 Q2751.6563,643 2752.9375,642.2188 Q2754.2188,641.4375 2756.0938,641.4375 Q2756.9844,641.4375 2757.6563,641.625 Q2758.3281,641.7969 2759.0156,642.1406 L2758.2031,644.1563 Q2757.5781,643.8438 2757.0313,643.7188 Q2756.5,643.5938 2756.0156,643.5938 Q2754.8438,643.5938 2754.1406,644.125 Q2753.4375,644.6563 2753.1406,645.6094 Q2752.8438,646.5625 2752.8438,647.8281 Q2752.8438,649.8438 2753.5625,650.8125 Q2754.2813,651.7656 2755.875,651.7656 Q2756.4688,651.7656 2757.0938,651.6094 Q2757.7188,651.4531 2758.5469,651.0781 L2758.5469,653.2969 Q2757.8125,653.6094 2757.0156,653.7656 Q2756.2344,653.9219 2755.4688,653.9219 Z " fill="#000000"/><text fill="#000000" font-family="sans-serif" font-size="14" lengthAdjust="spacing" textLength="99" x="2770" y="652.432">IEnumerable`1</text><rect fill="#FFFFFF" height="18.3441" style="stroke:#181818;stroke-width:1.0;stroke-dasharray:2.0,2.0;" width="8" x="2877" y="628"/><text fill="#000000" font-family="sans-serif" font-size="12" font-style="italic" lengthAdjust="spacing" textLength="6" x="2878" y="641.8281">T</text><line style="stroke:#181818;stroke-width:0.5;" x1="2742" x2="2881" y1="663" y2="663"/><line style="stroke:#181818;stroke-width:0.5;" x1="2742" x2="2881" y1="671" y2="671"/></g><!--class MainWindow--><g id="elem_MainWindow"><rect codeLine="1" fill="#F1F1F1" height="80.4799" id="MainWindow" rx="2.5" ry="2.5" style="stroke:#181818;stroke-width:0.5;" width="122" x="3813.5" y="338.5"/><ellipse cx="3829.4" cy="361.206" fill="#ADD1B2" rx="11" ry="11" style="stroke:#181818;stroke-width:1.0;"/><path d="M3828.8688,368.1279 Q3827.1188,368.1279 3825.9781,367.3935 Q3824.8531,366.6435 3824.2906,365.2998 Q3823.7438,363.9404 3823.7438,362.1435 Q3823.7438,360.1123 3824.4,358.6591 Q3825.0563,357.206 3826.3375,356.4248 Q3827.6188,355.6435 3829.4938,355.6435 Q3830.3844,355.6435 3831.0563,355.831 Q3831.7281,356.0029 3832.4156,356.3466 L3831.6031,358.3623 Q3830.9781,358.0498 3830.4313,357.9248 Q3829.9,357.7998 3829.4156,357.7998 Q3828.2438,357.7998 3827.5406,358.331 Q3826.8375,358.8623 3826.5406,359.8154 Q3826.2438,360.7685 3826.2438,362.0341 Q3826.2438,364.0498 3826.9625,365.0185 Q3827.6813,365.9716 3829.275,365.9716 Q3829.8688,365.9716 3830.4938,365.8154 Q3831.1188,365.6591 3831.9469,365.2841 L3831.9469,367.5029 Q3831.2125,367.8154 3830.4156,367.9716 Q3829.6344,368.1279 3828.8688,368.1279 Z " fill="#000000"/><text fill="#000000" font-family="sans-serif" font-size="12" font-style="italic" lengthAdjust="spacing" textLength="48" x="3863.6" y="356.3281">«partial»</text><text fill="#000000" font-family="sans-serif" font-size="14" lengthAdjust="spacing" textLength="88" x="3843.6" y="374.81">MainWindow</text><line style="stroke:#181818;stroke-width:0.5;" x1="3814.5" x2="3934.5" y1="383.912" y2="383.912"/><line style="stroke:#181818;stroke-width:0.5;" x1="3814.5" x2="3934.5" y1="391.912" y2="391.912"/><ellipse cx="3824.5" cy="406.946" fill="#84BE84" rx="3" ry="3" style="stroke:#038048;stroke-width:1.0;"/><text fill="#000000" font-family="sans-serif" font-size="14" lengthAdjust="spacing" textLength="96" x="3833.5" y="410.878">MainWindow()</text></g><!--class Window--><g id="elem_Window"><rect fill="#F1F1F1" height="48" id="Window" rx="2.5" ry="2.5" style="stroke:#181818;stroke-width:0.5;" width="86" x="3831.5" y="61.5"/><ellipse cx="3846.5" cy="77.5" fill="#ADD1B2" rx="11" ry="11" style="stroke:#181818;stroke-width:1.0;"/><path d="M3845.9688,84.4219 Q3844.2188,84.4219 3843.0781,83.6875 Q3841.9531,82.9375 3841.3906,81.5938 Q3840.8438,80.2344 3840.8438,78.4375 Q3840.8438,76.4063 3841.5,74.9531 Q3842.1563,73.5 3843.4375,72.7188 Q3844.7188,71.9375 3846.5938,71.9375 Q3847.4844,71.9375 3848.1563,72.125 Q3848.8281,72.2969 3849.5156,72.6406 L3848.7031,74.6563 Q3848.0781,74.3438 3847.5313,74.2188 Q3847,74.0938 3846.5156,74.0938 Q3845.3438,74.0938 3844.6406,74.625 Q3843.9375,75.1563 3843.6406,76.1094 Q3843.3438,77.0625 3843.3438,78.3281 Q3843.3438,80.3438 3844.0625,81.3125 Q3844.7813,82.2656 3846.375,82.2656 Q3846.9688,82.2656 3847.5938,82.1094 Q3848.2188,81.9531 3849.0469,81.5781 L3849.0469,83.7969 Q3848.3125,84.1094 3847.5156,84.2656 Q3846.7344,84.4219 3845.9688,84.4219 Z " fill="#000000"/><text fill="#000000" font-family="sans-serif" font-size="14" lengthAdjust="spacing" textLength="54" x="3860.5" y="82.932">Window</text><line style="stroke:#181818;stroke-width:0.5;" x1="3832.5" x2="3916.5" y1="93.5" y2="93.5"/><line style="stroke:#181818;stroke-width:0.5;" x1="3832.5" x2="3916.5" y1="101.5" y2="101.5"/></g><!--class AnswerView--><g id="elem_AnswerView"><rect codeLine="1" fill="#F1F1F1" height="99.5479" id="AnswerView" rx="2.5" ry="2.5" style="stroke:#181818;stroke-width:0.5;" width="210" x="3133.5" y="328.5"/><ellipse cx="3193.75" cy="351.206" fill="#ADD1B2" rx="11" ry="11" style="stroke:#181818;stroke-width:1.0;"/><path d="M3193.2188,358.1279 Q3191.4688,358.1279 3190.3281,357.3935 Q3189.2031,356.6435 3188.6406,355.2998 Q3188.0938,353.9404 3188.0938,352.1435 Q3188.0938,350.1123 3188.75,348.6591 Q3189.4063,347.206 3190.6875,346.4248 Q3191.9688,345.6435 3193.8438,345.6435 Q3194.7344,345.6435 3195.4063,345.831 Q3196.0781,346.0029 3196.7656,346.3466 L3195.9531,348.3623 Q3195.3281,348.0498 3194.7813,347.9248 Q3194.25,347.7998 3193.7656,347.7998 Q3192.5938,347.7998 3191.8906,348.331 Q3191.1875,348.8623 3190.8906,349.8154 Q3190.5938,350.7685 3190.5938,352.0341 Q3190.5938,354.0498 3191.3125,355.0185 Q3192.0313,355.9716 3193.625,355.9716 Q3194.2188,355.9716 3194.8438,355.8154 Q3195.4688,355.6591 3196.2969,355.2841 L3196.2969,357.5029 Q3195.5625,357.8154 3194.7656,357.9716 Q3193.9844,358.1279 3193.2188,358.1279 Z " fill="#000000"/><text fill="#000000" font-family="sans-serif" font-size="12" font-style="italic" lengthAdjust="spacing" textLength="48" x="3230.75" y="346.3281">«partial»</text><text fill="#000000" font-family="sans-serif" font-size="14" lengthAdjust="spacing" textLength="81" x="3214.25" y="364.81">AnswerView</text><line style="stroke:#181818;stroke-width:0.5;" x1="3134.5" x2="3342.5" y1="373.912" y2="373.912"/><line style="stroke:#181818;stroke-width:0.5;" x1="3134.5" x2="3342.5" y1="381.912" y2="381.912"/><ellipse cx="3144.5" cy="396.946" fill="#84BE84" rx="3" ry="3" style="stroke:#038048;stroke-width:1.0;"/><text fill="#000000" font-family="sans-serif" font-size="14" lengthAdjust="spacing" textLength="89" x="3153.5" y="400.878">AnswerView()</text><rect fill="#F24D5C" height="6" style="stroke:#C82930;stroke-width:1.0;" width="6" x="3141.5" y="413.0139"/><text fill="#000000" font-family="sans-serif" font-size="14" lengthAdjust="spacing" textLength="184" x="3153.5" y="419.9459">InitializeComponent() : void</text></g><!--link GameState to Answer--><g id="link_GameState_Answer"><path codeLine="6" d="M547.67,853.92 C574.84,872.11 610.1,895.73 645.08,919.15 " fill="none" id="GameState-to-Answer" style="stroke:#181818;stroke-width:1.0;"/><polygon fill="#181818" points="648.98,921.76,643.7301,913.427,644.8263,918.9766,639.2767,920.0728,648.98,921.76" style="stroke:#181818;stroke-width:1.0;"/><text fill="#000000" font-family="sans-serif" font-size="13" lengthAdjust="spacing" textLength="88" x="547.4778" y="911.275">CorrectAnswer</text></g><!--link GameState to List`1--><g id="link_GameState_List`1"><path codeLine="7" d="M484.4,853.92 C468.82,890.31 443.95,948.39 429.03,983.24 " fill="none" id="GameState-to-List`1" style="stroke:#181818;stroke-width:1.0;"/><polygon fill="#181818" points="427.14,987.66,434.3694,980.9715,429.1148,983.0665,427.0198,977.8119,427.14,987.66" style="stroke:#181818;stroke-width:1.0;"/><text fill="#000000" font-family="sans-serif" font-size="13" lengthAdjust="spacing" textLength="108" x="307.2753" y="977.594">Answers&lt;Answer&gt;</text></g><!--link GameState to Settings--><g id="link_GameState_Settings"><path codeLine="8" d="M437.65,853.92 C388.91,880.29 319.13,918.03 259.88,950.08 " fill="none" id="GameState-to-Settings" style="stroke:#181818;stroke-width:1.0;"/><polygon fill="#181818" points="255.52,952.44,265.3374,951.6531,259.9122,950.0508,261.5146,944.6256,255.52,952.44" style="stroke:#181818;stroke-width:1.0;"/><text fill="#000000" font-family="sans-serif" font-size="13" lengthAdjust="spacing" textLength="49" x="261.9373" y="946.0948">Settings</text></g><!--link GameState to Random--><g id="link_GameState_Random"><path codeLine="9" d="M622.39,820 C622.39,820 627.11,820 628.98,820 " fill="none" id="GameState-Random" style="stroke:#181818;stroke-width:1.0;"/><polygon fill="none" points="610.39,820,616.39,824,622.39,820,616.39,816,610.39,820" style="stroke:#181818;stroke-width:1.0;"/><polygon fill="#181818" points="641.76,820,632.76,816,636.76,820,632.76,824,641.76,820" style="stroke:#181818;stroke-width:1.0;"/><line style="stroke:#181818;stroke-width:1.0;" x1="636.76" x2="628.76" y1="820" y2="820"/><text fill="#000000" font-family="sans-serif" font-size="13" lengthAdjust="spacing" textLength="54" x="581.8577" y="807.0996">_random</text></g><!--reverse link UserControl to AnswerField--><g id="link_UserControl_AnswerField"><path codeLine="20" d="M2401.92,90.96 C2185.14,104.25 1576.87,147.52 1393.5,224 C1387.92,226.33 1382.36,228.86 1376.83,231.57 " fill="none" id="UserControl-backto-AnswerField" style="stroke:#181818;stroke-width:1.0;"/><polygon fill="none" points="2401.24,83.98,2421.63,89.77,2402.08,97.96,2401.24,83.98" style="stroke:#181818;stroke-width:1.0;"/></g><!--link AnswerField to DirectProperty`2--><g id="link_AnswerField_DirectProperty`2"><path codeLine="21" d="M1375.3073,217.1239 C1375.3073,217.1239 1395.24,207.62 1405.17,204 C1439.34,191.55 1536.76,186.86 1568.83,204 C1622.72,232.79 1656.06,298.71 1672.66,340.78 " fill="none" id="AnswerField-DirectProperty`2" style="stroke:#181818;stroke-width:1.0;"/><polygon fill="none" points="1364.74,222.81,1371.919,223.4894,1375.3073,217.1239,1368.1283,216.4445,1364.74,222.81" style="stroke:#181818;stroke-width:1.0;"/><polygon fill="#181818" points="1677.21,352.89,1677.7901,343.0582,1675.452,348.2093,1670.301,345.8711,1677.21,352.89" style="stroke:#181818;stroke-width:1.0;"/><line style="stroke:#181818;stroke-width:1.0;" x1="1675.452" x2="1672.63" y1="348.2093" y2="340.72"/><text fill="#000000" font-family="sans-serif" font-size="13" lengthAdjust="spacing" textLength="227" x="1418.1514" y="342.5038">MaxLengthProperty&lt;AnswerField,int&gt;</text></g><!--link AnswerField to DirectProperty`2--><g id="link_AnswerField_DirectProperty`2"><path codeLine="26" d="M1356.0758,215.9332 C1356.0758,215.9332 1395.95,191.93 1416.83,184 C1475.15,161.87 1502.25,154.44 1557.17,184 C1618.83,217.19 1655.78,294.42 1673.24,340.96 " fill="none" id="AnswerField-DirectProperty`2-1" style="stroke:#181818;stroke-width:1.0;"/><polygon fill="none" points="1346.2,222.75,1353.4102,222.6335,1356.0758,215.9332,1348.8656,216.0497,1346.2,222.75" style="stroke:#181818;stroke-width:1.0;"/><polygon fill="#181818" points="1677.53,352.91,1678.2569,343.088,1675.8421,348.2035,1670.7265,345.7887,1677.53,352.91" style="stroke:#181818;stroke-width:1.0;"/><line style="stroke:#181818;stroke-width:1.0;" x1="1675.8421" x2="1673.14" y1="348.2035" y2="340.675"/><text fill="#000000" font-family="sans-serif" font-size="13" lengthAdjust="spacing" textLength="267" x="1533.8498" y="318.526">CurrentAnswerProperty&lt;AnswerField,string&gt;</text></g><!--link AnswerField to StyledProperty`1--><g id="link_AnswerField_StyledProperty`1"><path codeLine="22" d="M1389.0955,482.3611 C1389.0955,482.3611 1438.56,446.81 1462.99,414.36 " fill="none" id="AnswerField-StyledProperty`1" style="stroke:#181818;stroke-width:1.0;"/><polygon fill="none" points="1378.15,487.28,1385.2624,488.4691,1389.0955,482.3611,1381.9831,481.172,1378.15,487.28" style="stroke:#181818;stroke-width:1.0;"/><polygon fill="#181818" points="1470.39,404.2,1461.8583,409.1204,1467.4465,408.2418,1468.3252,413.83,1470.39,404.2" style="stroke:#181818;stroke-width:1.0;"/><line style="stroke:#181818;stroke-width:1.0;" x1="1467.4465" x2="1462.74" y1="408.2418" y2="414.71"/><text fill="#000000" font-family="sans-serif" font-size="13" lengthAdjust="spacing" textLength="166" x="1440.9354" y="424.573">CellWidthProperty&lt;double&gt;</text></g><!--link AnswerField to StyledProperty`1--><g id="link_AnswerField_StyledProperty`1"><path codeLine="23" d="M1390.123,412.9322 C1390.123,412.9322 1408.04,409.37 1416.56,407.05 " fill="none" id="AnswerField-StyledProperty`1-1" style="stroke:#181818;stroke-width:1.0;"/><polygon fill="none" points="1378.26,414.74,1384.7941,417.7904,1390.123,412.9322,1383.5889,409.8817,1378.26,414.74" style="stroke:#181818;stroke-width:1.0;"/><polygon fill="#181818" points="1428.95,403.36,1419.1836,402.0881,1424.157,404.7836,1421.4614,409.757,1428.95,403.36" style="stroke:#181818;stroke-width:1.0;"/><line style="stroke:#181818;stroke-width:1.0;" x1="1424.157" x2="1416.495" y1="404.7836" y2="407.07"/><text fill="#000000" font-family="sans-serif" font-size="13" lengthAdjust="spacing" textLength="171" x="1384.3316" y="424.5237">CellHeightProperty&lt;double&gt;</text></g><!--link AnswerField to StyledProperty`1--><g id="link_AnswerField_StyledProperty`1"><path codeLine="24" d="M1390.123,344.0678 C1390.123,344.0678 1408.04,347.63 1416.56,349.95 " fill="none" id="AnswerField-StyledProperty`1-2" style="stroke:#181818;stroke-width:1.0;"/><polygon fill="none" points="1378.26,342.26,1383.5889,347.1183,1390.123,344.0678,1384.7941,339.2096,1378.26,342.26" style="stroke:#181818;stroke-width:1.0;"/><polygon fill="#181818" points="1428.95,353.64,1421.4614,347.243,1424.157,352.2164,1419.1836,354.9119,1428.95,353.64" style="stroke:#181818;stroke-width:1.0;"/><line style="stroke:#181818;stroke-width:1.0;" x1="1424.157" x2="1416.495" y1="352.2164" y2="349.93"/><text fill="#000000" font-family="sans-serif" font-size="13" lengthAdjust="spacing" textLength="177" x="1386.97" y="320.6969">CellSpacingProperty&lt;double&gt;</text></g><!--link AnswerField to StyledProperty`1--><g id="link_AnswerField_StyledProperty`1"><path codeLine="25" d="M1389.0955,274.6389 C1389.0955,274.6389 1438.56,310.19 1462.99,342.64 " fill="none" id="AnswerField-StyledProperty`1-3" style="stroke:#181818;stroke-width:1.0;"/><polygon fill="none" points="1378.15,269.72,1381.9831,275.828,1389.0955,274.6389,1385.2624,268.5309,1378.15,269.72" style="stroke:#181818;stroke-width:1.0;"/><polygon fill="#181818" points="1470.39,352.8,1468.3252,343.17,1467.4465,348.7582,1461.8583,347.8796,1470.39,352.8" style="stroke:#181818;stroke-width:1.0;"/><line style="stroke:#181818;stroke-width:1.0;" x1="1467.4465" x2="1462.74" y1="348.7582" y2="342.29"/><text fill="#000000" font-family="sans-serif" font-size="13" lengthAdjust="spacing" textLength="208" x="1378.9697" y="342.5738">BorderThicknessProperty&lt;double&gt;</text></g><!--reverse link ViewModelBase to AnswerViewModel--><g id="link_ViewModelBase_AnswerViewModel"><path codeLine="7" d="M891.86,421.77 C867.41,467.43 828.22,540.62 800.37,592.62 " fill="none" id="ViewModelBase-backto-AnswerViewModel" style="stroke:#181818;stroke-width:1.0;"/><polygon fill="none" points="885.64,418.56,901.25,404.24,897.98,425.17,885.64,418.56" style="stroke:#181818;stroke-width:1.0;"/></g><!--link AnswerViewModel to Answer--><g id="link_AnswerViewModel_Answer"><path codeLine="8" d="M793.88,717.4 C800.69,736.17 807.07,757.12 810.5,777 C818.36,822.59 814.3,873.58 807.27,916.42 " fill="none" id="AnswerViewModel-to-Answer" style="stroke:#181818;stroke-width:1.0;"/><polygon fill="#181818" points="806.46,921.19,811.9199,912.9931,807.3028,916.2615,804.0343,911.6445,806.46,921.19" style="stroke:#181818;stroke-width:1.0;"/><text fill="#000000" font-family="sans-serif" font-size="13" lengthAdjust="spacing" textLength="44" x="762.1851" y="911.0516">Answer</text></g><!--reverse link ViewModelBase to MainWindowViewModel--><g id="link_ViewModelBase_MainWindowViewModel"><path codeLine="6" d="M918.1,423.25 C936.03,471.91 977.68,550.45 1012.66,602.16 " fill="none" id="ViewModelBase-backto-MainWindowViewModel" style="stroke:#181818;stroke-width:1.0;"/><polygon fill="none" points="911.48,425.53,912.02,404.34,924.8,421.24,911.48,425.53" style="stroke:#181818;stroke-width:1.0;"/></g><!--link MainWindowViewModel to ViewModelBase--><g id="link_MainWindowViewModel_ViewModelBase"><path codeLine="7" d="M1033.74,602.16 C1003.05,544.85 954.7,454.57 930.06,408.56 " fill="none" id="MainWindowViewModel-to-ViewModelBase" style="stroke:#181818;stroke-width:1.0;"/><polygon fill="#181818" points="927.75,404.24,928.4741,414.0622,930.1111,408.6474,935.5259,410.2844,927.75,404.24" style="stroke:#181818;stroke-width:1.0;"/><text fill="#000000" font-family="sans-serif" font-size="13" lengthAdjust="spacing" textLength="53" x="870.7994" y="424.4868">_content</text></g><!--link MainWindowViewModel to ViewModelBase--><g id="link_MainWindowViewModel_ViewModelBase"><path codeLine="8" d="M1054.81,602.16 C1032.11,544.62 982.07,453.84 946.55,408 " fill="none" id="MainWindowViewModel-to-ViewModelBase-1" style="stroke:#181818;stroke-width:1.0;"/><polygon fill="#181818" points="943.45,404.09,945.9019,413.6288,946.5542,408.0096,952.1734,408.662,943.45,404.09" style="stroke:#181818;stroke-width:1.0;"/><text fill="#000000" font-family="sans-serif" font-size="13" lengthAdjust="spacing" textLength="49" x="954.6529" y="424.4868">Content</text></g><!--reverse link ViewModelBase to SettingsViewModel--><g id="link_ViewModelBase_SettingsViewModel"><path codeLine="5" d="M824.87,399.68 C708.41,428.86 502.18,490.83 351.5,593 C276.64,643.76 209.92,726.77 173.54,776.81 " fill="none" id="ViewModelBase-backto-SettingsViewModel" style="stroke:#181818;stroke-width:1.0;"/><polygon fill="none" points="822.98,392.94,844.07,394.97,826.31,406.54,822.98,392.94" style="stroke:#181818;stroke-width:1.0;"/></g><!--link SettingsViewModel to Settings--><g id="link_SettingsViewModel_Settings"><path codeLine="6" d="M133.73,863.03 C132.33,879.91 131.67,900.1 131.76,920.09 " fill="none" id="SettingsViewModel-to-Settings" style="stroke:#181818;stroke-width:1.0;"/><polygon fill="#181818" points="131.8,925.06,135.7227,916.026,131.7571,920.0602,127.723,916.0946,131.8,925.06" style="stroke:#181818;stroke-width:1.0;"/><text fill="#000000" font-family="sans-serif" font-size="13" lengthAdjust="spacing" textLength="54" x="74.3991" y="915.2922">_settings</text></g><!--link SettingsViewModel to Settings--><g id="link_SettingsViewModel_Settings"><path codeLine="7" d="M155.9,863.03 C157.38,879.91 158.08,900.1 157.99,920.09 " fill="none" id="SettingsViewModel-to-Settings-1" style="stroke:#181818;stroke-width:1.0;"/><polygon fill="#181818" points="157.95,925.06,162.027,916.0946,157.9929,920.0602,154.0273,916.026,157.95,925.06" style="stroke:#181818;stroke-width:1.0;"/><text fill="#000000" font-family="sans-serif" font-size="13" lengthAdjust="spacing" textLength="49" x="161.2005" y="915.2922">Settings</text></g><!--reverse link ViewModelBase to GameViewModel--><g id="link_ViewModelBase_GameViewModel"><path codeLine="9" d="M861.28,414.62 C793.32,459.46 674.59,537.81 591.53,592.62 " fill="none" id="ViewModelBase-backto-GameViewModel" style="stroke:#181818;stroke-width:1.0;"/><polygon fill="none" points="857.22,408.91,877.77,403.74,864.93,420.6,857.22,408.91" style="stroke:#181818;stroke-width:1.0;"/></g><!--link GameViewModel to GameState--><g id="link_GameViewModel_GameState"><path codeLine="10" d="M486.11,717.16 C485.35,738.26 485.79,761.31 487.45,780.13 " fill="none" id="GameViewModel-to-GameState" style="stroke:#181818;stroke-width:1.0;"/><polygon fill="#181818" points="487.91,784.84,491.0159,775.4937,487.4238,779.8637,483.0538,776.2716,487.91,784.84" style="stroke:#181818;stroke-width:1.0;"/><text fill="#000000" font-family="sans-serif" font-size="13" lengthAdjust="spacing" textLength="36" x="446.1822" y="774.6073">_state</text></g><!--link GameViewModel to GameState--><g id="link_GameViewModel_GameState"><path codeLine="11" d="M511.62,717.16 C512.42,738.26 511.95,761.31 510.2,780.13 " fill="none" id="GameViewModel-to-GameState-1" style="stroke:#181818;stroke-width:1.0;"/><polygon fill="#181818" points="509.72,784.84,514.6249,776.2994,510.2345,779.8665,506.6673,775.4762,509.72,784.84" style="stroke:#181818;stroke-width:1.0;"/><text fill="#000000" font-family="sans-serif" font-size="13" lengthAdjust="spacing" textLength="31" x="515.038" y="774.6073">State</text></g><!--link GameViewModel to List`1--><g id="link_GameViewModel_List`1"><path codeLine="12" d="M413.58,717.4 C396.11,734.54 380.12,754.67 370.5,777 C340.23,847.26 377.06,937.91 400.3,983.54 " fill="none" id="GameViewModel-to-List`1" style="stroke:#181818;stroke-width:1.0;"/><polygon fill="#181818" points="402.5,987.79,401.9146,977.9586,400.2013,983.3497,394.8102,981.6364,402.5,987.79" style="stroke:#181818;stroke-width:1.0;"/><text fill="#000000" font-family="sans-serif" font-size="13" lengthAdjust="spacing" textLength="108" x="413.6294" y="977.7071">Answers&lt;Answer&gt;</text></g><!--link GameViewModel to Answer--><g id="link_GameViewModel_Answer"><path codeLine="13" d="M628.28,712.47 C684.67,738.16 739.93,765.39 748.5,777 C777.71,816.57 787.55,870.19 789.71,916.27 " fill="none" id="GameViewModel-to-Answer" style="stroke:#181818;stroke-width:1.0;"/><polygon fill="#181818" points="789.91,921.2,793.5471,912.0473,789.7102,916.204,785.5535,912.3671,789.91,921.2" style="stroke:#181818;stroke-width:1.0;"/><text fill="#000000" font-family="sans-serif" font-size="13" lengthAdjust="spacing" textLength="90" x="794.3073" y="911.095">CurrentAnswer</text></g><!--reverse link ReactiveObject to ViewModelBase--><g id="link_ReactiveObject_ViewModelBase"><path codeLine="3" d="M914.5,131.21 C914.5,193.9 914.5,305.66 914.5,354.07 " fill="none" id="ReactiveObject-backto-ViewModelBase" style="stroke:#181818;stroke-width:1.0;"/><polygon fill="none" points="907.5,131.34,914.5,111.34,921.5,131.34,907.5,131.34" style="stroke:#181818;stroke-width:1.0;"/></g><!--reverse link UserControl to SettingsView--><g id="link_UserControl_SettingsView"><path codeLine="8" d="M2437.05,123.82 C2386.83,167.97 2301.88,242.65 2237.12,299.59 " fill="none" id="UserControl-backto-SettingsView" style="stroke:#181818;stroke-width:1.0;"/><polygon fill="none" points="2432.19,118.77,2451.84,110.82,2441.44,129.28,2432.19,118.77" style="stroke:#181818;stroke-width:1.0;"/></g><!--reverse link UserControl to GameView--><g id="link_UserControl_GameView"><path codeLine="9" d="M2522.28,124 C2575.57,170.71 2667.63,251.39 2733.57,309.2 " fill="none" id="UserControl-backto-GameView" style="stroke:#181818;stroke-width:1.0;"/><polygon fill="none" points="2517.67,129.27,2507.25,110.82,2526.9,118.74,2517.67,129.27" style="stroke:#181818;stroke-width:1.0;"/></g><!--link GameView to IEnumerable`1--><g id="link_GameView_IEnumerable`1"><path codeLine="10" d="M2811.5,447.71 C2811.5,504.38 2811.5,582.28 2811.5,624.28 " fill="none" id="GameView-to-IEnumerable`1" style="stroke:#181818;stroke-width:1.0;"/><polygon fill="#181818" points="2811.5,629.19,2815.5,620.19,2811.5,624.19,2807.5,620.19,2811.5,629.19" style="stroke:#181818;stroke-width:1.0;"/><text fill="#000000" font-family="sans-serif" font-size="13" lengthAdjust="spacing" textLength="212" x="2572.3375" y="619.2825">AnswerModels&lt;AnswerViewModel&gt;</text></g><!--reverse link Window to MainWindow--><g id="link_Window_MainWindow"><path codeLine="4" d="M3874.5,131.02 C3874.5,187.56 3874.5,284.23 3874.5,338.17 " fill="none" id="Window-backto-MainWindow" style="stroke:#181818;stroke-width:1.0;"/><polygon fill="none" points="3867.5,131.34,3874.5,111.34,3881.5,131.34,3867.5,131.34" style="stroke:#181818;stroke-width:1.0;"/></g><!--reverse link UserControl to AnswerView--><g id="link_UserControl_AnswerView"><path codeLine="5" d="M2556.88,86.95 C2683.12,91.05 2937.2,113.68 3115.5,224 C3156.59,249.43 3189.84,293.64 3211.35,328.11 " fill="none" id="UserControl-backto-AnswerView" style="stroke:#181818;stroke-width:1.0;"/><polygon fill="none" points="2556.89,93.95,2537.07,86.43,2557.25,79.95,2556.89,93.95" style="stroke:#181818;stroke-width:1.0;"/></g><!--SRC=[KypCIyufJKbLqDFtpKz9pT67ylKAIdDpk1GHiixvkGNvUQbv9SKubOHbffQ33S6l15KM0000]--></g></svg>