<?xml version="1.0" encoding="UTF-8" standalone="no"?><svg xmlns="http://www.w3.org/2000/svg" xmlns:xlink="http://www.w3.org/1999/xlink" contentStyleType="text/css" height="346px" preserveAspectRatio="none" style="width:1045px;height:346px;background:#FFFFFF;" version="1.1" viewBox="0 0 1045 346" width="1045px" zoomAndPan="magnify"><defs/><g><!--class WordList--><g id="elem_WordList"><rect codeLine="1" fill="#F1F1F1" height="156.7516" id="WordList" rx="2.5" ry="2.5" style="stroke:#181818;stroke-width:0.5;" width="203" x="419.5" y="7"/><ellipse cx="487.25" cy="29.706" fill="#ADD1B2" rx="11" ry="11" style="stroke:#181818;stroke-width:1.0;"/><path d="M486.7188,36.6279 Q484.9688,36.6279 483.8281,35.8935 Q482.7031,35.1435 482.1406,33.7998 Q481.5938,32.4404 481.5938,30.6435 Q481.5938,28.6123 482.25,27.1591 Q482.9063,25.706 484.1875,24.9248 Q485.4688,24.1435 487.3438,24.1435 Q488.2344,24.1435 488.9063,24.331 Q489.5781,24.5029 490.2656,24.8466 L489.4531,26.8623 Q488.8281,26.5498 488.2813,26.4248 Q487.75,26.2998 487.2656,26.2998 Q486.0938,26.2998 485.3906,26.831 Q484.6875,27.3623 484.3906,28.3154 Q484.0938,29.2685 484.0938,30.5341 Q484.0938,32.5498 484.8125,33.5185 Q485.5313,34.4716 487.125,34.4716 Q487.7188,34.4716 488.3438,34.3154 Q488.9688,34.1591 489.7969,33.7841 L489.7969,36.0029 Q489.0625,36.3154 488.2656,36.4716 Q487.4844,36.6279 486.7188,36.6279 Z " fill="#000000"/><text fill="#000000" font-family="sans-serif" font-size="12" font-style="italic" lengthAdjust="spacing" textLength="40" x="517.25" y="24.8281">«static»</text><text fill="#000000" font-family="sans-serif" font-size="14" lengthAdjust="spacing" textLength="59" x="507.75" y="43.31">WordList</text><line style="stroke:#181818;stroke-width:0.5;" x1="420.5" x2="621.5" y1="52.412" y2="52.412"/><rect fill="none" height="6" style="stroke:#C82930;stroke-width:1.0;" width="6" x="427.5" y="64.446"/><text fill="#000000" font-family="sans-serif" font-size="14" lengthAdjust="spacing" text-decoration="underline" textLength="157" x="439.5" y="71.378">_words : string[]? = null</text><line style="stroke:#181818;stroke-width:0.5;" x1="420.5" x2="621.5" y1="79.4799" y2="79.4799"/><ellipse cx="430.5" cy="94.5139" fill="#84BE84" rx="3" ry="3" style="stroke:#038048;stroke-width:1.0;"/><text fill="#000000" font-family="sans-serif" font-size="14" lengthAdjust="spacing" text-decoration="underline" textLength="93" x="439.5" y="98.4459">Get() : string[]</text><ellipse cx="430.5" cy="113.5818" fill="#84BE84" rx="3" ry="3" style="stroke:#038048;stroke-width:1.0;"/><text fill="#000000" font-family="sans-serif" font-size="14" lengthAdjust="spacing" text-decoration="underline" textLength="177" x="439.5" y="117.5138">GetSized(size:int) : string[]</text><ellipse cx="430.5" cy="132.6497" fill="#84BE84" rx="3" ry="3" style="stroke:#038048;stroke-width:1.0;"/><text fill="#000000" font-family="sans-serif" font-size="14" lengthAdjust="spacing" text-decoration="underline" textLength="78" x="439.5" y="136.5817">Count() : int</text><ellipse cx="430.5" cy="151.7177" fill="#84BE84" rx="3" ry="3" style="stroke:#038048;stroke-width:1.0;"/><text fill="#000000" font-family="sans-serif" font-size="14" lengthAdjust="spacing" text-decoration="underline" textLength="162" x="439.5" y="155.6496">CountSized(size:int) : int</text></g><!--class Answer--><g id="elem_Answer"><rect codeLine="1" fill="#F1F1F1" height="134.9599" id="Answer" rx="2.5" ry="2.5" style="stroke:#181818;stroke-width:0.5;" width="380" x="658" y="18"/><ellipse cx="818.75" cy="48.8781" fill="#ADD1B2" rx="11" ry="11" style="stroke:#181818;stroke-width:1.0;"/><path d="M818.2188,55.7999 Q816.4688,55.7999 815.3281,55.0656 Q814.2031,54.3156 813.6406,52.9718 Q813.0938,51.6124 813.0938,49.8156 Q813.0938,47.7843 813.75,46.3312 Q814.4063,44.8781 815.6875,44.0968 Q816.9688,43.3156 818.8438,43.3156 Q819.7344,43.3156 820.4063,43.5031 Q821.0781,43.6749 821.7656,44.0187 L820.9531,46.0343 Q820.3281,45.7218 819.7813,45.5968 Q819.25,45.4718 818.7656,45.4718 Q817.5938,45.4718 816.8906,46.0031 Q816.1875,46.5343 815.8906,47.4874 Q815.5938,48.4406 815.5938,49.7062 Q815.5938,51.7218 816.3125,52.6906 Q817.0313,53.6437 818.625,53.6437 Q819.2188,53.6437 819.8438,53.4874 Q820.4688,53.3312 821.2969,52.9562 L821.2969,55.1749 Q820.5625,55.4874 819.7656,55.6437 Q818.9844,55.7999 818.2188,55.7999 Z " fill="#000000"/><text fill="#000000" font-family="sans-serif" font-size="12" font-style="italic" lengthAdjust="spacing" textLength="47" x="840.75" y="35.8281">«record»</text><text fill="#000000" font-family="sans-serif" font-size="12" font-style="italic" lengthAdjust="spacing" textLength="42" x="843.25" y="52.1722">«struct»</text><text fill="#000000" font-family="sans-serif" font-size="14" lengthAdjust="spacing" textLength="50" x="839.25" y="70.6542">Answer</text><line style="stroke:#181818;stroke-width:0.5;" x1="659" x2="1037" y1="79.7561" y2="79.7561"/><ellipse cx="669" cy="94.7901" fill="none" rx="3" ry="3" style="stroke:#038048;stroke-width:1.0;"/><text fill="#000000" font-family="sans-serif" font-size="14" lengthAdjust="spacing" textLength="169" x="678" y="98.7221">Value : string «get» «init»</text><line style="stroke:#181818;stroke-width:0.5;" x1="659" x2="1037" y1="106.8241" y2="106.8241"/><ellipse cx="669" cy="121.858" fill="#84BE84" rx="3" ry="3" style="stroke:#038048;stroke-width:1.0;"/><text fill="#000000" font-family="sans-serif" font-size="14" lengthAdjust="spacing" textLength="213" x="678" y="125.79">Letter(index:int) : AnswerLetter?</text><ellipse cx="669" cy="140.9259" fill="#84BE84" rx="3" ry="3" style="stroke:#038048;stroke-width:1.0;"/><text fill="#000000" font-family="sans-serif" font-size="14" lengthAdjust="spacing" textLength="354" x="678" y="144.8579">GetLetterUse(state:GameState, index:int) : LetterUse?</text></g><!--class GameState--><g id="elem_GameState"><rect codeLine="1" fill="#F1F1F1" height="124.2717" id="GameState" rx="2.5" ry="2.5" style="stroke:#181818;stroke-width:0.5;" width="254" x="7" y="23.5"/><ellipse cx="93.25" cy="39.5" fill="#ADD1B2" rx="11" ry="11" style="stroke:#181818;stroke-width:1.0;"/><path d="M92.7188,46.4219 Q90.9688,46.4219 89.8281,45.6875 Q88.7031,44.9375 88.1406,43.5938 Q87.5938,42.2344 87.5938,40.4375 Q87.5938,38.4063 88.25,36.9531 Q88.9063,35.5 90.1875,34.7188 Q91.4688,33.9375 93.3438,33.9375 Q94.2344,33.9375 94.9063,34.125 Q95.5781,34.2969 96.2656,34.6406 L95.4531,36.6563 Q94.8281,36.3438 94.2813,36.2188 Q93.75,36.0938 93.2656,36.0938 Q92.0938,36.0938 91.3906,36.625 Q90.6875,37.1563 90.3906,38.1094 Q90.0938,39.0625 90.0938,40.3281 Q90.0938,42.3438 90.8125,43.3125 Q91.5313,44.2656 93.125,44.2656 Q93.7188,44.2656 94.3438,44.1094 Q94.9688,43.9531 95.7969,43.5781 L95.7969,45.7969 Q95.0625,46.1094 94.2656,46.2656 Q93.4844,46.4219 92.7188,46.4219 Z " fill="#000000"/><text fill="#000000" font-family="sans-serif" font-size="14" lengthAdjust="spacing" textLength="73" x="113.75" y="44.932">GameState</text><line style="stroke:#181818;stroke-width:0.5;" x1="8" x2="260" y1="55.5" y2="55.5"/><ellipse cx="18" cy="70.534" fill="none" rx="3" ry="3" style="stroke:#038048;stroke-width:1.0;"/><text fill="#000000" font-family="sans-serif" font-size="14" lengthAdjust="spacing" text-decoration="underline" textLength="137" x="27" y="74.4659">WordLength : int = 5</text><ellipse cx="18" cy="89.6019" fill="none" rx="3" ry="3" style="stroke:#038048;stroke-width:1.0;"/><text fill="#000000" font-family="sans-serif" font-size="14" lengthAdjust="spacing" text-decoration="underline" textLength="139" x="27" y="93.5339">MaxAnswers : int = 5</text><ellipse cx="18" cy="108.6698" fill="none" rx="3" ry="3" style="stroke:#038048;stroke-width:1.0;"/><text fill="#000000" font-family="sans-serif" font-size="14" lengthAdjust="spacing" textLength="228" x="27" y="112.6018">«readonly» CorrectAnswer : string</text><line style="stroke:#181818;stroke-width:0.5;" x1="8" x2="260" y1="120.7038" y2="120.7038"/><ellipse cx="18" cy="135.7377" fill="#84BE84" rx="3" ry="3" style="stroke:#038048;stroke-width:1.0;"/><text fill="#000000" font-family="sans-serif" font-size="14" lengthAdjust="spacing" textLength="81" x="27" y="139.6697">GameState()</text></g><!--class Random--><g id="elem_Random"><rect fill="#F1F1F1" height="48" id="Random" rx="2.5" ry="2.5" style="stroke:#181818;stroke-width:0.5;" width="88" x="296" y="61.5"/><ellipse cx="311" cy="77.5" fill="#ADD1B2" rx="11" ry="11" style="stroke:#181818;stroke-width:1.0;"/><path d="M310.4688,84.4219 Q308.7188,84.4219 307.5781,83.6875 Q306.4531,82.9375 305.8906,81.5938 Q305.3438,80.2344 305.3438,78.4375 Q305.3438,76.4063 306,74.9531 Q306.6563,73.5 307.9375,72.7188 Q309.2188,71.9375 311.0938,71.9375 Q311.9844,71.9375 312.6563,72.125 Q313.3281,72.2969 314.0156,72.6406 L313.2031,74.6563 Q312.5781,74.3438 312.0313,74.2188 Q311.5,74.0938 311.0156,74.0938 Q309.8438,74.0938 309.1406,74.625 Q308.4375,75.1563 308.1406,76.1094 Q307.8438,77.0625 307.8438,78.3281 Q307.8438,80.3438 308.5625,81.3125 Q309.2813,82.2656 310.875,82.2656 Q311.4688,82.2656 312.0938,82.1094 Q312.7188,81.9531 313.5469,81.5781 L313.5469,83.7969 Q312.8125,84.1094 312.0156,84.2656 Q311.2344,84.4219 310.4688,84.4219 Z " fill="#000000"/><text fill="#000000" font-family="sans-serif" font-size="14" lengthAdjust="spacing" textLength="56" x="325" y="82.932">Random</text><line style="stroke:#181818;stroke-width:0.5;" x1="297" x2="383" y1="93.5" y2="93.5"/><line style="stroke:#181818;stroke-width:0.5;" x1="297" x2="383" y1="101.5" y2="101.5"/></g><!--class LetterUse--><g id="elem_LetterUse"><rect codeLine="1" fill="#F1F1F1" height="105.2038" id="LetterUse" rx="2.5" ry="2.5" style="stroke:#181818;stroke-width:0.5;" width="96" x="473" y="229.5"/><ellipse cx="488" cy="245.5" fill="#EB937F" rx="11" ry="11" style="stroke:#181818;stroke-width:1.0;"/><path d="M484.3594,252 L484.3594,239.8594 L492.0156,239.8594 L492.0156,241.9844 L486.7344,241.9844 L486.7344,244.6406 L491.75,244.6406 L491.75,246.7656 L486.7344,246.7656 L486.7344,249.875 L492.0156,249.875 L492.0156,252 L484.3594,252 Z " fill="#000000"/><text fill="#000000" font-family="sans-serif" font-size="14" lengthAdjust="spacing" textLength="64" x="502" y="250.932">LetterUse</text><line style="stroke:#181818;stroke-width:0.5;" x1="474" x2="568" y1="261.5" y2="261.5"/><text fill="#000000" font-family="sans-serif" font-size="14" lengthAdjust="spacing" textLength="69" x="479" y="280.4659">Wrong= 0,</text><text fill="#000000" font-family="sans-serif" font-size="14" lengthAdjust="spacing" textLength="79" x="479" y="299.5339">Possible= 1,</text><text fill="#000000" font-family="sans-serif" font-size="14" lengthAdjust="spacing" textLength="74" x="479" y="318.6018">Currect= 2,</text><line style="stroke:#181818;stroke-width:0.5;" x1="474" x2="568" y1="326.7038" y2="326.7038"/></g><!--class AnswerLetter--><g id="elem_AnswerLetter"><rect codeLine="1" fill="#F1F1F1" height="115.892" id="AnswerLetter" rx="2.5" ry="2.5" style="stroke:#181818;stroke-width:0.5;" width="364" x="604" y="224"/><ellipse cx="737.25" cy="254.8781" fill="#ADD1B2" rx="11" ry="11" style="stroke:#181818;stroke-width:1.0;"/><path d="M736.7188,261.7999 Q734.9688,261.7999 733.8281,261.0656 Q732.7031,260.3156 732.1406,258.9718 Q731.5938,257.6124 731.5938,255.8156 Q731.5938,253.7843 732.25,252.3312 Q732.9063,250.8781 734.1875,250.0968 Q735.4688,249.3156 737.3438,249.3156 Q738.2344,249.3156 738.9063,249.5031 Q739.5781,249.6749 740.2656,250.0187 L739.4531,252.0343 Q738.8281,251.7218 738.2813,251.5968 Q737.75,251.4718 737.2656,251.4718 Q736.0938,251.4718 735.3906,252.0031 Q734.6875,252.5343 734.3906,253.4874 Q734.0938,254.4406 734.0938,255.7062 Q734.0938,257.7218 734.8125,258.6906 Q735.5313,259.6437 737.125,259.6437 Q737.7188,259.6437 738.3438,259.4874 Q738.9688,259.3312 739.7969,258.9562 L739.7969,261.1749 Q739.0625,261.4874 738.2656,261.6437 Q737.4844,261.7999 736.7188,261.7999 Z " fill="#000000"/><text fill="#000000" font-family="sans-serif" font-size="12" font-style="italic" lengthAdjust="spacing" textLength="47" x="778.75" y="241.8281">«record»</text><text fill="#000000" font-family="sans-serif" font-size="12" font-style="italic" lengthAdjust="spacing" textLength="42" x="781.25" y="258.1722">«struct»</text><text fill="#000000" font-family="sans-serif" font-size="14" lengthAdjust="spacing" textLength="89" x="757.75" y="276.6542">AnswerLetter</text><line style="stroke:#181818;stroke-width:0.5;" x1="605" x2="967" y1="285.7561" y2="285.7561"/><ellipse cx="615" cy="300.7901" fill="none" rx="3" ry="3" style="stroke:#038048;stroke-width:1.0;"/><text fill="#000000" font-family="sans-serif" font-size="14" lengthAdjust="spacing" textLength="159" x="624" y="304.7221">Value : char «get» «init»</text><line style="stroke:#181818;stroke-width:0.5;" x1="605" x2="967" y1="312.8241" y2="312.8241"/><ellipse cx="615" cy="327.858" fill="#84BE84" rx="3" ry="3" style="stroke:#038048;stroke-width:1.0;"/><text fill="#000000" font-family="sans-serif" font-size="14" lengthAdjust="spacing" textLength="338" x="624" y="331.79">UseColor(state:GameState, position:int) : LetterUse</text></g><!--link GameState to Random--><g id="link_GameState_Random"><path codeLine="7" d="M274.65,85.5 C274.65,85.5 279.43,85.5 281.43,85.5 " fill="none" id="GameState-Random" style="stroke:#181818;stroke-width:1.0;"/><polygon fill="none" points="262.65,85.5,268.65,89.5,274.65,85.5,268.65,81.5,262.65,85.5" style="stroke:#181818;stroke-width:1.0;"/><polygon fill="#181818" points="294.13,85.5,285.13,81.5,289.13,85.5,285.13,89.5,294.13,85.5" style="stroke:#181818;stroke-width:1.0;"/><line style="stroke:#181818;stroke-width:1.0;" x1="289.13" x2="281.13" y1="85.5" y2="85.5"/><text fill="#000000" font-family="sans-serif" font-size="13" lengthAdjust="spacing" textLength="54" x="233.4473" y="72.558">_random</text></g><!--SRC=[KypCIyufJKbLqDCFpozAySaiBj4hACtDuL94I3Zc5PUd5c48koVcfWQN99QaOiZuf9QKf1Q55gVYC0eY3vO40000]--></g></svg>