<?xml version="1.0" encoding="UTF-8" standalone="no"?><svg xmlns="http://www.w3.org/2000/svg" xmlns:xlink="http://www.w3.org/1999/xlink" contentStyleType="text/css" height="177px" preserveAspectRatio="none" style="width:224px;height:177px;background:#FFFFFF;" version="1.1" viewBox="0 0 224 177" width="224px" zoomAndPan="magnify"><defs/><g><!--class WordList--><g id="elem_WordList"><rect codeLine="1" fill="#F1F1F1" height="156.7516" id="WordList" rx="2.5" ry="2.5" style="stroke:#181818;stroke-width:0.5;" width="203" x="7" y="7"/><ellipse cx="74.75" cy="29.706" fill="#ADD1B2" rx="11" ry="11" style="stroke:#181818;stroke-width:1.0;"/><path d="M74.2188,36.6279 Q72.4688,36.6279 71.3281,35.8935 Q70.2031,35.1435 69.6406,33.7998 Q69.0938,32.4404 69.0938,30.6435 Q69.0938,28.6123 69.75,27.1591 Q70.4063,25.706 71.6875,24.9248 Q72.9688,24.1435 74.8438,24.1435 Q75.7344,24.1435 76.4063,24.331 Q77.0781,24.5029 77.7656,24.8466 L76.9531,26.8623 Q76.3281,26.5498 75.7813,26.4248 Q75.25,26.2998 74.7656,26.2998 Q73.5938,26.2998 72.8906,26.831 Q72.1875,27.3623 71.8906,28.3154 Q71.5938,29.2685 71.5938,30.5341 Q71.5938,32.5498 72.3125,33.5185 Q73.0313,34.4716 74.625,34.4716 Q75.2188,34.4716 75.8438,34.3154 Q76.4688,34.1591 77.2969,33.7841 L77.2969,36.0029 Q76.5625,36.3154 75.7656,36.4716 Q74.9844,36.6279 74.2188,36.6279 Z " fill="#000000"/><text fill="#000000" font-family="sans-serif" font-size="12" font-style="italic" lengthAdjust="spacing" textLength="40" x="104.75" y="24.8281">«static»</text><text fill="#000000" font-family="sans-serif" font-size="14" lengthAdjust="spacing" textLength="59" x="95.25" y="43.31">WordList</text><line style="stroke:#181818;stroke-width:0.5;" x1="8" x2="209" y1="52.412" y2="52.412"/><rect fill="none" height="6" style="stroke:#C82930;stroke-width:1.0;" width="6" x="15" y="64.446"/><text fill="#000000" font-family="sans-serif" font-size="14" lengthAdjust="spacing" text-decoration="underline" textLength="157" x="27" y="71.378">_words : string[]? = null</text><line style="stroke:#181818;stroke-width:0.5;" x1="8" x2="209" y1="79.4799" y2="79.4799"/><ellipse cx="18" cy="94.5139" fill="#84BE84" rx="3" ry="3" style="stroke:#038048;stroke-width:1.0;"/><text fill="#000000" font-family="sans-serif" font-size="14" lengthAdjust="spacing" text-decoration="underline" textLength="93" x="27" y="98.4459">Get() : string[]</text><ellipse cx="18" cy="113.5818" fill="#84BE84" rx="3" ry="3" style="stroke:#038048;stroke-width:1.0;"/><text fill="#000000" font-family="sans-serif" font-size="14" lengthAdjust="spacing" text-decoration="underline" textLength="177" x="27" y="117.5138">GetSized(size:int) : string[]</text><ellipse cx="18" cy="132.6497" fill="#84BE84" rx="3" ry="3" style="stroke:#038048;stroke-width:1.0;"/><text fill="#000000" font-family="sans-serif" font-size="14" lengthAdjust="spacing" text-decoration="underline" textLength="78" x="27" y="136.5817">Count() : int</text><ellipse cx="18" cy="151.7177" fill="#84BE84" rx="3" ry="3" style="stroke:#038048;stroke-width:1.0;"/><text fill="#000000" font-family="sans-serif" font-size="14" lengthAdjust="spacing" text-decoration="underline" textLength="162" x="27" y="155.6496">CountSized(size:int) : int</text></g><!--SRC=[Iyv9B2vM2CylIl79B2vHiB4fBaaioKosirEevb800bs5QeX8hK9yEL1LiOALGd59KMPUUdIilOAjGbvfJWvOeJP2eNjgYOOcaZeiyi6PLQaf6iL0qYephmIVOkVyqZo8SK25M2KnpGAfh0K0]--></g></svg>