<?xml version="1.0" encoding="UTF-8" standalone="no"?><svg xmlns="http://www.w3.org/2000/svg" xmlns:xlink="http://www.w3.org/1999/xlink" contentStyleType="text/css" height="412px" preserveAspectRatio="none" style="width:1214px;height:412px;background:#FFFFFF;" version="1.1" viewBox="0 0 1214 412" width="1214px" zoomAndPan="magnify"><defs/><g><!--class Settings--><g id="elem_Settings"><rect codeLine="1" fill="#F1F1F1" height="173.0957" id="Settings" rx="2.5" ry="2.5" style="stroke:#181818;stroke-width:0.5;" width="219" x="7" y="228"/><ellipse cx="84.75" cy="258.8781" fill="#ADD1B2" rx="11" ry="11" style="stroke:#181818;stroke-width:1.0;"/><path d="M84.2188,265.7999 Q82.4688,265.7999 81.3281,265.0656 Q80.2031,264.3156 79.6406,262.9718 Q79.0938,261.6124 79.0938,259.8156 Q79.0938,257.7843 79.75,256.3312 Q80.4063,254.8781 81.6875,254.0968 Q82.9688,253.3156 84.8438,253.3156 Q85.7344,253.3156 86.4063,253.5031 Q87.0781,253.6749 87.7656,254.0187 L86.9531,256.0343 Q86.3281,255.7218 85.7813,255.5968 Q85.25,255.4718 84.7656,255.4718 Q83.5938,255.4718 82.8906,256.0031 Q82.1875,256.5343 81.8906,257.4874 Q81.5938,258.4406 81.5938,259.7062 Q81.5938,261.7218 82.3125,262.6906 Q83.0313,263.6437 84.625,263.6437 Q85.2188,263.6437 85.8438,263.4874 Q86.4688,263.3312 87.2969,262.9562 L87.2969,265.1749 Q86.5625,265.4874 85.7656,265.6437 Q84.9844,265.7999 84.2188,265.7999 Z " fill="#000000"/><text fill="#000000" font-family="sans-serif" font-size="12" font-style="italic" lengthAdjust="spacing" textLength="47" x="109.25" y="245.8281">«record»</text><text fill="#000000" font-family="sans-serif" font-size="12" font-style="italic" lengthAdjust="spacing" textLength="42" x="111.75" y="262.1722">«struct»</text><text fill="#000000" font-family="sans-serif" font-size="14" lengthAdjust="spacing" textLength="55" x="105.25" y="280.6542">Settings</text><line style="stroke:#181818;stroke-width:0.5;" x1="8" x2="225" y1="289.7561" y2="289.7561"/><ellipse cx="18" cy="304.7901" fill="none" rx="3" ry="3" style="stroke:#038048;stroke-width:1.0;"/><text fill="#000000" font-family="sans-serif" font-size="14" lengthAdjust="spacing" textLength="141" x="27" y="308.7221">_wordLength : int = 5</text><ellipse cx="18" cy="323.858" fill="none" rx="3" ry="3" style="stroke:#038048;stroke-width:1.0;"/><text fill="#000000" font-family="sans-serif" font-size="14" lengthAdjust="spacing" textLength="145" x="27" y="327.79">_maxAnswers : int = 5</text><ellipse cx="18" cy="342.9259" fill="none" rx="3" ry="3" style="stroke:#038048;stroke-width:1.0;"/><text fill="#000000" font-family="sans-serif" font-size="14" lengthAdjust="spacing" textLength="191" x="27" y="346.8579">WordLength : int «get» «set»</text><ellipse cx="18" cy="361.9939" fill="none" rx="3" ry="3" style="stroke:#038048;stroke-width:1.0;"/><text fill="#000000" font-family="sans-serif" font-size="14" lengthAdjust="spacing" textLength="193" x="27" y="365.9258">MaxAnswers : int «get» «set»</text><line style="stroke:#181818;stroke-width:0.5;" x1="8" x2="225" y1="374.0278" y2="374.0278"/><ellipse cx="18" cy="389.0618" fill="#84BE84" rx="3" ry="3" style="stroke:#038048;stroke-width:1.0;"/><text fill="#000000" font-family="sans-serif" font-size="14" lengthAdjust="spacing" textLength="63" x="27" y="392.9937">Settings()</text></g><!--class WordList--><g id="elem_WordList"><rect codeLine="1" fill="#F1F1F1" height="156.7516" id="WordList" rx="2.5" ry="2.5" style="stroke:#181818;stroke-width:0.5;" width="203" x="870" y="7"/><ellipse cx="937.75" cy="29.706" fill="#ADD1B2" rx="11" ry="11" style="stroke:#181818;stroke-width:1.0;"/><path d="M937.2188,36.6279 Q935.4688,36.6279 934.3281,35.8935 Q933.2031,35.1435 932.6406,33.7998 Q932.0938,32.4404 932.0938,30.6435 Q932.0938,28.6123 932.75,27.1591 Q933.4063,25.706 934.6875,24.9248 Q935.9688,24.1435 937.8438,24.1435 Q938.7344,24.1435 939.4063,24.331 Q940.0781,24.5029 940.7656,24.8466 L939.9531,26.8623 Q939.3281,26.5498 938.7813,26.4248 Q938.25,26.2998 937.7656,26.2998 Q936.5938,26.2998 935.8906,26.831 Q935.1875,27.3623 934.8906,28.3154 Q934.5938,29.2685 934.5938,30.5341 Q934.5938,32.5498 935.3125,33.5185 Q936.0313,34.4716 937.625,34.4716 Q938.2188,34.4716 938.8438,34.3154 Q939.4688,34.1591 940.2969,33.7841 L940.2969,36.0029 Q939.5625,36.3154 938.7656,36.4716 Q937.9844,36.6279 937.2188,36.6279 Z " fill="#000000"/><text fill="#000000" font-family="sans-serif" font-size="12" font-style="italic" lengthAdjust="spacing" textLength="40" x="967.75" y="24.8281">«static»</text><text fill="#000000" font-family="sans-serif" font-size="14" lengthAdjust="spacing" textLength="59" x="958.25" y="43.31">WordList</text><line style="stroke:#181818;stroke-width:0.5;" x1="871" x2="1072" y1="52.412" y2="52.412"/><rect fill="none" height="6" style="stroke:#C82930;stroke-width:1.0;" width="6" x="878" y="64.446"/><text fill="#000000" font-family="sans-serif" font-size="14" lengthAdjust="spacing" text-decoration="underline" textLength="157" x="890" y="71.378">_words : string[]? = null</text><line style="stroke:#181818;stroke-width:0.5;" x1="871" x2="1072" y1="79.4799" y2="79.4799"/><ellipse cx="881" cy="94.5139" fill="#84BE84" rx="3" ry="3" style="stroke:#038048;stroke-width:1.0;"/><text fill="#000000" font-family="sans-serif" font-size="14" lengthAdjust="spacing" text-decoration="underline" textLength="93" x="890" y="98.4459">Get() : string[]</text><ellipse cx="881" cy="113.5818" fill="#84BE84" rx="3" ry="3" style="stroke:#038048;stroke-width:1.0;"/><text fill="#000000" font-family="sans-serif" font-size="14" lengthAdjust="spacing" text-decoration="underline" textLength="177" x="890" y="117.5138">GetSized(size:int) : string[]</text><ellipse cx="881" cy="132.6497" fill="#84BE84" rx="3" ry="3" style="stroke:#038048;stroke-width:1.0;"/><text fill="#000000" font-family="sans-serif" font-size="14" lengthAdjust="spacing" text-decoration="underline" textLength="78" x="890" y="136.5817">Count() : int</text><ellipse cx="881" cy="151.7177" fill="#84BE84" rx="3" ry="3" style="stroke:#038048;stroke-width:1.0;"/><text fill="#000000" font-family="sans-serif" font-size="14" lengthAdjust="spacing" text-decoration="underline" textLength="162" x="890" y="155.6496">CountSized(size:int) : int</text></g><!--class Answer--><g id="elem_Answer"><rect codeLine="1" fill="#F1F1F1" height="181.4754" id="Answer" rx="2.5" ry="2.5" style="stroke:#181818;stroke-width:0.5;" width="380" x="261.5" y="224"/><ellipse cx="422.25" cy="240" fill="#ADD1B2" rx="11" ry="11" style="stroke:#181818;stroke-width:1.0;"/><path d="M421.7188,246.9219 Q419.9688,246.9219 418.8281,246.1875 Q417.7031,245.4375 417.1406,244.0938 Q416.5938,242.7344 416.5938,240.9375 Q416.5938,238.9063 417.25,237.4531 Q417.9063,236 419.1875,235.2188 Q420.4688,234.4375 422.3438,234.4375 Q423.2344,234.4375 423.9063,234.625 Q424.5781,234.7969 425.2656,235.1406 L424.4531,237.1563 Q423.8281,236.8438 423.2813,236.7188 Q422.75,236.5938 422.2656,236.5938 Q421.0938,236.5938 420.3906,237.125 Q419.6875,237.6563 419.3906,238.6094 Q419.0938,239.5625 419.0938,240.8281 Q419.0938,242.8438 419.8125,243.8125 Q420.5313,244.7656 422.125,244.7656 Q422.7188,244.7656 423.3438,244.6094 Q423.9688,244.4531 424.7969,244.0781 L424.7969,246.2969 Q424.0625,246.6094 423.2656,246.7656 Q422.4844,246.9219 421.7188,246.9219 Z " fill="#000000"/><text fill="#000000" font-family="sans-serif" font-size="14" lengthAdjust="spacing" textLength="50" x="442.75" y="245.432">Answer</text><line style="stroke:#181818;stroke-width:0.5;" x1="262.5" x2="640.5" y1="256" y2="256"/><rect fill="none" height="6" style="stroke:#C82930;stroke-width:1.0;" width="6" x="269.5" y="268.034"/><text fill="#000000" font-family="sans-serif" font-size="14" lengthAdjust="spacing" textLength="94" x="281.5" y="274.9659">_value : string</text><rect fill="none" height="6" style="stroke:#C82930;stroke-width:1.0;" width="6" x="269.5" y="287.1019"/><text fill="#000000" font-family="sans-serif" font-size="14" lengthAdjust="spacing" textLength="90" x="281.5" y="294.0339">_locked : bool</text><ellipse cx="272.5" cy="309.1698" fill="none" rx="3" ry="3" style="stroke:#038048;stroke-width:1.0;"/><text fill="#000000" font-family="sans-serif" font-size="14" lengthAdjust="spacing" textLength="167" x="281.5" y="313.1018">Value : string «get» «set»</text><ellipse cx="272.5" cy="328.2377" fill="none" rx="3" ry="3" style="stroke:#038048;stroke-width:1.0;"/><text fill="#000000" font-family="sans-serif" font-size="14" lengthAdjust="spacing" textLength="165" x="281.5" y="332.1697">Locked : bool «get» «set»</text><line style="stroke:#181818;stroke-width:0.5;" x1="262.5" x2="640.5" y1="340.2717" y2="340.2717"/><ellipse cx="272.5" cy="355.3056" fill="#84BE84" rx="3" ry="3" style="stroke:#038048;stroke-width:1.0;"/><text fill="#000000" font-family="sans-serif" font-size="14" lengthAdjust="spacing" textLength="138" x="281.5" y="359.2376">Answer(value:string)</text><ellipse cx="272.5" cy="374.3735" fill="#84BE84" rx="3" ry="3" style="stroke:#038048;stroke-width:1.0;"/><text fill="#000000" font-family="sans-serif" font-size="14" lengthAdjust="spacing" textLength="213" x="281.5" y="378.3055">Letter(index:int) : AnswerLetter?</text><ellipse cx="272.5" cy="393.4415" fill="#84BE84" rx="3" ry="3" style="stroke:#038048;stroke-width:1.0;"/><text fill="#000000" font-family="sans-serif" font-size="14" lengthAdjust="spacing" textLength="354" x="281.5" y="397.3734">GetLetterUse(state:GameState, index:int) : LetterUse?</text></g><!--class GameState--><g id="elem_GameState"><rect codeLine="1" fill="#F1F1F1" height="67.0679" id="GameState" rx="2.5" ry="2.5" style="stroke:#181818;stroke-width:0.5;" width="220" x="341.5" y="52"/><ellipse cx="410.75" cy="68" fill="#ADD1B2" rx="11" ry="11" style="stroke:#181818;stroke-width:1.0;"/><path d="M410.2188,74.9219 Q408.4688,74.9219 407.3281,74.1875 Q406.2031,73.4375 405.6406,72.0938 Q405.0938,70.7344 405.0938,68.9375 Q405.0938,66.9063 405.75,65.4531 Q406.4063,64 407.6875,63.2188 Q408.9688,62.4375 410.8438,62.4375 Q411.7344,62.4375 412.4063,62.625 Q413.0781,62.7969 413.7656,63.1406 L412.9531,65.1563 Q412.3281,64.8438 411.7813,64.7188 Q411.25,64.5938 410.7656,64.5938 Q409.5938,64.5938 408.8906,65.125 Q408.1875,65.6563 407.8906,66.6094 Q407.5938,67.5625 407.5938,68.8281 Q407.5938,70.8438 408.3125,71.8125 Q409.0313,72.7656 410.625,72.7656 Q411.2188,72.7656 411.8438,72.6094 Q412.4688,72.4531 413.2969,72.0781 L413.2969,74.2969 Q412.5625,74.6094 411.7656,74.7656 Q410.9844,74.9219 410.2188,74.9219 Z " fill="#000000"/><text fill="#000000" font-family="sans-serif" font-size="14" lengthAdjust="spacing" textLength="73" x="431.25" y="73.432">GameState</text><line style="stroke:#181818;stroke-width:0.5;" x1="342.5" x2="560.5" y1="84" y2="84"/><line style="stroke:#181818;stroke-width:0.5;" x1="342.5" x2="560.5" y1="92" y2="92"/><ellipse cx="352.5" cy="107.034" fill="#84BE84" rx="3" ry="3" style="stroke:#038048;stroke-width:1.0;"/><text fill="#000000" font-family="sans-serif" font-size="14" lengthAdjust="spacing" textLength="194" x="361.5" y="110.9659">GameState(settings:Settings)</text></g><!--class List`1--><g id="elem_List`1"><rect codeLine="4" fill="#F1F1F1" height="48" id="List`1" rx="2.5" ry="2.5" style="stroke:#181818;stroke-width:0.5;" width="77" x="677" y="290.5"/><ellipse cx="692" cy="306.5" fill="#ADD1B2" rx="11" ry="11" style="stroke:#181818;stroke-width:1.0;"/><path d="M691.4688,313.4219 Q689.7188,313.4219 688.5781,312.6875 Q687.4531,311.9375 686.8906,310.5938 Q686.3438,309.2344 686.3438,307.4375 Q686.3438,305.4063 687,303.9531 Q687.6563,302.5 688.9375,301.7188 Q690.2188,300.9375 692.0938,300.9375 Q692.9844,300.9375 693.6563,301.125 Q694.3281,301.2969 695.0156,301.6406 L694.2031,303.6563 Q693.5781,303.3438 693.0313,303.2188 Q692.5,303.0938 692.0156,303.0938 Q690.8438,303.0938 690.1406,303.625 Q689.4375,304.1563 689.1406,305.1094 Q688.8438,306.0625 688.8438,307.3281 Q688.8438,309.3438 689.5625,310.3125 Q690.2813,311.2656 691.875,311.2656 Q692.4688,311.2656 693.0938,311.1094 Q693.7188,310.9531 694.5469,310.5781 L694.5469,312.7969 Q693.8125,313.1094 693.0156,313.2656 Q692.2344,313.4219 691.4688,313.4219 Z " fill="#000000"/><text fill="#000000" font-family="sans-serif" font-size="14" lengthAdjust="spacing" textLength="35" x="706" y="311.932">List`1</text><rect fill="#FFFFFF" height="18.3441" style="stroke:#181818;stroke-width:1.0;stroke-dasharray:2.0,2.0;" width="8" x="749" y="287.5"/><text fill="#000000" font-family="sans-serif" font-size="12" font-style="italic" lengthAdjust="spacing" textLength="6" x="750" y="301.3281">T</text><line style="stroke:#181818;stroke-width:0.5;" x1="678" x2="753" y1="322.5" y2="322.5"/><line style="stroke:#181818;stroke-width:0.5;" x1="678" x2="753" y1="330.5" y2="330.5"/></g><!--class Random--><g id="elem_Random"><rect fill="#F1F1F1" height="48" id="Random" rx="2.5" ry="2.5" style="stroke:#181818;stroke-width:0.5;" width="88" x="596.5" y="61.5"/><ellipse cx="611.5" cy="77.5" fill="#ADD1B2" rx="11" ry="11" style="stroke:#181818;stroke-width:1.0;"/><path d="M610.9688,84.4219 Q609.2188,84.4219 608.0781,83.6875 Q606.9531,82.9375 606.3906,81.5938 Q605.8438,80.2344 605.8438,78.4375 Q605.8438,76.4063 606.5,74.9531 Q607.1563,73.5 608.4375,72.7188 Q609.7188,71.9375 611.5938,71.9375 Q612.4844,71.9375 613.1563,72.125 Q613.8281,72.2969 614.5156,72.6406 L613.7031,74.6563 Q613.0781,74.3438 612.5313,74.2188 Q612,74.0938 611.5156,74.0938 Q610.3438,74.0938 609.6406,74.625 Q608.9375,75.1563 608.6406,76.1094 Q608.3438,77.0625 608.3438,78.3281 Q608.3438,80.3438 609.0625,81.3125 Q609.7813,82.2656 611.375,82.2656 Q611.9688,82.2656 612.5938,82.1094 Q613.2188,81.9531 614.0469,81.5781 L614.0469,83.7969 Q613.3125,84.1094 612.5156,84.2656 Q611.7344,84.4219 610.9688,84.4219 Z " fill="#000000"/><text fill="#000000" font-family="sans-serif" font-size="14" lengthAdjust="spacing" textLength="56" x="625.5" y="82.932">Random</text><line style="stroke:#181818;stroke-width:0.5;" x1="597.5" x2="683.5" y1="93.5" y2="93.5"/><line style="stroke:#181818;stroke-width:0.5;" x1="597.5" x2="683.5" y1="101.5" y2="101.5"/></g><!--class LetterUse--><g id="elem_LetterUse"><rect codeLine="1" fill="#F1F1F1" height="124.2717" id="LetterUse" rx="2.5" ry="2.5" style="stroke:#181818;stroke-width:0.5;" width="99" x="1108" y="23.5"/><ellipse cx="1124.35" cy="39.5" fill="#EB937F" rx="11" ry="11" style="stroke:#181818;stroke-width:1.0;"/><path d="M1120.7094,46 L1120.7094,33.8594 L1128.3656,33.8594 L1128.3656,35.9844 L1123.0844,35.9844 L1123.0844,38.6406 L1128.1,38.6406 L1128.1,40.7656 L1123.0844,40.7656 L1123.0844,43.875 L1128.3656,43.875 L1128.3656,46 L1120.7094,46 Z " fill="#000000"/><text fill="#000000" font-family="sans-serif" font-size="14" lengthAdjust="spacing" textLength="64" x="1138.65" y="44.932">LetterUse</text><line style="stroke:#181818;stroke-width:0.5;" x1="1109" x2="1206" y1="55.5" y2="55.5"/><text fill="#000000" font-family="sans-serif" font-size="14" lengthAdjust="spacing" textLength="87" x="1114" y="74.4659">Unknown= 0,</text><text fill="#000000" font-family="sans-serif" font-size="14" lengthAdjust="spacing" textLength="69" x="1114" y="93.5339">Wrong= 1,</text><text fill="#000000" font-family="sans-serif" font-size="14" lengthAdjust="spacing" textLength="79" x="1114" y="112.6018">Possible= 2,</text><text fill="#000000" font-family="sans-serif" font-size="14" lengthAdjust="spacing" textLength="74" x="1114" y="131.6697">Currect= 3,</text><line style="stroke:#181818;stroke-width:0.5;" x1="1109" x2="1206" y1="139.7717" y2="139.7717"/></g><!--class AnswerLetter--><g id="elem_AnswerLetter"><rect codeLine="1" fill="#F1F1F1" height="115.892" id="AnswerLetter" rx="2.5" ry="2.5" style="stroke:#181818;stroke-width:0.5;" width="364" x="789.5" y="256.5"/><ellipse cx="922.75" cy="287.3781" fill="#ADD1B2" rx="11" ry="11" style="stroke:#181818;stroke-width:1.0;"/><path d="M922.2188,294.2999 Q920.4688,294.2999 919.3281,293.5656 Q918.2031,292.8156 917.6406,291.4718 Q917.0938,290.1124 917.0938,288.3156 Q917.0938,286.2843 917.75,284.8312 Q918.4063,283.3781 919.6875,282.5968 Q920.9688,281.8156 922.8438,281.8156 Q923.7344,281.8156 924.4063,282.0031 Q925.0781,282.1749 925.7656,282.5187 L924.9531,284.5343 Q924.3281,284.2218 923.7813,284.0968 Q923.25,283.9718 922.7656,283.9718 Q921.5938,283.9718 920.8906,284.5031 Q920.1875,285.0343 919.8906,285.9874 Q919.5938,286.9406 919.5938,288.2062 Q919.5938,290.2218 920.3125,291.1906 Q921.0313,292.1437 922.625,292.1437 Q923.2188,292.1437 923.8438,291.9874 Q924.4688,291.8312 925.2969,291.4562 L925.2969,293.6749 Q924.5625,293.9874 923.7656,294.1437 Q922.9844,294.2999 922.2188,294.2999 Z " fill="#000000"/><text fill="#000000" font-family="sans-serif" font-size="12" font-style="italic" lengthAdjust="spacing" textLength="47" x="964.25" y="274.3281">«record»</text><text fill="#000000" font-family="sans-serif" font-size="12" font-style="italic" lengthAdjust="spacing" textLength="42" x="966.75" y="290.6722">«struct»</text><text fill="#000000" font-family="sans-serif" font-size="14" lengthAdjust="spacing" textLength="89" x="943.25" y="309.1542">AnswerLetter</text><line style="stroke:#181818;stroke-width:0.5;" x1="790.5" x2="1152.5" y1="318.2561" y2="318.2561"/><ellipse cx="800.5" cy="333.2901" fill="none" rx="3" ry="3" style="stroke:#038048;stroke-width:1.0;"/><text fill="#000000" font-family="sans-serif" font-size="14" lengthAdjust="spacing" textLength="159" x="809.5" y="337.2221">Value : char «get» «init»</text><line style="stroke:#181818;stroke-width:0.5;" x1="790.5" x2="1152.5" y1="345.3241" y2="345.3241"/><ellipse cx="800.5" cy="360.358" fill="#84BE84" rx="3" ry="3" style="stroke:#038048;stroke-width:1.0;"/><text fill="#000000" font-family="sans-serif" font-size="14" lengthAdjust="spacing" textLength="338" x="809.5" y="364.29">UseColor(state:GameState, position:int) : LetterUse</text></g><!--link GameState to Answer--><g id="link_GameState_Answer"><path codeLine="6" d="M451.5,119.02 C451.5,144.87 451.5,182.4 451.5,217.61 " fill="none" id="GameState-to-Answer" style="stroke:#181818;stroke-width:1.0;"/><polygon fill="#181818" points="451.5,222.18,455.5,213.18,451.5,217.18,447.5,213.18,451.5,222.18" style="stroke:#181818;stroke-width:1.0;"/><text fill="#000000" font-family="sans-serif" font-size="13" lengthAdjust="spacing" textLength="88" x="359.7188" y="212.0625">CorrectAnswer</text></g><!--link GameState to List`1--><g id="link_GameState_List`1"><path codeLine="7" d="M506.62,119.25 C559.64,151.4 635.25,199.13 659.5,224 C676.9,241.84 691.61,265.97 701.58,284.68 " fill="none" id="GameState-to-List`1" style="stroke:#181818;stroke-width:1.0;"/><polygon fill="#181818" points="703.82,288.96,703.1719,279.1325,701.493,284.5345,696.091,282.8556,703.82,288.96" style="stroke:#181818;stroke-width:1.0;"/><text fill="#000000" font-family="sans-serif" font-size="13" lengthAdjust="spacing" textLength="108" x="674.5391" y="270.0503">Answers&lt;Answer&gt;</text></g><!--link GameState to Settings--><g id="link_GameState_Settings"><path codeLine="8" d="M400.78,119.42 C358.49,147.02 296.77,187.63 243.5,224 C239.58,226.67 235.61,229.4 231.6,232.16 " fill="none" id="GameState-to-Settings" style="stroke:#181818;stroke-width:1.0;"/><polygon fill="#181818" points="227.74,234.82,237.4225,233.0174,231.8602,231.9874,232.8903,226.4251,227.74,234.82" style="stroke:#181818;stroke-width:1.0;"/><text fill="#000000" font-family="sans-serif" font-size="13" lengthAdjust="spacing" textLength="49" x="204.2802" y="213.7365">Settings</text></g><!--link GameState to Random--><g id="link_GameState_Random"><path codeLine="9" d="M575.39,85.5 C575.39,85.5 580.11,85.5 581.98,85.5 " fill="none" id="GameState-Random" style="stroke:#181818;stroke-width:1.0;"/><polygon fill="none" points="563.39,85.5,569.39,89.5,575.39,85.5,569.39,81.5,563.39,85.5" style="stroke:#181818;stroke-width:1.0;"/><polygon fill="#181818" points="594.76,85.5,585.76,81.5,589.76,85.5,585.76,89.5,594.76,85.5" style="stroke:#181818;stroke-width:1.0;"/><line style="stroke:#181818;stroke-width:1.0;" x1="589.76" x2="581.76" y1="85.5" y2="85.5"/><text fill="#000000" font-family="sans-serif" font-size="13" lengthAdjust="spacing" textLength="54" x="534.8577" y="72.5996">_random</text></g><!--SRC=[KypCIyufJKbLqDCFJYqfoSnBBzOhACtDuL94I8Jd5wNuP1QNO4WuvXMNfnPX2BidvgO6boIMf6B8-02jI2qABKx5OHH47Ym90000]--></g></svg>