<?xml version="1.0" encoding="us-ascii" standalone="no"?><svg xmlns="http://www.w3.org/2000/svg" xmlns:xlink="http://www.w3.org/1999/xlink" contentStyleType="text/css" height="412px" preserveAspectRatio="none" style="width:1331px;height:412px;background:#FFFFFF;" version="1.1" viewBox="0 0 1331 412" width="1331px" zoomAndPan="magnify"><defs/><g><!--class Settings--><g id="elem_Settings"><rect codeLine="1" fill="#F1F1F1" height="115.892" id="Settings" rx="2.5" ry="2.5" style="stroke:#181818;stroke-width:0.5;" width="243" x="677.5" y="56"/><ellipse cx="767.25" cy="86.8781" fill="#ADD1B2" rx="11" ry="11" style="stroke:#181818;stroke-width:1.0;"/><path d="M766.7188,93.7999 Q764.9688,93.7999 763.8281,93.0656 Q762.7031,92.3156 762.1406,90.9718 Q761.5938,89.6124 761.5938,87.8156 Q761.5938,85.7843 762.25,84.3312 Q762.9063,82.8781 764.1875,82.0968 Q765.4688,81.3156 767.3438,81.3156 Q768.2344,81.3156 768.9063,81.5031 Q769.5781,81.6749 770.2656,82.0187 L769.4531,84.0343 Q768.8281,83.7218 768.2813,83.5968 Q767.75,83.4718 767.2656,83.4718 Q766.0938,83.4718 765.3906,84.0031 Q764.6875,84.5343 764.3906,85.4874 Q764.0938,86.4406 764.0938,87.7062 Q764.0938,89.7218 764.8125,90.6906 Q765.5313,91.6437 767.125,91.6437 Q767.7188,91.6437 768.3438,91.4874 Q768.9688,91.3312 769.7969,90.9562 L769.7969,93.1749 Q769.0625,93.4874 768.2656,93.6437 Q767.4844,93.7999 766.7188,93.7999 Z " fill="#000000"/><text fill="#000000" font-family="sans-serif" font-size="12" font-style="italic" lengthAdjust="spacing" textLength="47" x="791.75" y="73.8281">&#171;record&#187;</text><text fill="#000000" font-family="sans-serif" font-size="12" font-style="italic" lengthAdjust="spacing" textLength="42" x="794.25" y="90.1722">&#171;struct&#187;</text><text fill="#000000" font-family="sans-serif" font-size="14" lengthAdjust="spacing" textLength="55" x="787.75" y="108.6542">Settings</text><line style="stroke:#181818;stroke-width:0.5;" x1="678.5" x2="919.5" y1="117.7561" y2="117.7561"/><ellipse cx="688.5" cy="132.7901" fill="none" rx="3" ry="3" style="stroke:#038048;stroke-width:1.0;"/><text fill="#000000" font-family="sans-serif" font-size="14" lengthAdjust="spacing" textLength="215" x="697.5" y="136.7221">WordLength : int &#171;get&#187; &#171;set&#187; = 5</text><ellipse cx="688.5" cy="151.858" fill="none" rx="3" ry="3" style="stroke:#038048;stroke-width:1.0;"/><text fill="#000000" font-family="sans-serif" font-size="14" lengthAdjust="spacing" textLength="217" x="697.5" y="155.79">MaxAnswers : int &#171;get&#187; &#171;set&#187; = 5</text><line style="stroke:#181818;stroke-width:0.5;" x1="678.5" x2="919.5" y1="163.892" y2="163.892"/></g><!--class WordList--><g id="elem_WordList"><rect codeLine="1" fill="#F1F1F1" height="213.9554" id="WordList" rx="2.5" ry="2.5" style="stroke:#181818;stroke-width:0.5;" width="512" x="7" y="7"/><ellipse cx="229.25" cy="29.706" fill="#ADD1B2" rx="11" ry="11" style="stroke:#181818;stroke-width:1.0;"/><path d="M228.7188,36.6279 Q226.9688,36.6279 225.8281,35.8935 Q224.7031,35.1435 224.1406,33.7998 Q223.5938,32.4404 223.5938,30.6435 Q223.5938,28.6123 224.25,27.1591 Q224.9063,25.706 226.1875,24.9248 Q227.4688,24.1435 229.3438,24.1435 Q230.2344,24.1435 230.9063,24.331 Q231.5781,24.5029 232.2656,24.8466 L231.4531,26.8623 Q230.8281,26.5498 230.2813,26.4248 Q229.75,26.2998 229.2656,26.2998 Q228.0938,26.2998 227.3906,26.831 Q226.6875,27.3623 226.3906,28.3154 Q226.0938,29.2685 226.0938,30.5341 Q226.0938,32.5498 226.8125,33.5185 Q227.5313,34.4716 229.125,34.4716 Q229.7188,34.4716 230.3438,34.3154 Q230.9688,34.1591 231.7969,33.7841 L231.7969,36.0029 Q231.0625,36.3154 230.2656,36.4716 Q229.4844,36.6279 228.7188,36.6279 Z " fill="#000000"/><text fill="#000000" font-family="sans-serif" font-size="12" font-style="italic" lengthAdjust="spacing" textLength="40" x="259.25" y="24.8281">&#171;static&#187;</text><text fill="#000000" font-family="sans-serif" font-size="14" lengthAdjust="spacing" textLength="59" x="249.75" y="43.31">WordList</text><line style="stroke:#181818;stroke-width:0.5;" x1="8" x2="518" y1="52.412" y2="52.412"/><rect fill="none" height="6" style="stroke:#C82930;stroke-width:1.0;" width="6" x="15" y="64.446"/><text fill="#000000" font-family="sans-serif" font-size="14" lengthAdjust="spacing" text-decoration="underline" textLength="144" x="27" y="71.378">_words : List&lt;string&gt;?</text><line style="stroke:#181818;stroke-width:0.5;" x1="8" x2="518" y1="79.4799" y2="79.4799"/><ellipse cx="18" cy="94.5139" fill="#84BE84" rx="3" ry="3" style="stroke:#038048;stroke-width:1.0;"/><text fill="#000000" font-family="sans-serif" font-size="14" lengthAdjust="spacing" text-decoration="underline" textLength="186" x="27" y="98.4459">Get() : IEnumerable&lt;string&gt;</text><ellipse cx="18" cy="113.5818" fill="#84BE84" rx="3" ry="3" style="stroke:#038048;stroke-width:1.0;"/><text fill="#000000" font-family="sans-serif" font-size="14" lengthAdjust="spacing" text-decoration="underline" textLength="270" x="27" y="117.5138">GetSized(size:int) : IEnumerable&lt;string&gt;</text><ellipse cx="18" cy="132.6497" fill="#84BE84" rx="3" ry="3" style="stroke:#038048;stroke-width:1.0;"/><text fill="#000000" font-family="sans-serif" font-size="14" lengthAdjust="spacing" text-decoration="underline" textLength="223" x="27" y="136.5817">GetRandomSized(size:int) : string</text><ellipse cx="18" cy="151.7177" fill="#84BE84" rx="3" ry="3" style="stroke:#038048;stroke-width:1.0;"/><text fill="#000000" font-family="sans-serif" font-size="14" lengthAdjust="spacing" text-decoration="underline" textLength="78" x="27" y="155.6496">Count() : int</text><ellipse cx="18" cy="170.7856" fill="#84BE84" rx="3" ry="3" style="stroke:#038048;stroke-width:1.0;"/><text fill="#000000" font-family="sans-serif" font-size="14" lengthAdjust="spacing" text-decoration="underline" textLength="162" x="27" y="174.7176">CountSized(size:int) : int</text><ellipse cx="18" cy="189.8535" fill="#84BE84" rx="3" ry="3" style="stroke:#038048;stroke-width:1.0;"/><text fill="#000000" font-family="sans-serif" font-size="14" lengthAdjust="spacing" text-decoration="underline" textLength="191" x="27" y="193.7855">TestWord(word:string) : bool</text><ellipse cx="18" cy="208.9214" fill="#84BE84" rx="3" ry="3" style="stroke:#038048;stroke-width:1.0;"/><text fill="#000000" font-family="sans-serif" font-size="14" lengthAdjust="spacing" text-decoration="underline" textLength="486" x="27" y="212.8534">LetterUseArray(target:string, current:string, maxLength:int) : LetterUse[]</text></g><!--class Random--><g id="elem_Random"><rect fill="#F1F1F1" height="48" id="Random" rx="2.5" ry="2.5" style="stroke:#181818;stroke-width:0.5;" width="88" x="554" y="90"/><ellipse cx="569" cy="106" fill="#ADD1B2" rx="11" ry="11" style="stroke:#181818;stroke-width:1.0;"/><path d="M568.4688,112.9219 Q566.7188,112.9219 565.5781,112.1875 Q564.4531,111.4375 563.8906,110.0938 Q563.3438,108.7344 563.3438,106.9375 Q563.3438,104.9063 564,103.4531 Q564.6563,102 565.9375,101.2188 Q567.2188,100.4375 569.0938,100.4375 Q569.9844,100.4375 570.6563,100.625 Q571.3281,100.7969 572.0156,101.1406 L571.2031,103.1563 Q570.5781,102.8438 570.0313,102.7188 Q569.5,102.5938 569.0156,102.5938 Q567.8438,102.5938 567.1406,103.125 Q566.4375,103.6563 566.1406,104.6094 Q565.8438,105.5625 565.8438,106.8281 Q565.8438,108.8438 566.5625,109.8125 Q567.2813,110.7656 568.875,110.7656 Q569.4688,110.7656 570.0938,110.6094 Q570.7188,110.4531 571.5469,110.0781 L571.5469,112.2969 Q570.8125,112.6094 570.0156,112.7656 Q569.2344,112.9219 568.4688,112.9219 Z " fill="#000000"/><text fill="#000000" font-family="sans-serif" font-size="14" lengthAdjust="spacing" textLength="56" x="583" y="111.432">Random</text><line style="stroke:#181818;stroke-width:0.5;" x1="555" x2="641" y1="122" y2="122"/><line style="stroke:#181818;stroke-width:0.5;" x1="555" x2="641" y1="130" y2="130"/></g><!--class GameState--><g id="elem_GameState"><rect codeLine="1" fill="#F1F1F1" height="162.4075" id="GameState" rx="2.5" ry="2.5" style="stroke:#181818;stroke-width:0.5;" width="220" x="1104" y="33"/><ellipse cx="1173.25" cy="49" fill="#ADD1B2" rx="11" ry="11" style="stroke:#181818;stroke-width:1.0;"/><path d="M1172.7188,55.9219 Q1170.9688,55.9219 1169.8281,55.1875 Q1168.7031,54.4375 1168.1406,53.0938 Q1167.5938,51.7344 1167.5938,49.9375 Q1167.5938,47.9063 1168.25,46.4531 Q1168.9063,45 1170.1875,44.2188 Q1171.4688,43.4375 1173.3438,43.4375 Q1174.2344,43.4375 1174.9063,43.625 Q1175.5781,43.7969 1176.2656,44.1406 L1175.4531,46.1563 Q1174.8281,45.8438 1174.2813,45.7188 Q1173.75,45.5938 1173.2656,45.5938 Q1172.0938,45.5938 1171.3906,46.125 Q1170.6875,46.6563 1170.3906,47.6094 Q1170.0938,48.5625 1170.0938,49.8281 Q1170.0938,51.8438 1170.8125,52.8125 Q1171.5313,53.7656 1173.125,53.7656 Q1173.7188,53.7656 1174.3438,53.6094 Q1174.9688,53.4531 1175.7969,53.0781 L1175.7969,55.2969 Q1175.0625,55.6094 1174.2656,55.7656 Q1173.4844,55.9219 1172.7188,55.9219 Z " fill="#000000"/><text fill="#000000" font-family="sans-serif" font-size="14" lengthAdjust="spacing" textLength="73" x="1193.75" y="54.432">GameState</text><line style="stroke:#181818;stroke-width:0.5;" x1="1105" x2="1323" y1="65" y2="65"/><ellipse cx="1115" cy="80.034" fill="none" rx="3" ry="3" style="stroke:#038048;stroke-width:1.0;"/><text fill="#000000" font-family="sans-serif" font-size="14" lengthAdjust="spacing" textLength="151" x="1124" y="83.9659">CorrectAnswer : string</text><ellipse cx="1115" cy="99.1019" fill="none" rx="3" ry="3" style="stroke:#038048;stroke-width:1.0;"/><text fill="#000000" font-family="sans-serif" font-size="14" lengthAdjust="spacing" textLength="103" x="1124" y="103.0339">CurrentTry : int</text><ellipse cx="1115" cy="118.1698" fill="none" rx="3" ry="3" style="stroke:#038048;stroke-width:1.0;"/><text fill="#000000" font-family="sans-serif" font-size="14" lengthAdjust="spacing" textLength="153" x="1124" y="122.1018">WordLength : int &#171;get&#187;</text><ellipse cx="1115" cy="137.2377" fill="none" rx="3" ry="3" style="stroke:#038048;stroke-width:1.0;"/><text fill="#000000" font-family="sans-serif" font-size="14" lengthAdjust="spacing" textLength="155" x="1124" y="141.1697">MaxAnswers : int &#171;get&#187;</text><line style="stroke:#181818;stroke-width:0.5;" x1="1105" x2="1323" y1="149.2717" y2="149.2717"/><ellipse cx="1115" cy="164.3056" fill="#84BE84" rx="3" ry="3" style="stroke:#038048;stroke-width:1.0;"/><text fill="#000000" font-family="sans-serif" font-size="14" lengthAdjust="spacing" textLength="194" x="1124" y="168.2376">GameState(settings:Settings)</text><ellipse cx="1115" cy="183.3735" fill="#84BE84" rx="3" ry="3" style="stroke:#038048;stroke-width:1.0;"/><text fill="#000000" font-family="sans-serif" font-size="14" lengthAdjust="spacing" textLength="85" x="1124" y="187.3055">Reset() : void</text></g><!--class List`1--><g id="elem_List`1"><rect codeLine="9" fill="#F1F1F1" height="48" id="List`1" rx="2.5" ry="2.5" style="stroke:#181818;stroke-width:0.5;" width="77" x="1175.5" y="319"/><ellipse cx="1190.5" cy="335" fill="#ADD1B2" rx="11" ry="11" style="stroke:#181818;stroke-width:1.0;"/><path d="M1189.9688,341.9219 Q1188.2188,341.9219 1187.0781,341.1875 Q1185.9531,340.4375 1185.3906,339.0938 Q1184.8438,337.7344 1184.8438,335.9375 Q1184.8438,333.9063 1185.5,332.4531 Q1186.1563,331 1187.4375,330.2188 Q1188.7188,329.4375 1190.5938,329.4375 Q1191.4844,329.4375 1192.1563,329.625 Q1192.8281,329.7969 1193.5156,330.1406 L1192.7031,332.1563 Q1192.0781,331.8438 1191.5313,331.7188 Q1191,331.5938 1190.5156,331.5938 Q1189.3438,331.5938 1188.6406,332.125 Q1187.9375,332.6563 1187.6406,333.6094 Q1187.3438,334.5625 1187.3438,335.8281 Q1187.3438,337.8438 1188.0625,338.8125 Q1188.7813,339.7656 1190.375,339.7656 Q1190.9688,339.7656 1191.5938,339.6094 Q1192.2188,339.4531 1193.0469,339.0781 L1193.0469,341.2969 Q1192.3125,341.6094 1191.5156,341.7656 Q1190.7344,341.9219 1189.9688,341.9219 Z " fill="#000000"/><text fill="#000000" font-family="sans-serif" font-size="14" lengthAdjust="spacing" textLength="35" x="1204.5" y="340.432">List`1</text><rect fill="#FFFFFF" height="18.3441" style="stroke:#181818;stroke-width:1.0;stroke-dasharray:2.0,2.0;" width="8" x="1247.5" y="316"/><text fill="#000000" font-family="sans-serif" font-size="12" font-style="italic" lengthAdjust="spacing" textLength="6" x="1248.5" y="329.8281">T</text><line style="stroke:#181818;stroke-width:0.5;" x1="1176.5" x2="1251.5" y1="351" y2="351"/><line style="stroke:#181818;stroke-width:0.5;" x1="1176.5" x2="1251.5" y1="359" y2="359"/></g><!--class GameStatus--><g id="elem_GameStatus"><rect codeLine="1" fill="#F1F1F1" height="105.2038" id="GameStatus" rx="2.5" ry="2.5" style="stroke:#181818;stroke-width:0.5;" width="113" x="955.5" y="61.5"/><ellipse cx="970.5" cy="77.5" fill="#EB937F" rx="11" ry="11" style="stroke:#181818;stroke-width:1.0;"/><path d="M966.8594,84 L966.8594,71.8594 L974.5156,71.8594 L974.5156,73.9844 L969.2344,73.9844 L969.2344,76.6406 L974.25,76.6406 L974.25,78.7656 L969.2344,78.7656 L969.2344,81.875 L974.5156,81.875 L974.5156,84 L966.8594,84 Z " fill="#000000"/><text fill="#000000" font-family="sans-serif" font-size="14" lengthAdjust="spacing" textLength="81" x="984.5" y="82.932">GameStatus</text><line style="stroke:#181818;stroke-width:0.5;" x1="956.5" x2="1067.5" y1="93.5" y2="93.5"/><text fill="#000000" font-family="sans-serif" font-size="14" lengthAdjust="spacing" textLength="51" x="961.5" y="112.4659">Play= 0,</text><text fill="#000000" font-family="sans-serif" font-size="14" lengthAdjust="spacing" textLength="50" x="961.5" y="131.5339">Win= 1,</text><text fill="#000000" font-family="sans-serif" font-size="14" lengthAdjust="spacing" textLength="54" x="961.5" y="150.6018">Lose= 2,</text><line style="stroke:#181818;stroke-width:0.5;" x1="956.5" x2="1067.5" y1="158.7038" y2="158.7038"/></g><!--class LetterUse--><g id="elem_LetterUse"><rect codeLine="1" fill="#F1F1F1" height="124.2717" id="LetterUse" rx="2.5" ry="2.5" style="stroke:#181818;stroke-width:0.5;" width="99" x="749.5" y="281"/><ellipse cx="765.85" cy="297" fill="#EB937F" rx="11" ry="11" style="stroke:#181818;stroke-width:1.0;"/><path d="M762.2094,303.5 L762.2094,291.3594 L769.8656,291.3594 L769.8656,293.4844 L764.5844,293.4844 L764.5844,296.1406 L769.6,296.1406 L769.6,298.2656 L764.5844,298.2656 L764.5844,301.375 L769.8656,301.375 L769.8656,303.5 L762.2094,303.5 Z " fill="#000000"/><text fill="#000000" font-family="sans-serif" font-size="14" lengthAdjust="spacing" textLength="64" x="780.15" y="302.432">LetterUse</text><line style="stroke:#181818;stroke-width:0.5;" x1="750.5" x2="847.5" y1="313" y2="313"/><text fill="#000000" font-family="sans-serif" font-size="14" lengthAdjust="spacing" textLength="87" x="755.5" y="331.9659">Unknown= 0,</text><text fill="#000000" font-family="sans-serif" font-size="14" lengthAdjust="spacing" textLength="69" x="755.5" y="351.0339">Wrong= 1,</text><text fill="#000000" font-family="sans-serif" font-size="14" lengthAdjust="spacing" textLength="79" x="755.5" y="370.1018">Possible= 2,</text><text fill="#000000" font-family="sans-serif" font-size="14" lengthAdjust="spacing" textLength="74" x="755.5" y="389.1697">Currect= 3,</text><line style="stroke:#181818;stroke-width:0.5;" x1="750.5" x2="847.5" y1="397.2717" y2="397.2717"/></g><!--link WordList to Random--><g id="link_WordList_Random"><path codeLine="11" d="M533.85,114 C535.59,114 537.33,114 539.07,114 " fill="none" id="WordList-Random" style="stroke:#181818;stroke-width:1.0;"/><polygon fill="none" points="521,114,527,118,533,114,527,110,521,114" style="stroke:#181818;stroke-width:1.0;"/><polygon fill="#181818" points="552.01,114,543.01,110,547.01,114,543.01,118,552.01,114" style="stroke:#181818;stroke-width:1.0;"/><line style="stroke:#181818;stroke-width:1.0;" x1="547.01" x2="539.01" y1="114" y2="114"/><text fill="#000000" font-family="sans-serif" font-size="13" lengthAdjust="spacing" textLength="54" x="491.8254" y="102.9836">_random</text></g><!--link GameState to List`1--><g id="link_GameState_List`1"><path codeLine="11" d="M1214,195.35 C1214,235.9 1214,282.64 1214,312.25 " fill="none" id="GameState-to-List`1" style="stroke:#181818;stroke-width:1.0;"/><polygon fill="#181818" points="1214,317.15,1218,308.15,1214,312.15,1210,308.15,1214,317.15" style="stroke:#181818;stroke-width:1.0;"/><text fill="#000000" font-family="sans-serif" font-size="13" lengthAdjust="spacing" textLength="99" x="1102.3156" y="307.2322">Answers&lt;string&gt;</text></g><!--SRC=[KypCIyufJKbLqDCFJYqfoSnBBzOhACtDuL94I8Jd5wNuP1QNO4Yu9-Qc1fSabgJYb2d5DCq7Q4rgKMWnH1C0]--></g></svg>