<?xml version="1.0" encoding="UTF-8" standalone="no"?><svg xmlns="http://www.w3.org/2000/svg" xmlns:xlink="http://www.w3.org/1999/xlink" contentStyleType="text/css" height="404px" preserveAspectRatio="none" style="width:1294px;height:404px;background:#FFFFFF;" version="1.1" viewBox="0 0 1294 404" width="1294px" zoomAndPan="magnify"><defs/><g><!--class Settings--><g id="elem_Settings"><rect codeLine="1" fill="#F1F1F1" height="173.0957" id="Settings" rx="2.5" ry="2.5" style="stroke:#181818;stroke-width:0.5;" width="219" x="7" y="224"/><ellipse cx="84.75" cy="254.8781" fill="#ADD1B2" rx="11" ry="11" style="stroke:#181818;stroke-width:1.0;"/><path d="M84.2188,261.7999 Q82.4688,261.7999 81.3281,261.0656 Q80.2031,260.3156 79.6406,258.9718 Q79.0938,257.6124 79.0938,255.8156 Q79.0938,253.7843 79.75,252.3312 Q80.4063,250.8781 81.6875,250.0968 Q82.9688,249.3156 84.8438,249.3156 Q85.7344,249.3156 86.4063,249.5031 Q87.0781,249.6749 87.7656,250.0187 L86.9531,252.0343 Q86.3281,251.7218 85.7813,251.5968 Q85.25,251.4718 84.7656,251.4718 Q83.5938,251.4718 82.8906,252.0031 Q82.1875,252.5343 81.8906,253.4874 Q81.5938,254.4406 81.5938,255.7062 Q81.5938,257.7218 82.3125,258.6906 Q83.0313,259.6437 84.625,259.6437 Q85.2188,259.6437 85.8438,259.4874 Q86.4688,259.3312 87.2969,258.9562 L87.2969,261.1749 Q86.5625,261.4874 85.7656,261.6437 Q84.9844,261.7999 84.2188,261.7999 Z " fill="#000000"/><text fill="#000000" font-family="sans-serif" font-size="12" font-style="italic" lengthAdjust="spacing" textLength="47" x="109.25" y="241.8281">«record»</text><text fill="#000000" font-family="sans-serif" font-size="12" font-style="italic" lengthAdjust="spacing" textLength="42" x="111.75" y="258.1722">«struct»</text><text fill="#000000" font-family="sans-serif" font-size="14" lengthAdjust="spacing" textLength="55" x="105.25" y="276.6542">Settings</text><line style="stroke:#181818;stroke-width:0.5;" x1="8" x2="225" y1="285.7561" y2="285.7561"/><rect fill="none" height="6" style="stroke:#C82930;stroke-width:1.0;" width="6" x="15" y="297.7901"/><text fill="#000000" font-family="sans-serif" font-size="14" lengthAdjust="spacing" textLength="141" x="27" y="304.7221">_wordLength : int = 5</text><rect fill="none" height="6" style="stroke:#C82930;stroke-width:1.0;" width="6" x="15" y="316.858"/><text fill="#000000" font-family="sans-serif" font-size="14" lengthAdjust="spacing" textLength="145" x="27" y="323.79">_maxAnswers : int = 5</text><ellipse cx="18" cy="338.9259" fill="none" rx="3" ry="3" style="stroke:#038048;stroke-width:1.0;"/><text fill="#000000" font-family="sans-serif" font-size="14" lengthAdjust="spacing" textLength="191" x="27" y="342.8579">WordLength : int «get» «set»</text><ellipse cx="18" cy="357.9939" fill="none" rx="3" ry="3" style="stroke:#038048;stroke-width:1.0;"/><text fill="#000000" font-family="sans-serif" font-size="14" lengthAdjust="spacing" textLength="193" x="27" y="361.9258">MaxAnswers : int «get» «set»</text><line style="stroke:#181818;stroke-width:0.5;" x1="8" x2="225" y1="370.0278" y2="370.0278"/><ellipse cx="18" cy="385.0618" fill="#84BE84" rx="3" ry="3" style="stroke:#038048;stroke-width:1.0;"/><text fill="#000000" font-family="sans-serif" font-size="14" lengthAdjust="spacing" textLength="63" x="27" y="388.9937">Settings()</text></g><!--class WordList--><g id="elem_WordList"><rect codeLine="1" fill="#F1F1F1" height="156.7516" id="WordList" rx="2.5" ry="2.5" style="stroke:#181818;stroke-width:0.5;" width="203" x="737" y="7"/><ellipse cx="804.75" cy="29.706" fill="#ADD1B2" rx="11" ry="11" style="stroke:#181818;stroke-width:1.0;"/><path d="M804.2188,36.6279 Q802.4688,36.6279 801.3281,35.8935 Q800.2031,35.1435 799.6406,33.7998 Q799.0938,32.4404 799.0938,30.6435 Q799.0938,28.6123 799.75,27.1591 Q800.4063,25.706 801.6875,24.9248 Q802.9688,24.1435 804.8438,24.1435 Q805.7344,24.1435 806.4063,24.331 Q807.0781,24.5029 807.7656,24.8466 L806.9531,26.8623 Q806.3281,26.5498 805.7813,26.4248 Q805.25,26.2998 804.7656,26.2998 Q803.5938,26.2998 802.8906,26.831 Q802.1875,27.3623 801.8906,28.3154 Q801.5938,29.2685 801.5938,30.5341 Q801.5938,32.5498 802.3125,33.5185 Q803.0313,34.4716 804.625,34.4716 Q805.2188,34.4716 805.8438,34.3154 Q806.4688,34.1591 807.2969,33.7841 L807.2969,36.0029 Q806.5625,36.3154 805.7656,36.4716 Q804.9844,36.6279 804.2188,36.6279 Z " fill="#000000"/><text fill="#000000" font-family="sans-serif" font-size="12" font-style="italic" lengthAdjust="spacing" textLength="40" x="834.75" y="24.8281">«static»</text><text fill="#000000" font-family="sans-serif" font-size="14" lengthAdjust="spacing" textLength="59" x="825.25" y="43.31">WordList</text><line style="stroke:#181818;stroke-width:0.5;" x1="738" x2="939" y1="52.412" y2="52.412"/><rect fill="none" height="6" style="stroke:#C82930;stroke-width:1.0;" width="6" x="745" y="64.446"/><text fill="#000000" font-family="sans-serif" font-size="14" lengthAdjust="spacing" text-decoration="underline" textLength="157" x="757" y="71.378">_words : string[]? = null</text><line style="stroke:#181818;stroke-width:0.5;" x1="738" x2="939" y1="79.4799" y2="79.4799"/><ellipse cx="748" cy="94.5139" fill="#84BE84" rx="3" ry="3" style="stroke:#038048;stroke-width:1.0;"/><text fill="#000000" font-family="sans-serif" font-size="14" lengthAdjust="spacing" text-decoration="underline" textLength="93" x="757" y="98.4459">Get() : string[]</text><ellipse cx="748" cy="113.5818" fill="#84BE84" rx="3" ry="3" style="stroke:#038048;stroke-width:1.0;"/><text fill="#000000" font-family="sans-serif" font-size="14" lengthAdjust="spacing" text-decoration="underline" textLength="177" x="757" y="117.5138">GetSized(size:int) : string[]</text><ellipse cx="748" cy="132.6497" fill="#84BE84" rx="3" ry="3" style="stroke:#038048;stroke-width:1.0;"/><text fill="#000000" font-family="sans-serif" font-size="14" lengthAdjust="spacing" text-decoration="underline" textLength="78" x="757" y="136.5817">Count() : int</text><ellipse cx="748" cy="151.7177" fill="#84BE84" rx="3" ry="3" style="stroke:#038048;stroke-width:1.0;"/><text fill="#000000" font-family="sans-serif" font-size="14" lengthAdjust="spacing" text-decoration="underline" textLength="162" x="757" y="155.6496">CountSized(size:int) : int</text></g><!--class Answer--><g id="elem_Answer"><rect codeLine="1" fill="#F1F1F1" height="162.4075" id="Answer" rx="2.5" ry="2.5" style="stroke:#181818;stroke-width:0.5;" width="380" x="261.5" y="229.5"/><ellipse cx="422.25" cy="245.5" fill="#ADD1B2" rx="11" ry="11" style="stroke:#181818;stroke-width:1.0;"/><path d="M421.7188,252.4219 Q419.9688,252.4219 418.8281,251.6875 Q417.7031,250.9375 417.1406,249.5938 Q416.5938,248.2344 416.5938,246.4375 Q416.5938,244.4063 417.25,242.9531 Q417.9063,241.5 419.1875,240.7188 Q420.4688,239.9375 422.3438,239.9375 Q423.2344,239.9375 423.9063,240.125 Q424.5781,240.2969 425.2656,240.6406 L424.4531,242.6563 Q423.8281,242.3438 423.2813,242.2188 Q422.75,242.0938 422.2656,242.0938 Q421.0938,242.0938 420.3906,242.625 Q419.6875,243.1563 419.3906,244.1094 Q419.0938,245.0625 419.0938,246.3281 Q419.0938,248.3438 419.8125,249.3125 Q420.5313,250.2656 422.125,250.2656 Q422.7188,250.2656 423.3438,250.1094 Q423.9688,249.9531 424.7969,249.5781 L424.7969,251.7969 Q424.0625,252.1094 423.2656,252.2656 Q422.4844,252.4219 421.7188,252.4219 Z " fill="#000000"/><text fill="#000000" font-family="sans-serif" font-size="14" lengthAdjust="spacing" textLength="50" x="442.75" y="250.932">Answer</text><line style="stroke:#181818;stroke-width:0.5;" x1="262.5" x2="640.5" y1="261.5" y2="261.5"/><ellipse cx="272.5" cy="276.534" fill="none" rx="3" ry="3" style="stroke:#038048;stroke-width:1.0;"/><text fill="#000000" font-family="sans-serif" font-size="14" lengthAdjust="spacing" textLength="89" x="281.5" y="280.4659">Value : string</text><rect fill="none" height="6" style="stroke:#C82930;stroke-width:1.0;" width="6" x="269.5" y="292.6019"/><text fill="#000000" font-family="sans-serif" font-size="14" lengthAdjust="spacing" textLength="90" x="281.5" y="299.5339">_locked : bool</text><ellipse cx="272.5" cy="314.6698" fill="none" rx="3" ry="3" style="stroke:#038048;stroke-width:1.0;"/><text fill="#000000" font-family="sans-serif" font-size="14" lengthAdjust="spacing" textLength="165" x="281.5" y="318.6018">Locked : bool «get» «set»</text><line style="stroke:#181818;stroke-width:0.5;" x1="262.5" x2="640.5" y1="326.7038" y2="326.7038"/><ellipse cx="272.5" cy="341.7377" fill="#84BE84" rx="3" ry="3" style="stroke:#038048;stroke-width:1.0;"/><text fill="#000000" font-family="sans-serif" font-size="14" lengthAdjust="spacing" textLength="138" x="281.5" y="345.6697">Answer(value:string)</text><ellipse cx="272.5" cy="360.8056" fill="#84BE84" rx="3" ry="3" style="stroke:#038048;stroke-width:1.0;"/><text fill="#000000" font-family="sans-serif" font-size="14" lengthAdjust="spacing" textLength="213" x="281.5" y="364.7376">Letter(index:int) : AnswerLetter?</text><ellipse cx="272.5" cy="379.8735" fill="#84BE84" rx="3" ry="3" style="stroke:#038048;stroke-width:1.0;"/><text fill="#000000" font-family="sans-serif" font-size="14" lengthAdjust="spacing" textLength="354" x="281.5" y="383.8055">GetLetterUse(state:GameState, index:int) : LetterUse?</text></g><!--class GameState--><g id="elem_GameState"><rect codeLine="1" fill="#F1F1F1" height="86.1358" id="GameState" rx="2.5" ry="2.5" style="stroke:#181818;stroke-width:0.5;" width="220" x="341.5" y="42.5"/><ellipse cx="410.75" cy="58.5" fill="#ADD1B2" rx="11" ry="11" style="stroke:#181818;stroke-width:1.0;"/><path d="M410.2188,65.4219 Q408.4688,65.4219 407.3281,64.6875 Q406.2031,63.9375 405.6406,62.5938 Q405.0938,61.2344 405.0938,59.4375 Q405.0938,57.4063 405.75,55.9531 Q406.4063,54.5 407.6875,53.7188 Q408.9688,52.9375 410.8438,52.9375 Q411.7344,52.9375 412.4063,53.125 Q413.0781,53.2969 413.7656,53.6406 L412.9531,55.6563 Q412.3281,55.3438 411.7813,55.2188 Q411.25,55.0938 410.7656,55.0938 Q409.5938,55.0938 408.8906,55.625 Q408.1875,56.1563 407.8906,57.1094 Q407.5938,58.0625 407.5938,59.3281 Q407.5938,61.3438 408.3125,62.3125 Q409.0313,63.2656 410.625,63.2656 Q411.2188,63.2656 411.8438,63.1094 Q412.4688,62.9531 413.2969,62.5781 L413.2969,64.7969 Q412.5625,65.1094 411.7656,65.2656 Q410.9844,65.4219 410.2188,65.4219 Z " fill="#000000"/><text fill="#000000" font-family="sans-serif" font-size="14" lengthAdjust="spacing" textLength="73" x="431.25" y="63.932">GameState</text><line style="stroke:#181818;stroke-width:0.5;" x1="342.5" x2="560.5" y1="74.5" y2="74.5"/><ellipse cx="352.5" cy="89.534" fill="none" rx="3" ry="3" style="stroke:#038048;stroke-width:1.0;"/><text fill="#000000" font-family="sans-serif" font-size="14" lengthAdjust="spacing" textLength="103" x="361.5" y="93.4659">CurrentTry : int</text><line style="stroke:#181818;stroke-width:0.5;" x1="342.5" x2="560.5" y1="101.5679" y2="101.5679"/><ellipse cx="352.5" cy="116.6019" fill="#84BE84" rx="3" ry="3" style="stroke:#038048;stroke-width:1.0;"/><text fill="#000000" font-family="sans-serif" font-size="14" lengthAdjust="spacing" textLength="194" x="361.5" y="120.5339">GameState(settings:Settings)</text></g><!--class List`1--><g id="elem_List`1"><rect codeLine="5" fill="#F1F1F1" height="48" id="List`1" rx="2.5" ry="2.5" style="stroke:#181818;stroke-width:0.5;" width="77" x="677" y="286.5"/><ellipse cx="692" cy="302.5" fill="#ADD1B2" rx="11" ry="11" style="stroke:#181818;stroke-width:1.0;"/><path d="M691.4688,309.4219 Q689.7188,309.4219 688.5781,308.6875 Q687.4531,307.9375 686.8906,306.5938 Q686.3438,305.2344 686.3438,303.4375 Q686.3438,301.4063 687,299.9531 Q687.6563,298.5 688.9375,297.7188 Q690.2188,296.9375 692.0938,296.9375 Q692.9844,296.9375 693.6563,297.125 Q694.3281,297.2969 695.0156,297.6406 L694.2031,299.6563 Q693.5781,299.3438 693.0313,299.2188 Q692.5,299.0938 692.0156,299.0938 Q690.8438,299.0938 690.1406,299.625 Q689.4375,300.1563 689.1406,301.1094 Q688.8438,302.0625 688.8438,303.3281 Q688.8438,305.3438 689.5625,306.3125 Q690.2813,307.2656 691.875,307.2656 Q692.4688,307.2656 693.0938,307.1094 Q693.7188,306.9531 694.5469,306.5781 L694.5469,308.7969 Q693.8125,309.1094 693.0156,309.2656 Q692.2344,309.4219 691.4688,309.4219 Z " fill="#000000"/><text fill="#000000" font-family="sans-serif" font-size="14" lengthAdjust="spacing" textLength="35" x="706" y="307.932">List`1</text><rect fill="#FFFFFF" height="18.3441" style="stroke:#181818;stroke-width:1.0;stroke-dasharray:2.0,2.0;" width="8" x="749" y="283.5"/><text fill="#000000" font-family="sans-serif" font-size="12" font-style="italic" lengthAdjust="spacing" textLength="6" x="750" y="297.3281">T</text><line style="stroke:#181818;stroke-width:0.5;" x1="678" x2="753" y1="318.5" y2="318.5"/><line style="stroke:#181818;stroke-width:0.5;" x1="678" x2="753" y1="326.5" y2="326.5"/></g><!--class Random--><g id="elem_Random"><rect fill="#F1F1F1" height="48" id="Random" rx="2.5" ry="2.5" style="stroke:#181818;stroke-width:0.5;" width="88" x="596.5" y="61.5"/><ellipse cx="611.5" cy="77.5" fill="#ADD1B2" rx="11" ry="11" style="stroke:#181818;stroke-width:1.0;"/><path d="M610.9688,84.4219 Q609.2188,84.4219 608.0781,83.6875 Q606.9531,82.9375 606.3906,81.5938 Q605.8438,80.2344 605.8438,78.4375 Q605.8438,76.4063 606.5,74.9531 Q607.1563,73.5 608.4375,72.7188 Q609.7188,71.9375 611.5938,71.9375 Q612.4844,71.9375 613.1563,72.125 Q613.8281,72.2969 614.5156,72.6406 L613.7031,74.6563 Q613.0781,74.3438 612.5313,74.2188 Q612,74.0938 611.5156,74.0938 Q610.3438,74.0938 609.6406,74.625 Q608.9375,75.1563 608.6406,76.1094 Q608.3438,77.0625 608.3438,78.3281 Q608.3438,80.3438 609.0625,81.3125 Q609.7813,82.2656 611.375,82.2656 Q611.9688,82.2656 612.5938,82.1094 Q613.2188,81.9531 614.0469,81.5781 L614.0469,83.7969 Q613.3125,84.1094 612.5156,84.2656 Q611.7344,84.4219 610.9688,84.4219 Z " fill="#000000"/><text fill="#000000" font-family="sans-serif" font-size="14" lengthAdjust="spacing" textLength="56" x="625.5" y="82.932">Random</text><line style="stroke:#181818;stroke-width:0.5;" x1="597.5" x2="683.5" y1="93.5" y2="93.5"/><line style="stroke:#181818;stroke-width:0.5;" x1="597.5" x2="683.5" y1="101.5" y2="101.5"/></g><!--class GameStatus--><g id="elem_GameStatus"><rect codeLine="1" fill="#F1F1F1" height="105.2038" id="GameStatus" rx="2.5" ry="2.5" style="stroke:#181818;stroke-width:0.5;" width="113" x="975" y="33"/><ellipse cx="990" cy="49" fill="#EB937F" rx="11" ry="11" style="stroke:#181818;stroke-width:1.0;"/><path d="M986.3594,55.5 L986.3594,43.3594 L994.0156,43.3594 L994.0156,45.4844 L988.7344,45.4844 L988.7344,48.1406 L993.75,48.1406 L993.75,50.2656 L988.7344,50.2656 L988.7344,53.375 L994.0156,53.375 L994.0156,55.5 L986.3594,55.5 Z " fill="#000000"/><text fill="#000000" font-family="sans-serif" font-size="14" lengthAdjust="spacing" textLength="81" x="1004" y="54.432">GameStatus</text><line style="stroke:#181818;stroke-width:0.5;" x1="976" x2="1087" y1="65" y2="65"/><text fill="#000000" font-family="sans-serif" font-size="14" lengthAdjust="spacing" textLength="51" x="981" y="83.9659">Play= 0,</text><text fill="#000000" font-family="sans-serif" font-size="14" lengthAdjust="spacing" textLength="50" x="981" y="103.0339">Win= 1,</text><text fill="#000000" font-family="sans-serif" font-size="14" lengthAdjust="spacing" textLength="54" x="981" y="122.1018">Lose= 2,</text><line style="stroke:#181818;stroke-width:0.5;" x1="976" x2="1087" y1="130.2038" y2="130.2038"/></g><!--class LetterUse--><g id="elem_LetterUse"><rect codeLine="1" fill="#F1F1F1" height="124.2717" id="LetterUse" rx="2.5" ry="2.5" style="stroke:#181818;stroke-width:0.5;" width="99" x="789" y="248.5"/><ellipse cx="805.35" cy="264.5" fill="#EB937F" rx="11" ry="11" style="stroke:#181818;stroke-width:1.0;"/><path d="M801.7094,271 L801.7094,258.8594 L809.3656,258.8594 L809.3656,260.9844 L804.0844,260.9844 L804.0844,263.6406 L809.1,263.6406 L809.1,265.7656 L804.0844,265.7656 L804.0844,268.875 L809.3656,268.875 L809.3656,271 L801.7094,271 Z " fill="#000000"/><text fill="#000000" font-family="sans-serif" font-size="14" lengthAdjust="spacing" textLength="64" x="819.65" y="269.932">LetterUse</text><line style="stroke:#181818;stroke-width:0.5;" x1="790" x2="887" y1="280.5" y2="280.5"/><text fill="#000000" font-family="sans-serif" font-size="14" lengthAdjust="spacing" textLength="87" x="795" y="299.4659">Unknown= 0,</text><text fill="#000000" font-family="sans-serif" font-size="14" lengthAdjust="spacing" textLength="69" x="795" y="318.5339">Wrong= 1,</text><text fill="#000000" font-family="sans-serif" font-size="14" lengthAdjust="spacing" textLength="79" x="795" y="337.6018">Possible= 2,</text><text fill="#000000" font-family="sans-serif" font-size="14" lengthAdjust="spacing" textLength="74" x="795" y="356.6697">Currect= 3,</text><line style="stroke:#181818;stroke-width:0.5;" x1="790" x2="887" y1="364.7717" y2="364.7717"/></g><!--class AnswerLetter--><g id="elem_AnswerLetter"><rect codeLine="1" fill="#F1F1F1" height="115.892" id="AnswerLetter" rx="2.5" ry="2.5" style="stroke:#181818;stroke-width:0.5;" width="364" x="923.5" y="252.5"/><ellipse cx="1056.75" cy="283.3781" fill="#ADD1B2" rx="11" ry="11" style="stroke:#181818;stroke-width:1.0;"/><path d="M1056.2188,290.2999 Q1054.4688,290.2999 1053.3281,289.5656 Q1052.2031,288.8156 1051.6406,287.4718 Q1051.0938,286.1124 1051.0938,284.3156 Q1051.0938,282.2843 1051.75,280.8312 Q1052.4063,279.3781 1053.6875,278.5968 Q1054.9688,277.8156 1056.8438,277.8156 Q1057.7344,277.8156 1058.4063,278.0031 Q1059.0781,278.1749 1059.7656,278.5187 L1058.9531,280.5343 Q1058.3281,280.2218 1057.7813,280.0968 Q1057.25,279.9718 1056.7656,279.9718 Q1055.5938,279.9718 1054.8906,280.5031 Q1054.1875,281.0343 1053.8906,281.9874 Q1053.5938,282.9406 1053.5938,284.2062 Q1053.5938,286.2218 1054.3125,287.1906 Q1055.0313,288.1437 1056.625,288.1437 Q1057.2188,288.1437 1057.8438,287.9874 Q1058.4688,287.8312 1059.2969,287.4562 L1059.2969,289.6749 Q1058.5625,289.9874 1057.7656,290.1437 Q1056.9844,290.2999 1056.2188,290.2999 Z " fill="#000000"/><text fill="#000000" font-family="sans-serif" font-size="12" font-style="italic" lengthAdjust="spacing" textLength="47" x="1098.25" y="270.3281">«record»</text><text fill="#000000" font-family="sans-serif" font-size="12" font-style="italic" lengthAdjust="spacing" textLength="42" x="1100.75" y="286.6722">«struct»</text><text fill="#000000" font-family="sans-serif" font-size="14" lengthAdjust="spacing" textLength="89" x="1077.25" y="305.1542">AnswerLetter</text><line style="stroke:#181818;stroke-width:0.5;" x1="924.5" x2="1286.5" y1="314.2561" y2="314.2561"/><ellipse cx="934.5" cy="329.2901" fill="none" rx="3" ry="3" style="stroke:#038048;stroke-width:1.0;"/><text fill="#000000" font-family="sans-serif" font-size="14" lengthAdjust="spacing" textLength="159" x="943.5" y="333.2221">Value : char «get» «init»</text><line style="stroke:#181818;stroke-width:0.5;" x1="924.5" x2="1286.5" y1="341.3241" y2="341.3241"/><ellipse cx="934.5" cy="356.358" fill="#84BE84" rx="3" ry="3" style="stroke:#038048;stroke-width:1.0;"/><text fill="#000000" font-family="sans-serif" font-size="14" lengthAdjust="spacing" textLength="338" x="943.5" y="360.29">UseColor(state:GameState, position:int) : LetterUse</text></g><!--link GameState to Answer--><g id="link_GameState_Answer"><path codeLine="7" d="M451.5,128.97 C451.5,155.51 451.5,190.65 451.5,222.87 " fill="none" id="GameState-to-Answer" style="stroke:#181818;stroke-width:1.0;"/><polygon fill="#181818" points="451.5,227.75,455.5,218.75,451.5,222.75,447.5,218.75,451.5,227.75" style="stroke:#181818;stroke-width:1.0;"/><text fill="#000000" font-family="sans-serif" font-size="13" lengthAdjust="spacing" textLength="88" x="359.3063" y="217.6288">CorrectAnswer</text></g><!--link GameState to List`1--><g id="link_GameState_List`1"><path codeLine="8" d="M522.15,128.93 C573.35,160.46 637.32,201.72 659.5,224 C676.18,240.75 690.66,263.22 700.72,280.92 " fill="none" id="GameState-to-List`1" style="stroke:#181818;stroke-width:1.0;"/><polygon fill="#181818" points="702.96,284.93,702.0614,275.1222,700.5209,280.5653,695.0778,279.0248,702.96,284.93" style="stroke:#181818;stroke-width:1.0;"/><text fill="#000000" font-family="sans-serif" font-size="13" lengthAdjust="spacing" textLength="108" x="673.3968" y="250.855">Answers&lt;Answer&gt;</text></g><!--link GameState to Settings--><g id="link_GameState_Settings"><path codeLine="9" d="M387.22,128.79 C346.07,155.91 291.57,191.93 243.5,224 C239.54,226.64 235.5,229.34 231.43,232.06 " fill="none" id="GameState-to-Settings" style="stroke:#181818;stroke-width:1.0;"/><polygon fill="#181818" points="227.52,234.68,237.2273,233.0159,231.6803,231.9065,232.7897,226.3595,227.52,234.68" style="stroke:#181818;stroke-width:1.0;"/><text fill="#000000" font-family="sans-serif" font-size="13" lengthAdjust="spacing" textLength="49" x="211.7088" y="217.4174">Settings</text></g><!--link GameState to Random--><g id="link_GameState_Random"><path codeLine="10" d="M575.39,85.5 C575.39,85.5 580.11,85.5 581.98,85.5 " fill="none" id="GameState-Random" style="stroke:#181818;stroke-width:1.0;"/><polygon fill="none" points="563.39,85.5,569.39,89.5,575.39,85.5,569.39,81.5,563.39,85.5" style="stroke:#181818;stroke-width:1.0;"/><polygon fill="#181818" points="594.76,85.5,585.76,81.5,589.76,85.5,585.76,89.5,594.76,85.5" style="stroke:#181818;stroke-width:1.0;"/><line style="stroke:#181818;stroke-width:1.0;" x1="589.76" x2="581.76" y1="85.5" y2="85.5"/><text fill="#000000" font-family="sans-serif" font-size="13" lengthAdjust="spacing" textLength="54" x="534.8577" y="72.5855">_random</text></g><!--SRC=[KypCIyufJKbLqDCFJYqfoSnBBzOhACtDuL94I8Jd5wNuP1QNO4WuvXMNfnPX2BidvgO6boIMfEAKASMqn0TeUsfHQ74g3biWyc190000]--></g></svg>